<svg id="svg-1970" xmlns="http://www.w3.org/2000/svg" xmlns:xlink="http://www.w3.org/1999/xlink" viewBox="0 0 1416 791" shape-rendering="geometricPrecision" text-rendering="geometricPrecision"><g id="svg-1970-u-1970" transform="translate(.000001 0)" opacity="0"><path id="svg-1970-s-path1" d="M1415.37,413.301c0,115.192-12.58,202.44-37.73,261.744C1352.81,734.348,1315.55,764,1265.87,764c-52.47,0-90.51-27.323-114.11-81.969-23.28-54.957-34.93-144.534-34.93-268.73C1116.83,180.434,1166.51,64,1265.87,64c51.54,0,89.26,28.8756,113.17,86.627c24.22,57.751,36.33,145.309,36.33,262.674Zm-251.03,0c0,102.462,8.07,179.308,24.22,230.539c16.45,50.921,42.22,76.381,77.31,76.381c68,0,101.99-102.307,101.99-306.92c0-203.681-33.99-305.522-101.99-305.522-35.09,0-60.86,25.15-77.31,75.449-16.15,50.3-24.22,126.991-24.22,230.073Z" fill="#e9e9e9"/><path id="svg-1970-s-path2" d="M784.764,754.685L996.208,117.56h-275.716v-43.7796h321.828v38.1906L832.269,754.685h-47.505Z" fill="#e9e9e9"/><path id="svg-1970-s-path3" d="M643.18,355.085c0,135.684-17.077,237.835-51.231,306.453C558.106,729.846,508.428,764,442.914,764c-11.488,0-23.752-1.087-36.793-3.26-12.73-2.174-21.579-4.502-26.547-6.986v-44.711c17.077,7.452,39.432,11.178,67.066,11.178c45.021,0,80.572-26.081,106.653-78.244c26.082-52.162,40.675-126.524,43.78-223.087h-3.726c-10.557,23.597-24.995,42.072-43.314,55.423s-39.432,20.026-63.34,20.026c-42.537,0-75.915-19.095-100.133-57.285s-36.327-89.732-36.327-154.624c0-67.687,13.04-120.936,39.122-159.747C415.746,83.5609,452.229,64,498.802,64c47.505,0,83.367,25.1497,107.585,75.449c24.529,49.989,36.793,121.867,36.793,215.636ZM496.008,107.779c-30.428,0-54.646,14.438-72.655,43.313-17.698,28.566-26.547,71.724-26.547,129.475c0,55.267,8.073,97.649,24.219,127.146c16.145,29.186,40.208,43.779,72.189,43.779c31.049,0,55.888-13.041,74.517-39.122c18.94-26.392,28.41-61.477,28.41-105.256c0-38.811-4.192-73.742-12.575-104.791-8.073-31.049-19.561-54.491-34.464-70.326-14.904-16.145-32.602-24.218-53.094-24.218Z" fill="#e9e9e9"/><path id="svg-1970-s-path4" d="M168.596,754.685h-45.369l.659-500.665c0-40.674-1.365-84.767,1.118-131.961-6.52,8.694-19.127,25.152-43.0346,49.06L23.7525,224.213L0,194.872L131.337,73.7804h37.259v680.9046Z" fill="#e9e9e9"/></g><line id="svg-1970-u-line-2" x1="446.317" y1="754" x2="446.317" y2="147" transform="matrix(1 0 0 0.017038 0 740.494724)" opacity="0.9" fill="none" stroke="#db3f28" stroke-width="4" stroke-dasharray="10,10"/><g id="svg-1970-u-1973" transform="translate(0 0.000001)" opacity="0"><path id="svg-1970-s-path5" d="M471.119,171h-2.617v-8.379c0-.911.046-1.96.137-3.144-.046.065-.215.263-.508.595-.287.332-.85.928-1.69,1.787l-1.484-1.621l3.799-3.515h2.363v14.277Zm10.615-8.057c0,5.502-1.839,8.252-5.517,8.252-.612,0-1.12-.052-1.524-.156v-2.236c.443.143.856.215,1.241.215c1.087,0,1.91-.378,2.47-1.133.567-.755.879-1.944.938-3.565h-.088c-.208.515-.508.918-.899,1.211-.384.287-.843.43-1.376.43-.971,0-1.722-.397-2.256-1.191-.534-.795-.801-1.885-.801-3.272c0-1.523.348-2.731,1.045-3.623.703-.892,1.64-1.338,2.812-1.338c1.276,0,2.253.55,2.93,1.651.684,1.1,1.025,2.685,1.025,4.755Zm-3.935-4.14c-.391,0-.703.211-.938.635-.228.423-.341,1.09-.341,2.001c0,.749.1,1.335.302,1.758.202.417.508.625.918.625.371,0,.694-.211.967-.634.273-.43.41-.918.41-1.465c0-.847-.12-1.543-.361-2.09-.241-.554-.56-.83-.957-.83ZM484.273,171l4.004-11.904h-4.98v-2.354h7.656v1.797L487.018,171h-2.745Zm15.596-11.064c0,.898-.221,1.653-.664,2.265-.443.606-1.068,1.026-1.875,1.26v.078c.899.143,1.592.495,2.08,1.055.495.56.742,1.321.742,2.285c0,1.315-.41,2.363-1.23,3.144-.814.782-1.93,1.172-3.35,1.172-1.263,0-2.324-.224-3.183-.674v-2.382c.429.26.895.465,1.396.615s.983.225,1.445.225c.756,0,1.325-.173,1.709-.518.385-.352.577-.905.577-1.66c0-1.426-.876-2.139-2.627-2.139h-.811v-1.982h.772c.774,0,1.367-.183,1.777-.547.417-.365.625-.908.625-1.631c0-.566-.134-.993-.4-1.279-.261-.293-.632-.44-1.114-.44-.735,0-1.452.313-2.148.938l-1.201-1.758c.963-.964,2.177-1.445,3.642-1.445c1.205,0,2.145.306,2.823.918.677.605,1.015,1.438,1.015,2.5Z" fill="#db3f28"/><path id="svg-1970-s-path6" d="M492.213,179.416c-1.074,0-1.93.57-2.568,1.709-.632,1.133-.948,2.705-.948,4.717c0,1.308.147,2.448.44,3.418s.713,1.715,1.259,2.236c.547.521,1.182.781,1.905.781.742,0,1.38-.133,1.914-.4v.879c-.508.293-1.175.439-2.002.439-.905,0-1.699-.293-2.383-.879-.677-.586-1.201-1.432-1.572-2.539-.371-1.113-.557-2.431-.557-3.955c0-2.278.404-4.069,1.211-5.371.814-1.302,1.921-1.953,3.32-1.953.873,0,1.635.202,2.286.606l-.44.839c-.547-.351-1.168-.527-1.865-.527ZM501.217,193v-7.305c0-.957-.127-1.634-.381-2.031-.247-.404-.654-.605-1.221-.605-.748,0-1.312.332-1.689.996-.378.664-.567,1.712-.567,3.144v5.801h-.927v-15.195h.927v4.931c0,.45-.013.824-.039,1.123h.078c.209-.527.521-.934.938-1.22.423-.293.863-.44,1.318-.44.899,0,1.537.293,1.914.879.378.586.567,1.458.567,2.617v7.305h-.918Zm4.638,0h-.927v-10.596h.927v10.596Zm-1.064-13.535c0-.293.059-.521.176-.684.123-.163.28-.244.469-.244.175,0,.315.081.419.244.105.163.157.391.157.684c0,.28-.052.504-.157.674-.104.162-.244.244-.419.244-.189,0-.346-.082-.469-.244-.117-.17-.176-.394-.176-.674ZM509.625,193h-.928v-15.195h.928v15.195Zm5.85.195c-1.12,0-1.983-.475-2.588-1.425-.599-.958-.899-2.289-.899-3.995c0-1.81.267-3.19.801-4.14.54-.957,1.315-1.436,2.324-1.436.879,0,1.573.42,2.08,1.26.508.833.762,1.96.762,3.379v.859h-5.019c.013,1.543.231,2.699.654,3.467s1.064,1.152,1.924,1.152c.664,0,1.364-.218,2.099-.654v.899c-.677.423-1.39.634-2.138.634Zm-.42-10.156c-1.276,0-1.976,1.273-2.1,3.818h4.072c0-1.165-.179-2.093-.537-2.783-.351-.69-.83-1.035-1.435-1.035Z"/><rect id="svg-1970-s-rect1" width="17" height="17" rx="0" ry="0" transform="translate(465.683 177)" fill="#db3f28"/></g><rect id="svg-1970-s-rect2" width="1290" height="21" rx="0" ry="0" transform="translate(125 743)" fill="#db3f28"/><rect id="svg-1970-s-rect3" width="212" height="21" rx="0" ry="0" transform="translate(604.317 743)" fill="#db3f28"/><line id="svg-1970-u-line-3" x1="706.317" y1="764.003" x2="706.317" y2="147" transform="matrix(1 0 0 0.031974 0 739.63769)" fill="none" stroke="#db3f28" stroke-width="4" stroke-dasharray="10,10"/><g id="svg-1970-u-1976" opacity="0"><path id="svg-1970-s-path7" d="M733.119,171h-2.617v-8.379c0-.911.046-1.96.137-3.144-.046.065-.215.263-.508.595-.287.332-.85.928-1.69,1.787l-1.484-1.621l3.799-3.515h2.363v14.277Zm10.615-8.057c0,5.502-1.839,8.252-5.517,8.252-.612,0-1.12-.052-1.524-.156v-2.236c.443.143.856.215,1.241.215c1.087,0,1.91-.378,2.47-1.133.567-.755.879-1.944.938-3.565h-.088c-.208.515-.508.918-.899,1.211-.384.287-.843.43-1.376.43-.971,0-1.722-.397-2.256-1.191-.534-.795-.801-1.885-.801-3.272c0-1.523.348-2.731,1.045-3.623.703-.892,1.64-1.338,2.812-1.338c1.276,0,2.253.55,2.93,1.651.684,1.1,1.025,2.685,1.025,4.755Zm-3.935-4.14c-.391,0-.703.211-.938.635-.228.423-.341,1.09-.341,2.001c0,.749.1,1.335.302,1.758.202.417.508.625.918.625.371,0,.694-.211.967-.634.273-.43.41-.918.41-1.465c0-.847-.12-1.543-.361-2.09-.241-.554-.56-.83-.957-.83ZM746.273,171l4.004-11.904h-4.98v-2.354h7.656v1.797L749.018,171h-2.745Zm8.223-6.064c0-2.911.453-5.036,1.358-6.377.904-1.348,2.285-2.022,4.14-2.022.293,0,.586.02.879.059.293.032.514.068.664.107v2.197c-.449-.104-.892-.156-1.328-.156-.742,0-1.351.163-1.826.488-.475.326-.837.814-1.084,1.465-.248.645-.397,1.553-.449,2.725h.107c.228-.54.54-.947.938-1.221.397-.28.856-.42,1.376-.42.958,0,1.703.391,2.237,1.172.534.775.801,1.885.801,3.33c0,1.511-.352,2.709-1.055,3.594-.703.879-1.657,1.318-2.861,1.318-1.276,0-2.247-.527-2.911-1.582-.657-1.054-.986-2.614-.986-4.677Zm3.916,4.023c.391,0,.703-.215.938-.645.24-.429.361-1.1.361-2.011c0-.736-.107-1.315-.322-1.739-.209-.429-.528-.644-.957-.644-.384,0-.697.198-.938.596-.241.397-.361.898-.361,1.504c0,.95.11,1.679.332,2.187.228.501.543.752.947.752Z" fill="#db3f28"/><path id="svg-1970-s-path8" d="M757.055,178.723v9.638c0,3.223-1.153,4.834-3.457,4.834-1.153,0-2.032-.416-2.637-1.25-.606-.833-.908-2.028-.908-3.584v-9.638h.967v9.756c0,1.236.221,2.181.664,2.832.449.644,1.087.966,1.914.966.82,0,1.442-.322,1.865-.966.423-.651.635-1.609.635-2.872v-9.716h.957Zm5.8,3.476c.333,0,.642.046.928.137l-.224.928c-.235-.098-.476-.147-.723-.147-.358,0-.693.186-1.006.557-.306.364-.547.875-.723,1.533-.175.658-.263,1.383-.263,2.178v5.615h-.928v-10.596h.762l.097,1.856h.069c.495-1.374,1.165-2.061,2.011-2.061Zm3.418.205v6.914c0,1.049.124,1.814.372,2.295.253.482.641.723,1.162.723.8,0,1.386-.322,1.757-.967.378-.651.567-1.699.567-3.144v-5.821h.918v10.596h-.781l-.118-1.484h-.078c-.228.54-.543.957-.947,1.25-.404.286-.843.429-1.318.429-.853,0-1.478-.302-1.875-.908-.391-.605-.586-1.595-.586-2.969v-6.914h.927Zm13.155,0v.655l-1.446.166c.196.254.355.618.479,1.093.124.469.185.951.185,1.446c0,1.028-.234,1.862-.703,2.5-.462.638-1.074.957-1.836.957h-.234l-.205-.02c-.313.222-.56.443-.742.664-.176.222-.264.479-.264.772c0,.299.117.534.352.703.234.163.55.244.947.244h.664c.944,0,1.676.244,2.197.732.521.489.782,1.195.782,2.12c0,1.035-.352,1.855-1.055,2.46-.697.606-1.618.909-2.764.909-.957,0-1.693-.244-2.207-.733-.514-.482-.771-1.178-.771-2.09c0-.664.169-1.233.507-1.709.339-.468.87-.839,1.592-1.113-.325-.143-.589-.342-.791-.596-.195-.253-.293-.556-.293-.908c0-.319.104-.602.313-.849.215-.254.517-.524.908-.811-.54-.247-.951-.648-1.231-1.201-.273-.553-.41-1.205-.41-1.953c0-1.127.238-2.015.713-2.666s1.127-.977,1.953-.977c.443,0,.814.069,1.114.205h2.246Zm-5.703,12.5c0,.671.172,1.195.517,1.573.352.377.879.566,1.582.566.873,0,1.563-.228,2.071-.684.514-.455.771-1.08.771-1.875c0-.638-.176-1.132-.527-1.484-.345-.345-.85-.518-1.514-.518h-.684c-.638,0-1.168.222-1.591.664-.417.45-.625,1.036-.625,1.758Zm.576-9.043c0,.866.159,1.524.478,1.973.319.443.742.664,1.27.664c1.133,0,1.699-.911,1.699-2.734c0-.879-.146-1.566-.439-2.061-.287-.495-.707-.742-1.26-.742-.567,0-1,.254-1.299.762-.299.507-.449,1.22-.449,2.138Zm7.715-3.457v6.914c0,1.049.123,1.814.371,2.295.254.482.641.723,1.162.723.801,0,1.387-.322,1.758-.967.377-.651.566-1.699.566-3.144v-5.821h.918v10.596h-.781l-.117-1.484h-.079c-.227.54-.543.957-.947,1.25-.403.286-.843.429-1.318.429-.853,0-1.478-.302-1.875-.908-.391-.605-.586-1.595-.586-2.969v-6.914h.928ZM793.725,193l-.118-1.484h-.039c-.507,1.119-1.276,1.679-2.304,1.679-.69,0-1.247-.273-1.67-.82-.417-.553-.625-1.292-.625-2.217c0-1.009.302-1.806.908-2.392.605-.593,1.455-.915,2.549-.967l1.142-.059v-.879c0-.989-.123-1.709-.371-2.158-.247-.456-.657-.683-1.23-.683-.606,0-1.224.198-1.856.595l-.4-.732c.736-.456,1.507-.684,2.314-.684.873,0,1.501.277,1.885.83.384.547.576,1.465.576,2.754v7.217h-.761Zm-2.256-.596c.664,0,1.178-.325,1.543-.976.371-.658.556-1.586.556-2.783v-1.104l-1.103.059c-.853.045-1.488.283-1.904.712-.411.424-.616,1.045-.616,1.866c0,.768.137,1.331.41,1.689.274.358.645.537,1.114.537Zm7.138.576l-2.646-10.576h.937l1.602,6.612c.189.794.371,1.689.547,2.685h.078c.124-.866.296-1.767.518-2.705l1.562-6.592h.938l-3.096,12.598c-.228.931-.527,1.631-.899,2.1-.364.468-.852.703-1.464.703-.248,0-.528-.056-.84-.166v-.84c.26.091.514.137.761.137.391,0,.7-.17.928-.508.228-.332.43-.869.606-1.612l.468-1.836ZM755.58,215l-1.26-5.176h-3.466L749.613,215h-.996l3.438-14.277h.986L756.557,215h-.977Zm-1.484-6.143l-1.26-5.322c-.13-.599-.231-1.165-.303-1.699-.058.566-.15,1.133-.273,1.699l-1.221,5.322h3.057Zm6.826-4.658c.332,0,.641.046.928.137l-.225.928c-.234-.098-.475-.147-.723-.147-.358,0-.693.186-1.006.557-.306.364-.546.875-.722,1.533s-.264,1.383-.264,2.178v5.615h-.928v-10.596h.762l.098,1.856h.068c.495-1.374,1.166-2.061,2.012-2.061Zm8.076.205v.655l-1.445.166c.195.254.355.618.478,1.093.124.469.186.951.186,1.446c0,1.028-.235,1.862-.703,2.5-.463.638-1.075.957-1.836.957h-.235l-.205-.02c-.312.222-.56.443-.742.664-.176.222-.264.479-.264.772c0,.299.118.534.352.703.234.163.55.244.947.244h.664c.944,0,1.677.244,2.198.732.52.489.781,1.195.781,2.12c0,1.035-.352,1.855-1.055,2.46-.696.606-1.618.909-2.764.909-.957,0-1.692-.244-2.207-.733-.514-.482-.771-1.178-.771-2.09c0-.664.169-1.233.508-1.709.338-.468.869-.839,1.592-1.113-.326-.143-.59-.342-.791-.596-.196-.253-.293-.556-.293-.908c0-.319.104-.602.312-.849.215-.254.518-.524.908-.811-.54-.247-.95-.648-1.23-1.201-.274-.553-.41-1.205-.41-1.953c0-1.127.237-2.015.713-2.666.475-.651,1.126-.977,1.953-.977.442,0,.813.069,1.113.205h2.246Zm-5.703,12.5c0,.671.172,1.195.517,1.573.352.377.879.566,1.583.566.872,0,1.562-.228,2.07-.684.514-.455.771-1.08.771-1.875c0-.638-.175-1.132-.527-1.484-.345-.345-.85-.518-1.514-.518h-.683c-.638,0-1.169.222-1.592.664-.417.45-.625,1.036-.625,1.758Zm.576-9.043c0,.866.16,1.524.479,1.973.319.443.742.664,1.269.664c1.133,0,1.699-.911,1.699-2.734c0-.879-.146-1.566-.439-2.061-.287-.495-.706-.742-1.26-.742-.566,0-.999.254-1.299.762-.299.507-.449,1.22-.449,2.138Zm9.834,7.334c-1.12,0-1.982-.475-2.588-1.425-.599-.958-.898-2.289-.898-3.995c0-1.81.267-3.19.801-4.14.54-.957,1.315-1.436,2.324-1.436.879,0,1.572.42,2.08,1.26.508.833.762,1.96.762,3.379v.859h-5.02c.013,1.543.231,2.699.654,3.467s1.065,1.152,1.924,1.152c.664,0,1.364-.218,2.1-.654v.899c-.677.423-1.39.634-2.139.634Zm-.42-10.156c-1.276,0-1.976,1.273-2.099,3.818h4.072c0-1.165-.179-2.093-.537-2.783-.352-.69-.83-1.035-1.436-1.035ZM783.334,215v-7.305c0-1.757-.521-2.636-1.563-2.636-.794,0-1.376.328-1.748.986-.364.657-.546,1.702-.546,3.135v5.82h-.928v-10.596h.781l.078,1.475h.088c.221-.534.54-.947.957-1.24s.863-.44,1.338-.44c.82,0,1.436.277,1.846.83.41.547.615,1.429.615,2.647v7.324h-.918Zm5.654-.664c.287,0,.541-.039.762-.117v.781c-.286.13-.654.195-1.104.195-1.093,0-1.64-.817-1.64-2.451v-7.519h-.957v-.547l.937-.274.303-2.519h.645v2.519h1.679v.821h-1.679v7.255c0,.717.078,1.205.234,1.465.156.261.43.391.82.391Zm3.379.664h-.928v-10.596h.928v10.596Zm-1.064-13.535c0-.293.058-.521.176-.684.123-.163.279-.244.468-.244.176,0,.316.081.42.244s.156.391.156.684c0,.28-.052.504-.156.674-.104.162-.244.244-.42.244-.189,0-.345-.082-.468-.244-.118-.17-.176-.394-.176-.674ZM799.994,215v-7.305c0-1.757-.521-2.636-1.562-2.636-.795,0-1.377.328-1.748.986-.365.657-.547,1.702-.547,3.135v5.82h-.928v-10.596h.781l.078,1.475h.088c.222-.534.541-.947.957-1.24.417-.293.863-.44,1.338-.44.82,0,1.436.277,1.846.83.41.547.615,1.429.615,2.647v7.324h-.918Zm7.813,0l-.118-1.484h-.039c-.507,1.119-1.276,1.679-2.304,1.679-.69,0-1.247-.273-1.67-.82-.417-.553-.625-1.292-.625-2.217c0-1.009.303-1.806.908-2.392.605-.593,1.455-.915,2.549-.967l1.142-.059v-.879c0-.989-.123-1.709-.371-2.158-.247-.456-.657-.683-1.23-.683-.606,0-1.224.198-1.856.595l-.4-.732c.736-.456,1.507-.684,2.314-.684.873,0,1.501.277,1.885.83.384.547.576,1.465.576,2.754v7.217h-.761Zm-2.256-.596c.664,0,1.178-.325,1.543-.976.371-.658.556-1.586.556-2.783v-1.104l-1.103.059c-.853.045-1.488.283-1.904.712-.411.424-.616,1.045-.616,1.866c0,.768.137,1.331.411,1.689.273.358.644.537,1.113.537Z"/><rect id="svg-1970-s-rect4" width="17" height="17" rx="0" ry="0" transform="translate(727.683 177)" fill="#db3f28"/><rect id="svg-1970-s-rect5" width="17" height="17" rx="0" ry="0" transform="translate(728 199)" fill="#db3f28"/></g><line id="svg-1970-u-line-4" x1="1031.32" y1="764.068" x2="1031.32" y2="146.932" transform="matrix(1 0 0-.017313 0 766.545346)" opacity="0.9" fill="none" stroke="#db3f28" stroke-width="4" stroke-dasharray="10,10"/><g id="svg-1970-u-1979" opacity="0"><path id="svg-1970-s-path9" d="M1056.12,171h-2.62v-8.379c0-.911.05-1.96.14-3.145-.05.066-.22.264-.51.596s-.85.928-1.69,1.787l-1.48-1.621l3.8-3.515h2.36v14.277Zm10.61-8.057c0,5.502-1.83,8.252-5.51,8.252-.62,0-1.12-.052-1.53-.156v-2.236c.45.143.86.214,1.24.214c1.09,0,1.91-.377,2.47-1.132.57-.756.88-1.944.94-3.565h-.09c-.2.515-.5.918-.89,1.211-.39.287-.85.43-1.38.43-.97,0-1.72-.397-2.26-1.192-.53-.794-.8-1.884-.8-3.271c0-1.524.35-2.731,1.05-3.623s1.64-1.338,2.81-1.338c1.28,0,2.25.55,2.93,1.65.68,1.101,1.02,2.686,1.02,4.756Zm-3.93-4.14c-.39,0-.7.211-.94.634-.23.424-.34,1.091-.34,2.002c0,.749.1,1.335.3,1.758.2.417.51.625.92.625.37,0,.69-.211.97-.635.27-.429.41-.918.41-1.464c0-.847-.12-1.543-.36-2.09-.25-.554-.56-.83-.96-.83ZM1069.27,171l4.01-11.904h-4.98v-2.354h7.65v1.797L1072.02,171h-2.75Zm15.98-8.057c0,5.502-1.84,8.252-5.52,8.252-.61,0-1.12-.052-1.52-.156v-2.236c.44.143.86.214,1.24.214c1.09,0,1.91-.377,2.47-1.132.57-.756.88-1.944.94-3.565h-.09c-.21.515-.51.918-.9,1.211-.38.287-.84.43-1.38.43-.97,0-1.72-.397-2.25-1.192-.54-.794-.8-1.884-.8-3.271c0-1.524.35-2.731,1.04-3.623.71-.892,1.64-1.338,2.81-1.338c1.28,0,2.26.55,2.93,1.65.69,1.101,1.03,2.686,1.03,4.756Zm-3.94-4.14c-.39,0-.7.211-.93.634-.23.424-.34,1.091-.34,2.002c0,.749.1,1.335.3,1.758.2.417.51.625.92.625.37,0,.69-.211.96-.635.28-.429.41-.918.41-1.464c0-.847-.12-1.543-.36-2.09-.24-.554-.56-.83-.96-.83Z" fill="#db3f28"/><path id="svg-1970-s-path10" d="M1080.7,193h-1.22l-5.4-12.803h-.08c.08.886.12,1.738.12,2.559v10.244h-.94v-14.277h1.24l5.36,12.656h.06c-.05-1.068-.08-1.96-.08-2.676v-9.98h.94v14.277Zm3.91,0h-.93v-10.596h.93v10.596Zm-1.07-13.535c0-.293.06-.521.18-.684s.28-.244.47-.244c.17,0,.31.081.42.244.1.163.15.391.15.684c0,.28-.05.504-.15.674-.11.162-.25.244-.42.244-.19,0-.35-.082-.47-.244-.12-.17-.18-.394-.18-.674Zm6.63,13.73c-1.06,0-1.86-.459-2.4-1.377-.53-.924-.8-2.278-.8-4.062c0-1.81.27-3.187.81-4.131.55-.951,1.35-1.426,2.41-1.426.66,0,1.21.121,1.64.361l-.36.821c-.44-.202-.84-.303-1.2-.303-1.56,0-2.33,1.553-2.33,4.658c0,3.08.77,4.619,2.33,4.619.46,0,.96-.104,1.5-.312v.781c-.21.117-.48.208-.79.274-.31.065-.58.097-.81.097Zm7.59-.195l-.12-1.484h-.04c-.5,1.119-1.27,1.679-2.3,1.679-.69,0-1.25-.273-1.67-.82-.42-.554-.63-1.292-.63-2.217c0-1.009.31-1.807.91-2.392.61-.593,1.46-.915,2.55-.967l1.14-.059v-.879c0-.989-.12-1.709-.37-2.158-.24-.456-.66-.684-1.23-.684-.6,0-1.22.199-1.85.596l-.4-.732c.73-.456,1.5-.684,2.31-.684.87,0,1.5.277,1.89.83.38.547.57,1.465.57,2.754v7.217h-.76Zm-2.26-.596c.67,0,1.18-.325,1.55-.976.37-.658.55-1.586.55-2.784v-1.103l-1.1.058c-.85.046-1.49.284-1.9.713-.41.424-.62,1.045-.62,1.866c0,.768.14,1.331.41,1.689s.65.537,1.11.537Zm8.75-10.205c.34,0,.65.046.93.137l-.22.928c-.24-.098-.48-.147-.73-.147-.35,0-.69.186-1,.557-.31.364-.55.875-.72,1.533-.18.657-.27,1.383-.27,2.178v5.615h-.93v-10.596h.77l.09,1.856h.07c.5-1.374,1.17-2.061,2.01-2.061ZM1110.88,193l-.11-1.484h-.04c-.51,1.119-1.28,1.679-2.31,1.679-.69,0-1.24-.273-1.67-.82-.41-.554-.62-1.292-.62-2.217c0-1.009.3-1.807.91-2.392.6-.593,1.45-.915,2.55-.967l1.14-.059v-.879c0-.989-.13-1.709-.37-2.158-.25-.456-.66-.684-1.23-.684-.61,0-1.23.199-1.86.596l-.4-.732c.74-.456,1.51-.684,2.32-.684.87,0,1.5.277,1.88.83.38.547.58,1.465.58,2.754v7.217h-.77Zm-2.25-.596c.66,0,1.18-.325,1.54-.976.37-.658.56-1.586.56-2.784v-1.103l-1.11.058c-.85.046-1.48.284-1.9.713-.41.424-.61,1.045-.61,1.866c0,.768.13,1.331.41,1.689.27.358.64.537,1.11.537Zm11.36-10v.654l-1.45.166c.2.254.36.619.48,1.094.12.469.19.951.19,1.446c0,1.028-.24,1.862-.71,2.5-.46.638-1.07.957-1.83.957h-.24l-.2-.02c-.32.221-.56.443-.75.664-.17.221-.26.479-.26.772c0,.299.12.533.35.703.24.162.55.244.95.244h.66c.95,0,1.68.244,2.2.732.52.489.78,1.195.78,2.119c0,1.036-.35,1.856-1.05,2.461-.7.606-1.62.909-2.77.909-.95,0-1.69-.245-2.2-.733-.52-.482-.77-1.178-.77-2.09c0-.664.16-1.233.5-1.709.34-.468.87-.84,1.59-1.113-.32-.143-.58-.342-.79-.596-.19-.254-.29-.556-.29-.908c0-.319.11-.602.31-.849.22-.254.52-.525.91-.811-.54-.247-.95-.648-1.23-1.201-.27-.554-.41-1.205-.41-1.953c0-1.127.24-2.015.71-2.666.48-.651,1.13-.977,1.96-.977.44,0,.81.068,1.11.205h2.25Zm-5.71,12.5c0,.671.18,1.195.52,1.572.35.378.88.567,1.58.567.88,0,1.57-.228,2.07-.684.52-.455.77-1.08.77-1.875c0-.638-.17-1.133-.52-1.484-.35-.345-.85-.518-1.52-.518h-.68c-.64,0-1.17.222-1.59.664-.42.45-.63,1.036-.63,1.758Zm.58-9.043c0,.866.16,1.524.48,1.973.32.443.74.664,1.27.664c1.13,0,1.7-.912,1.7-2.734c0-.879-.15-1.566-.44-2.061s-.71-.742-1.26-.742c-.57,0-1,.254-1.3.762-.3.507-.45,1.22-.45,2.138Zm7.71-3.457v6.914c0,1.048.13,1.813.38,2.295s.64.723,1.16.723c.8,0,1.38-.322,1.76-.967.37-.651.56-1.699.56-3.145v-5.82h.92v10.596h-.78l-.12-1.484h-.08c-.22.54-.54.957-.94,1.25-.41.286-.85.429-1.32.429-.86,0-1.48-.303-1.88-.908-.39-.605-.58-1.595-.58-2.969v-6.914h.92ZM1134.28,193l-.11-1.484h-.04c-.51,1.119-1.28,1.679-2.31,1.679-.69,0-1.24-.273-1.67-.82-.41-.554-.62-1.292-.62-2.217c0-1.009.3-1.807.91-2.392.6-.593,1.45-.915,2.54-.967l1.15-.059v-.879c0-.989-.13-1.709-.37-2.158-.25-.456-.66-.684-1.23-.684-.61,0-1.23.199-1.86.596l-.4-.732c.74-.456,1.51-.684,2.31-.684.88,0,1.5.277,1.89.83.38.547.57,1.465.57,2.754v7.217h-.76Zm-2.25-.596c.66,0,1.18-.325,1.54-.976.37-.658.56-1.586.56-2.784v-1.103l-1.11.058c-.85.046-1.48.284-1.9.713-.41.424-.62,1.045-.62,1.866c0,.768.14,1.331.41,1.689.28.358.65.537,1.12.537Z"/><circle id="svg-1970-s-circle1" r="8.5" transform="translate(1059.5 186.305001)" fill="#db3f28"/></g><line id="svg-1970-u-line-1" x1="181.317" y1="764" x2="181.317" y2="142" transform="matrix(1 0 0 0.016976 0 751.097182)" fill="none" stroke="#db3f28" stroke-width="4" stroke-dasharray="10,10"/><g id="svg-1970-u-1970-data" transform="translate(0 0.000001)" opacity="0"><path id="svg-1970-s-path11" d="M208.437,171h-2.618v-8.379c0-.911.046-1.96.137-3.144-.046.065-.215.263-.508.595-.286.332-.849.928-1.689,1.787l-1.485-1.621l3.799-3.515h2.364v14.277Zm10.615-8.057c0,5.502-1.839,8.252-5.518,8.252-.612,0-1.12-.052-1.523-.156v-2.236c.442.143.856.215,1.24.215c1.087,0,1.911-.378,2.471-1.133.566-.755.879-1.944.937-3.565h-.088c-.208.515-.508.918-.898,1.211-.384.287-.843.43-1.377.43-.97,0-1.722-.397-2.256-1.191-.534-.795-.801-1.885-.801-3.272c0-1.523.349-2.731,1.045-3.623.703-.892,1.641-1.338,2.813-1.338c1.276,0,2.252.55,2.929,1.651.684,1.1,1.026,2.685,1.026,4.755Zm-3.936-4.14c-.39,0-.703.211-.937.635-.228.423-.342,1.09-.342,2.001c0,.749.101,1.335.303,1.758.201.417.507.625.918.625.371,0,.693-.211.966-.634.274-.43.411-.918.411-1.465c0-.847-.121-1.543-.362-2.09-.241-.554-.56-.83-.957-.83ZM221.591,171l4.004-11.904h-4.981v-2.354h7.657v1.797L224.335,171h-2.744Zm14.619,0h-2.617v-8.379c0-.911.045-1.96.136-3.144-.045.065-.214.263-.507.595-.287.332-.85.928-1.69,1.787l-1.484-1.621l3.799-3.515h2.363v14.277Z" fill="#db3f28"/><path id="svg-1970-s-path12" d="M225.497,178.723h2.734c1.12,0,1.98.286,2.579.859.605.573.908,1.419.908,2.539c0,1.934-.707,3.04-2.119,3.32v.079c.813.169,1.419.533,1.816,1.093.397.554.596,1.328.596,2.325c0,1.276-.283,2.272-.85,2.988-.566.716-1.361,1.074-2.383,1.074h-3.281v-14.277Zm.957,6.357h1.797c.892,0,1.527-.244,1.904-.732.384-.495.576-1.244.576-2.246c0-.808-.211-1.426-.634-1.856-.417-.43-1.039-.644-1.866-.644h-1.777v5.478Zm0,.879v6.162h2.197c1.576,0,2.364-1.068,2.364-3.203c0-.951-.231-1.68-.694-2.188-.462-.514-1.11-.771-1.943-.771h-1.924Zm13.731,1.719c0,1.784-.284,3.151-.85,4.101-.56.944-1.364,1.416-2.412,1.416-1.035,0-1.83-.472-2.383-1.416-.547-.95-.82-2.317-.82-4.101c0-3.653,1.08-5.479,3.242-5.479c1.016,0,1.807.479,2.373,1.436s.85,2.304.85,4.043Zm-5.498,0c0,1.53.182,2.685.546,3.467.365.781.935,1.171,1.709,1.171c1.517,0,2.276-1.546,2.276-4.638c0-3.067-.759-4.6-2.276-4.6-.794,0-1.37.384-1.728,1.152-.352.769-.527,1.918-.527,3.448ZM243.446,193h-.927v-15.195h.927v15.195Zm3.77,0h-.928v-10.596h.928v10.596Zm-1.065-13.535c0-.293.059-.521.176-.684.124-.163.28-.244.469-.244.176,0,.316.081.42.244s.156.391.156.684c0,.28-.052.504-.156.674-.104.162-.244.244-.42.244-.189,0-.345-.082-.469-.244-.117-.17-.176-.394-.176-.674ZM251.239,193l-2.5-10.596h.938l1.582,6.817c.182.787.358,1.647.527,2.578h.078c.046-.339.111-.716.196-1.133.084-.417.725-3.171,1.923-8.262h.938L252.343,193h-1.104Zm6.133,0h-.928v-10.596h.928v10.596Zm-1.064-13.535c0-.293.058-.521.175-.684.124-.163.28-.244.469-.244.176,0,.316.081.42.244s.156.391.156.684c0,.28-.052.504-.156.674-.104.162-.244.244-.42.244-.189,0-.345-.082-.469-.244-.117-.17-.175-.394-.175-.674ZM264.315,193l-.117-1.484h-.039c-.508,1.119-1.276,1.679-2.305,1.679-.69,0-1.246-.273-1.669-.82-.417-.553-.625-1.292-.625-2.217c0-1.009.302-1.806.908-2.392.605-.593,1.455-.915,2.549-.967l1.142-.059v-.879c0-.989-.124-1.709-.371-2.158-.247-.456-.657-.683-1.23-.683-.606,0-1.224.198-1.856.595l-.4-.732c.735-.456,1.507-.684,2.314-.684.873,0,1.501.277,1.885.83.384.547.576,1.465.576,2.754v7.217h-.762Zm-2.255-.596c.664,0,1.178-.325,1.543-.976.371-.658.556-1.586.556-2.783v-1.104l-1.103.059c-.853.045-1.488.283-1.905.712-.41.424-.615,1.045-.615,1.866c0,.768.137,1.331.41,1.689.274.358.645.537,1.114.537Z"/><rect id="svg-1970-s-rect6" width="17" height="17" rx="0" ry="0" transform="translate(202.242 177)" fill="#db3f28"/></g><circle id="svg-1970-s-circle2" r="8.5" transform="translate(702.5 12.5)" fill="#db3f28"/><path id="svg-1970-s-path13" d="M720.916,14.4434v5.5566h-2.656v-14.27734h3.476c1.472,0,2.556.3483,3.252,1.04492.703.69661,1.055,1.76107,1.055,3.19336c0,1.80336-.609,3.06316-1.826,3.77926L726.961,20h-2.842l-2.256-5.5566h-.947Zm0-2.2852h.684c.625,0,1.074-.1758,1.347-.5273.274-.3581.41-.8887.41-1.5918c0-.7292-.146-1.24678-.439-1.55277-.286-.3125-.732-.46875-1.338-.46875h-.664v4.14062Zm11.201,8.0371c-1.36,0-2.435-.4818-3.222-1.4453-.782-.9701-1.172-2.3405-1.172-4.1113c0-1.7969.354-3.1999,1.064-4.209s1.699-1.51368,2.969-1.51368c1.185,0,2.119.43294,2.803,1.29878.683.8594,1.025,2.0671,1.025,3.6231v1.3867h-5.225c.02.9701.218,1.6927.596,2.168.378.4687.899.7031,1.563.7031.846,0,1.712-.2637,2.597-.791v2.1387c-.833.5013-1.832.7519-2.998.7519Zm-.381-9.2773c-.371,0-.677.1985-.918.5957-.241.3906-.38.9993-.42,1.8261h2.637c-.013-.7942-.133-1.3964-.361-1.8066s-.541-.6152-.938-.6152ZM739.041,20L736.199,9.12109h2.696l1.386,6.29881c.059.293.127.7227.205,1.2891.085.5599.137.9635.157,1.2109h.039c.006-.1953.032-.4752.078-.8398.052-.3646.104-.6999.156-1.0059s.553-2.6237,1.504-6.95311h2.695L742.264,20h-3.223Zm15.244-5.459c0,1.7839-.377,3.1738-1.133,4.1699-.755.9896-1.79,1.4844-3.105,1.4844-.833,0-1.569-.2279-2.207-.6836s-1.13-1.11-1.475-1.9629c-.345-.8593-.517-1.862-.517-3.0078c0-1.7643.374-3.1413,1.123-4.1308.748-.99614,1.787-1.49418,3.115-1.49418c1.282,0,2.301.50781,3.057,1.52348.761,1.0091,1.142,2.3763,1.142,4.1015Zm-5.781,0c0,1.1328.124,1.9889.371,2.5684s.645.8691,1.191.8691c1.042,0,1.563-1.1458,1.563-3.4375c0-1.1393-.127-1.9889-.381-2.5488-.247-.5664-.641-.8496-1.182-.8496-.546,0-.944.2832-1.191.8496-.247.5599-.371,1.4095-.371,2.5488ZM758.709,20h-2.598v-15.19531h2.598v15.19531Zm8.066,0l-.322-1.3965h-.137c-.24.4948-.586.8854-1.035,1.1719-.442.2799-.95.4199-1.523.4199-.977,0-1.716-.332-2.217-.9961s-.752-1.6569-.752-2.9785v-7.09961h2.627v6.47461c0,.7943.094,1.3932.283,1.7969.189.4036.495.6054.918.6054.56,0,.967-.2799,1.221-.8398.26-.5599.391-1.5006.391-2.8223v-5.21481h2.626v10.87891h-2.08Zm7.852.1953c-1.296,0-2.282-.472-2.959-1.416s-1.016-2.3307-1.016-4.1602c0-1.914.319-3.3431.957-4.2871.645-.94398,1.638-1.41598,2.979-1.41598.404,0,.827.05859,1.269.17578.443.11718.84.28646,1.192.50781l-.742,2.02149c-.541-.319-1.019-.4785-1.436-.4785-.553,0-.954.2897-1.201.8691-.241.5729-.361,1.4356-.361,2.5879c0,1.1263.12,1.9694.361,2.5293.241.5534.635.8301,1.182.8301.651,0,1.331-.2279,2.041-.6836v2.2851c-.684.4232-1.439.6348-2.266.6348ZM781.072,20h-2.597v-10.87891h2.597v10.87891ZM778.367,6.2793c0-.42969.124-.76823.371-1.01563.254-.2539.606-.38086,1.055-.38086.423,0,.762.12696,1.016.38086.253.2474.38.58594.38,1.01563c0,.44271-.13.78776-.39,1.03515-.261.24089-.596.36133-1.006.36133-.43,0-.775-.12044-1.035-.36133-.261-.24739-.391-.59244-.391-1.03515Zm12.988,8.2617c0,1.7839-.377,3.1738-1.132,4.1699-.756.9896-1.791,1.4844-3.106,1.4844-.833,0-1.569-.2279-2.207-.6836s-1.129-1.11-1.474-1.9629c-.346-.8593-.518-1.862-.518-3.0078c0-1.7643.374-3.1413,1.123-4.1308.749-.99614,1.787-1.49418,3.115-1.49418c1.283,0,2.302.50781,3.057,1.52348.762,1.0091,1.142,2.3763,1.142,4.1015Zm-5.781,0c0,1.1328.124,1.9889.371,2.5684.248.5794.645.8691,1.192.8691c1.041,0,1.562-1.1458,1.562-3.4375c0-1.1393-.127-1.9889-.381-2.5488-.247-.5664-.641-.8496-1.181-.8496-.547,0-.944.2832-1.192.8496-.247.5599-.371,1.4095-.371,2.5488Zm.196-6.66014v-.26367c.266-.34505.576-.83659.927-1.47461.352-.63802.602-1.1263.752-1.46485h3.106v.20508c-.157.27995-.544.73242-1.162,1.35742-.619.61849-1.218,1.16537-1.797,1.64063h-1.826ZM798.602,20v-6.4844c0-.7877-.095-1.3834-.284-1.7871-.188-.4036-.494-.6055-.918-.6055-.56,0-.97.28-1.23.8399-.26.5534-.391,1.4909-.391,2.8125v5.2246h-2.597v-10.87891h2.06l.313,1.39651h.166c.234-.5013.569-.89195,1.006-1.1719.436-.28646.947-.42968,1.533-.42968.989,0,1.728.33854,2.217,1.01562.494.67706.742,1.66666.742,2.96876v7.0996h-2.617Zm16.318-3.9355c0,1.3346-.339,2.3567-1.016,3.0664-.67.7096-1.64,1.0644-2.91,1.0644-1.243,0-2.301-.2441-3.174-.7324v-2.627c1.068.6967,2.048,1.045,2.94,1.045.508,0,.888-.14,1.142-.42.261-.2799.391-.6608.391-1.1425c0-.4753-.153-.9082-.459-1.2989-.306-.3971-.811-.8366-1.514-1.3183-.612-.4232-1.077-.8269-1.396-1.211-.313-.3906-.557-.8268-.733-1.3086-.169-.4817-.253-1.0416-.253-1.67965c0-1.22396.338-2.19401,1.015-2.91015.684-.71615,1.598-1.07422,2.744-1.07422c1.094,0,2.145.30599,3.155.91797l-.879,2.1289c-.313-.18229-.642-.34505-.987-.48828-.338-.14323-.703-.21484-1.093-.21484-.43,0-.762.14323-.997.42969-.227.27994-.341.66406-.341,1.15234c0,.48177.136.90174.41,1.25974.28.3581.765.765,1.455,1.2207.931.625,1.579,1.263,1.943,1.9141.371.651.557,1.3932.557,2.2266ZM821.854,20l-.518-1.4844h-.059c-.384.638-.781,1.0775-1.191,1.3184s-.928.3613-1.553.3613c-.801,0-1.432-.2995-1.894-.8984-.456-.599-.684-1.4323-.684-2.5c0-1.1459.313-1.9955.938-2.5489.631-.5598,1.572-.8691,2.822-.9277l1.445-.0586v-.7812c0-1.0157-.439-1.5235-1.318-1.5235-.651,0-1.4.2539-2.246.7618l-.899-1.79692c1.081-.6836,2.256-1.0254,3.526-1.0254c1.152,0,2.028.33204,2.627.9961.605.65752.908,1.59182.908,2.80272v7.3047h-1.904Zm-2.256-1.8359c.475,0,.853-.2116,1.132-.6348.287-.4297.43-.9994.43-1.709v-.918l-.801.0391c-.592.0326-1.028.2018-1.308.5078-.274.306-.41.7617-.41,1.3672c0,.8984.319,1.3477.957,1.3477ZM831.277,20v-6.4844c0-.7877-.094-1.3834-.283-1.7871s-.495-.6055-.918-.6055c-.56,0-.97.28-1.23.8399-.261.5534-.391,1.4909-.391,2.8125v5.2246h-2.598v-10.87891h2.061l.312,1.39651h.166c.235-.5013.57-.89195,1.006-1.1719.437-.28646.948-.42968,1.534-.42968.989,0,1.728.33854,2.216,1.01562.495.67706.743,1.66666.743,2.96876v7.0996h-2.618Zm7.578.1953c-1.002,0-1.793-.4948-2.373-1.4844-.579-.9895-.869-2.3665-.869-4.1308c0-1.7709.283-3.1576.85-4.1602.566-1.00258,1.348-1.50388,2.344-1.50388.494,0,.921.12369,1.279.37109.365.24088.7.65104,1.006,1.23049h.156c-.078-.98961-.117-1.68296-.117-2.0801v-3.63281h2.598v15.19531h-1.934l-.44-1.416h-.087c-.554,1.0742-1.358,1.6113-2.413,1.6113Zm.84-2.1973c.482,0,.834-.2181,1.055-.6542.221-.4428.342-1.2435.361-2.4024v-.3418c0-1.263-.114-2.1517-.341-2.666-.222-.5143-.59-.7715-1.104-.7715-.482,0-.833.2962-1.055.8887-.215.5859-.322,1.442-.322,2.5683s.111,1.9727.332,2.5391c.221.5599.58.8398,1.074.8398ZM848.533,20h-2.597v-10.87891h2.597v10.87891ZM845.828,6.2793c0-.42969.124-.76823.371-1.01563.254-.2539.606-.38086,1.055-.38086.423,0,.762.12696,1.016.38086.253.2474.38.58594.38,1.01563c0,.44271-.13.78776-.39,1.03515-.261.24089-.596.36133-1.006.36133-.43,0-.775-.12044-1.035-.36133-.261-.24739-.391-.59244-.391-1.03515ZM856.18,20v-6.4844c0-.7877-.095-1.3834-.284-1.7871-.188-.4036-.494-.6055-.917-.6055-.56,0-.971.28-1.231.8399-.26.5534-.391,1.4909-.391,2.8125v5.2246h-2.597v-10.87891h2.06l.313,1.39651h.166c.234-.5013.569-.89195,1.006-1.1719.436-.28646.947-.42968,1.533-.42968.989,0,1.728.33854,2.217,1.01562.494.67706.742,1.66666.742,2.96876v7.0996h-2.617Zm7.334,0h-2.598v-10.87891h2.598v10.87891ZM860.809,6.2793c0-.42969.123-.76823.371-1.01563.254-.2539.605-.38086,1.054-.38086.424,0,.762.12696,1.016.38086.254.2474.381.58594.381,1.01563c0,.44271-.13.78776-.391,1.03515-.26.24089-.595.36133-1.006.36133-.429,0-.774-.12044-1.035-.36133-.26-.24739-.39-.59244-.39-1.03515ZM871.58,16.8164c0,1.0612-.312,1.8913-.937,2.4902-.619.5925-1.534.8887-2.745.8887-1.074,0-1.962-.2116-2.666-.6348v-2.2558c.358.2474.775.4525,1.25.6152.482.1628.905.2442,1.27.2442.404,0,.71-.0977.918-.293.215-.2018.322-.4655.322-.791c0-.3321-.11-.6218-.332-.8692-.221-.2474-.628-.5501-1.221-.9082-.787-.4687-1.354-.9668-1.699-1.4941-.338-.5339-.508-1.1621-.508-1.8848c0-.9245.316-1.6569.948-2.19724.638-.54036,1.51-.81054,2.617-.81054.963,0,1.872.2539,2.724.76171l-.849,1.86527c-.697-.3776-1.309-.5664-1.836-.5664-.332,0-.583.0879-.752.2636-.163.1758-.244.3907-.244.6446c0,.2929.101.5534.303.7812.208.2279.592.5111,1.152.8496.677.4102,1.152.7585,1.426,1.0449.273.2865.485.612.634.9766.15.3646.225.791.225,1.2793ZM877,17.998c.365,0,.758-.0911,1.182-.2734v2.0313c-.424.2929-1.058.4394-1.905.4394-.944,0-1.644-.2799-2.099-.8398-.456-.5664-.684-1.4128-.684-2.5391v-5.6348h-1.055v-1.1621l1.358-.93747.664-2.30469h1.66v2.34375h1.973v2.06051h-1.973v5.7227c0,.7292.293,1.0937.879,1.0937ZM885.037,20l-.517-1.4844h-.059c-.384.638-.781,1.0775-1.191,1.3184-.411.2409-.928.3613-1.553.3613-.801,0-1.432-.2995-1.895-.8984-.455-.599-.683-1.4323-.683-2.5c0-1.1459.312-1.9955.937-2.5489.632-.5598,1.572-.8691,2.822-.9277l1.446-.0586v-.7812c0-1.0157-.44-1.5235-1.319-1.5235-.651,0-1.399.2539-2.246.7618l-.898-1.79692c1.081-.6836,2.256-1.0254,3.525-1.0254c1.153,0,2.028.33204,2.627.9961.606.65752.908,1.59182.908,2.80272v7.3047h-1.904Zm-2.256-1.8359c.476,0,.853-.2116,1.133-.6348.287-.4297.43-.9994.43-1.709v-.918l-.801.0391c-.592.0326-1.029.2018-1.309.5078-.273.306-.41.7617-.41,1.3672c0,.8984.319,1.3477.957,1.3477Z" fill="#db3f28"/><path id="svg-1970-s-path14" d="M554.576,12.0801h4.365v7.3242c-1.237.5273-2.552.791-3.945.791-1.66,0-2.939-.6315-3.838-1.8945-.892-1.263-1.338-3.0827-1.338-5.459c0-2.2917.511-4.08529,1.534-5.38086c1.028-1.29558,2.464-1.94336,4.306-1.94336c1.139,0,2.227.29297,3.262.8789l-.84,2.16797c-.807-.46875-1.562-.70312-2.266-.70312-1.009,0-1.809.45247-2.402,1.35742-.586.89845-.879,2.12565-.879,3.68165c0,1.6016.212,2.8288.635,3.6816.43.8529,1.051,1.2793,1.865,1.2793.43,0,.866-.0553,1.309-.166v-3.2715h-1.768v-2.3437ZM569.02,14.541c0,1.7839-.378,3.1738-1.133,4.1699-.755.9896-1.791,1.4844-3.106,1.4844-.833,0-1.569-.2279-2.207-.6836s-1.129-1.11-1.474-1.9629c-.345-.8593-.518-1.862-.518-3.0078c0-1.7643.374-3.1413,1.123-4.1308.749-.99614,1.787-1.49418,3.115-1.49418c1.283,0,2.302.50781,3.057,1.52348.762,1.0091,1.143,2.3763,1.143,4.1015Zm-5.782,0c0,1.1328.124,1.9889.371,2.5684.248.5794.645.8691,1.192.8691c1.041,0,1.562-1.1458,1.562-3.4375c0-1.1393-.127-1.9889-.381-2.5488-.247-.5664-.641-.8496-1.181-.8496-.547,0-.944.2832-1.192.8496-.247.5599-.371,1.4095-.371,2.5488ZM573.443,20h-2.597v-15.19531h2.597v15.19531Zm7.041.1953c-.468,0-.885-.1042-1.25-.3125-.358-.2148-.693-.5892-1.005-1.123h-.137c.104.8854.156,1.4192.156,1.6015v4.4434h-2.617v-15.68361h2.012l.449,1.41601h.117c.54-1.08072,1.325-1.62108,2.353-1.62108.99,0,1.765.49153,2.325,1.47458.56.9766.84,2.3601.84,4.1504c0,1.7643-.29,3.1478-.87,4.1504-.579,1.0026-1.37,1.5039-2.373,1.5039Zm-.8-9.0723c-.508,0-.876.2377-1.104.7129-.221.4688-.338,1.25-.351,2.3438v.3418c0,1.1979.113,2.0703.341,2.6172s.606.8203,1.133.8203c.912,0,1.367-1.1524,1.367-3.457c0-1.1329-.114-1.9792-.341-2.5391-.222-.5599-.57-.8399-1.045-.8399Zm9.882,9.0723c-1.36,0-2.434-.4818-3.222-1.4453-.782-.9701-1.172-2.3405-1.172-4.1113c0-1.7969.355-3.1999,1.064-4.209.71-1.00913,1.7-1.51368,2.969-1.51368c1.185,0,2.119.43294,2.803,1.29878.683.8594,1.025,2.0671,1.025,3.6231v1.3867h-5.224c.019.9701.218,1.6927.595,2.168.378.4687.899.7031,1.563.7031.846,0,1.712-.2637,2.597-.791v2.1387c-.833.5013-1.832.7519-2.998.7519Zm-.38-9.2773c-.372,0-.678.1985-.918.5957-.241.3906-.381.9993-.42,1.8261h2.636c-.013-.7942-.133-1.3964-.361-1.8066s-.54-.6152-.937-.6152Zm13.369,9.2773c-1.003,0-1.794-.4948-2.373-1.4844-.58-.9895-.87-2.3665-.87-4.1308c0-1.7709.284-3.1576.85-4.1602.567-1.00258,1.348-1.50388,2.344-1.50388.495,0,.921.12369,1.279.37109.365.24088.7.65104,1.006,1.23049h.156c-.078-.98961-.117-1.68296-.117-2.0801v-3.63281h2.598v15.19531h-1.934l-.439-1.416h-.088c-.554,1.0742-1.358,1.6113-2.412,1.6113Zm.84-2.1973c.481,0,.833-.2181,1.054-.6542.222-.4428.342-1.2435.362-2.4024v-.3418c0-1.263-.114-2.1517-.342-2.666-.222-.5143-.589-.7715-1.104-.7715-.482,0-.833.2962-1.054.8887-.215.5859-.323,1.442-.323,2.5683s.111,1.9727.332,2.5391c.222.5599.58.8398,1.075.8398Zm10.234,2.1973c-1.361,0-2.435-.4818-3.223-1.4453-.781-.9701-1.172-2.3405-1.172-4.1113c0-1.7969.355-3.1999,1.065-4.209.709-1.00913,1.699-1.51368,2.969-1.51368c1.184,0,2.119.43294,2.802,1.29878.684.8594,1.026,2.0671,1.026,3.6231v1.3867h-5.225c.02.9701.218,1.6927.596,2.168.377.4687.898.7031,1.562.7031.847,0,1.713-.2637,2.598-.791v2.1387c-.833.5013-1.833.7519-2.998.7519Zm-.381-9.2773c-.371,0-.677.1985-.918.5957-.241.3906-.381.9993-.42,1.8261h2.637c-.013-.7942-.134-1.3964-.361-1.8066-.228-.4102-.541-.6152-.938-.6152ZM630.348,20h-6.436v-14.27734h6.436v2.29492h-3.78v3.39842h3.506v2.3047h-3.506v3.9551h3.78v2.3242Zm7.763-3.1836c0,1.0612-.312,1.8913-.937,2.4902-.619.5925-1.533.8887-2.744.8887-1.075,0-1.963-.2116-2.666-.6348v-2.2558c.358.2474.774.4525,1.25.6152.481.1628.905.2442,1.269.2442.404,0,.71-.0977.918-.293.215-.2018.322-.4655.322-.791c0-.3321-.11-.6218-.332-.8692-.221-.2474-.628-.5501-1.22-.9082-.788-.4687-1.354-.9668-1.7-1.4941-.338-.5339-.507-1.1621-.507-1.8848c0-.9245.315-1.6569.947-2.19724.638-.54036,1.51-.81054,2.617-.81054.964,0,1.872.2539,2.725.76171l-.85,1.86527c-.696-.3776-1.308-.5664-1.836-.5664-.332,0-.582.0879-.752.2636-.163.1758-.244.3907-.244.6446c0,.2929.101.5534.303.7812.208.2279.592.5111,1.152.8496.677.4102,1.153.7585,1.426,1.0449.273.2865.485.612.635.9766.149.3646.224.791.224,1.2793Zm5.42,1.1816c.365,0,.759-.0911,1.182-.2734v2.0313c-.423.2929-1.058.4394-1.904.4394-.944,0-1.644-.2799-2.1-.8398-.456-.5664-.684-1.4128-.684-2.5391v-5.6348h-1.054v-1.1621l1.357-.93747.664-2.30469h1.66v2.34375h1.973v2.06051h-1.973v5.7227c0,.7292.293,1.0937.879,1.0937ZM651.568,20l-.517-1.4844h-.059c-.384.638-.781,1.0775-1.191,1.3184s-.928.3613-1.553.3613c-.801,0-1.432-.2995-1.894-.8984-.456-.599-.684-1.4323-.684-2.5c0-1.1459.312-1.9955.937-2.5489.632-.5598,1.573-.8691,2.823-.9277l1.445-.0586v-.7812c0-1.0157-.439-1.5235-1.318-1.5235-.651,0-1.4.2539-2.246.7618l-.899-1.79692c1.081-.6836,2.256-1.0254,3.526-1.0254c1.152,0,2.027.33204,2.626.9961.606.65752.909,1.59182.909,2.80272v7.3047h-1.905Zm-2.256-1.8359c.476,0,.853-.2116,1.133-.6348.287-.4297.43-.9994.43-1.709v-.918l-.801.0391c-.592.0326-1.028.2018-1.308.5078-.274.306-.411.7617-.411,1.3672c0,.8984.319,1.3477.957,1.3477Zm9.122,2.0312c-1.003,0-1.794-.4948-2.373-1.4844-.58-.9895-.87-2.3665-.87-4.1308c0-1.7709.284-3.1576.85-4.1602s1.348-1.50388,2.344-1.50388c.495,0,.921.12369,1.279.37109.365.24088.7.65104,1.006,1.23049h.156c-.078-.98961-.117-1.68296-.117-2.0801v-3.63281h2.598v15.19531h-1.934l-.439-1.416h-.088c-.554,1.0742-1.358,1.6113-2.412,1.6113Zm.839-2.1973c.482,0,.834-.2181,1.055-.6542.221-.4428.342-1.2435.361-2.4024v-.3418c0-1.263-.113-2.1517-.341-2.666-.222-.5143-.59-.7715-1.104-.7715-.482,0-.833.2962-1.055.8887-.214.5859-.322,1.442-.322,2.5683s.111,1.9727.332,2.5391c.222.5599.58.8398,1.074.8398Zm14.278-3.457c0,1.7839-.378,3.1738-1.133,4.1699-.755.9896-1.79,1.4844-3.106,1.4844-.833,0-1.569-.2279-2.207-.6836s-1.129-1.11-1.474-1.9629c-.345-.8593-.518-1.862-.518-3.0078c0-1.7643.375-3.1413,1.123-4.1308.749-.99614,1.787-1.49418,3.116-1.49418c1.282,0,2.301.50781,3.056,1.52348.762,1.0091,1.143,2.3763,1.143,4.1015Zm-5.781,0c0,1.1328.123,1.9889.371,2.5684.247.5794.644.8691,1.191.8691c1.042,0,1.563-1.1458,1.563-3.4375c0-1.1393-.127-1.9889-.381-2.5488-.248-.5664-.642-.8496-1.182-.8496-.547,0-.944.2832-1.191.8496-.248.5599-.371,1.4095-.371,2.5488Z" fill="#db3f28"/><rect id="svg-1970-s-rect7" width="17" height="17" rx="0" ry="0" transform="translate(526 4)" fill="#db3f28"/>
<script><![CDATA[]]></script>
</svg>
