<svg width="1113" height="258" viewBox="0 0 1113 258" fill="none" xmlns="http://www.w3.org/2000/svg">
<path d="M10.2253 202.922V87.0346H31.7858V184.057H61.6693V202.922H10.2253ZM225.037 170.977C225.037 181.81 222.289 190.107 216.794 195.867C211.351 201.627 203.477 204.508 193.172 204.508C183.08 204.508 174.492 202.526 167.411 198.562V177.24C176.078 182.895 184.031 185.721 191.269 185.721C195.391 185.721 198.484 184.584 200.544 182.313C202.657 180.041 203.714 176.95 203.714 173.039C203.714 169.18 202.472 165.667 199.989 162.497C197.505 159.273 193.411 155.706 187.703 151.795C182.735 148.36 178.958 145.084 176.368 141.966C173.831 138.796 171.849 135.255 170.422 131.345C169.049 127.434 168.362 122.89 168.362 117.711C168.362 107.776 171.11 99.9022 176.606 94.0893C182.154 88.2765 189.58 85.37 198.88 85.37C207.758 85.37 216.292 87.8536 224.482 92.821L217.349 110.101C214.812 108.621 212.143 107.3 209.343 106.138C206.594 104.975 203.635 104.394 200.464 104.394C196.977 104.394 194.282 105.557 192.38 107.882C190.531 110.154 189.606 113.272 189.606 117.235C189.606 121.146 190.714 124.554 192.935 127.46C195.206 130.367 199.144 133.67 204.745 137.369C212.302 142.442 217.56 147.621 220.519 152.905C223.531 158.19 225.037 164.214 225.037 170.977ZM359.156 144.82C359.156 158.084 357.386 169.287 353.846 178.429C350.357 187.572 345.179 194.388 338.308 198.88L359.632 230.507H334.742L318.731 204.508H317.541C304.119 204.508 293.815 199.382 286.627 189.13C279.44 178.825 275.847 164.002 275.847 144.661C275.847 125.479 279.44 110.788 286.627 100.589C293.815 90.3374 304.172 85.2114 317.7 85.2114C331.07 85.2114 341.321 90.3639 348.455 100.668C355.589 110.92 359.156 125.637 359.156 144.82ZM297.883 144.82C297.883 158.031 299.547 168.097 302.877 175.02C306.206 181.943 311.094 185.404 317.541 185.404C330.541 185.404 337.041 171.877 337.041 144.82C337.041 117.764 330.594 104.235 317.7 104.235C311.148 104.235 306.206 107.697 302.877 114.619C299.547 121.489 297.883 131.556 297.883 144.82ZM447.38 87.0346V162.021C447.38 175.813 444.261 186.356 438.026 193.648C431.791 200.888 422.781 204.508 410.997 204.508C399.476 204.508 390.705 200.914 384.68 193.727C378.656 186.487 375.643 175.813 375.643 161.704V87.0346H397.045V163.289C397.045 178.033 401.933 185.404 411.709 185.404C416.255 185.404 419.768 183.528 422.252 179.776C424.735 176.024 425.977 170.687 425.977 163.765V87.0346H447.38ZM519.671 202.922H467.433V87.0346H519.671V105.662H488.995V133.247H517.451V151.954H488.995V184.057H519.671V202.922ZM650.382 143.869C650.382 162.998 646.471 177.636 638.649 187.783C630.882 197.875 619.679 202.922 605.041 202.922H576.664V87.0346H607.656C621.132 87.0346 631.622 92.0285 639.125 102.016C646.63 111.951 650.382 125.902 650.382 143.869ZM628.266 144.503C628.266 118.609 621.132 105.662 606.864 105.662H598.224V184.057H605.2C613.073 184.057 618.886 180.781 622.638 174.227C626.39 167.622 628.266 157.714 628.266 144.503ZM719.581 202.922H667.344V87.0346H719.581V105.662H688.904V133.247H717.362V151.954H688.904V184.057H719.581V202.922ZM774.909 104.235C768.726 104.235 763.838 107.855 760.245 115.095C756.705 122.335 754.934 132.401 754.934 145.296C754.934 172.14 761.935 185.563 775.94 185.563C782.07 185.563 788.49 183.607 795.201 179.696V198.88C789.547 202.632 782.307 204.508 773.482 204.508C760.429 204.508 750.39 199.328 743.36 188.971C736.385 178.56 732.898 163.95 732.898 145.137C732.898 126.324 736.49 111.66 743.677 101.144C750.917 90.628 760.958 85.37 773.799 85.37C778.026 85.37 782.07 85.9514 785.927 87.1139C789.838 88.2765 794.011 90.3109 798.451 93.2174L791.317 110.735C788.938 109.097 786.403 107.617 783.708 106.296C781.013 104.922 778.08 104.235 774.909 104.235ZM815.494 202.922V87.0346H835.786V202.922H815.494ZM933.997 143.869C933.997 162.998 930.086 177.636 922.265 187.783C914.497 197.875 903.294 202.922 888.656 202.922H860.279V87.0346H891.271C904.747 87.0346 915.237 92.0285 922.74 102.016C930.245 111.951 933.997 125.902 933.997 143.869ZM911.882 144.503C911.882 118.609 904.747 105.662 890.479 105.662H881.839V184.057H888.815C896.688 184.057 902.502 180.781 906.253 174.227C910.005 167.622 911.882 157.714 911.882 144.503ZM1003.2 202.922H950.96V87.0346H1003.2V105.662H972.52V133.247H1000.98V151.954H972.52V184.057H1003.2V202.922ZM1101.25 202.922H1074.93L1039.1 118.979H1038.07C1039.39 125.373 1040.06 132.243 1040.06 139.588V202.922H1020.08V87.0346H1046.56L1082.07 170.106H1082.94C1081.93 164.557 1081.43 157.952 1081.43 150.289V87.0346H1101.25V202.922Z" fill="black"/>
<path opacity="0.2" d="M154.902 144.82C154.902 164.002 151.309 178.745 144.122 189.05C136.935 199.356 126.657 204.508 113.288 204.508C99.8651 204.508 89.5606 199.382 82.3737 189.13C75.1868 178.825 71.5935 164.002 71.5935 144.661C71.5935 125.479 75.1868 110.788 82.3737 100.589C89.5606 90.3374 99.918 85.2114 113.446 85.2114C126.816 85.2114 137.068 90.3639 144.201 100.668C151.336 110.92 154.902 125.637 154.902 144.82ZM93.6295 144.82C93.6295 158.031 95.2942 168.097 98.6234 175.02C101.952 181.943 106.841 185.404 113.288 185.404C126.287 185.404 132.787 171.877 132.787 144.82C132.787 117.764 126.34 104.235 113.446 104.235C106.894 104.235 101.952 107.697 98.6234 114.619C95.2942 121.489 93.6295 131.556 93.6295 144.82Z" fill="#DB3F28"/>
<path d="M135.078 178.363L128.419 149.114H98.2188L91.5604 178.363H70L98.6945 62H127.944L156.718 178.363H135.078ZM124.377 130.011L118.194 103.06C117.824 101.422 116.979 97.3265 115.657 90.7737C114.389 84.1682 113.623 79.7557 113.359 77.5362C112.672 82.0808 111.8 87.1011 110.743 92.5969C109.686 98.0398 106.938 110.511 102.499 130.011H124.377Z" fill="black"/>
<path d="M397.008 247.391C392.893 247.391 390.836 243.738 390.836 236.434C390.836 232.84 391.35 230.105 392.379 228.23C393.408 226.342 394.924 225.398 396.93 225.398C397.88 225.398 398.779 225.672 399.625 226.219C400.484 226.766 401.168 227.521 401.676 228.484H401.832L401.754 226.121V216.609H403.609V247H402.086L401.93 244.031H401.754C401.246 245.112 400.589 245.945 399.781 246.531C398.974 247.104 398.049 247.391 397.008 247.391ZM397.125 245.77C398.609 245.77 399.749 245.086 400.543 243.719C401.35 242.339 401.754 240.314 401.754 237.645V236.434C401.754 233.23 401.363 230.887 400.582 229.402C399.814 227.905 398.635 227.156 397.047 227.156C395.523 227.156 394.43 227.957 393.766 229.559C393.102 231.147 392.77 233.452 392.77 236.473C392.77 239.52 393.115 241.831 393.805 243.406C394.495 244.982 395.602 245.77 397.125 245.77ZM416.309 247.391C414.069 247.391 412.344 246.44 411.133 244.539C409.935 242.625 409.336 239.962 409.336 236.551C409.336 232.931 409.87 230.171 410.938 228.27C412.018 226.355 413.568 225.398 415.586 225.398C417.344 225.398 418.73 226.238 419.746 227.918C420.762 229.585 421.27 231.837 421.27 234.676V236.395H411.23C411.257 239.48 411.693 241.792 412.539 243.328C413.385 244.865 414.668 245.633 416.387 245.633C417.715 245.633 419.115 245.197 420.586 244.324V246.121C419.232 246.967 417.806 247.391 416.309 247.391ZM415.469 227.078C412.917 227.078 411.517 229.624 411.27 234.715H419.414C419.414 232.384 419.056 230.529 418.34 229.148C417.637 227.768 416.68 227.078 415.469 227.078ZM432.875 225.398C433.539 225.398 434.158 225.49 434.73 225.672L434.281 227.527C433.812 227.332 433.331 227.234 432.836 227.234C432.12 227.234 431.449 227.605 430.824 228.348C430.212 229.077 429.73 230.099 429.379 231.414C429.027 232.729 428.852 234.181 428.852 235.77V247H426.996V225.809H428.52L428.715 229.52H428.852C429.841 226.772 431.182 225.398 432.875 225.398ZM444.949 247.391C442.71 247.391 440.984 246.44 439.773 244.539C438.576 242.625 437.977 239.962 437.977 236.551C437.977 232.931 438.51 230.171 439.578 228.27C440.659 226.355 442.208 225.398 444.227 225.398C445.984 225.398 447.371 226.238 448.387 227.918C449.402 229.585 449.91 231.837 449.91 234.676V236.395H439.871C439.897 239.48 440.333 241.792 441.18 243.328C442.026 244.865 443.309 245.633 445.027 245.633C446.355 245.633 447.755 245.197 449.227 244.324V246.121C447.872 246.967 446.447 247.391 444.949 247.391ZM444.109 227.078C441.557 227.078 440.158 229.624 439.91 234.715H448.055C448.055 232.384 447.697 230.529 446.98 229.148C446.277 227.768 445.32 227.078 444.109 227.078ZM461.086 247.391C458.964 247.391 457.362 246.473 456.281 244.637C455.214 242.788 454.68 240.079 454.68 236.512C454.68 232.892 455.22 230.138 456.301 228.25C457.395 226.349 459.003 225.398 461.125 225.398C462.44 225.398 463.534 225.639 464.406 226.121L463.684 227.762C462.811 227.358 462.01 227.156 461.281 227.156C458.169 227.156 456.613 230.262 456.613 236.473C456.613 242.632 458.169 245.711 461.281 245.711C462.206 245.711 463.208 245.503 464.289 245.086V246.648C463.859 246.883 463.332 247.065 462.707 247.195C462.082 247.326 461.542 247.391 461.086 247.391ZM478.629 247V232.391C478.629 230.477 478.375 229.122 477.867 228.328C477.372 227.521 476.559 227.117 475.426 227.117C473.928 227.117 472.802 227.781 472.047 229.109C471.292 230.438 470.914 232.534 470.914 235.398V247H469.059V216.609H470.914V226.473C470.914 227.371 470.888 228.12 470.836 228.719H470.992C471.409 227.664 472.034 226.85 472.867 226.277C473.714 225.691 474.592 225.398 475.504 225.398C477.301 225.398 478.577 225.984 479.332 227.156C480.087 228.328 480.465 230.073 480.465 232.391V247H478.629ZM498.984 236.355C498.984 239.923 498.418 242.658 497.285 244.559C496.165 246.447 494.557 247.391 492.461 247.391C490.391 247.391 488.802 246.447 487.695 244.559C486.602 242.658 486.055 239.923 486.055 236.355C486.055 229.051 488.216 225.398 492.539 225.398C494.57 225.398 496.152 226.355 497.285 228.27C498.418 230.184 498.984 232.879 498.984 236.355ZM487.988 236.355C487.988 239.415 488.353 241.727 489.082 243.289C489.811 244.852 490.951 245.633 492.5 245.633C495.534 245.633 497.051 242.54 497.051 236.355C497.051 230.223 495.534 227.156 492.5 227.156C490.911 227.156 489.759 227.924 489.043 229.461C488.34 230.997 487.988 233.296 487.988 236.355ZM512.973 241.688C512.973 243.471 512.504 244.871 511.566 245.887C510.629 246.889 509.275 247.391 507.504 247.391C506.54 247.391 505.694 247.267 504.965 247.02C504.236 246.772 503.669 246.499 503.266 246.199V244.031C503.747 244.513 504.385 244.904 505.18 245.203C505.974 245.49 506.788 245.633 507.621 245.633C508.715 245.633 509.574 245.275 510.199 244.559C510.824 243.842 511.137 242.885 511.137 241.688C511.137 240.75 510.909 239.962 510.453 239.324C510.01 238.673 509.158 237.938 507.895 237.117C506.449 236.206 505.46 235.477 504.926 234.93C504.405 234.383 503.995 233.771 503.695 233.094C503.409 232.417 503.266 231.609 503.266 230.672C503.266 229.148 503.78 227.892 504.809 226.902C505.837 225.9 507.146 225.398 508.734 225.398C510.44 225.398 511.866 225.802 513.012 226.609L512.055 228.23C510.987 227.514 509.854 227.156 508.656 227.156C507.562 227.156 506.69 227.482 506.039 228.133C505.388 228.771 505.062 229.617 505.062 230.672C505.062 231.609 505.284 232.397 505.727 233.035C506.169 233.66 507.107 234.422 508.539 235.32C509.945 236.245 510.909 236.987 511.43 237.547C511.951 238.094 512.335 238.706 512.582 239.383C512.842 240.047 512.973 240.815 512.973 241.688ZM533.625 247.391C532.557 247.391 531.581 247.098 530.695 246.512C529.823 245.913 529.159 245.099 528.703 244.07H528.527L528.664 246.395V256.609H526.809V225.809H528.332L528.527 228.719H528.703C529.224 227.651 529.888 226.831 530.695 226.258C531.516 225.685 532.408 225.398 533.371 225.398C537.512 225.398 539.582 229.051 539.582 236.355C539.582 239.884 539.074 242.605 538.059 244.52C537.043 246.434 535.565 247.391 533.625 247.391ZM533.254 227.156C531.704 227.156 530.552 227.84 529.797 229.207C529.042 230.574 528.664 232.716 528.664 235.633V236.238C528.664 239.493 529.048 241.889 529.816 243.426C530.585 244.949 531.757 245.711 533.332 245.711C534.79 245.711 535.871 244.956 536.574 243.445C537.29 241.922 537.648 239.559 537.648 236.355C537.648 233.296 537.316 230.997 536.652 229.461C535.988 227.924 534.855 227.156 533.254 227.156ZM557.203 236.355C557.203 239.923 556.637 242.658 555.504 244.559C554.384 246.447 552.776 247.391 550.68 247.391C548.609 247.391 547.021 246.447 545.914 244.559C544.82 242.658 544.273 239.923 544.273 236.355C544.273 229.051 546.435 225.398 550.758 225.398C552.789 225.398 554.371 226.355 555.504 228.27C556.637 230.184 557.203 232.879 557.203 236.355ZM546.207 236.355C546.207 239.415 546.572 241.727 547.301 243.289C548.03 244.852 549.169 245.633 550.719 245.633C553.753 245.633 555.27 242.54 555.27 236.355C555.27 230.223 553.753 227.156 550.719 227.156C549.13 227.156 547.978 227.924 547.262 229.461C546.559 230.997 546.207 233.296 546.207 236.355ZM564.727 247H562.871V216.609H564.727V247ZM573.266 247H571.41V225.809H573.266V247ZM570.785 222.762V222.352C572.439 220.19 573.682 218.191 574.516 216.355H576.957V216.688C576.449 217.599 575.674 218.647 574.633 219.832C573.604 221.017 572.628 221.993 571.703 222.762H570.785ZM583.836 245.672C584.409 245.672 584.917 245.594 585.359 245.438V247C584.786 247.26 584.051 247.391 583.152 247.391C580.965 247.391 579.871 245.757 579.871 242.488V227.449H577.957V226.355L579.832 225.809L580.438 220.77H581.727V225.809H585.086V227.449H581.727V241.961C581.727 243.393 581.883 244.37 582.195 244.891C582.508 245.411 583.055 245.672 583.836 245.672ZM591.594 247H589.738V225.809H591.594V247ZM589.465 219.93C589.465 219.344 589.582 218.888 589.816 218.562C590.064 218.237 590.376 218.074 590.754 218.074C591.105 218.074 591.385 218.237 591.594 218.562C591.802 218.888 591.906 219.344 591.906 219.93C591.906 220.49 591.802 220.939 591.594 221.277C591.385 221.603 591.105 221.766 590.754 221.766C590.376 221.766 590.064 221.603 589.816 221.277C589.582 220.939 589.465 220.49 589.465 219.93ZM603.727 247.391C601.604 247.391 600.003 246.473 598.922 244.637C597.854 242.788 597.32 240.079 597.32 236.512C597.32 232.892 597.861 230.138 598.941 228.25C600.035 226.349 601.643 225.398 603.766 225.398C605.081 225.398 606.174 225.639 607.047 226.121L606.324 227.762C605.452 227.358 604.651 227.156 603.922 227.156C600.81 227.156 599.254 230.262 599.254 236.473C599.254 242.632 600.81 245.711 603.922 245.711C604.846 245.711 605.849 245.503 606.93 245.086V246.648C606.5 246.883 605.973 247.065 605.348 247.195C604.723 247.326 604.182 247.391 603.727 247.391ZM623.633 236.355C623.633 239.923 623.066 242.658 621.934 244.559C620.814 246.447 619.206 247.391 617.109 247.391C615.039 247.391 613.451 246.447 612.344 244.559C611.25 242.658 610.703 239.923 610.703 236.355C610.703 229.051 612.865 225.398 617.188 225.398C619.219 225.398 620.801 226.355 621.934 228.27C623.066 230.184 623.633 232.879 623.633 236.355ZM612.637 236.355C612.637 239.415 613.001 241.727 613.73 243.289C614.46 244.852 615.599 245.633 617.148 245.633C620.182 245.633 621.699 242.54 621.699 236.355C621.699 230.223 620.182 227.156 617.148 227.156C615.56 227.156 614.408 227.924 613.691 229.461C612.988 230.997 612.637 233.296 612.637 236.355ZM637.621 241.688C637.621 243.471 637.152 244.871 636.215 245.887C635.277 246.889 633.923 247.391 632.152 247.391C631.189 247.391 630.342 247.267 629.613 247.02C628.884 246.772 628.318 246.499 627.914 246.199V244.031C628.396 244.513 629.034 244.904 629.828 245.203C630.622 245.49 631.436 245.633 632.27 245.633C633.363 245.633 634.223 245.275 634.848 244.559C635.473 243.842 635.785 242.885 635.785 241.688C635.785 240.75 635.557 239.962 635.102 239.324C634.659 238.673 633.806 237.938 632.543 237.117C631.098 236.206 630.108 235.477 629.574 234.93C629.053 234.383 628.643 233.771 628.344 233.094C628.057 232.417 627.914 231.609 627.914 230.672C627.914 229.148 628.428 227.892 629.457 226.902C630.486 225.9 631.794 225.398 633.383 225.398C635.089 225.398 636.514 225.802 637.66 226.609L636.703 228.23C635.635 227.514 634.503 227.156 633.305 227.156C632.211 227.156 631.339 227.482 630.688 228.133C630.036 228.771 629.711 229.617 629.711 230.672C629.711 231.609 629.932 232.397 630.375 233.035C630.818 233.66 631.755 234.422 633.188 235.32C634.594 236.245 635.557 236.987 636.078 237.547C636.599 238.094 636.983 238.706 637.23 239.383C637.491 240.047 637.621 240.815 637.621 241.688ZM656.633 247.391C652.518 247.391 650.461 243.738 650.461 236.434C650.461 232.84 650.975 230.105 652.004 228.23C653.033 226.342 654.549 225.398 656.555 225.398C657.505 225.398 658.404 225.672 659.25 226.219C660.109 226.766 660.793 227.521 661.301 228.484H661.457L661.379 226.121V216.609H663.234V247H661.711L661.555 244.031H661.379C660.871 245.112 660.214 245.945 659.406 246.531C658.599 247.104 657.674 247.391 656.633 247.391ZM656.75 245.77C658.234 245.77 659.374 245.086 660.168 243.719C660.975 242.339 661.379 240.314 661.379 237.645V236.434C661.379 233.23 660.988 230.887 660.207 229.402C659.439 227.905 658.26 227.156 656.672 227.156C655.148 227.156 654.055 227.957 653.391 229.559C652.727 231.147 652.395 233.452 652.395 236.473C652.395 239.52 652.74 241.831 653.43 243.406C654.12 244.982 655.227 245.77 656.75 245.77ZM675.934 247.391C673.694 247.391 671.969 246.44 670.758 244.539C669.56 242.625 668.961 239.962 668.961 236.551C668.961 232.931 669.495 230.171 670.562 228.27C671.643 226.355 673.193 225.398 675.211 225.398C676.969 225.398 678.355 226.238 679.371 227.918C680.387 229.585 680.895 231.837 680.895 234.676V236.395H670.855C670.882 239.48 671.318 241.792 672.164 243.328C673.01 244.865 674.293 245.633 676.012 245.633C677.34 245.633 678.74 245.197 680.211 244.324V246.121C678.857 246.967 677.431 247.391 675.934 247.391ZM675.094 227.078C672.542 227.078 671.142 229.624 670.895 234.715H679.039C679.039 232.384 678.681 230.529 677.965 229.148C677.262 227.768 676.305 227.078 675.094 227.078ZM697.016 247H695.16V216.609H697.016V247ZM711.902 247L711.668 244.031H711.59C710.574 246.271 709.038 247.391 706.98 247.391C705.6 247.391 704.487 246.844 703.641 245.75C702.807 244.643 702.391 243.165 702.391 241.316C702.391 239.298 702.996 237.703 704.207 236.531C705.418 235.346 707.117 234.702 709.305 234.598L711.59 234.48V232.723C711.59 230.743 711.342 229.305 710.848 228.406C710.353 227.495 709.533 227.039 708.387 227.039C707.176 227.039 705.939 227.436 704.676 228.23L703.875 226.766C705.346 225.854 706.889 225.398 708.504 225.398C710.249 225.398 711.505 225.952 712.273 227.059C713.042 228.152 713.426 229.988 713.426 232.566V247H711.902ZM707.391 245.809C708.719 245.809 709.747 245.158 710.477 243.855C711.219 242.54 711.59 240.685 711.59 238.289V236.082L709.383 236.199C707.677 236.29 706.408 236.766 705.574 237.625C704.754 238.471 704.344 239.715 704.344 241.355C704.344 242.892 704.617 244.018 705.164 244.734C705.711 245.451 706.453 245.809 707.391 245.809ZM728.332 241.688C728.332 243.471 727.863 244.871 726.926 245.887C725.988 246.889 724.634 247.391 722.863 247.391C721.9 247.391 721.053 247.267 720.324 247.02C719.595 246.772 719.029 246.499 718.625 246.199V244.031C719.107 244.513 719.745 244.904 720.539 245.203C721.333 245.49 722.147 245.633 722.98 245.633C724.074 245.633 724.934 245.275 725.559 244.559C726.184 243.842 726.496 242.885 726.496 241.688C726.496 240.75 726.268 239.962 725.812 239.324C725.37 238.673 724.517 237.938 723.254 237.117C721.809 236.206 720.819 235.477 720.285 234.93C719.764 234.383 719.354 233.771 719.055 233.094C718.768 232.417 718.625 231.609 718.625 230.672C718.625 229.148 719.139 227.892 720.168 226.902C721.197 225.9 722.505 225.398 724.094 225.398C725.799 225.398 727.225 225.802 728.371 226.609L727.414 228.23C726.346 227.514 725.214 227.156 724.016 227.156C722.922 227.156 722.049 227.482 721.398 228.133C720.747 228.771 720.422 229.617 720.422 230.672C720.422 231.609 720.643 232.397 721.086 233.035C721.529 233.66 722.466 234.422 723.898 235.32C725.305 236.245 726.268 236.987 726.789 237.547C727.31 238.094 727.694 238.706 727.941 239.383C728.202 240.047 728.332 240.815 728.332 241.688ZM760.176 247V232.566C760.176 229.012 759.134 227.234 757.051 227.234C755.618 227.234 754.583 227.859 753.945 229.109C753.32 230.346 753.008 232.176 753.008 234.598V247H751.172V232.566C751.172 230.77 750.918 229.435 750.41 228.562C749.902 227.677 749.115 227.234 748.047 227.234C746.641 227.234 745.618 227.872 744.98 229.148C744.342 230.424 744.023 232.495 744.023 235.359V247H742.168V225.809H743.73L743.887 228.758H744.062C744.909 226.518 746.348 225.398 748.379 225.398C749.551 225.398 750.475 225.711 751.152 226.336C751.829 226.961 752.318 227.872 752.617 229.07C753.125 227.768 753.75 226.831 754.492 226.258C755.234 225.685 756.198 225.398 757.383 225.398C758.984 225.398 760.156 226.017 760.898 227.254C761.641 228.478 762.012 230.444 762.012 233.152V247H760.176ZM770.414 225.809V239.637C770.414 241.733 770.661 243.263 771.156 244.227C771.664 245.19 772.439 245.672 773.48 245.672C775.082 245.672 776.254 245.027 776.996 243.738C777.751 242.436 778.129 240.34 778.129 237.449V225.809H779.965V247H778.402L778.168 244.031H778.012C777.556 245.112 776.924 245.945 776.117 246.531C775.31 247.104 774.431 247.391 773.48 247.391C771.775 247.391 770.525 246.785 769.73 245.574C768.949 244.363 768.559 242.384 768.559 239.637V225.809H770.414ZM785.027 256.609C784.48 256.609 784.044 256.499 783.719 256.277V254.52C784.135 254.728 784.546 254.832 784.949 254.832C785.561 254.832 785.991 254.533 786.238 253.934C786.499 253.348 786.629 252.436 786.629 251.199V225.809H788.484V250.926C788.484 252.866 788.204 254.298 787.645 255.223C787.085 256.147 786.212 256.609 785.027 256.609ZM786.355 219.93C786.355 219.344 786.473 218.888 786.707 218.562C786.954 218.237 787.267 218.074 787.645 218.074C787.996 218.074 788.276 218.237 788.484 218.562C788.693 218.888 788.797 219.344 788.797 219.93C788.797 220.49 788.693 220.939 788.484 221.277C788.276 221.603 787.996 221.766 787.645 221.766C787.267 221.766 786.954 221.603 786.707 221.277C786.473 220.939 786.355 220.49 786.355 219.93ZM801.184 247.391C798.944 247.391 797.219 246.44 796.008 244.539C794.81 242.625 794.211 239.962 794.211 236.551C794.211 232.931 794.745 230.171 795.812 228.27C796.893 226.355 798.443 225.398 800.461 225.398C802.219 225.398 803.605 226.238 804.621 227.918C805.637 229.585 806.145 231.837 806.145 234.676V236.395H796.105C796.132 239.48 796.568 241.792 797.414 243.328C798.26 244.865 799.543 245.633 801.262 245.633C802.59 245.633 803.99 245.197 805.461 244.324V246.121C804.107 246.967 802.681 247.391 801.184 247.391ZM800.344 227.078C797.792 227.078 796.392 229.624 796.145 234.715H804.289C804.289 232.384 803.931 230.529 803.215 229.148C802.512 227.768 801.555 227.078 800.344 227.078ZM817.75 225.398C818.414 225.398 819.033 225.49 819.605 225.672L819.156 227.527C818.688 227.332 818.206 227.234 817.711 227.234C816.995 227.234 816.324 227.605 815.699 228.348C815.087 229.077 814.605 230.099 814.254 231.414C813.902 232.729 813.727 234.181 813.727 235.77V247H811.871V225.809H813.395L813.59 229.52H813.727C814.716 226.772 816.057 225.398 817.75 225.398ZM829.824 247.391C827.585 247.391 825.859 246.44 824.648 244.539C823.451 242.625 822.852 239.962 822.852 236.551C822.852 232.931 823.385 230.171 824.453 228.27C825.534 226.355 827.083 225.398 829.102 225.398C830.859 225.398 832.246 226.238 833.262 227.918C834.277 229.585 834.785 231.837 834.785 234.676V236.395H824.746C824.772 239.48 825.208 241.792 826.055 243.328C826.901 244.865 828.184 245.633 829.902 245.633C831.23 245.633 832.63 245.197 834.102 244.324V246.121C832.747 246.967 831.322 247.391 829.824 247.391ZM828.984 227.078C826.432 227.078 825.033 229.624 824.785 234.715H832.93C832.93 232.384 832.572 230.529 831.855 229.148C831.152 227.768 830.195 227.078 828.984 227.078ZM848.832 241.688C848.832 243.471 848.363 244.871 847.426 245.887C846.488 246.889 845.134 247.391 843.363 247.391C842.4 247.391 841.553 247.267 840.824 247.02C840.095 246.772 839.529 246.499 839.125 246.199V244.031C839.607 244.513 840.245 244.904 841.039 245.203C841.833 245.49 842.647 245.633 843.48 245.633C844.574 245.633 845.434 245.275 846.059 244.559C846.684 243.842 846.996 242.885 846.996 241.688C846.996 240.75 846.768 239.962 846.312 239.324C845.87 238.673 845.017 237.938 843.754 237.117C842.309 236.206 841.319 235.477 840.785 234.93C840.264 234.383 839.854 233.771 839.555 233.094C839.268 232.417 839.125 231.609 839.125 230.672C839.125 229.148 839.639 227.892 840.668 226.902C841.697 225.9 843.005 225.398 844.594 225.398C846.299 225.398 847.725 225.802 848.871 226.609L847.914 228.23C846.846 227.514 845.714 227.156 844.516 227.156C843.422 227.156 842.549 227.482 841.898 228.133C841.247 228.771 840.922 229.617 840.922 230.672C840.922 231.609 841.143 232.397 841.586 233.035C842.029 233.66 842.966 234.422 844.398 235.32C845.805 236.245 846.768 236.987 847.289 237.547C847.81 238.094 848.194 238.706 848.441 239.383C848.702 240.047 848.832 240.815 848.832 241.688ZM868.684 247.391C866.444 247.391 864.719 246.44 863.508 244.539C862.31 242.625 861.711 239.962 861.711 236.551C861.711 232.931 862.245 230.171 863.312 228.27C864.393 226.355 865.943 225.398 867.961 225.398C869.719 225.398 871.105 226.238 872.121 227.918C873.137 229.585 873.645 231.837 873.645 234.676V236.395H863.605C863.632 239.48 864.068 241.792 864.914 243.328C865.76 244.865 867.043 245.633 868.762 245.633C870.09 245.633 871.49 245.197 872.961 244.324V246.121C871.607 246.967 870.181 247.391 868.684 247.391ZM867.844 227.078C865.292 227.078 863.892 229.624 863.645 234.715H871.789C871.789 232.384 871.431 230.529 870.715 229.148C870.012 227.768 869.055 227.078 867.844 227.078ZM888.941 247V232.391C888.941 228.875 887.9 227.117 885.816 227.117C884.228 227.117 883.062 227.775 882.32 229.09C881.591 230.405 881.227 232.495 881.227 235.359V247H879.371V225.809H880.934L881.09 228.758H881.266C881.708 227.69 882.346 226.863 883.18 226.277C884.013 225.691 884.905 225.398 885.855 225.398C887.496 225.398 888.727 225.952 889.547 227.059C890.367 228.152 890.777 229.917 890.777 232.352V247H888.941ZM916.996 247L914.477 236.648H907.543L905.062 247H903.07L909.945 218.445H911.918L918.949 247H916.996ZM914.027 234.715L911.508 224.07C911.247 222.872 911.046 221.74 910.902 220.672C910.785 221.805 910.603 222.938 910.355 224.07L907.914 234.715H914.027ZM940.809 247V232.566C940.809 229.012 939.767 227.234 937.684 227.234C936.251 227.234 935.216 227.859 934.578 229.109C933.953 230.346 933.641 232.176 933.641 234.598V247H931.805V232.566C931.805 230.77 931.551 229.435 931.043 228.562C930.535 227.677 929.747 227.234 928.68 227.234C927.273 227.234 926.251 227.872 925.613 229.148C924.975 230.424 924.656 232.495 924.656 235.359V247H922.801V225.809H924.363L924.52 228.758H924.695C925.542 226.518 926.98 225.398 929.012 225.398C930.184 225.398 931.108 225.711 931.785 226.336C932.462 226.961 932.951 227.872 933.25 229.07C933.758 227.768 934.383 226.831 935.125 226.258C935.867 225.685 936.831 225.398 938.016 225.398C939.617 225.398 940.789 226.017 941.531 227.254C942.273 228.478 942.645 230.444 942.645 233.152V247H940.809ZM955.285 247.391C953.046 247.391 951.32 246.44 950.109 244.539C948.911 242.625 948.312 239.962 948.312 236.551C948.312 232.931 948.846 230.171 949.914 228.27C950.995 226.355 952.544 225.398 954.562 225.398C956.32 225.398 957.707 226.238 958.723 227.918C959.738 229.585 960.246 231.837 960.246 234.676V236.395H950.207C950.233 239.48 950.669 241.792 951.516 243.328C952.362 244.865 953.645 245.633 955.363 245.633C956.691 245.633 958.091 245.197 959.562 244.324V246.121C958.208 246.967 956.783 247.391 955.285 247.391ZM954.445 227.078C951.893 227.078 950.493 229.624 950.246 234.715H958.391C958.391 232.384 958.033 230.529 957.316 229.148C956.613 227.768 955.656 227.078 954.445 227.078ZM953.137 222.762V222.352C954.79 220.19 956.034 218.191 956.867 216.355H959.309V216.688C958.801 217.599 958.026 218.647 956.984 219.832C955.956 221.017 954.979 221.993 954.055 222.762H953.137ZM971.852 225.398C972.516 225.398 973.134 225.49 973.707 225.672L973.258 227.527C972.789 227.332 972.307 227.234 971.812 227.234C971.096 227.234 970.426 227.605 969.801 228.348C969.189 229.077 968.707 230.099 968.355 231.414C968.004 232.729 967.828 234.181 967.828 235.77V247H965.973V225.809H967.496L967.691 229.52H967.828C968.818 226.772 970.159 225.398 971.852 225.398ZM979.766 247H977.91V225.809H979.766V247ZM977.637 219.93C977.637 219.344 977.754 218.888 977.988 218.562C978.236 218.237 978.548 218.074 978.926 218.074C979.277 218.074 979.557 218.237 979.766 218.562C979.974 218.888 980.078 219.344 980.078 219.93C980.078 220.49 979.974 220.939 979.766 221.277C979.557 221.603 979.277 221.766 978.926 221.766C978.548 221.766 978.236 221.603 977.988 221.277C977.754 220.939 977.637 220.49 977.637 219.93ZM991.898 247.391C989.776 247.391 988.174 246.473 987.094 244.637C986.026 242.788 985.492 240.079 985.492 236.512C985.492 232.892 986.033 230.138 987.113 228.25C988.207 226.349 989.815 225.398 991.938 225.398C993.253 225.398 994.346 225.639 995.219 226.121L994.496 227.762C993.624 227.358 992.823 227.156 992.094 227.156C988.982 227.156 987.426 230.262 987.426 236.473C987.426 242.632 988.982 245.711 992.094 245.711C993.018 245.711 994.021 245.503 995.102 245.086V246.648C994.672 246.883 994.145 247.065 993.52 247.195C992.895 247.326 992.354 247.391 991.898 247.391ZM1008.07 247L1007.84 244.031H1007.76C1006.75 246.271 1005.21 247.391 1003.15 247.391C1001.77 247.391 1000.66 246.844 999.812 245.75C998.979 244.643 998.562 243.165 998.562 241.316C998.562 239.298 999.168 237.703 1000.38 236.531C1001.59 235.346 1003.29 234.702 1005.48 234.598L1007.76 234.48V232.723C1007.76 230.743 1007.51 229.305 1007.02 228.406C1006.52 227.495 1005.7 227.039 1004.56 227.039C1003.35 227.039 1002.11 227.436 1000.85 228.23L1000.05 226.766C1001.52 225.854 1003.06 225.398 1004.68 225.398C1006.42 225.398 1007.68 225.952 1008.45 227.059C1009.21 228.152 1009.6 229.988 1009.6 232.566V247H1008.07ZM1003.56 245.809C1004.89 245.809 1005.92 245.158 1006.65 243.855C1007.39 242.54 1007.76 240.685 1007.76 238.289V236.082L1005.55 236.199C1003.85 236.29 1002.58 236.766 1001.75 237.625C1000.93 238.471 1000.52 239.715 1000.52 241.355C1000.52 242.892 1000.79 244.018 1001.34 244.734C1001.88 245.451 1002.62 245.809 1003.56 245.809ZM1025.02 247V218.445H1026.93V245.164H1034.98V247H1025.02ZM1047.83 247L1047.6 244.031H1047.52C1046.5 246.271 1044.97 247.391 1042.91 247.391C1041.53 247.391 1040.42 246.844 1039.57 245.75C1038.74 244.643 1038.32 243.165 1038.32 241.316C1038.32 239.298 1038.93 237.703 1040.14 236.531C1041.35 235.346 1043.05 234.702 1045.23 234.598L1047.52 234.48V232.723C1047.52 230.743 1047.27 229.305 1046.78 228.406C1046.28 227.495 1045.46 227.039 1044.32 227.039C1043.11 227.039 1041.87 227.436 1040.61 228.23L1039.8 226.766C1041.28 225.854 1042.82 225.398 1044.43 225.398C1046.18 225.398 1047.43 225.952 1048.2 227.059C1048.97 228.152 1049.36 229.988 1049.36 232.566V247H1047.83ZM1043.32 245.809C1044.65 245.809 1045.68 245.158 1046.41 243.855C1047.15 242.54 1047.52 240.685 1047.52 238.289V236.082L1045.31 236.199C1043.61 236.29 1042.34 236.766 1041.5 237.625C1040.68 238.471 1040.27 239.715 1040.27 241.355C1040.27 242.892 1040.55 244.018 1041.09 244.734C1041.64 245.451 1042.38 245.809 1043.32 245.809ZM1059.83 245.672C1060.4 245.672 1060.91 245.594 1061.35 245.438V247C1060.78 247.26 1060.04 247.391 1059.14 247.391C1056.96 247.391 1055.86 245.757 1055.86 242.488V227.449H1053.95V226.355L1055.82 225.809L1056.43 220.77H1057.72V225.809H1061.08V227.449H1057.72V241.961C1057.72 243.393 1057.88 244.37 1058.19 244.891C1058.5 245.411 1059.05 245.672 1059.83 245.672ZM1067.59 247H1065.73V225.809H1067.59V247ZM1065.46 219.93C1065.46 219.344 1065.57 218.888 1065.81 218.562C1066.06 218.237 1066.37 218.074 1066.75 218.074C1067.1 218.074 1067.38 218.237 1067.59 218.562C1067.79 218.888 1067.9 219.344 1067.9 219.93C1067.9 220.49 1067.79 220.939 1067.59 221.277C1067.38 221.603 1067.1 221.766 1066.75 221.766C1066.37 221.766 1066.06 221.603 1065.81 221.277C1065.57 220.939 1065.46 220.49 1065.46 219.93ZM1083.84 247V232.391C1083.84 228.875 1082.8 227.117 1080.71 227.117C1079.13 227.117 1077.96 227.775 1077.22 229.09C1076.49 230.405 1076.12 232.495 1076.12 235.359V247H1074.27V225.809H1075.83L1075.99 228.758H1076.16C1076.61 227.69 1077.24 226.863 1078.08 226.277C1078.91 225.691 1079.8 225.398 1080.75 225.398C1082.39 225.398 1083.62 225.952 1084.45 227.059C1085.27 228.152 1085.68 229.917 1085.68 232.352V247H1083.84ZM1100.46 247L1100.23 244.031H1100.15C1099.14 246.271 1097.6 247.391 1095.54 247.391C1094.16 247.391 1093.05 246.844 1092.2 245.75C1091.37 244.643 1090.95 243.165 1090.95 241.316C1090.95 239.298 1091.56 237.703 1092.77 236.531C1093.98 235.346 1095.68 234.702 1097.87 234.598L1100.15 234.48V232.723C1100.15 230.743 1099.9 229.305 1099.41 228.406C1098.92 227.495 1098.1 227.039 1096.95 227.039C1095.74 227.039 1094.5 227.436 1093.24 228.23L1092.44 226.766C1093.91 225.854 1095.45 225.398 1097.07 225.398C1098.81 225.398 1100.07 225.952 1100.84 227.059C1101.6 228.152 1101.99 229.988 1101.99 232.566V247H1100.46ZM1095.95 245.809C1097.28 245.809 1098.31 245.158 1099.04 243.855C1099.78 242.54 1100.15 240.685 1100.15 238.289V236.082L1097.95 236.199C1096.24 236.29 1094.97 236.766 1094.14 237.625C1093.32 238.471 1092.91 239.715 1092.91 241.355C1092.91 242.892 1093.18 244.018 1093.73 244.734C1094.27 245.451 1095.02 245.809 1095.95 245.809Z" fill="#DB3F28"/>
</svg>
