<svg width="1416" height="791" viewBox="0 0 1416 791" fill="none" xmlns="http://www.w3.org/2000/svg">
<path d="M1415.37 413.301C1415.37 528.493 1402.79 615.741 1377.64 675.045C1352.81 734.348 1315.55 764 1265.87 764C1213.4 764 1175.36 736.677 1151.76 682.031C1128.48 627.074 1116.83 537.497 1116.83 413.301C1116.83 180.434 1166.51 64 1265.87 64C1317.41 64 1355.13 92.8756 1379.04 150.627C1403.26 208.378 1415.37 295.936 1415.37 413.301ZM1164.34 413.301C1164.34 515.763 1172.41 592.609 1188.56 643.84C1205.01 694.761 1230.78 720.221 1265.87 720.221C1333.87 720.221 1367.86 617.914 1367.86 413.301C1367.86 209.62 1333.87 107.779 1265.87 107.779C1230.78 107.779 1205.01 132.929 1188.56 183.228C1172.41 233.528 1164.34 310.219 1164.34 413.301Z" fill="#E9E9E9"/>
<path d="M784.764 754.685L996.208 117.56H720.492V73.7804H1042.32V111.971L832.269 754.685H784.764Z" fill="#E9E9E9"/>
<path d="M643.18 355.085C643.18 490.769 626.103 592.92 591.949 661.538C558.106 729.846 508.428 764 442.914 764C431.426 764 419.162 762.913 406.121 760.74C393.391 758.566 384.542 756.238 379.574 753.754V709.043C396.651 716.495 419.006 720.221 446.64 720.221C491.661 720.221 527.212 694.14 553.293 641.977C579.375 589.815 593.968 515.453 597.073 418.89H593.347C582.79 442.487 568.352 460.962 550.033 474.313C531.714 487.664 510.601 494.339 486.693 494.339C444.156 494.339 410.778 475.244 386.56 437.054C362.342 398.864 350.233 347.322 350.233 282.43C350.233 214.743 363.273 161.494 389.355 122.683C415.746 83.5609 452.229 64 498.802 64C546.307 64 582.169 89.1497 606.387 139.449C630.916 189.438 643.18 261.316 643.18 355.085ZM496.008 107.779C465.58 107.779 441.362 122.217 423.353 151.092C405.655 179.658 396.806 222.816 396.806 280.567C396.806 335.834 404.879 378.216 421.025 407.713C437.17 436.899 461.233 451.492 493.214 451.492C524.263 451.492 549.102 438.451 567.731 412.37C586.671 385.978 596.141 350.893 596.141 307.114C596.141 268.303 591.949 233.372 583.566 202.323C575.493 171.274 564.005 147.832 549.102 131.997C534.198 115.852 516.5 107.779 496.008 107.779Z" fill="#E9E9E9"/>
<path d="M168.596 754.685H123.227L123.886 254.02C123.886 213.346 122.521 169.253 125.004 122.059C118.484 130.753 105.877 147.211 81.9694 171.119L23.7525 224.213L0 194.872L131.337 73.7804H168.596V754.685Z" fill="#E9E9E9"/>
<rect x="125" y="743" width="1290" height="21" fill="#DB3F28"/>
<rect x="604.317" y="743" width="212" height="21" fill="#DB3F28"/>
<circle cx="702.5" cy="12.5" r="8.5" fill="#DB3F28"/>
<path d="M720.916 14.4434V20H718.26V5.72266H721.736C723.208 5.72266 724.292 6.07096 724.988 6.76758C725.691 7.46419 726.043 8.52865 726.043 9.96094C726.043 11.7643 725.434 13.0241 724.217 13.7402L726.961 20H724.119L721.863 14.4434H720.916ZM720.916 12.1582H721.6C722.225 12.1582 722.674 11.9824 722.947 11.6309C723.221 11.2728 723.357 10.7422 723.357 10.0391C723.357 9.3099 723.211 8.79232 722.918 8.48633C722.632 8.17383 722.186 8.01758 721.58 8.01758H720.916V12.1582ZM732.117 20.1953C730.757 20.1953 729.682 19.7135 728.895 18.75C728.113 17.7799 727.723 16.4095 727.723 14.6387C727.723 12.8418 728.077 11.4388 728.787 10.4297C729.497 9.42057 730.486 8.91602 731.756 8.91602C732.941 8.91602 733.875 9.34896 734.559 10.2148C735.242 11.0742 735.584 12.2819 735.584 13.8379V15.2246H730.359C730.379 16.1947 730.577 16.9173 730.955 17.3926C731.333 17.8613 731.854 18.0957 732.518 18.0957C733.364 18.0957 734.23 17.832 735.115 17.3047V19.4434C734.282 19.9447 733.283 20.1953 732.117 20.1953ZM731.736 10.918C731.365 10.918 731.059 11.1165 730.818 11.5137C730.577 11.9043 730.438 12.513 730.398 13.3398H733.035C733.022 12.5456 732.902 11.9434 732.674 11.5332C732.446 11.123 732.133 10.918 731.736 10.918ZM739.041 20L736.199 9.12109H738.895L740.281 15.4199C740.34 15.7129 740.408 16.1426 740.486 16.709C740.571 17.2689 740.623 17.6725 740.643 17.9199H740.682C740.688 17.7246 740.714 17.4447 740.76 17.0801C740.812 16.7155 740.864 16.3802 740.916 16.0742C740.968 15.7682 741.469 13.4505 742.42 9.12109H745.115L742.264 20H739.041ZM754.285 14.541C754.285 16.3249 753.908 17.7148 753.152 18.7109C752.397 19.7005 751.362 20.1953 750.047 20.1953C749.214 20.1953 748.478 19.9674 747.84 19.5117C747.202 19.056 746.71 18.4017 746.365 17.5488C746.02 16.6895 745.848 15.6868 745.848 14.541C745.848 12.7767 746.222 11.3997 746.971 10.4102C747.719 9.41406 748.758 8.91602 750.086 8.91602C751.368 8.91602 752.387 9.42383 753.143 10.4395C753.904 11.4486 754.285 12.8158 754.285 14.541ZM748.504 14.541C748.504 15.6738 748.628 16.5299 748.875 17.1094C749.122 17.6888 749.52 17.9785 750.066 17.9785C751.108 17.9785 751.629 16.8327 751.629 14.541C751.629 13.4017 751.502 12.5521 751.248 11.9922C751.001 11.4258 750.607 11.1426 750.066 11.1426C749.52 11.1426 749.122 11.4258 748.875 11.9922C748.628 12.5521 748.504 13.4017 748.504 14.541ZM758.709 20H756.111V4.80469H758.709V20ZM766.775 20L766.453 18.6035H766.316C766.076 19.0983 765.73 19.4889 765.281 19.7754C764.839 20.0553 764.331 20.1953 763.758 20.1953C762.781 20.1953 762.042 19.8633 761.541 19.1992C761.04 18.5352 760.789 17.5423 760.789 16.2207V9.12109H763.416V15.5957C763.416 16.39 763.51 16.9889 763.699 17.3926C763.888 17.7962 764.194 17.998 764.617 17.998C765.177 17.998 765.584 17.7181 765.838 17.1582C766.098 16.5983 766.229 15.6576 766.229 14.3359V9.12109H768.855V20H766.775ZM774.627 20.1953C773.331 20.1953 772.345 19.7233 771.668 18.7793C770.991 17.8353 770.652 16.4486 770.652 14.6191C770.652 12.7051 770.971 11.276 771.609 10.332C772.254 9.38802 773.247 8.91602 774.588 8.91602C774.992 8.91602 775.415 8.97461 775.857 9.0918C776.3 9.20898 776.697 9.37826 777.049 9.59961L776.307 11.6211C775.766 11.3021 775.288 11.1426 774.871 11.1426C774.318 11.1426 773.917 11.4323 773.67 12.0117C773.429 12.5846 773.309 13.4473 773.309 14.5996C773.309 15.7259 773.429 16.569 773.67 17.1289C773.911 17.6823 774.305 17.959 774.852 17.959C775.503 17.959 776.183 17.7311 776.893 17.2754V19.5605C776.209 19.9837 775.454 20.1953 774.627 20.1953ZM781.072 20H778.475V9.12109H781.072V20ZM778.367 6.2793C778.367 5.84961 778.491 5.51107 778.738 5.26367C778.992 5.00977 779.344 4.88281 779.793 4.88281C780.216 4.88281 780.555 5.00977 780.809 5.26367C781.062 5.51107 781.189 5.84961 781.189 6.2793C781.189 6.72201 781.059 7.06706 780.799 7.31445C780.538 7.55534 780.203 7.67578 779.793 7.67578C779.363 7.67578 779.018 7.55534 778.758 7.31445C778.497 7.06706 778.367 6.72201 778.367 6.2793ZM791.355 14.541C791.355 16.3249 790.978 17.7148 790.223 18.7109C789.467 19.7005 788.432 20.1953 787.117 20.1953C786.284 20.1953 785.548 19.9674 784.91 19.5117C784.272 19.056 783.781 18.4017 783.436 17.5488C783.09 16.6895 782.918 15.6868 782.918 14.541C782.918 12.7767 783.292 11.3997 784.041 10.4102C784.79 9.41406 785.828 8.91602 787.156 8.91602C788.439 8.91602 789.458 9.42383 790.213 10.4395C790.975 11.4486 791.355 12.8158 791.355 14.541ZM785.574 14.541C785.574 15.6738 785.698 16.5299 785.945 17.1094C786.193 17.6888 786.59 17.9785 787.137 17.9785C788.178 17.9785 788.699 16.8327 788.699 14.541C788.699 13.4017 788.572 12.5521 788.318 11.9922C788.071 11.4258 787.677 11.1426 787.137 11.1426C786.59 11.1426 786.193 11.4258 785.945 11.9922C785.698 12.5521 785.574 13.4017 785.574 14.541ZM785.77 7.88086V7.61719C786.036 7.27214 786.346 6.7806 786.697 6.14258C787.049 5.50456 787.299 5.01628 787.449 4.67773H790.555V4.88281C790.398 5.16276 790.011 5.61523 789.393 6.24023C788.774 6.85872 788.175 7.4056 787.596 7.88086H785.77ZM798.602 20V13.5156C798.602 12.7279 798.507 12.1322 798.318 11.7285C798.13 11.3249 797.824 11.123 797.4 11.123C796.84 11.123 796.43 11.403 796.17 11.9629C795.91 12.5163 795.779 13.4538 795.779 14.7754V20H793.182V9.12109H795.242L795.555 10.5176H795.721C795.955 10.0163 796.29 9.62565 796.727 9.3457C797.163 9.05924 797.674 8.91602 798.26 8.91602C799.249 8.91602 799.988 9.25456 800.477 9.93164C800.971 10.6087 801.219 11.5983 801.219 12.9004V20H798.602ZM814.92 16.0645C814.92 17.3991 814.581 18.4212 813.904 19.1309C813.234 19.8405 812.264 20.1953 810.994 20.1953C809.751 20.1953 808.693 19.9512 807.82 19.4629V16.8359C808.888 17.5326 809.868 17.8809 810.76 17.8809C811.268 17.8809 811.648 17.7409 811.902 17.4609C812.163 17.181 812.293 16.8001 812.293 16.3184C812.293 15.8431 812.14 15.4102 811.834 15.0195C811.528 14.6224 811.023 14.1829 810.32 13.7012C809.708 13.278 809.243 12.8743 808.924 12.4902C808.611 12.0996 808.367 11.6634 808.191 11.1816C808.022 10.6999 807.938 10.14 807.938 9.50195C807.938 8.27799 808.276 7.30794 808.953 6.5918C809.637 5.87565 810.551 5.51758 811.697 5.51758C812.791 5.51758 813.842 5.82357 814.852 6.43555L813.973 8.56445C813.66 8.38216 813.331 8.2194 812.986 8.07617C812.648 7.93294 812.283 7.86133 811.893 7.86133C811.463 7.86133 811.131 8.00456 810.896 8.29102C810.669 8.57096 810.555 8.95508 810.555 9.44336C810.555 9.92513 810.691 10.3451 810.965 10.7031C811.245 11.0612 811.73 11.4681 812.42 11.9238C813.351 12.5488 813.999 13.1868 814.363 13.8379C814.734 14.4889 814.92 15.2311 814.92 16.0645ZM821.854 20L821.336 18.5156H821.277C820.893 19.1536 820.496 19.5931 820.086 19.834C819.676 20.0749 819.158 20.1953 818.533 20.1953C817.732 20.1953 817.101 19.8958 816.639 19.2969C816.183 18.6979 815.955 17.8646 815.955 16.7969C815.955 15.651 816.268 14.8014 816.893 14.248C817.524 13.6882 818.465 13.3789 819.715 13.3203L821.16 13.2617V12.4805C821.16 11.4648 820.721 10.957 819.842 10.957C819.191 10.957 818.442 11.2109 817.596 11.7188L816.697 9.92188C817.778 9.23828 818.953 8.89648 820.223 8.89648C821.375 8.89648 822.251 9.22852 822.85 9.89258C823.455 10.5501 823.758 11.4844 823.758 12.6953V20H821.854ZM819.598 18.1641C820.073 18.1641 820.451 17.9525 820.73 17.5293C821.017 17.0996 821.16 16.5299 821.16 15.8203V14.9023L820.359 14.9414C819.767 14.974 819.331 15.1432 819.051 15.4492C818.777 15.7552 818.641 16.2109 818.641 16.8164C818.641 17.7148 818.96 18.1641 819.598 18.1641ZM831.277 20V13.5156C831.277 12.7279 831.183 12.1322 830.994 11.7285C830.805 11.3249 830.499 11.123 830.076 11.123C829.516 11.123 829.106 11.403 828.846 11.9629C828.585 12.5163 828.455 13.4538 828.455 14.7754V20H825.857V9.12109H827.918L828.23 10.5176H828.396C828.631 10.0163 828.966 9.62565 829.402 9.3457C829.839 9.05924 830.35 8.91602 830.936 8.91602C831.925 8.91602 832.664 9.25456 833.152 9.93164C833.647 10.6087 833.895 11.5983 833.895 12.9004V20H831.277ZM838.855 20.1953C837.853 20.1953 837.062 19.7005 836.482 18.7109C835.903 17.7214 835.613 16.3444 835.613 14.5801C835.613 12.8092 835.896 11.4225 836.463 10.4199C837.029 9.41732 837.811 8.91602 838.807 8.91602C839.301 8.91602 839.728 9.03971 840.086 9.28711C840.451 9.52799 840.786 9.93815 841.092 10.5176H841.248C841.17 9.52799 841.131 8.83464 841.131 8.4375V4.80469H843.729V20H841.795L841.355 18.584H841.268C840.714 19.6582 839.91 20.1953 838.855 20.1953ZM839.695 17.998C840.177 17.998 840.529 17.7799 840.75 17.3438C840.971 16.901 841.092 16.1003 841.111 14.9414V14.5996C841.111 13.3366 840.997 12.4479 840.77 11.9336C840.548 11.4193 840.18 11.1621 839.666 11.1621C839.184 11.1621 838.833 11.4583 838.611 12.0508C838.396 12.6367 838.289 13.4928 838.289 14.6191C838.289 15.7454 838.4 16.5918 838.621 17.1582C838.842 17.7181 839.201 17.998 839.695 17.998ZM848.533 20H845.936V9.12109H848.533V20ZM845.828 6.2793C845.828 5.84961 845.952 5.51107 846.199 5.26367C846.453 5.00977 846.805 4.88281 847.254 4.88281C847.677 4.88281 848.016 5.00977 848.27 5.26367C848.523 5.51107 848.65 5.84961 848.65 6.2793C848.65 6.72201 848.52 7.06706 848.26 7.31445C847.999 7.55534 847.664 7.67578 847.254 7.67578C846.824 7.67578 846.479 7.55534 846.219 7.31445C845.958 7.06706 845.828 6.72201 845.828 6.2793ZM856.18 20V13.5156C856.18 12.7279 856.085 12.1322 855.896 11.7285C855.708 11.3249 855.402 11.123 854.979 11.123C854.419 11.123 854.008 11.403 853.748 11.9629C853.488 12.5163 853.357 13.4538 853.357 14.7754V20H850.76V9.12109H852.82L853.133 10.5176H853.299C853.533 10.0163 853.868 9.62565 854.305 9.3457C854.741 9.05924 855.252 8.91602 855.838 8.91602C856.827 8.91602 857.566 9.25456 858.055 9.93164C858.549 10.6087 858.797 11.5983 858.797 12.9004V20H856.18ZM863.514 20H860.916V9.12109H863.514V20ZM860.809 6.2793C860.809 5.84961 860.932 5.51107 861.18 5.26367C861.434 5.00977 861.785 4.88281 862.234 4.88281C862.658 4.88281 862.996 5.00977 863.25 5.26367C863.504 5.51107 863.631 5.84961 863.631 6.2793C863.631 6.72201 863.501 7.06706 863.24 7.31445C862.98 7.55534 862.645 7.67578 862.234 7.67578C861.805 7.67578 861.46 7.55534 861.199 7.31445C860.939 7.06706 860.809 6.72201 860.809 6.2793ZM871.58 16.8164C871.58 17.8776 871.268 18.7077 870.643 19.3066C870.024 19.8991 869.109 20.1953 867.898 20.1953C866.824 20.1953 865.936 19.9837 865.232 19.5605V17.3047C865.59 17.5521 866.007 17.7572 866.482 17.9199C866.964 18.0827 867.387 18.1641 867.752 18.1641C868.156 18.1641 868.462 18.0664 868.67 17.8711C868.885 17.6693 868.992 17.4056 868.992 17.0801C868.992 16.748 868.882 16.4583 868.66 16.2109C868.439 15.9635 868.032 15.6608 867.439 15.3027C866.652 14.834 866.085 14.3359 865.74 13.8086C865.402 13.2747 865.232 12.6465 865.232 11.9238C865.232 10.9993 865.548 10.2669 866.18 9.72656C866.818 9.1862 867.69 8.91602 868.797 8.91602C869.76 8.91602 870.669 9.16992 871.521 9.67773L870.672 11.543C869.975 11.1654 869.363 10.9766 868.836 10.9766C868.504 10.9766 868.253 11.0645 868.084 11.2402C867.921 11.416 867.84 11.6309 867.84 11.8848C867.84 12.1777 867.941 12.4382 868.143 12.666C868.351 12.8939 868.735 13.1771 869.295 13.5156C869.972 13.9258 870.447 14.2741 870.721 14.5605C870.994 14.847 871.206 15.1725 871.355 15.5371C871.505 15.9017 871.58 16.3281 871.58 16.8164ZM877 17.998C877.365 17.998 877.758 17.9069 878.182 17.7246V19.7559C877.758 20.0488 877.124 20.1953 876.277 20.1953C875.333 20.1953 874.633 19.9154 874.178 19.3555C873.722 18.7891 873.494 17.9427 873.494 16.8164V11.1816H872.439V10.0195L873.797 9.08203L874.461 6.77734H876.121V9.12109H878.094V11.1816H876.121V16.9043C876.121 17.6335 876.414 17.998 877 17.998ZM885.037 20L884.52 18.5156H884.461C884.077 19.1536 883.68 19.5931 883.27 19.834C882.859 20.0749 882.342 20.1953 881.717 20.1953C880.916 20.1953 880.285 19.8958 879.822 19.2969C879.367 18.6979 879.139 17.8646 879.139 16.7969C879.139 15.651 879.451 14.8014 880.076 14.248C880.708 13.6882 881.648 13.3789 882.898 13.3203L884.344 13.2617V12.4805C884.344 11.4648 883.904 10.957 883.025 10.957C882.374 10.957 881.626 11.2109 880.779 11.7188L879.881 9.92188C880.962 9.23828 882.137 8.89648 883.406 8.89648C884.559 8.89648 885.434 9.22852 886.033 9.89258C886.639 10.5501 886.941 11.4844 886.941 12.6953V20H885.037ZM882.781 18.1641C883.257 18.1641 883.634 17.9525 883.914 17.5293C884.201 17.0996 884.344 16.5299 884.344 15.8203V14.9023L883.543 14.9414C882.951 14.974 882.514 15.1432 882.234 15.4492C881.961 15.7552 881.824 16.2109 881.824 16.8164C881.824 17.7148 882.143 18.1641 882.781 18.1641Z" fill="#DB3F28"/>
<path d="M554.576 12.0801H558.941V19.4043C557.704 19.9316 556.389 20.1953 554.996 20.1953C553.336 20.1953 552.057 19.5638 551.158 18.3008C550.266 17.0378 549.82 15.2181 549.82 12.8418C549.82 10.5501 550.331 8.75651 551.354 7.46094C552.382 6.16536 553.818 5.51758 555.66 5.51758C556.799 5.51758 557.887 5.81055 558.922 6.39648L558.082 8.56445C557.275 8.0957 556.52 7.86133 555.816 7.86133C554.807 7.86133 554.007 8.3138 553.414 9.21875C552.828 10.1172 552.535 11.3444 552.535 12.9004C552.535 14.502 552.747 15.7292 553.17 16.582C553.6 17.4349 554.221 17.8613 555.035 17.8613C555.465 17.8613 555.901 17.806 556.344 17.6953V14.4238H554.576V12.0801ZM569.02 14.541C569.02 16.3249 568.642 17.7148 567.887 18.7109C567.132 19.7005 566.096 20.1953 564.781 20.1953C563.948 20.1953 563.212 19.9674 562.574 19.5117C561.936 19.056 561.445 18.4017 561.1 17.5488C560.755 16.6895 560.582 15.6868 560.582 14.541C560.582 12.7767 560.956 11.3997 561.705 10.4102C562.454 9.41406 563.492 8.91602 564.82 8.91602C566.103 8.91602 567.122 9.42383 567.877 10.4395C568.639 11.4486 569.02 12.8158 569.02 14.541ZM563.238 14.541C563.238 15.6738 563.362 16.5299 563.609 17.1094C563.857 17.6888 564.254 17.9785 564.801 17.9785C565.842 17.9785 566.363 16.8327 566.363 14.541C566.363 13.4017 566.236 12.5521 565.982 11.9922C565.735 11.4258 565.341 11.1426 564.801 11.1426C564.254 11.1426 563.857 11.4258 563.609 11.9922C563.362 12.5521 563.238 13.4017 563.238 14.541ZM573.443 20H570.846V4.80469H573.443V20ZM580.484 20.1953C580.016 20.1953 579.599 20.0911 579.234 19.8828C578.876 19.668 578.541 19.2936 578.229 18.7598H578.092C578.196 19.6452 578.248 20.179 578.248 20.3613V24.8047H575.631V9.12109H577.643L578.092 10.5371H578.209C578.749 9.45638 579.534 8.91602 580.562 8.91602C581.552 8.91602 582.327 9.40755 582.887 10.3906C583.447 11.3672 583.727 12.7507 583.727 14.541C583.727 16.3053 583.437 17.6888 582.857 18.6914C582.278 19.694 581.487 20.1953 580.484 20.1953ZM579.684 11.123C579.176 11.123 578.808 11.3607 578.58 11.8359C578.359 12.3047 578.242 13.0859 578.229 14.1797V14.5215C578.229 15.7194 578.342 16.5918 578.57 17.1387C578.798 17.6855 579.176 17.959 579.703 17.959C580.615 17.959 581.07 16.8066 581.07 14.502C581.07 13.3691 580.956 12.5228 580.729 11.9629C580.507 11.403 580.159 11.123 579.684 11.123ZM589.566 20.1953C588.206 20.1953 587.132 19.7135 586.344 18.75C585.562 17.7799 585.172 16.4095 585.172 14.6387C585.172 12.8418 585.527 11.4388 586.236 10.4297C586.946 9.42057 587.936 8.91602 589.205 8.91602C590.39 8.91602 591.324 9.34896 592.008 10.2148C592.691 11.0742 593.033 12.2819 593.033 13.8379V15.2246H587.809C587.828 16.1947 588.027 16.9173 588.404 17.3926C588.782 17.8613 589.303 18.0957 589.967 18.0957C590.813 18.0957 591.679 17.832 592.564 17.3047V19.4434C591.731 19.9447 590.732 20.1953 589.566 20.1953ZM589.186 10.918C588.814 10.918 588.508 11.1165 588.268 11.5137C588.027 11.9043 587.887 12.513 587.848 13.3398H590.484C590.471 12.5456 590.351 11.9434 590.123 11.5332C589.895 11.123 589.583 10.918 589.186 10.918ZM602.555 20.1953C601.552 20.1953 600.761 19.7005 600.182 18.7109C599.602 17.7214 599.312 16.3444 599.312 14.5801C599.312 12.8092 599.596 11.4225 600.162 10.4199C600.729 9.41732 601.51 8.91602 602.506 8.91602C603.001 8.91602 603.427 9.03971 603.785 9.28711C604.15 9.52799 604.485 9.93815 604.791 10.5176H604.947C604.869 9.52799 604.83 8.83464 604.83 8.4375V4.80469H607.428V20H605.494L605.055 18.584H604.967C604.413 19.6582 603.609 20.1953 602.555 20.1953ZM603.395 17.998C603.876 17.998 604.228 17.7799 604.449 17.3438C604.671 16.901 604.791 16.1003 604.811 14.9414V14.5996C604.811 13.3366 604.697 12.4479 604.469 11.9336C604.247 11.4193 603.88 11.1621 603.365 11.1621C602.883 11.1621 602.532 11.4583 602.311 12.0508C602.096 12.6367 601.988 13.4928 601.988 14.6191C601.988 15.7454 602.099 16.5918 602.32 17.1582C602.542 17.7181 602.9 17.998 603.395 17.998ZM613.629 20.1953C612.268 20.1953 611.194 19.7135 610.406 18.75C609.625 17.7799 609.234 16.4095 609.234 14.6387C609.234 12.8418 609.589 11.4388 610.299 10.4297C611.008 9.42057 611.998 8.91602 613.268 8.91602C614.452 8.91602 615.387 9.34896 616.07 10.2148C616.754 11.0742 617.096 12.2819 617.096 13.8379V15.2246H611.871C611.891 16.1947 612.089 16.9173 612.467 17.3926C612.844 17.8613 613.365 18.0957 614.029 18.0957C614.876 18.0957 615.742 17.832 616.627 17.3047V19.4434C615.794 19.9447 614.794 20.1953 613.629 20.1953ZM613.248 10.918C612.877 10.918 612.571 11.1165 612.33 11.5137C612.089 11.9043 611.949 12.513 611.91 13.3398H614.547C614.534 12.5456 614.413 11.9434 614.186 11.5332C613.958 11.123 613.645 10.918 613.248 10.918ZM630.348 20H623.912V5.72266H630.348V8.01758H626.568V11.416H630.074V13.7207H626.568V17.6758H630.348V20ZM638.111 16.8164C638.111 17.8776 637.799 18.7077 637.174 19.3066C636.555 19.8991 635.641 20.1953 634.43 20.1953C633.355 20.1953 632.467 19.9837 631.764 19.5605V17.3047C632.122 17.5521 632.538 17.7572 633.014 17.9199C633.495 18.0827 633.919 18.1641 634.283 18.1641C634.687 18.1641 634.993 18.0664 635.201 17.8711C635.416 17.6693 635.523 17.4056 635.523 17.0801C635.523 16.748 635.413 16.4583 635.191 16.2109C634.97 15.9635 634.563 15.6608 633.971 15.3027C633.183 14.834 632.617 14.3359 632.271 13.8086C631.933 13.2747 631.764 12.6465 631.764 11.9238C631.764 10.9993 632.079 10.2669 632.711 9.72656C633.349 9.1862 634.221 8.91602 635.328 8.91602C636.292 8.91602 637.2 9.16992 638.053 9.67773L637.203 11.543C636.507 11.1654 635.895 10.9766 635.367 10.9766C635.035 10.9766 634.785 11.0645 634.615 11.2402C634.452 11.416 634.371 11.6309 634.371 11.8848C634.371 12.1777 634.472 12.4382 634.674 12.666C634.882 12.8939 635.266 13.1771 635.826 13.5156C636.503 13.9258 636.979 14.2741 637.252 14.5605C637.525 14.847 637.737 15.1725 637.887 15.5371C638.036 15.9017 638.111 16.3281 638.111 16.8164ZM643.531 17.998C643.896 17.998 644.29 17.9069 644.713 17.7246V19.7559C644.29 20.0488 643.655 20.1953 642.809 20.1953C641.865 20.1953 641.165 19.9154 640.709 19.3555C640.253 18.7891 640.025 17.9427 640.025 16.8164V11.1816H638.971V10.0195L640.328 9.08203L640.992 6.77734H642.652V9.12109H644.625V11.1816H642.652V16.9043C642.652 17.6335 642.945 17.998 643.531 17.998ZM651.568 20L651.051 18.5156H650.992C650.608 19.1536 650.211 19.5931 649.801 19.834C649.391 20.0749 648.873 20.1953 648.248 20.1953C647.447 20.1953 646.816 19.8958 646.354 19.2969C645.898 18.6979 645.67 17.8646 645.67 16.7969C645.67 15.651 645.982 14.8014 646.607 14.248C647.239 13.6882 648.18 13.3789 649.43 13.3203L650.875 13.2617V12.4805C650.875 11.4648 650.436 10.957 649.557 10.957C648.906 10.957 648.157 11.2109 647.311 11.7188L646.412 9.92188C647.493 9.23828 648.668 8.89648 649.938 8.89648C651.09 8.89648 651.965 9.22852 652.564 9.89258C653.17 10.5501 653.473 11.4844 653.473 12.6953V20H651.568ZM649.312 18.1641C649.788 18.1641 650.165 17.9525 650.445 17.5293C650.732 17.0996 650.875 16.5299 650.875 15.8203V14.9023L650.074 14.9414C649.482 14.974 649.046 15.1432 648.766 15.4492C648.492 15.7552 648.355 16.2109 648.355 16.8164C648.355 17.7148 648.674 18.1641 649.312 18.1641ZM658.434 20.1953C657.431 20.1953 656.64 19.7005 656.061 18.7109C655.481 17.7214 655.191 16.3444 655.191 14.5801C655.191 12.8092 655.475 11.4225 656.041 10.4199C656.607 9.41732 657.389 8.91602 658.385 8.91602C658.88 8.91602 659.306 9.03971 659.664 9.28711C660.029 9.52799 660.364 9.93815 660.67 10.5176H660.826C660.748 9.52799 660.709 8.83464 660.709 8.4375V4.80469H663.307V20H661.373L660.934 18.584H660.846C660.292 19.6582 659.488 20.1953 658.434 20.1953ZM659.273 17.998C659.755 17.998 660.107 17.7799 660.328 17.3438C660.549 16.901 660.67 16.1003 660.689 14.9414V14.5996C660.689 13.3366 660.576 12.4479 660.348 11.9336C660.126 11.4193 659.758 11.1621 659.244 11.1621C658.762 11.1621 658.411 11.4583 658.189 12.0508C657.975 12.6367 657.867 13.4928 657.867 14.6191C657.867 15.7454 657.978 16.5918 658.199 17.1582C658.421 17.7181 658.779 17.998 659.273 17.998ZM673.551 14.541C673.551 16.3249 673.173 17.7148 672.418 18.7109C671.663 19.7005 670.628 20.1953 669.312 20.1953C668.479 20.1953 667.743 19.9674 667.105 19.5117C666.467 19.056 665.976 18.4017 665.631 17.5488C665.286 16.6895 665.113 15.6868 665.113 14.541C665.113 12.7767 665.488 11.3997 666.236 10.4102C666.985 9.41406 668.023 8.91602 669.352 8.91602C670.634 8.91602 671.653 9.42383 672.408 10.4395C673.17 11.4486 673.551 12.8158 673.551 14.541ZM667.77 14.541C667.77 15.6738 667.893 16.5299 668.141 17.1094C668.388 17.6888 668.785 17.9785 669.332 17.9785C670.374 17.9785 670.895 16.8327 670.895 14.541C670.895 13.4017 670.768 12.5521 670.514 11.9922C670.266 11.4258 669.872 11.1426 669.332 11.1426C668.785 11.1426 668.388 11.4258 668.141 11.9922C667.893 12.5521 667.77 13.4017 667.77 14.541Z" fill="#DB3F28"/>
<rect x="526" y="4" width="17" height="17" fill="#DB3F28"/>
</svg>
