<svg width="1416" height="794" viewBox="0 0 1416 794" fill="none" xmlns="http://www.w3.org/2000/svg">
<path d="M168.596 754.685H123.886V254.02C123.886 213.346 125.128 169.411 127.611 122.217C121.091 130.911 105.877 147.211 81.9694 171.119L23.7525 224.213L0 194.872L131.337 73.7804H168.596V754.685Z" fill="#E9E9E9"/>
<path d="M643.18 355.085C643.18 490.769 626.103 592.92 591.949 661.538C558.106 729.846 508.428 764 442.914 764C431.426 764 419.162 762.913 406.121 760.74C393.391 758.566 384.542 756.238 379.574 753.754V709.043C396.651 716.495 419.006 720.221 446.64 720.221C491.661 720.221 527.212 694.14 553.293 641.977C579.375 589.815 593.968 515.453 597.073 418.89H593.347C582.79 442.487 568.352 460.962 550.033 474.313C531.714 487.664 510.601 494.339 486.693 494.339C444.156 494.339 410.778 475.244 386.56 437.054C362.342 398.864 350.233 347.322 350.233 282.43C350.233 214.743 363.273 161.494 389.355 122.683C415.746 83.5609 452.229 64 498.802 64C546.307 64 582.169 89.1497 606.387 139.449C630.916 189.438 643.18 261.316 643.18 355.085ZM496.008 107.779C465.58 107.779 441.362 122.217 423.353 151.092C405.655 179.658 396.806 222.816 396.806 280.567C396.806 335.834 404.879 378.216 421.025 407.713C437.17 436.899 461.233 451.492 493.214 451.492C524.263 451.492 549.102 438.451 567.731 412.37C586.671 385.978 596.141 350.893 596.141 307.114C596.141 268.303 591.949 233.372 583.566 202.323C575.493 171.274 564.005 147.832 549.102 131.997C534.198 115.852 516.5 107.779 496.008 107.779Z" fill="#E9E9E9"/>
<path d="M1025.08 355.085C1025.08 490.769 1008.01 592.92 973.852 661.538C940.009 729.846 890.331 764 824.817 764C813.329 764 801.065 762.913 788.024 760.74C775.294 758.566 766.445 756.238 761.477 753.754V709.043C778.554 716.495 800.909 720.221 828.543 720.221C873.564 720.221 909.115 694.14 935.196 641.977C961.277 589.815 975.871 515.453 978.975 418.89H975.25C964.693 442.487 950.255 460.962 931.936 474.313C913.617 487.664 892.504 494.339 868.596 494.339C826.059 494.339 792.681 475.244 768.463 437.054C744.245 398.864 732.136 347.322 732.136 282.43C732.136 214.743 745.176 161.494 771.258 122.683C797.649 83.5609 834.132 64 880.705 64C928.21 64 964.072 89.1497 988.29 139.449C1012.82 189.438 1025.08 261.316 1025.08 355.085ZM877.911 107.779C847.483 107.779 823.265 122.217 805.256 151.092C787.558 179.658 778.709 222.816 778.709 280.567C778.709 335.834 786.782 378.216 802.927 407.713C819.073 436.899 843.136 451.492 875.116 451.492C906.165 451.492 931.005 438.451 949.634 412.37C968.574 385.978 978.044 350.893 978.044 307.114C978.044 268.303 973.852 233.372 965.469 202.323C957.396 171.274 945.908 147.832 931.005 131.997C916.101 115.852 898.403 107.779 877.911 107.779Z" fill="#E9E9E9"/>
<path d="M1415.37 413.301C1415.37 528.493 1402.79 615.741 1377.64 675.045C1352.81 734.348 1315.55 764 1265.87 764C1213.4 764 1175.36 736.677 1151.76 682.031C1128.48 627.074 1116.83 537.497 1116.83 413.301C1116.83 180.434 1166.51 64 1265.87 64C1317.41 64 1355.13 92.8756 1379.04 150.627C1403.26 208.378 1415.37 295.936 1415.37 413.301ZM1164.34 413.301C1164.34 515.763 1172.41 592.609 1188.56 643.84C1205.01 694.761 1230.78 720.221 1265.87 720.221C1333.87 720.221 1367.86 617.914 1367.86 413.301C1367.86 209.62 1333.87 107.779 1265.87 107.779C1230.78 107.779 1205.01 132.929 1188.56 183.228C1172.41 233.528 1164.34 310.219 1164.34 413.301Z" fill="#E9E9E9"/>
<rect x="127" y="743" width="1288" height="21" fill="#DB3F28"/>
<path d="M278.576 12.0801H282.941V19.4043C281.704 19.9316 280.389 20.1953 278.996 20.1953C277.336 20.1953 276.057 19.5638 275.158 18.3008C274.266 17.0378 273.82 15.2181 273.82 12.8418C273.82 10.5501 274.331 8.75651 275.354 7.46094C276.382 6.16536 277.818 5.51758 279.66 5.51758C280.799 5.51758 281.887 5.81055 282.922 6.39648L282.082 8.56445C281.275 8.0957 280.52 7.86133 279.816 7.86133C278.807 7.86133 278.007 8.3138 277.414 9.21875C276.828 10.1172 276.535 11.3444 276.535 12.9004C276.535 14.502 276.747 15.7292 277.17 16.582C277.6 17.4349 278.221 17.8613 279.035 17.8613C279.465 17.8613 279.901 17.806 280.344 17.6953V14.4238H278.576V12.0801ZM293.02 14.541C293.02 16.3249 292.642 17.7148 291.887 18.7109C291.132 19.7005 290.096 20.1953 288.781 20.1953C287.948 20.1953 287.212 19.9674 286.574 19.5117C285.936 19.056 285.445 18.4017 285.1 17.5488C284.755 16.6895 284.582 15.6868 284.582 14.541C284.582 12.7767 284.956 11.3997 285.705 10.4102C286.454 9.41406 287.492 8.91602 288.82 8.91602C290.103 8.91602 291.122 9.42383 291.877 10.4395C292.639 11.4486 293.02 12.8158 293.02 14.541ZM287.238 14.541C287.238 15.6738 287.362 16.5299 287.609 17.1094C287.857 17.6888 288.254 17.9785 288.801 17.9785C289.842 17.9785 290.363 16.8327 290.363 14.541C290.363 13.4017 290.236 12.5521 289.982 11.9922C289.735 11.4258 289.341 11.1426 288.801 11.1426C288.254 11.1426 287.857 11.4258 287.609 11.9922C287.362 12.5521 287.238 13.4017 287.238 14.541ZM297.443 20H294.846V4.80469H297.443V20ZM304.484 20.1953C304.016 20.1953 303.599 20.0911 303.234 19.8828C302.876 19.668 302.541 19.2936 302.229 18.7598H302.092C302.196 19.6452 302.248 20.179 302.248 20.3613V24.8047H299.631V9.12109H301.643L302.092 10.5371H302.209C302.749 9.45638 303.534 8.91602 304.562 8.91602C305.552 8.91602 306.327 9.40755 306.887 10.3906C307.447 11.3672 307.727 12.7507 307.727 14.541C307.727 16.3053 307.437 17.6888 306.857 18.6914C306.278 19.694 305.487 20.1953 304.484 20.1953ZM303.684 11.123C303.176 11.123 302.808 11.3607 302.58 11.8359C302.359 12.3047 302.242 13.0859 302.229 14.1797V14.5215C302.229 15.7194 302.342 16.5918 302.57 17.1387C302.798 17.6855 303.176 17.959 303.703 17.959C304.615 17.959 305.07 16.8066 305.07 14.502C305.07 13.3691 304.956 12.5228 304.729 11.9629C304.507 11.403 304.159 11.123 303.684 11.123ZM313.566 20.1953C312.206 20.1953 311.132 19.7135 310.344 18.75C309.562 17.7799 309.172 16.4095 309.172 14.6387C309.172 12.8418 309.527 11.4388 310.236 10.4297C310.946 9.42057 311.936 8.91602 313.205 8.91602C314.39 8.91602 315.324 9.34896 316.008 10.2148C316.691 11.0742 317.033 12.2819 317.033 13.8379V15.2246H311.809C311.828 16.1947 312.027 16.9173 312.404 17.3926C312.782 17.8613 313.303 18.0957 313.967 18.0957C314.813 18.0957 315.679 17.832 316.564 17.3047V19.4434C315.731 19.9447 314.732 20.1953 313.566 20.1953ZM313.186 10.918C312.814 10.918 312.508 11.1165 312.268 11.5137C312.027 11.9043 311.887 12.513 311.848 13.3398H314.484C314.471 12.5456 314.351 11.9434 314.123 11.5332C313.895 11.123 313.583 10.918 313.186 10.918ZM326.555 20.1953C325.552 20.1953 324.761 19.7005 324.182 18.7109C323.602 17.7214 323.312 16.3444 323.312 14.5801C323.312 12.8092 323.596 11.4225 324.162 10.4199C324.729 9.41732 325.51 8.91602 326.506 8.91602C327.001 8.91602 327.427 9.03971 327.785 9.28711C328.15 9.52799 328.485 9.93815 328.791 10.5176H328.947C328.869 9.52799 328.83 8.83464 328.83 8.4375V4.80469H331.428V20H329.494L329.055 18.584H328.967C328.413 19.6582 327.609 20.1953 326.555 20.1953ZM327.395 17.998C327.876 17.998 328.228 17.7799 328.449 17.3438C328.671 16.901 328.791 16.1003 328.811 14.9414V14.5996C328.811 13.3366 328.697 12.4479 328.469 11.9336C328.247 11.4193 327.88 11.1621 327.365 11.1621C326.883 11.1621 326.532 11.4583 326.311 12.0508C326.096 12.6367 325.988 13.4928 325.988 14.6191C325.988 15.7454 326.099 16.5918 326.32 17.1582C326.542 17.7181 326.9 17.998 327.395 17.998ZM337.629 20.1953C336.268 20.1953 335.194 19.7135 334.406 18.75C333.625 17.7799 333.234 16.4095 333.234 14.6387C333.234 12.8418 333.589 11.4388 334.299 10.4297C335.008 9.42057 335.998 8.91602 337.268 8.91602C338.452 8.91602 339.387 9.34896 340.07 10.2148C340.754 11.0742 341.096 12.2819 341.096 13.8379V15.2246H335.871C335.891 16.1947 336.089 16.9173 336.467 17.3926C336.844 17.8613 337.365 18.0957 338.029 18.0957C338.876 18.0957 339.742 17.832 340.627 17.3047V19.4434C339.794 19.9447 338.794 20.1953 337.629 20.1953ZM337.248 10.918C336.877 10.918 336.571 11.1165 336.33 11.5137C336.089 11.9043 335.949 12.513 335.91 13.3398H338.547C338.534 12.5456 338.413 11.9434 338.186 11.5332C337.958 11.123 337.645 10.918 337.248 10.918ZM354.348 20H347.912V5.72266H354.348V8.01758H350.568V11.416H354.074V13.7207H350.568V17.6758H354.348V20ZM362.111 16.8164C362.111 17.8776 361.799 18.7077 361.174 19.3066C360.555 19.8991 359.641 20.1953 358.43 20.1953C357.355 20.1953 356.467 19.9837 355.764 19.5605V17.3047C356.122 17.5521 356.538 17.7572 357.014 17.9199C357.495 18.0827 357.919 18.1641 358.283 18.1641C358.687 18.1641 358.993 18.0664 359.201 17.8711C359.416 17.6693 359.523 17.4056 359.523 17.0801C359.523 16.748 359.413 16.4583 359.191 16.2109C358.97 15.9635 358.563 15.6608 357.971 15.3027C357.183 14.834 356.617 14.3359 356.271 13.8086C355.933 13.2747 355.764 12.6465 355.764 11.9238C355.764 10.9993 356.079 10.2669 356.711 9.72656C357.349 9.1862 358.221 8.91602 359.328 8.91602C360.292 8.91602 361.2 9.16992 362.053 9.67773L361.203 11.543C360.507 11.1654 359.895 10.9766 359.367 10.9766C359.035 10.9766 358.785 11.0645 358.615 11.2402C358.452 11.416 358.371 11.6309 358.371 11.8848C358.371 12.1777 358.472 12.4382 358.674 12.666C358.882 12.8939 359.266 13.1771 359.826 13.5156C360.503 13.9258 360.979 14.2741 361.252 14.5605C361.525 14.847 361.737 15.1725 361.887 15.5371C362.036 15.9017 362.111 16.3281 362.111 16.8164ZM367.531 17.998C367.896 17.998 368.29 17.9069 368.713 17.7246V19.7559C368.29 20.0488 367.655 20.1953 366.809 20.1953C365.865 20.1953 365.165 19.9154 364.709 19.3555C364.253 18.7891 364.025 17.9427 364.025 16.8164V11.1816H362.971V10.0195L364.328 9.08203L364.992 6.77734H366.652V9.12109H368.625V11.1816H366.652V16.9043C366.652 17.6335 366.945 17.998 367.531 17.998ZM375.568 20L375.051 18.5156H374.992C374.608 19.1536 374.211 19.5931 373.801 19.834C373.391 20.0749 372.873 20.1953 372.248 20.1953C371.447 20.1953 370.816 19.8958 370.354 19.2969C369.898 18.6979 369.67 17.8646 369.67 16.7969C369.67 15.651 369.982 14.8014 370.607 14.248C371.239 13.6882 372.18 13.3789 373.43 13.3203L374.875 13.2617V12.4805C374.875 11.4648 374.436 10.957 373.557 10.957C372.906 10.957 372.157 11.2109 371.311 11.7188L370.412 9.92188C371.493 9.23828 372.668 8.89648 373.938 8.89648C375.09 8.89648 375.965 9.22852 376.564 9.89258C377.17 10.5501 377.473 11.4844 377.473 12.6953V20H375.568ZM373.312 18.1641C373.788 18.1641 374.165 17.9525 374.445 17.5293C374.732 17.0996 374.875 16.5299 374.875 15.8203V14.9023L374.074 14.9414C373.482 14.974 373.046 15.1432 372.766 15.4492C372.492 15.7552 372.355 16.2109 372.355 16.8164C372.355 17.7148 372.674 18.1641 373.312 18.1641ZM382.434 20.1953C381.431 20.1953 380.64 19.7005 380.061 18.7109C379.481 17.7214 379.191 16.3444 379.191 14.5801C379.191 12.8092 379.475 11.4225 380.041 10.4199C380.607 9.41732 381.389 8.91602 382.385 8.91602C382.88 8.91602 383.306 9.03971 383.664 9.28711C384.029 9.52799 384.364 9.93815 384.67 10.5176H384.826C384.748 9.52799 384.709 8.83464 384.709 8.4375V4.80469H387.307V20H385.373L384.934 18.584H384.846C384.292 19.6582 383.488 20.1953 382.434 20.1953ZM383.273 17.998C383.755 17.998 384.107 17.7799 384.328 17.3438C384.549 16.901 384.67 16.1003 384.689 14.9414V14.5996C384.689 13.3366 384.576 12.4479 384.348 11.9336C384.126 11.4193 383.758 11.1621 383.244 11.1621C382.762 11.1621 382.411 11.4583 382.189 12.0508C381.975 12.6367 381.867 13.4928 381.867 14.6191C381.867 15.7454 381.978 16.5918 382.199 17.1582C382.421 17.7181 382.779 17.998 383.273 17.998ZM397.551 14.541C397.551 16.3249 397.173 17.7148 396.418 18.7109C395.663 19.7005 394.628 20.1953 393.312 20.1953C392.479 20.1953 391.743 19.9674 391.105 19.5117C390.467 19.056 389.976 18.4017 389.631 17.5488C389.286 16.6895 389.113 15.6868 389.113 14.541C389.113 12.7767 389.488 11.3997 390.236 10.4102C390.985 9.41406 392.023 8.91602 393.352 8.91602C394.634 8.91602 395.653 9.42383 396.408 10.4395C397.17 11.4486 397.551 12.8158 397.551 14.541ZM391.77 14.541C391.77 15.6738 391.893 16.5299 392.141 17.1094C392.388 17.6888 392.785 17.9785 393.332 17.9785C394.374 17.9785 394.895 16.8327 394.895 14.541C394.895 13.4017 394.768 12.5521 394.514 11.9922C394.266 11.4258 393.872 11.1426 393.332 11.1426C392.785 11.1426 392.388 11.4258 392.141 11.9922C391.893 12.5521 391.77 13.4017 391.77 14.541Z" fill="#DB3F28"/>
<rect x="250" y="4" width="17" height="17" fill="#DB3F28"/>
<path d="M444.738 20V5.72266H447.238V20H444.738ZM455.52 20V13.5156C455.52 12.7279 455.425 12.1322 455.236 11.7285C455.048 11.3249 454.742 11.123 454.318 11.123C453.758 11.123 453.348 11.403 453.088 11.9629C452.827 12.5163 452.697 13.4538 452.697 14.7754V20H450.1V9.12109H452.16L452.473 10.5176H452.639C452.873 10.0163 453.208 9.62565 453.645 9.3457C454.081 9.05924 454.592 8.91602 455.178 8.91602C456.167 8.91602 456.906 9.25456 457.395 9.93164C457.889 10.6087 458.137 11.5983 458.137 12.9004V20H455.52ZM464.016 17.998C464.38 17.998 464.774 17.9069 465.197 17.7246V19.7559C464.774 20.0488 464.139 20.1953 463.293 20.1953C462.349 20.1953 461.649 19.9154 461.193 19.3555C460.738 18.7891 460.51 17.9427 460.51 16.8164V11.1816H459.455V10.0195L460.812 9.08203L461.477 6.77734H463.137V9.12109H465.109V11.1816H463.137V16.9043C463.137 17.6335 463.43 17.998 464.016 17.998ZM470.734 20.1953C469.374 20.1953 468.299 19.7135 467.512 18.75C466.73 17.7799 466.34 16.4095 466.34 14.6387C466.34 12.8418 466.695 11.4388 467.404 10.4297C468.114 9.42057 469.104 8.91602 470.373 8.91602C471.558 8.91602 472.492 9.34896 473.176 10.2148C473.859 11.0742 474.201 12.2819 474.201 13.8379V15.2246H468.977C468.996 16.1947 469.195 16.9173 469.572 17.3926C469.95 17.8613 470.471 18.0957 471.135 18.0957C471.981 18.0957 472.847 17.832 473.732 17.3047V19.4434C472.899 19.9447 471.9 20.1953 470.734 20.1953ZM470.354 10.918C469.982 10.918 469.676 11.1165 469.436 11.5137C469.195 11.9043 469.055 12.513 469.016 13.3398H471.652C471.639 12.5456 471.519 11.9434 471.291 11.5332C471.063 11.123 470.751 10.918 470.354 10.918ZM481.34 20V13.5156C481.34 12.7279 481.245 12.1322 481.057 11.7285C480.868 11.3249 480.562 11.123 480.139 11.123C479.579 11.123 479.169 11.403 478.908 11.9629C478.648 12.5163 478.518 13.4538 478.518 14.7754V20H475.92V9.12109H477.98L478.293 10.5176H478.459C478.693 10.0163 479.029 9.62565 479.465 9.3457C479.901 9.05924 480.412 8.91602 480.998 8.91602C481.988 8.91602 482.727 9.25456 483.215 9.93164C483.71 10.6087 483.957 11.5983 483.957 12.9004V20H481.34ZM489.836 17.998C490.201 17.998 490.594 17.9069 491.018 17.7246V19.7559C490.594 20.0488 489.96 20.1953 489.113 20.1953C488.169 20.1953 487.469 19.9154 487.014 19.3555C486.558 18.7891 486.33 17.9427 486.33 16.8164V11.1816H485.275V10.0195L486.633 9.08203L487.297 6.77734H488.957V9.12109H490.93V11.1816H488.957V16.9043C488.957 17.6335 489.25 17.998 489.836 17.998ZM500.598 14.541C500.598 16.3249 500.22 17.7148 499.465 18.7109C498.71 19.7005 497.674 20.1953 496.359 20.1953C495.526 20.1953 494.79 19.9674 494.152 19.5117C493.514 19.056 493.023 18.4017 492.678 17.5488C492.333 16.6895 492.16 15.6868 492.16 14.541C492.16 12.7767 492.535 11.3997 493.283 10.4102C494.032 9.41406 495.07 8.91602 496.398 8.91602C497.681 8.91602 498.7 9.42383 499.455 10.4395C500.217 11.4486 500.598 12.8158 500.598 14.541ZM494.816 14.541C494.816 15.6738 494.94 16.5299 495.188 17.1094C495.435 17.6888 495.832 17.9785 496.379 17.9785C497.421 17.9785 497.941 16.8327 497.941 14.541C497.941 13.4017 497.814 12.5521 497.561 11.9922C497.313 11.4258 496.919 11.1426 496.379 11.1426C495.832 11.1426 495.435 11.4258 495.188 11.9922C494.94 12.5521 494.816 13.4017 494.816 14.541ZM510.227 20.1953C509.224 20.1953 508.433 19.7005 507.854 18.7109C507.274 17.7214 506.984 16.3444 506.984 14.5801C506.984 12.8092 507.268 11.4225 507.834 10.4199C508.4 9.41732 509.182 8.91602 510.178 8.91602C510.673 8.91602 511.099 9.03971 511.457 9.28711C511.822 9.52799 512.157 9.93815 512.463 10.5176H512.619C512.541 9.52799 512.502 8.83464 512.502 8.4375V4.80469H515.1V20H513.166L512.727 18.584H512.639C512.085 19.6582 511.281 20.1953 510.227 20.1953ZM511.066 17.998C511.548 17.998 511.9 17.7799 512.121 17.3438C512.342 16.901 512.463 16.1003 512.482 14.9414V14.5996C512.482 13.3366 512.368 12.4479 512.141 11.9336C511.919 11.4193 511.551 11.1621 511.037 11.1621C510.555 11.1621 510.204 11.4583 509.982 12.0508C509.768 12.6367 509.66 13.4928 509.66 14.6191C509.66 15.7454 509.771 16.5918 509.992 17.1582C510.214 17.7181 510.572 17.998 511.066 17.998ZM521.301 20.1953C519.94 20.1953 518.866 19.7135 518.078 18.75C517.297 17.7799 516.906 16.4095 516.906 14.6387C516.906 12.8418 517.261 11.4388 517.971 10.4297C518.68 9.42057 519.67 8.91602 520.939 8.91602C522.124 8.91602 523.059 9.34896 523.742 10.2148C524.426 11.0742 524.768 12.2819 524.768 13.8379V15.2246H519.543C519.562 16.1947 519.761 16.9173 520.139 17.3926C520.516 17.8613 521.037 18.0957 521.701 18.0957C522.548 18.0957 523.413 17.832 524.299 17.3047V19.4434C523.465 19.9447 522.466 20.1953 521.301 20.1953ZM520.92 10.918C520.549 10.918 520.243 11.1165 520.002 11.5137C519.761 11.9043 519.621 12.513 519.582 13.3398H522.219C522.206 12.5456 522.085 11.9434 521.857 11.5332C521.63 11.123 521.317 10.918 520.92 10.918ZM535.9 12.0801H540.266V19.4043C539.029 19.9316 537.714 20.1953 536.32 20.1953C534.66 20.1953 533.381 19.5638 532.482 18.3008C531.59 17.0378 531.145 15.2181 531.145 12.8418C531.145 10.5501 531.656 8.75651 532.678 7.46094C533.706 6.16536 535.142 5.51758 536.984 5.51758C538.124 5.51758 539.211 5.81055 540.246 6.39648L539.406 8.56445C538.599 8.0957 537.844 7.86133 537.141 7.86133C536.132 7.86133 535.331 8.3138 534.738 9.21875C534.152 10.1172 533.859 11.3444 533.859 12.9004C533.859 14.502 534.071 15.7292 534.494 16.582C534.924 17.4349 535.546 17.8613 536.359 17.8613C536.789 17.8613 537.225 17.806 537.668 17.6953V14.4238H535.9V12.0801ZM550.344 14.541C550.344 16.3249 549.966 17.7148 549.211 18.7109C548.456 19.7005 547.421 20.1953 546.105 20.1953C545.272 20.1953 544.536 19.9674 543.898 19.5117C543.26 19.056 542.769 18.4017 542.424 17.5488C542.079 16.6895 541.906 15.6868 541.906 14.541C541.906 12.7767 542.281 11.3997 543.029 10.4102C543.778 9.41406 544.816 8.91602 546.145 8.91602C547.427 8.91602 548.446 9.42383 549.201 10.4395C549.963 11.4486 550.344 12.8158 550.344 14.541ZM544.562 14.541C544.562 15.6738 544.686 16.5299 544.934 17.1094C545.181 17.6888 545.578 17.9785 546.125 17.9785C547.167 17.9785 547.688 16.8327 547.688 14.541C547.688 13.4017 547.561 12.5521 547.307 11.9922C547.059 11.4258 546.665 11.1426 546.125 11.1426C545.578 11.1426 545.181 11.4258 544.934 11.9922C544.686 12.5521 544.562 13.4017 544.562 14.541ZM554.768 20H552.17V4.80469H554.768V20ZM561.809 20.1953C561.34 20.1953 560.923 20.0911 560.559 19.8828C560.201 19.668 559.865 19.2936 559.553 18.7598H559.416C559.52 19.6452 559.572 20.179 559.572 20.3613V24.8047H556.955V9.12109H558.967L559.416 10.5371H559.533C560.074 9.45638 560.858 8.91602 561.887 8.91602C562.876 8.91602 563.651 9.40755 564.211 10.3906C564.771 11.3672 565.051 12.7507 565.051 14.541C565.051 16.3053 564.761 17.6888 564.182 18.6914C563.602 19.694 562.811 20.1953 561.809 20.1953ZM561.008 11.123C560.5 11.123 560.132 11.3607 559.904 11.8359C559.683 12.3047 559.566 13.0859 559.553 14.1797V14.5215C559.553 15.7194 559.667 16.5918 559.895 17.1387C560.122 17.6855 560.5 17.959 561.027 17.959C561.939 17.959 562.395 16.8066 562.395 14.502C562.395 13.3691 562.281 12.5228 562.053 11.9629C561.831 11.403 561.483 11.123 561.008 11.123ZM570.891 20.1953C569.53 20.1953 568.456 19.7135 567.668 18.75C566.887 17.7799 566.496 16.4095 566.496 14.6387C566.496 12.8418 566.851 11.4388 567.561 10.4297C568.27 9.42057 569.26 8.91602 570.529 8.91602C571.714 8.91602 572.648 9.34896 573.332 10.2148C574.016 11.0742 574.357 12.2819 574.357 13.8379V15.2246H569.133C569.152 16.1947 569.351 16.9173 569.729 17.3926C570.106 17.8613 570.627 18.0957 571.291 18.0957C572.137 18.0957 573.003 17.832 573.889 17.3047V19.4434C573.055 19.9447 572.056 20.1953 570.891 20.1953ZM570.51 10.918C570.139 10.918 569.833 11.1165 569.592 11.5137C569.351 11.9043 569.211 12.513 569.172 13.3398H571.809C571.796 12.5456 571.675 11.9434 571.447 11.5332C571.219 11.123 570.907 10.918 570.51 10.918ZM583.879 20.1953C582.876 20.1953 582.085 19.7005 581.506 18.7109C580.926 17.7214 580.637 16.3444 580.637 14.5801C580.637 12.8092 580.92 11.4225 581.486 10.4199C582.053 9.41732 582.834 8.91602 583.83 8.91602C584.325 8.91602 584.751 9.03971 585.109 9.28711C585.474 9.52799 585.809 9.93815 586.115 10.5176H586.271C586.193 9.52799 586.154 8.83464 586.154 8.4375V4.80469H588.752V20H586.818L586.379 18.584H586.291C585.738 19.6582 584.934 20.1953 583.879 20.1953ZM584.719 17.998C585.201 17.998 585.552 17.7799 585.773 17.3438C585.995 16.901 586.115 16.1003 586.135 14.9414V14.5996C586.135 13.3366 586.021 12.4479 585.793 11.9336C585.572 11.4193 585.204 11.1621 584.689 11.1621C584.208 11.1621 583.856 11.4583 583.635 12.0508C583.42 12.6367 583.312 13.4928 583.312 14.6191C583.312 15.7454 583.423 16.5918 583.645 17.1582C583.866 17.7181 584.224 17.998 584.719 17.998ZM594.953 20.1953C593.592 20.1953 592.518 19.7135 591.73 18.75C590.949 17.7799 590.559 16.4095 590.559 14.6387C590.559 12.8418 590.913 11.4388 591.623 10.4297C592.333 9.42057 593.322 8.91602 594.592 8.91602C595.777 8.91602 596.711 9.34896 597.395 10.2148C598.078 11.0742 598.42 12.2819 598.42 13.8379V15.2246H593.195C593.215 16.1947 593.413 16.9173 593.791 17.3926C594.169 17.8613 594.689 18.0957 595.354 18.0957C596.2 18.0957 597.066 17.832 597.951 17.3047V19.4434C597.118 19.9447 596.118 20.1953 594.953 20.1953ZM594.572 10.918C594.201 10.918 593.895 11.1165 593.654 11.5137C593.413 11.9043 593.273 12.513 593.234 13.3398H595.871C595.858 12.5456 595.738 11.9434 595.51 11.5332C595.282 11.123 594.969 10.918 594.572 10.918ZM611.672 20H605.236V5.72266H611.672V8.01758H607.893V11.416H611.398V13.7207H607.893V17.6758H611.672V20ZM619.436 16.8164C619.436 17.8776 619.123 18.7077 618.498 19.3066C617.88 19.8991 616.965 20.1953 615.754 20.1953C614.68 20.1953 613.791 19.9837 613.088 19.5605V17.3047C613.446 17.5521 613.863 17.7572 614.338 17.9199C614.82 18.0827 615.243 18.1641 615.607 18.1641C616.011 18.1641 616.317 18.0664 616.525 17.8711C616.74 17.6693 616.848 17.4056 616.848 17.0801C616.848 16.748 616.737 16.4583 616.516 16.2109C616.294 15.9635 615.887 15.6608 615.295 15.3027C614.507 14.834 613.941 14.3359 613.596 13.8086C613.257 13.2747 613.088 12.6465 613.088 11.9238C613.088 10.9993 613.404 10.2669 614.035 9.72656C614.673 9.1862 615.546 8.91602 616.652 8.91602C617.616 8.91602 618.524 9.16992 619.377 9.67773L618.527 11.543C617.831 11.1654 617.219 10.9766 616.691 10.9766C616.359 10.9766 616.109 11.0645 615.939 11.2402C615.777 11.416 615.695 11.6309 615.695 11.8848C615.695 12.1777 615.796 12.4382 615.998 12.666C616.206 12.8939 616.59 13.1771 617.15 13.5156C617.827 13.9258 618.303 14.2741 618.576 14.5605C618.85 14.847 619.061 15.1725 619.211 15.5371C619.361 15.9017 619.436 16.3281 619.436 16.8164ZM624.855 17.998C625.22 17.998 625.614 17.9069 626.037 17.7246V19.7559C625.614 20.0488 624.979 20.1953 624.133 20.1953C623.189 20.1953 622.489 19.9154 622.033 19.3555C621.577 18.7891 621.35 17.9427 621.35 16.8164V11.1816H620.295V10.0195L621.652 9.08203L622.316 6.77734H623.977V9.12109H625.949V11.1816H623.977V16.9043C623.977 17.6335 624.27 17.998 624.855 17.998ZM632.893 20L632.375 18.5156H632.316C631.932 19.1536 631.535 19.5931 631.125 19.834C630.715 20.0749 630.197 20.1953 629.572 20.1953C628.771 20.1953 628.14 19.8958 627.678 19.2969C627.222 18.6979 626.994 17.8646 626.994 16.7969C626.994 15.651 627.307 14.8014 627.932 14.248C628.563 13.6882 629.504 13.3789 630.754 13.3203L632.199 13.2617V12.4805C632.199 11.4648 631.76 10.957 630.881 10.957C630.23 10.957 629.481 11.2109 628.635 11.7188L627.736 9.92188C628.817 9.23828 629.992 8.89648 631.262 8.89648C632.414 8.89648 633.29 9.22852 633.889 9.89258C634.494 10.5501 634.797 11.4844 634.797 12.6953V20H632.893ZM630.637 18.1641C631.112 18.1641 631.49 17.9525 631.77 17.5293C632.056 17.0996 632.199 16.5299 632.199 15.8203V14.9023L631.398 14.9414C630.806 14.974 630.37 15.1432 630.09 15.4492C629.816 15.7552 629.68 16.2109 629.68 16.8164C629.68 17.7148 629.999 18.1641 630.637 18.1641ZM639.758 20.1953C638.755 20.1953 637.964 19.7005 637.385 18.7109C636.805 17.7214 636.516 16.3444 636.516 14.5801C636.516 12.8092 636.799 11.4225 637.365 10.4199C637.932 9.41732 638.713 8.91602 639.709 8.91602C640.204 8.91602 640.63 9.03971 640.988 9.28711C641.353 9.52799 641.688 9.93815 641.994 10.5176H642.15C642.072 9.52799 642.033 8.83464 642.033 8.4375V4.80469H644.631V20H642.697L642.258 18.584H642.17C641.617 19.6582 640.812 20.1953 639.758 20.1953ZM640.598 17.998C641.079 17.998 641.431 17.7799 641.652 17.3438C641.874 16.901 641.994 16.1003 642.014 14.9414V14.5996C642.014 13.3366 641.9 12.4479 641.672 11.9336C641.451 11.4193 641.083 11.1621 640.568 11.1621C640.087 11.1621 639.735 11.4583 639.514 12.0508C639.299 12.6367 639.191 13.4928 639.191 14.6191C639.191 15.7454 639.302 16.5918 639.523 17.1582C639.745 17.7181 640.103 17.998 640.598 17.998ZM654.875 14.541C654.875 16.3249 654.497 17.7148 653.742 18.7109C652.987 19.7005 651.952 20.1953 650.637 20.1953C649.803 20.1953 649.068 19.9674 648.43 19.5117C647.792 19.056 647.3 18.4017 646.955 17.5488C646.61 16.6895 646.438 15.6868 646.438 14.541C646.438 12.7767 646.812 11.3997 647.561 10.4102C648.309 9.41406 649.348 8.91602 650.676 8.91602C651.958 8.91602 652.977 9.42383 653.732 10.4395C654.494 11.4486 654.875 12.8158 654.875 14.541ZM649.094 14.541C649.094 15.6738 649.217 16.5299 649.465 17.1094C649.712 17.6888 650.109 17.9785 650.656 17.9785C651.698 17.9785 652.219 16.8327 652.219 14.541C652.219 13.4017 652.092 12.5521 651.838 11.9922C651.59 11.4258 651.197 11.1426 650.656 11.1426C650.109 11.1426 649.712 11.4258 649.465 11.9922C649.217 12.5521 649.094 13.4017 649.094 14.541Z" fill="#DB3F28"/>
<rect x="420.5" y="4.5" width="16" height="16" fill="#DB3F28" fill-opacity="0.39" stroke="#DB3F28"/>
<path d="M715.432 5.72266H718.107L714.748 20H711.369L708.029 5.72266H710.705L712.57 14.4434C712.74 15.1855 712.906 16.25 713.068 17.6367C713.205 16.4583 713.378 15.3939 713.586 14.4434L715.432 5.72266ZM724.777 20L724.455 18.6035H724.318C724.077 19.0983 723.732 19.4889 723.283 19.7754C722.84 20.0553 722.333 20.1953 721.76 20.1953C720.783 20.1953 720.044 19.8633 719.543 19.1992C719.042 18.5352 718.791 17.5423 718.791 16.2207V9.12109H721.418V15.5957C721.418 16.39 721.512 16.9889 721.701 17.3926C721.89 17.7962 722.196 17.998 722.619 17.998C723.179 17.998 723.586 17.7181 723.84 17.1582C724.1 16.5983 724.23 15.6576 724.23 14.3359V9.12109H726.857V20H724.777ZM733.049 20.1953C731.688 20.1953 730.614 19.7135 729.826 18.75C729.045 17.7799 728.654 16.4095 728.654 14.6387C728.654 12.8418 729.009 11.4388 729.719 10.4297C730.428 9.42057 731.418 8.91602 732.688 8.91602C733.872 8.91602 734.807 9.34896 735.49 10.2148C736.174 11.0742 736.516 12.2819 736.516 13.8379V15.2246H731.291C731.311 16.1947 731.509 16.9173 731.887 17.3926C732.264 17.8613 732.785 18.0957 733.449 18.0957C734.296 18.0957 735.161 17.832 736.047 17.3047V19.4434C735.214 19.9447 734.214 20.1953 733.049 20.1953ZM732.668 10.918C732.297 10.918 731.991 11.1165 731.75 11.5137C731.509 11.9043 731.369 12.513 731.33 13.3398H733.967C733.954 12.5456 733.833 11.9434 733.605 11.5332C733.378 11.123 733.065 10.918 732.668 10.918ZM740.832 20H738.234V4.80469H740.832V20ZM746.799 17.998C747.163 17.998 747.557 17.9069 747.98 17.7246V19.7559C747.557 20.0488 746.923 20.1953 746.076 20.1953C745.132 20.1953 744.432 19.9154 743.977 19.3555C743.521 18.7891 743.293 17.9427 743.293 16.8164V11.1816H742.238V10.0195L743.596 9.08203L744.26 6.77734H745.92V9.12109H747.893V11.1816H745.92V16.9043C745.92 17.6335 746.213 17.998 746.799 17.998ZM754.836 20L754.318 18.5156H754.26C753.876 19.1536 753.479 19.5931 753.068 19.834C752.658 20.0749 752.141 20.1953 751.516 20.1953C750.715 20.1953 750.083 19.8958 749.621 19.2969C749.165 18.6979 748.938 17.8646 748.938 16.7969C748.938 15.651 749.25 14.8014 749.875 14.248C750.507 13.6882 751.447 13.3789 752.697 13.3203L754.143 13.2617V12.4805C754.143 11.4648 753.703 10.957 752.824 10.957C752.173 10.957 751.424 11.2109 750.578 11.7188L749.68 9.92188C750.76 9.23828 751.936 8.89648 753.205 8.89648C754.357 8.89648 755.233 9.22852 755.832 9.89258C756.438 10.5501 756.74 11.4844 756.74 12.6953V20H754.836ZM752.58 18.1641C753.055 18.1641 753.433 17.9525 753.713 17.5293C753.999 17.0996 754.143 16.5299 754.143 15.8203V14.9023L753.342 14.9414C752.749 14.974 752.313 15.1432 752.033 15.4492C751.76 15.7552 751.623 16.2109 751.623 16.8164C751.623 17.7148 751.942 18.1641 752.58 18.1641ZM766.643 20.1953C765.64 20.1953 764.849 19.7005 764.27 18.7109C763.69 17.7214 763.4 16.3444 763.4 14.5801C763.4 12.8092 763.684 11.4225 764.25 10.4199C764.816 9.41732 765.598 8.91602 766.594 8.91602C767.089 8.91602 767.515 9.03971 767.873 9.28711C768.238 9.52799 768.573 9.93815 768.879 10.5176H769.035C768.957 9.52799 768.918 8.83464 768.918 8.4375V4.80469H771.516V20H769.582L769.143 18.584H769.055C768.501 19.6582 767.697 20.1953 766.643 20.1953ZM767.482 17.998C767.964 17.998 768.316 17.7799 768.537 17.3438C768.758 16.901 768.879 16.1003 768.898 14.9414V14.5996C768.898 13.3366 768.785 12.4479 768.557 11.9336C768.335 11.4193 767.967 11.1621 767.453 11.1621C766.971 11.1621 766.62 11.4583 766.398 12.0508C766.184 12.6367 766.076 13.4928 766.076 14.6191C766.076 15.7454 766.187 16.5918 766.408 17.1582C766.63 17.7181 766.988 17.998 767.482 17.998ZM777.717 20.1953C776.356 20.1953 775.282 19.7135 774.494 18.75C773.713 17.7799 773.322 16.4095 773.322 14.6387C773.322 12.8418 773.677 11.4388 774.387 10.4297C775.096 9.42057 776.086 8.91602 777.355 8.91602C778.54 8.91602 779.475 9.34896 780.158 10.2148C780.842 11.0742 781.184 12.2819 781.184 13.8379V15.2246H775.959C775.979 16.1947 776.177 16.9173 776.555 17.3926C776.932 17.8613 777.453 18.0957 778.117 18.0957C778.964 18.0957 779.829 17.832 780.715 17.3047V19.4434C779.882 19.9447 778.882 20.1953 777.717 20.1953ZM777.336 10.918C776.965 10.918 776.659 11.1165 776.418 11.5137C776.177 11.9043 776.037 12.513 775.998 13.3398H778.635C778.622 12.5456 778.501 11.9434 778.273 11.5332C778.046 11.123 777.733 10.918 777.336 10.918ZM790.441 20H787.844V4.80469H790.441V20ZM797.961 20L797.443 18.5156H797.385C797.001 19.1536 796.604 19.5931 796.193 19.834C795.783 20.0749 795.266 20.1953 794.641 20.1953C793.84 20.1953 793.208 19.8958 792.746 19.2969C792.29 18.6979 792.062 17.8646 792.062 16.7969C792.062 15.651 792.375 14.8014 793 14.248C793.632 13.6882 794.572 13.3789 795.822 13.3203L797.268 13.2617V12.4805C797.268 11.4648 796.828 10.957 795.949 10.957C795.298 10.957 794.549 11.2109 793.703 11.7188L792.805 9.92188C793.885 9.23828 795.061 8.89648 796.33 8.89648C797.482 8.89648 798.358 9.22852 798.957 9.89258C799.562 10.5501 799.865 11.4844 799.865 12.6953V20H797.961ZM795.705 18.1641C796.18 18.1641 796.558 17.9525 796.838 17.5293C797.124 17.0996 797.268 16.5299 797.268 15.8203V14.9023L796.467 14.9414C795.874 14.974 795.438 15.1432 795.158 15.4492C794.885 15.7552 794.748 16.2109 794.748 16.8164C794.748 17.7148 795.067 18.1641 795.705 18.1641ZM809.768 20.1953C808.765 20.1953 807.974 19.7005 807.395 18.7109C806.815 17.7214 806.525 16.3444 806.525 14.5801C806.525 12.8092 806.809 11.4225 807.375 10.4199C807.941 9.41732 808.723 8.91602 809.719 8.91602C810.214 8.91602 810.64 9.03971 810.998 9.28711C811.363 9.52799 811.698 9.93815 812.004 10.5176H812.16C812.082 9.52799 812.043 8.83464 812.043 8.4375V4.80469H814.641V20H812.707L812.268 18.584H812.18C811.626 19.6582 810.822 20.1953 809.768 20.1953ZM810.607 17.998C811.089 17.998 811.441 17.7799 811.662 17.3438C811.883 16.901 812.004 16.1003 812.023 14.9414V14.5996C812.023 13.3366 811.91 12.4479 811.682 11.9336C811.46 11.4193 811.092 11.1621 810.578 11.1621C810.096 11.1621 809.745 11.4583 809.523 12.0508C809.309 12.6367 809.201 13.4928 809.201 14.6191C809.201 15.7454 809.312 16.5918 809.533 17.1582C809.755 17.7181 810.113 17.998 810.607 17.998ZM820.842 20.1953C819.481 20.1953 818.407 19.7135 817.619 18.75C816.838 17.7799 816.447 16.4095 816.447 14.6387C816.447 12.8418 816.802 11.4388 817.512 10.4297C818.221 9.42057 819.211 8.91602 820.48 8.91602C821.665 8.91602 822.6 9.34896 823.283 10.2148C823.967 11.0742 824.309 12.2819 824.309 13.8379V15.2246H819.084C819.104 16.1947 819.302 16.9173 819.68 17.3926C820.057 17.8613 820.578 18.0957 821.242 18.0957C822.089 18.0957 822.954 17.832 823.84 17.3047V19.4434C823.007 19.9447 822.007 20.1953 820.842 20.1953ZM820.461 10.918C820.09 10.918 819.784 11.1165 819.543 11.5137C819.302 11.9043 819.162 12.513 819.123 13.3398H821.76C821.747 12.5456 821.626 11.9434 821.398 11.5332C821.171 11.123 820.858 10.918 820.461 10.918ZM836.828 20V13.5156C836.828 11.9206 836.434 11.123 835.646 11.123C835.074 11.123 834.663 11.4095 834.416 11.9824C834.169 12.5488 834.045 13.4603 834.045 14.7168V20H831.428V13.5156C831.428 11.9206 831.027 11.123 830.227 11.123C829.667 11.123 829.26 11.4062 829.006 11.9727C828.752 12.5391 828.625 13.4733 828.625 14.7754V20H826.027V9.12109H828.088L828.4 10.5176H828.566C828.827 9.96419 829.182 9.56055 829.631 9.30664C830.087 9.04622 830.572 8.91602 831.086 8.91602C832.414 8.91602 833.299 9.54427 833.742 10.8008H833.84C834.393 9.54427 835.282 8.91602 836.506 8.91602C837.469 8.91602 838.199 9.25456 838.693 9.93164C839.195 10.6087 839.445 11.5983 839.445 12.9004V20H836.828ZM849.611 14.541C849.611 16.3249 849.234 17.7148 848.479 18.7109C847.723 19.7005 846.688 20.1953 845.373 20.1953C844.54 20.1953 843.804 19.9674 843.166 19.5117C842.528 19.056 842.036 18.4017 841.691 17.5488C841.346 16.6895 841.174 15.6868 841.174 14.541C841.174 12.7767 841.548 11.3997 842.297 10.4102C843.046 9.41406 844.084 8.91602 845.412 8.91602C846.695 8.91602 847.714 9.42383 848.469 10.4395C849.23 11.4486 849.611 12.8158 849.611 14.541ZM843.83 14.541C843.83 15.6738 843.954 16.5299 844.201 17.1094C844.449 17.6888 844.846 17.9785 845.393 17.9785C846.434 17.9785 846.955 16.8327 846.955 14.541C846.955 13.4017 846.828 12.5521 846.574 11.9922C846.327 11.4258 845.933 11.1426 845.393 11.1426C844.846 11.1426 844.449 11.4258 844.201 11.9922C843.954 12.5521 843.83 13.4017 843.83 14.541ZM855.031 20.1953C853.736 20.1953 852.749 19.7233 852.072 18.7793C851.395 17.8353 851.057 16.4486 851.057 14.6191C851.057 12.7051 851.376 11.276 852.014 10.332C852.658 9.38802 853.651 8.91602 854.992 8.91602C855.396 8.91602 855.819 8.97461 856.262 9.0918C856.704 9.20898 857.102 9.37826 857.453 9.59961L856.711 11.6211C856.171 11.3021 855.692 11.1426 855.275 11.1426C854.722 11.1426 854.322 11.4323 854.074 12.0117C853.833 12.5846 853.713 13.4473 853.713 14.5996C853.713 15.7259 853.833 16.569 854.074 17.1289C854.315 17.6823 854.709 17.959 855.256 17.959C855.907 17.959 856.587 17.7311 857.297 17.2754V19.5605C856.613 19.9837 855.858 20.1953 855.031 20.1953ZM863.498 8.91602C863.817 8.91602 864.13 8.96484 864.436 9.0625L864.133 11.582C863.951 11.5169 863.713 11.4844 863.42 11.4844C862.788 11.4844 862.303 11.735 861.965 12.2363C861.626 12.7311 861.457 13.4538 861.457 14.4043V20H858.859V9.12109H860.998L861.291 10.8203H861.379C861.665 10.1367 861.978 9.64844 862.316 9.35547C862.655 9.0625 863.049 8.91602 863.498 8.91602ZM870.93 20L870.412 18.5156H870.354C869.969 19.1536 869.572 19.5931 869.162 19.834C868.752 20.0749 868.234 20.1953 867.609 20.1953C866.809 20.1953 866.177 19.8958 865.715 19.2969C865.259 18.6979 865.031 17.8646 865.031 16.7969C865.031 15.651 865.344 14.8014 865.969 14.248C866.6 13.6882 867.541 13.3789 868.791 13.3203L870.236 13.2617V12.4805C870.236 11.4648 869.797 10.957 868.918 10.957C868.267 10.957 867.518 11.2109 866.672 11.7188L865.773 9.92188C866.854 9.23828 868.029 8.89648 869.299 8.89648C870.451 8.89648 871.327 9.22852 871.926 9.89258C872.531 10.5501 872.834 11.4844 872.834 12.6953V20H870.93ZM868.674 18.1641C869.149 18.1641 869.527 17.9525 869.807 17.5293C870.093 17.0996 870.236 16.5299 870.236 15.8203V14.9023L869.436 14.9414C868.843 14.974 868.407 15.1432 868.127 15.4492C867.854 15.7552 867.717 16.2109 867.717 16.8164C867.717 17.7148 868.036 18.1641 868.674 18.1641ZM878.527 20.1953C877.232 20.1953 876.245 19.7233 875.568 18.7793C874.891 17.8353 874.553 16.4486 874.553 14.6191C874.553 12.7051 874.872 11.276 875.51 10.332C876.154 9.38802 877.147 8.91602 878.488 8.91602C878.892 8.91602 879.315 8.97461 879.758 9.0918C880.201 9.20898 880.598 9.37826 880.949 9.59961L880.207 11.6211C879.667 11.3021 879.188 11.1426 878.771 11.1426C878.218 11.1426 877.818 11.4323 877.57 12.0117C877.329 12.5846 877.209 13.4473 877.209 14.5996C877.209 15.7259 877.329 16.569 877.57 17.1289C877.811 17.6823 878.205 17.959 878.752 17.959C879.403 17.959 880.083 17.7311 880.793 17.2754V19.5605C880.109 19.9837 879.354 20.1953 878.527 20.1953ZM884.973 20H882.375V9.12109H884.973V20ZM882.268 6.2793C882.268 5.84961 882.391 5.51107 882.639 5.26367C882.893 5.00977 883.244 4.88281 883.693 4.88281C884.117 4.88281 884.455 5.00977 884.709 5.26367C884.963 5.51107 885.09 5.84961 885.09 6.2793C885.09 6.72201 884.96 7.06706 884.699 7.31445C884.439 7.55534 884.104 7.67578 883.693 7.67578C883.264 7.67578 882.919 7.55534 882.658 7.31445C882.398 7.06706 882.268 6.72201 882.268 6.2793ZM892.531 20L892.014 18.5156H891.955C891.571 19.1536 891.174 19.5931 890.764 19.834C890.354 20.0749 889.836 20.1953 889.211 20.1953C888.41 20.1953 887.779 19.8958 887.316 19.2969C886.861 18.6979 886.633 17.8646 886.633 16.7969C886.633 15.651 886.945 14.8014 887.57 14.248C888.202 13.6882 889.143 13.3789 890.393 13.3203L891.838 13.2617V12.4805C891.838 11.4648 891.398 10.957 890.52 10.957C889.868 10.957 889.12 11.2109 888.273 11.7188L887.375 9.92188C888.456 9.23828 889.631 8.89648 890.9 8.89648C892.053 8.89648 892.928 9.22852 893.527 9.89258C894.133 10.5501 894.436 11.4844 894.436 12.6953V20H892.531ZM890.275 18.1641C890.751 18.1641 891.128 17.9525 891.408 17.5293C891.695 17.0996 891.838 16.5299 891.838 15.8203V14.9023L891.037 14.9414C890.445 14.974 890.008 15.1432 889.729 15.4492C889.455 15.7552 889.318 16.2109 889.318 16.8164C889.318 17.7148 889.637 18.1641 890.275 18.1641Z" fill="#DB3F28"/>
<path d="M691.515 2L693.997 9.63932H702.029L695.531 14.3607L698.013 22L691.515 17.2786L685.016 22L687.498 14.3607L681 9.63932H689.032L691.515 2Z" fill="#DB3F28"/>
<path d="M949.725 20H943.289V5.72266H949.725V8.01758H945.945V11.416H949.451V13.7207H945.945V17.6758H949.725V20ZM954.246 20H951.648V4.80469H954.246V20ZM960.447 20.1953C959.087 20.1953 958.012 19.7135 957.225 18.75C956.443 17.7799 956.053 16.4095 956.053 14.6387C956.053 12.8418 956.408 11.4388 957.117 10.4297C957.827 9.42057 958.816 8.91602 960.086 8.91602C961.271 8.91602 962.205 9.34896 962.889 10.2148C963.572 11.0742 963.914 12.2819 963.914 13.8379V15.2246H958.689C958.709 16.1947 958.908 16.9173 959.285 17.3926C959.663 17.8613 960.184 18.0957 960.848 18.0957C961.694 18.0957 962.56 17.832 963.445 17.3047V19.4434C962.612 19.9447 961.613 20.1953 960.447 20.1953ZM960.066 10.918C959.695 10.918 959.389 11.1165 959.148 11.5137C958.908 11.9043 958.768 12.513 958.729 13.3398H961.365C961.352 12.5456 961.232 11.9434 961.004 11.5332C960.776 11.123 960.464 10.918 960.066 10.918ZM969.227 20.1953C967.931 20.1953 966.945 19.7233 966.268 18.7793C965.59 17.8353 965.252 16.4486 965.252 14.6191C965.252 12.7051 965.571 11.276 966.209 10.332C966.854 9.38802 967.846 8.91602 969.188 8.91602C969.591 8.91602 970.014 8.97461 970.457 9.0918C970.9 9.20898 971.297 9.37826 971.648 9.59961L970.906 11.6211C970.366 11.3021 969.887 11.1426 969.471 11.1426C968.917 11.1426 968.517 11.4323 968.27 12.0117C968.029 12.5846 967.908 13.4473 967.908 14.5996C967.908 15.7259 968.029 16.569 968.27 17.1289C968.51 17.6823 968.904 17.959 969.451 17.959C970.102 17.959 970.783 17.7311 971.492 17.2754V19.5605C970.809 19.9837 970.053 20.1953 969.227 20.1953ZM976.648 20.1953C975.353 20.1953 974.367 19.7233 973.689 18.7793C973.012 17.8353 972.674 16.4486 972.674 14.6191C972.674 12.7051 972.993 11.276 973.631 10.332C974.275 9.38802 975.268 8.91602 976.609 8.91602C977.013 8.91602 977.436 8.97461 977.879 9.0918C978.322 9.20898 978.719 9.37826 979.07 9.59961L978.328 11.6211C977.788 11.3021 977.309 11.1426 976.893 11.1426C976.339 11.1426 975.939 11.4323 975.691 12.0117C975.451 12.5846 975.33 13.4473 975.33 14.5996C975.33 15.7259 975.451 16.569 975.691 17.1289C975.932 17.6823 976.326 17.959 976.873 17.959C977.524 17.959 978.204 17.7311 978.914 17.2754V19.5605C978.23 19.9837 977.475 20.1953 976.648 20.1953ZM983.094 20H980.496V9.12109H983.094V20ZM980.389 6.2793C980.389 5.84961 980.512 5.51107 980.76 5.26367C981.014 5.00977 981.365 4.88281 981.814 4.88281C982.238 4.88281 982.576 5.00977 982.83 5.26367C983.084 5.51107 983.211 5.84961 983.211 6.2793C983.211 6.72201 983.081 7.06706 982.82 7.31445C982.56 7.55534 982.225 7.67578 981.814 7.67578C981.385 7.67578 981.04 7.55534 980.779 7.31445C980.519 7.06706 980.389 6.72201 980.389 6.2793ZM993.377 14.541C993.377 16.3249 992.999 17.7148 992.244 18.7109C991.489 19.7005 990.454 20.1953 989.139 20.1953C988.305 20.1953 987.57 19.9674 986.932 19.5117C986.294 19.056 985.802 18.4017 985.457 17.5488C985.112 16.6895 984.939 15.6868 984.939 14.541C984.939 12.7767 985.314 11.3997 986.062 10.4102C986.811 9.41406 987.85 8.91602 989.178 8.91602C990.46 8.91602 991.479 9.42383 992.234 10.4395C992.996 11.4486 993.377 12.8158 993.377 14.541ZM987.596 14.541C987.596 15.6738 987.719 16.5299 987.967 17.1094C988.214 17.6888 988.611 17.9785 989.158 17.9785C990.2 17.9785 990.721 16.8327 990.721 14.541C990.721 13.4017 990.594 12.5521 990.34 11.9922C990.092 11.4258 989.699 11.1426 989.158 11.1426C988.611 11.1426 988.214 11.4258 987.967 11.9922C987.719 12.5521 987.596 13.4017 987.596 14.541ZM1000.62 20V13.5156C1000.62 12.7279 1000.53 12.1322 1000.34 11.7285C1000.15 11.3249 999.845 11.123 999.422 11.123C998.862 11.123 998.452 11.403 998.191 11.9629C997.931 12.5163 997.801 13.4538 997.801 14.7754V20H995.203V9.12109H997.264L997.576 10.5176H997.742C997.977 10.0163 998.312 9.62565 998.748 9.3457C999.184 9.05924 999.695 8.91602 1000.28 8.91602C1001.27 8.91602 1002.01 9.25456 1002.5 9.93164C1002.99 10.6087 1003.24 11.5983 1003.24 12.9004V20H1000.62ZM1009.35 20.1953C1007.99 20.1953 1006.92 19.7135 1006.13 18.75C1005.35 17.7799 1004.96 16.4095 1004.96 14.6387C1004.96 12.8418 1005.31 11.4388 1006.02 10.4297C1006.73 9.42057 1007.72 8.91602 1008.99 8.91602C1010.18 8.91602 1011.11 9.34896 1011.79 10.2148C1012.48 11.0742 1012.82 12.2819 1012.82 13.8379V15.2246H1007.6C1007.62 16.1947 1007.81 16.9173 1008.19 17.3926C1008.57 17.8613 1009.09 18.0957 1009.75 18.0957C1010.6 18.0957 1011.47 17.832 1012.35 17.3047V19.4434C1011.52 19.9447 1010.52 20.1953 1009.35 20.1953ZM1008.97 10.918C1008.6 10.918 1008.3 11.1165 1008.05 11.5137C1007.81 11.9043 1007.67 12.513 1007.63 13.3398H1010.27C1010.26 12.5456 1010.14 11.9434 1009.91 11.5332C1009.68 11.123 1009.37 10.918 1008.97 10.918ZM1020.38 16.8164C1020.38 17.8776 1020.07 18.7077 1019.44 19.3066C1018.82 19.8991 1017.91 20.1953 1016.7 20.1953C1015.62 20.1953 1014.73 19.9837 1014.03 19.5605V17.3047C1014.39 17.5521 1014.81 17.7572 1015.28 17.9199C1015.76 18.0827 1016.19 18.1641 1016.55 18.1641C1016.95 18.1641 1017.26 18.0664 1017.47 17.8711C1017.68 17.6693 1017.79 17.4056 1017.79 17.0801C1017.79 16.748 1017.68 16.4583 1017.46 16.2109C1017.24 15.9635 1016.83 15.6608 1016.24 15.3027C1015.45 14.834 1014.88 14.3359 1014.54 13.8086C1014.2 13.2747 1014.03 12.6465 1014.03 11.9238C1014.03 10.9993 1014.35 10.2669 1014.98 9.72656C1015.62 9.1862 1016.49 8.91602 1017.6 8.91602C1018.56 8.91602 1019.47 9.16992 1020.32 9.67773L1019.47 11.543C1018.77 11.1654 1018.16 10.9766 1017.63 10.9766C1017.3 10.9766 1017.05 11.0645 1016.88 11.2402C1016.72 11.416 1016.64 11.6309 1016.64 11.8848C1016.64 12.1777 1016.74 12.4382 1016.94 12.666C1017.15 12.8939 1017.53 13.1771 1018.09 13.5156C1018.77 13.9258 1019.25 14.2741 1019.52 14.5605C1019.79 14.847 1020 15.1725 1020.15 15.5371C1020.3 15.9017 1020.38 16.3281 1020.38 16.8164Z" fill="#DB3F28"/>
<path d="M926.69 5L935.35 20H918.029L926.69 5Z" fill="#DB3F28"/>
<path d="M1076.18 12.7246C1076.18 15.0814 1075.7 16.8848 1074.74 18.1348C1073.78 19.3783 1072.4 20 1070.6 20H1067.1V5.72266H1070.92C1072.58 5.72266 1073.87 6.33789 1074.79 7.56836C1075.72 8.79232 1076.18 10.5111 1076.18 12.7246ZM1073.46 12.8027C1073.46 9.61263 1072.58 8.01758 1070.82 8.01758H1069.76V17.6758H1070.62C1071.59 17.6758 1072.3 17.2721 1072.76 16.4648C1073.23 15.651 1073.46 14.4303 1073.46 12.8027ZM1086.17 14.541C1086.17 16.3249 1085.79 17.7148 1085.04 18.7109C1084.28 19.7005 1083.25 20.1953 1081.93 20.1953C1081.1 20.1953 1080.36 19.9674 1079.73 19.5117C1079.09 19.056 1078.6 18.4017 1078.25 17.5488C1077.91 16.6895 1077.73 15.6868 1077.73 14.541C1077.73 12.7767 1078.11 11.3997 1078.86 10.4102C1079.61 9.41406 1080.64 8.91602 1081.97 8.91602C1083.26 8.91602 1084.27 9.42383 1085.03 10.4395C1085.79 11.4486 1086.17 12.8158 1086.17 14.541ZM1080.39 14.541C1080.39 15.6738 1080.51 16.5299 1080.76 17.1094C1081.01 17.6888 1081.41 17.9785 1081.95 17.9785C1082.99 17.9785 1083.52 16.8327 1083.52 14.541C1083.52 13.4017 1083.39 12.5521 1083.13 11.9922C1082.89 11.4258 1082.49 11.1426 1081.95 11.1426C1081.41 11.1426 1081.01 11.4258 1080.76 11.9922C1080.51 12.5521 1080.39 13.4017 1080.39 14.541ZM1090.6 20H1088V4.80469H1090.6V20ZM1098.12 20L1097.6 18.5156H1097.54C1097.15 19.1536 1096.76 19.5931 1096.35 19.834C1095.94 20.0749 1095.42 20.1953 1094.79 20.1953C1093.99 20.1953 1093.36 19.8958 1092.9 19.2969C1092.44 18.6979 1092.22 17.8646 1092.22 16.7969C1092.22 15.651 1092.53 14.8014 1093.15 14.248C1093.79 13.6882 1094.73 13.3789 1095.98 13.3203L1097.42 13.2617V12.4805C1097.42 11.4648 1096.98 10.957 1096.1 10.957C1095.45 10.957 1094.7 11.2109 1093.86 11.7188L1092.96 9.92188C1094.04 9.23828 1095.21 8.89648 1096.48 8.89648C1097.64 8.89648 1098.51 9.22852 1099.11 9.89258C1099.72 10.5501 1100.02 11.4844 1100.02 12.6953V20H1098.12ZM1095.86 18.1641C1096.33 18.1641 1096.71 17.9525 1096.99 17.5293C1097.28 17.0996 1097.42 16.5299 1097.42 15.8203V14.9023L1096.62 14.9414C1096.03 14.974 1095.59 15.1432 1095.31 15.4492C1095.04 15.7552 1094.9 16.2109 1094.9 16.8164C1094.9 17.7148 1095.22 18.1641 1095.86 18.1641ZM1106.76 8.91602C1107.08 8.91602 1107.39 8.96484 1107.7 9.0625L1107.39 11.582C1107.21 11.5169 1106.97 11.4844 1106.68 11.4844C1106.05 11.4844 1105.56 11.735 1105.22 12.2363C1104.89 12.7311 1104.72 13.4538 1104.72 14.4043V20H1102.12V9.12109H1104.26L1104.55 10.8203H1104.64C1104.93 10.1367 1105.24 9.64844 1105.58 9.35547C1105.91 9.0625 1106.31 8.91602 1106.76 8.91602ZM1111.47 20H1108.88V9.12109H1111.47V20ZM1108.77 6.2793C1108.77 5.84961 1108.89 5.51107 1109.14 5.26367C1109.39 5.00977 1109.75 4.88281 1110.2 4.88281C1110.62 4.88281 1110.96 5.00977 1111.21 5.26367C1111.46 5.51107 1111.59 5.84961 1111.59 6.2793C1111.59 6.72201 1111.46 7.06706 1111.2 7.31445C1110.94 7.55534 1110.61 7.67578 1110.2 7.67578C1109.77 7.67578 1109.42 7.55534 1109.16 7.31445C1108.9 7.06706 1108.77 6.72201 1108.77 6.2793ZM1119.34 20H1113V18.3398L1116.34 11.2207H1113.21V9.12109H1119.2V10.957L1115.96 17.9004H1119.34V20ZM1126.18 20L1125.66 18.5156H1125.61C1125.22 19.1536 1124.82 19.5931 1124.41 19.834C1124 20.0749 1123.49 20.1953 1122.86 20.1953C1122.06 20.1953 1121.43 19.8958 1120.97 19.2969C1120.51 18.6979 1120.28 17.8646 1120.28 16.7969C1120.28 15.651 1120.6 14.8014 1121.22 14.248C1121.85 13.6882 1122.79 13.3789 1124.04 13.3203L1125.49 13.2617V12.4805C1125.49 11.4648 1125.05 10.957 1124.17 10.957C1123.52 10.957 1122.77 11.2109 1121.92 11.7188L1121.03 9.92188C1122.11 9.23828 1123.28 8.89648 1124.55 8.89648C1125.7 8.89648 1126.58 9.22852 1127.18 9.89258C1127.78 10.5501 1128.09 11.4844 1128.09 12.6953V20H1126.18ZM1123.93 18.1641C1124.4 18.1641 1124.78 17.9525 1125.06 17.5293C1125.35 17.0996 1125.49 16.5299 1125.49 15.8203V14.9023L1124.69 14.9414C1124.1 14.974 1123.66 15.1432 1123.38 15.4492C1123.11 15.7552 1122.97 16.2109 1122.97 16.8164C1122.97 17.7148 1123.29 18.1641 1123.93 18.1641ZM1133.78 20.1953C1132.48 20.1953 1131.5 19.7233 1130.82 18.7793C1130.14 17.8353 1129.8 16.4486 1129.8 14.6191C1129.8 12.7051 1130.12 11.276 1130.76 10.332C1131.41 9.38802 1132.4 8.91602 1133.74 8.91602C1134.14 8.91602 1134.57 8.97461 1135.01 9.0918C1135.45 9.20898 1135.85 9.37826 1136.2 9.59961L1135.46 11.6211C1134.92 11.3021 1134.44 11.1426 1134.02 11.1426C1133.47 11.1426 1133.07 11.4323 1132.82 12.0117C1132.58 12.5846 1132.46 13.4473 1132.46 14.5996C1132.46 15.7259 1132.58 16.569 1132.82 17.1289C1133.06 17.6823 1133.46 17.959 1134 17.959C1134.65 17.959 1135.34 17.7311 1136.04 17.2754V19.5605C1135.36 19.9837 1134.61 20.1953 1133.78 20.1953ZM1140.22 20H1137.63V9.12109H1140.22V20ZM1137.52 6.2793C1137.52 5.84961 1137.64 5.51107 1137.89 5.26367C1138.14 5.00977 1138.5 4.88281 1138.95 4.88281C1139.37 4.88281 1139.71 5.00977 1139.96 5.26367C1140.21 5.51107 1140.34 5.84961 1140.34 6.2793C1140.34 6.72201 1140.21 7.06706 1139.95 7.31445C1139.69 7.55534 1139.36 7.67578 1138.95 7.67578C1138.52 7.67578 1138.17 7.55534 1137.91 7.31445C1137.65 7.06706 1137.52 6.72201 1137.52 6.2793ZM1150.51 14.541C1150.51 16.3249 1150.13 17.7148 1149.38 18.7109C1148.62 19.7005 1147.58 20.1953 1146.27 20.1953C1145.44 20.1953 1144.7 19.9674 1144.06 19.5117C1143.42 19.056 1142.93 18.4017 1142.59 17.5488C1142.24 16.6895 1142.07 15.6868 1142.07 14.541C1142.07 12.7767 1142.44 11.3997 1143.19 10.4102C1143.94 9.41406 1144.98 8.91602 1146.31 8.91602C1147.59 8.91602 1148.61 9.42383 1149.37 10.4395C1150.13 11.4486 1150.51 12.8158 1150.51 14.541ZM1144.73 14.541C1144.73 15.6738 1144.85 16.5299 1145.1 17.1094C1145.35 17.6888 1145.74 17.9785 1146.29 17.9785C1147.33 17.9785 1147.85 16.8327 1147.85 14.541C1147.85 13.4017 1147.72 12.5521 1147.47 11.9922C1147.22 11.4258 1146.83 11.1426 1146.29 11.1426C1145.74 11.1426 1145.35 11.4258 1145.1 11.9922C1144.85 12.5521 1144.73 13.4017 1144.73 14.541ZM1144.92 7.88086V7.61719C1145.19 7.27214 1145.5 6.7806 1145.85 6.14258C1146.2 5.50456 1146.45 5.01628 1146.6 4.67773H1149.71V4.88281C1149.55 5.16276 1149.16 5.61523 1148.54 6.24023C1147.93 6.85872 1147.33 7.4056 1146.75 7.88086H1144.92ZM1157.75 20V13.5156C1157.75 12.7279 1157.66 12.1322 1157.47 11.7285C1157.28 11.3249 1156.98 11.123 1156.55 11.123C1155.99 11.123 1155.58 11.403 1155.32 11.9629C1155.06 12.5163 1154.93 13.4538 1154.93 14.7754V20H1152.33V9.12109H1154.39L1154.71 10.5176H1154.87C1155.11 10.0163 1155.44 9.62565 1155.88 9.3457C1156.32 9.05924 1156.83 8.91602 1157.41 8.91602C1158.4 8.91602 1159.14 9.25456 1159.63 9.93164C1160.12 10.6087 1160.37 11.5983 1160.37 12.9004V20H1157.75Z" fill="#DB3F28"/>
<path d="M1058.03 12.5L1043.03 21.1603V3.83975L1058.03 12.5Z" fill="#DB3F28"/>
</svg>
