<svg width="1319" height="142" viewBox="0 0 1319 142" fill="none" xmlns="http://www.w3.org/2000/svg">
<path d="M33.4316 74.9355V89.3936C33.4316 94.2275 31.7031 96.6445 28.2461 96.6445C26.5176 96.6445 25.1992 96.0195 24.291 94.7695C23.3828 93.5195 22.9287 91.7275 22.9287 89.3936V74.9355H24.3789V89.5693C24.3789 91.4248 24.7109 92.8408 25.375 93.8174C26.0488 94.7842 27.0059 95.2676 28.2461 95.2676C29.4766 95.2676 30.4092 94.7842 31.0439 93.8174C31.6787 92.8408 31.9961 91.4053 31.9961 89.5107V74.9355H33.4316ZM42.1328 80.1504C42.6309 80.1504 43.0947 80.2188 43.5244 80.3555L43.1875 81.7471C42.8359 81.6006 42.4746 81.5273 42.1035 81.5273C41.5664 81.5273 41.0635 81.8057 40.5947 82.3623C40.1357 82.9092 39.7744 83.6758 39.5107 84.6621C39.2471 85.6484 39.1152 86.7373 39.1152 87.9287V96.3516H37.7236V80.458H38.8662L39.0127 83.2412H39.1152C39.8574 81.1807 40.8633 80.1504 42.1328 80.1504ZM47.2598 80.458V90.8291C47.2598 92.4014 47.4453 93.5488 47.8164 94.2715C48.1973 94.9941 48.7783 95.3555 49.5596 95.3555C50.7607 95.3555 51.6396 94.8721 52.1963 93.9053C52.7627 92.9287 53.0459 91.3564 53.0459 89.1885V80.458H54.4229V96.3516H53.251L53.0752 94.125H52.958C52.6162 94.9355 52.1426 95.5605 51.5371 96C50.9316 96.4297 50.2725 96.6445 49.5596 96.6445C48.2803 96.6445 47.3428 96.1904 46.7471 95.2822C46.1611 94.374 45.8682 92.8896 45.8682 90.8291V80.458H47.2598ZM66.9912 80.458V81.4395L64.8232 81.6885C65.1162 82.0693 65.3555 82.6162 65.541 83.3291C65.7266 84.0322 65.8193 84.7549 65.8193 85.4971C65.8193 87.04 65.4678 88.29 64.7646 89.2471C64.0713 90.2041 63.1533 90.6826 62.0107 90.6826H61.6592L61.3516 90.6533C60.8828 90.9854 60.5117 91.3174 60.2383 91.6494C59.9746 91.9814 59.8428 92.3672 59.8428 92.8066C59.8428 93.2559 60.0186 93.6074 60.3701 93.8613C60.7217 94.1055 61.1953 94.2275 61.791 94.2275H62.7871C64.2031 94.2275 65.3018 94.5938 66.083 95.3262C66.8643 96.0586 67.2549 97.1182 67.2549 98.5049C67.2549 100.058 66.7275 101.288 65.6729 102.196C64.6279 103.104 63.2461 103.559 61.5273 103.559C60.0918 103.559 58.9883 103.192 58.2168 102.46C57.4453 101.737 57.0596 100.692 57.0596 99.3252C57.0596 98.3291 57.3135 97.4746 57.8213 96.7617C58.3291 96.0586 59.125 95.502 60.209 95.0918C59.7207 94.877 59.3252 94.5791 59.0225 94.1982C58.7295 93.8174 58.583 93.3633 58.583 92.8359C58.583 92.3574 58.7393 91.9326 59.0518 91.5615C59.374 91.1807 59.8281 90.7754 60.4141 90.3457C59.6035 89.9746 58.9883 89.374 58.5684 88.5439C58.1582 87.7139 57.9531 86.7373 57.9531 85.6143C57.9531 83.9248 58.3096 82.5918 59.0225 81.6152C59.7354 80.6387 60.7119 80.1504 61.9521 80.1504C62.6162 80.1504 63.1729 80.2529 63.6221 80.458H66.9912ZM58.4365 99.208C58.4365 100.214 58.6953 101 59.2129 101.566C59.7402 102.133 60.5312 102.416 61.5859 102.416C62.8945 102.416 63.9297 102.074 64.6914 101.391C65.4629 100.707 65.8486 99.7695 65.8486 98.5781C65.8486 97.6211 65.585 96.8789 65.0576 96.3516C64.54 95.834 63.7832 95.5752 62.7871 95.5752H61.7617C60.8047 95.5752 60.0088 95.9072 59.374 96.5713C58.749 97.2451 58.4365 98.124 58.4365 99.208ZM59.3008 85.6436C59.3008 86.9424 59.54 87.9287 60.0186 88.6025C60.4971 89.2666 61.1318 89.5986 61.9229 89.5986C63.6221 89.5986 64.4717 88.2314 64.4717 85.4971C64.4717 84.1787 64.252 83.1484 63.8125 82.4062C63.3828 81.6641 62.7529 81.293 61.9229 81.293C61.0732 81.293 60.4238 81.6738 59.9746 82.4355C59.5254 83.1973 59.3008 84.2666 59.3008 85.6436ZM70.873 80.458V90.8291C70.873 92.4014 71.0586 93.5488 71.4297 94.2715C71.8105 94.9941 72.3916 95.3555 73.1729 95.3555C74.374 95.3555 75.2529 94.8721 75.8096 93.9053C76.376 92.9287 76.6592 91.3564 76.6592 89.1885V80.458H78.0361V96.3516H76.8643L76.6885 94.125H76.5713C76.2295 94.9355 75.7559 95.5605 75.1504 96C74.5449 96.4297 73.8857 96.6445 73.1729 96.6445C71.8936 96.6445 70.9561 96.1904 70.3604 95.2822C69.7744 94.374 69.4814 92.8896 69.4814 90.8291V80.458H70.873ZM88.4365 96.3516L88.2607 94.125H88.2021C87.4404 95.8047 86.2881 96.6445 84.7451 96.6445C83.71 96.6445 82.875 96.2344 82.2402 95.4141C81.6152 94.584 81.3027 93.4756 81.3027 92.0889C81.3027 90.5752 81.7568 89.3789 82.665 88.5C83.5732 87.6113 84.8477 87.1279 86.4883 87.0498L88.2021 86.9619V85.6436C88.2021 84.1592 88.0166 83.0801 87.6455 82.4062C87.2744 81.7227 86.6592 81.3809 85.7998 81.3809C84.8916 81.3809 83.9639 81.6787 83.0166 82.2744L82.416 81.1758C83.5195 80.4922 84.6768 80.1504 85.8877 80.1504C87.1963 80.1504 88.1387 80.5654 88.7148 81.3955C89.291 82.2158 89.5791 83.5928 89.5791 85.5264V96.3516H88.4365ZM85.0527 95.458C86.0488 95.458 86.8203 94.9697 87.3672 93.9932C87.9238 93.0068 88.2021 91.6152 88.2021 89.8184V88.1631L86.5469 88.251C85.2676 88.3193 84.3154 88.6758 83.6904 89.3203C83.0752 89.9551 82.7676 90.8877 82.7676 92.1182C82.7676 93.2705 82.9727 94.1152 83.3828 94.6523C83.793 95.1895 84.3496 95.458 85.0527 95.458ZM95.7607 96.3223L91.791 80.458H93.1973L95.5996 90.375C95.8828 91.5664 96.1562 92.9092 96.4199 94.4033H96.5371C96.7227 93.1045 96.9814 91.752 97.3135 90.3457L99.6572 80.458H101.063L96.4199 99.3545C96.0781 100.751 95.6289 101.801 95.0723 102.504C94.5254 103.207 93.793 103.559 92.875 103.559C92.5039 103.559 92.084 103.476 91.6152 103.31V102.05C92.0059 102.187 92.3867 102.255 92.7578 102.255C93.3438 102.255 93.8076 102.001 94.1494 101.493C94.4912 100.995 94.7939 100.189 95.0576 99.0762L95.7607 96.3223Z" fill="white"/>
<path d="M24.4614 61.3516H15.9556V34.1201C15.9556 31.1579 16.1037 27.7513 16.3999 23.9004C16.2518 24.112 15.7017 24.7573 14.7495 25.8364C13.8185 26.9155 11.9883 28.8516 9.25879 31.6445L4.43457 26.376L16.7808 14.9502H24.4614V61.3516ZM58.9609 35.1675C58.9609 53.0467 52.9836 61.9863 41.0288 61.9863C39.0399 61.9863 37.3895 61.8171 36.0776 61.4785V54.2104C37.5164 54.6759 38.86 54.9087 40.1084 54.9087C43.6419 54.9087 46.3185 53.6815 48.1382 51.2271C49.979 48.7726 50.9946 44.9111 51.1851 39.6426H50.8994C50.2223 41.3141 49.249 42.626 47.9795 43.5781C46.7311 44.5091 45.2394 44.9746 43.5044 44.9746C40.3517 44.9746 37.9079 43.6839 36.1729 41.1025C34.4378 38.5212 33.5703 34.9771 33.5703 30.4702C33.5703 25.519 34.7023 21.5941 36.9663 18.6953C39.2515 15.7965 42.2983 14.3472 46.1069 14.3472C50.2541 14.3472 53.4279 16.1351 55.6284 19.7109C57.8501 23.2868 58.9609 28.439 58.9609 35.1675ZM46.1704 21.7104C44.9009 21.7104 43.8853 22.3981 43.1235 23.7734C42.383 25.1488 42.0127 27.3175 42.0127 30.2798C42.0127 32.7131 42.3407 34.6174 42.9966 35.9927C43.6525 37.3468 44.647 38.0239 45.98 38.0239C47.186 38.0239 48.2334 37.3363 49.1221 35.9609C50.0107 34.5645 50.4551 32.9775 50.4551 31.2002C50.4551 28.4495 50.0636 26.1855 49.2808 24.4082C48.4979 22.6097 47.4611 21.7104 46.1704 21.7104ZM88.7314 61.3516H63.8486V54.9087L72.1006 43.229C74.3646 40.0129 75.9198 37.6325 76.7661 36.0879C77.6125 34.5221 78.2367 33.0304 78.6387 31.6128C79.0407 30.174 79.2417 28.6929 79.2417 27.1694C79.2417 25.3921 78.8397 24.0591 78.0356 23.1704C77.2528 22.2817 76.2266 21.8374 74.957 21.8374C73.8356 21.8374 72.7882 22.1336 71.8149 22.7261C70.8416 23.3185 69.6567 24.387 68.2603 25.9316L63.436 20.8535C65.6577 18.3356 67.7207 16.6112 69.625 15.6802C71.5293 14.7492 73.5923 14.2837 75.814 14.2837C79.5591 14.2837 82.479 15.384 84.5737 17.5845C86.6896 19.785 87.7476 22.8424 87.7476 26.7568C87.7476 28.5342 87.5571 30.2163 87.1763 31.8032C86.7954 33.3901 86.2135 34.9876 85.4307 36.5957C84.6689 38.1826 83.7062 39.8436 82.5425 41.5786C81.3787 43.2925 78.3742 47.2386 73.5288 53.417V53.6709H88.7314V61.3516ZM97.3008 61.3516L110.313 22.6626H94.127V15.0137H119.01V20.8535L106.219 61.3516H97.3008Z" fill="white"/>
<path d="M283.173 75.9756C281.562 75.9756 280.277 76.8301 279.32 78.5391C278.373 80.2383 277.899 82.5967 277.899 85.6143C277.899 87.5771 278.119 89.2861 278.559 90.7412C278.998 92.1963 279.628 93.3145 280.448 94.0957C281.269 94.877 282.221 95.2676 283.305 95.2676C284.418 95.2676 285.375 95.0674 286.176 94.667V95.9854C285.414 96.4248 284.413 96.6445 283.173 96.6445C281.815 96.6445 280.624 96.2051 279.599 95.3262C278.583 94.4473 277.797 93.1777 277.24 91.5176C276.684 89.8477 276.405 87.8701 276.405 85.585C276.405 82.167 277.011 79.4814 278.222 77.5283C279.442 75.5752 281.103 74.5986 283.202 74.5986C284.511 74.5986 285.653 74.9014 286.63 75.5068L285.971 76.7666C285.15 76.2393 284.218 75.9756 283.173 75.9756ZM298.451 88.3682C298.451 91.0439 298.026 93.0947 297.177 94.5205C296.337 95.9365 295.131 96.6445 293.559 96.6445C292.006 96.6445 290.814 95.9365 289.984 94.5205C289.164 93.0947 288.754 91.0439 288.754 88.3682C288.754 82.8896 290.375 80.1504 293.617 80.1504C295.141 80.1504 296.327 80.8682 297.177 82.3037C298.026 83.7393 298.451 85.7607 298.451 88.3682ZM290.204 88.3682C290.204 90.6631 290.478 92.3965 291.024 93.5684C291.571 94.7402 292.426 95.3262 293.588 95.3262C295.863 95.3262 297.001 93.0068 297.001 88.3682C297.001 83.7686 295.863 81.4688 293.588 81.4688C292.396 81.4688 291.532 82.0449 290.995 83.1973C290.468 84.3496 290.204 86.0732 290.204 88.3682ZM308.192 92.3672C308.192 93.7051 307.841 94.7549 307.138 95.5166C306.435 96.2686 305.419 96.6445 304.091 96.6445C303.368 96.6445 302.733 96.5518 302.187 96.3662C301.64 96.1807 301.215 95.9756 300.912 95.751V94.125C301.273 94.4863 301.752 94.7793 302.348 95.0039C302.943 95.2188 303.554 95.3262 304.179 95.3262C304.999 95.3262 305.644 95.0576 306.112 94.5205C306.581 93.9834 306.815 93.2656 306.815 92.3672C306.815 91.6641 306.645 91.0732 306.303 90.5947C305.971 90.1064 305.331 89.5547 304.384 88.9395C303.3 88.2559 302.558 87.709 302.157 87.2988C301.767 86.8887 301.459 86.4297 301.234 85.9219C301.02 85.4141 300.912 84.8086 300.912 84.1055C300.912 82.9629 301.298 82.0205 302.069 81.2783C302.841 80.5264 303.822 80.1504 305.014 80.1504C306.293 80.1504 307.362 80.4531 308.222 81.0586L307.504 82.2744C306.703 81.7373 305.854 81.4688 304.955 81.4688C304.135 81.4688 303.48 81.7129 302.992 82.2012C302.504 82.6797 302.26 83.3145 302.26 84.1055C302.26 84.8086 302.426 85.3994 302.758 85.8779C303.09 86.3467 303.793 86.918 304.867 87.5918C305.922 88.2852 306.645 88.8418 307.035 89.2617C307.426 89.6719 307.714 90.1309 307.899 90.6387C308.095 91.1367 308.192 91.7129 308.192 92.3672ZM314.33 95.3555C314.76 95.3555 315.141 95.2969 315.473 95.1797V96.3516C315.043 96.5469 314.491 96.6445 313.817 96.6445C312.177 96.6445 311.356 95.4189 311.356 92.9678V81.6885H309.921V80.8682L311.327 80.458L311.781 76.6787H312.748V80.458H315.268V81.6885H312.748V92.5723C312.748 93.6465 312.865 94.3789 313.1 94.7695C313.334 95.1602 313.744 95.3555 314.33 95.3555ZM324.159 96.3516L323.983 94.125H323.925C323.163 95.8047 322.011 96.6445 320.468 96.6445C319.433 96.6445 318.598 96.2344 317.963 95.4141C317.338 94.584 317.025 93.4756 317.025 92.0889C317.025 90.5752 317.479 89.3789 318.388 88.5C319.296 87.6113 320.57 87.1279 322.211 87.0498L323.925 86.9619V85.6436C323.925 84.1592 323.739 83.0801 323.368 82.4062C322.997 81.7227 322.382 81.3809 321.522 81.3809C320.614 81.3809 319.687 81.6787 318.739 82.2744L318.139 81.1758C319.242 80.4922 320.399 80.1504 321.61 80.1504C322.919 80.1504 323.861 80.5654 324.438 81.3955C325.014 82.2158 325.302 83.5928 325.302 85.5264V96.3516H324.159ZM320.775 95.458C321.771 95.458 322.543 94.9697 323.09 93.9932C323.646 93.0068 323.925 91.6152 323.925 89.8184V88.1631L322.27 88.251C320.99 88.3193 320.038 88.6758 319.413 89.3203C318.798 89.9551 318.49 90.8877 318.49 92.1182C318.49 93.2705 318.695 94.1152 319.105 94.6523C319.516 95.1895 320.072 95.458 320.775 95.458ZM336.801 86.9912V96.3516H335.365V74.9355H338.295C340.385 74.9355 341.913 75.4287 342.88 76.415C343.847 77.4014 344.33 78.876 344.33 80.8389C344.33 82.3232 344.066 83.5439 343.539 84.501C343.012 85.458 342.128 86.1758 340.888 86.6543L345.136 96.3516H343.524L339.525 86.9912H336.801ZM336.801 85.6729H338.808C340.106 85.6729 341.107 85.2725 341.811 84.4717C342.514 83.6709 342.865 82.4795 342.865 80.8975C342.865 79.2861 342.504 78.124 341.781 77.4111C341.068 76.6982 339.94 76.3418 338.397 76.3418H336.801V85.6729ZM349.281 96.3516H347.89V80.458H349.281V96.3516ZM347.685 76.0488C347.685 75.6094 347.772 75.2676 347.948 75.0234C348.134 74.7793 348.368 74.6572 348.651 74.6572C348.915 74.6572 349.125 74.7793 349.281 75.0234C349.438 75.2676 349.516 75.6094 349.516 76.0488C349.516 76.4688 349.438 76.8057 349.281 77.0596C349.125 77.3037 348.915 77.4258 348.651 77.4258C348.368 77.4258 348.134 77.3037 347.948 77.0596C347.772 76.8057 347.685 76.4688 347.685 76.0488ZM357.631 96.6445C356.039 96.6445 354.838 95.9561 354.027 94.5791C353.227 93.1924 352.826 91.1611 352.826 88.4854C352.826 85.7705 353.231 83.7051 354.042 82.2891C354.862 80.8633 356.068 80.1504 357.66 80.1504C358.646 80.1504 359.467 80.3311 360.121 80.6924L359.579 81.9229C358.925 81.6201 358.324 81.4688 357.777 81.4688C355.443 81.4688 354.276 83.7979 354.276 88.4561C354.276 93.0752 355.443 95.3848 357.777 95.3848C358.471 95.3848 359.223 95.2285 360.033 94.916V96.0879C359.711 96.2637 359.315 96.4004 358.847 96.498C358.378 96.5957 357.973 96.6445 357.631 96.6445ZM369.013 96.3516L368.837 94.125H368.778C368.017 95.8047 366.864 96.6445 365.321 96.6445C364.286 96.6445 363.451 96.2344 362.816 95.4141C362.191 94.584 361.879 93.4756 361.879 92.0889C361.879 90.5752 362.333 89.3789 363.241 88.5C364.149 87.6113 365.424 87.1279 367.064 87.0498L368.778 86.9619V85.6436C368.778 84.1592 368.593 83.0801 368.222 82.4062C367.851 81.7227 367.235 81.3809 366.376 81.3809C365.468 81.3809 364.54 81.6787 363.593 82.2744L362.992 81.1758C364.096 80.4922 365.253 80.1504 366.464 80.1504C367.772 80.1504 368.715 80.5654 369.291 81.3955C369.867 82.2158 370.155 83.5928 370.155 85.5264V96.3516H369.013ZM365.629 95.458C366.625 95.458 367.396 94.9697 367.943 93.9932C368.5 93.0068 368.778 91.6152 368.778 89.8184V88.1631L367.123 88.251C365.844 88.3193 364.892 88.6758 364.267 89.3203C363.651 89.9551 363.344 90.8877 363.344 92.1182C363.344 93.2705 363.549 94.1152 363.959 94.6523C364.369 95.1895 364.926 95.458 365.629 95.458Z" fill="white"/>
<path d="M572.114 96.3516L566.416 76.8545H566.299C566.396 78.9053 566.445 80.2041 566.445 80.751V96.3516H565.068V74.9355H567.192L571.997 91.3125C572.427 92.7578 572.705 93.9883 572.832 95.0039H572.949C573.047 94.2812 573.35 93.0605 573.857 91.3418L578.618 74.9355H580.815V96.3516H579.38V80.8682C579.38 80.2627 579.429 78.9346 579.526 76.8838H579.409L573.74 96.3516H572.114ZM589.81 96.6445C588.13 96.6445 586.836 95.9316 585.928 94.5059C585.029 93.0703 584.58 91.0732 584.58 88.5146C584.58 85.7998 584.98 83.7295 585.781 82.3037C586.592 80.8682 587.754 80.1504 589.268 80.1504C590.586 80.1504 591.626 80.7803 592.388 82.04C593.149 83.29 593.53 84.9795 593.53 87.1084V88.3975H586.001C586.021 90.7119 586.348 92.4453 586.982 93.5977C587.617 94.75 588.579 95.3262 589.868 95.3262C590.864 95.3262 591.914 94.999 593.018 94.3447V95.6924C592.002 96.3271 590.933 96.6445 589.81 96.6445ZM589.18 81.4102C587.266 81.4102 586.216 83.3193 586.03 87.1377H592.139C592.139 85.3896 591.87 83.998 591.333 82.9629C590.806 81.9277 590.088 81.4102 589.18 81.4102ZM588.198 78.1729V77.8652C589.438 76.2441 590.371 74.7451 590.996 73.3682H592.827V73.6172C592.446 74.3008 591.865 75.0869 591.084 75.9756C590.312 76.8643 589.58 77.5967 588.887 78.1729H588.198ZM599.243 88.1045L595.757 80.458H597.266L599.932 86.9033L602.715 80.458H604.165L600.62 88.2803L604.341 96.3516H602.876L599.902 89.4814L596.899 96.3516H595.464L599.243 88.1045ZM608.369 96.3516H606.978V80.458H608.369V96.3516ZM606.772 76.0488C606.772 75.6094 606.86 75.2676 607.036 75.0234C607.222 74.7793 607.456 74.6572 607.739 74.6572C608.003 74.6572 608.213 74.7793 608.369 75.0234C608.525 75.2676 608.604 75.6094 608.604 76.0488C608.604 76.4688 608.525 76.8057 608.369 77.0596C608.213 77.3037 608.003 77.4258 607.739 77.4258C607.456 77.4258 607.222 77.3037 607.036 77.0596C606.86 76.8057 606.772 76.4688 606.772 76.0488ZM616.719 96.6445C615.127 96.6445 613.926 95.9561 613.115 94.5791C612.314 93.1924 611.914 91.1611 611.914 88.4854C611.914 85.7705 612.319 83.7051 613.13 82.2891C613.95 80.8633 615.156 80.1504 616.748 80.1504C617.734 80.1504 618.555 80.3311 619.209 80.6924L618.667 81.9229C618.013 81.6201 617.412 81.4688 616.865 81.4688C614.531 81.4688 613.364 83.7979 613.364 88.4561C613.364 93.0752 614.531 95.3848 616.865 95.3848C617.559 95.3848 618.311 95.2285 619.121 94.916V96.0879C618.799 96.2637 618.403 96.4004 617.935 96.498C617.466 96.5957 617.061 96.6445 616.719 96.6445ZM630.898 88.3682C630.898 91.0439 630.474 93.0947 629.624 94.5205C628.784 95.9365 627.578 96.6445 626.006 96.6445C624.453 96.6445 623.262 95.9365 622.432 94.5205C621.611 93.0947 621.201 91.0439 621.201 88.3682C621.201 82.8896 622.822 80.1504 626.064 80.1504C627.588 80.1504 628.774 80.8682 629.624 82.3037C630.474 83.7393 630.898 85.7607 630.898 88.3682ZM622.651 88.3682C622.651 90.6631 622.925 92.3965 623.472 93.5684C624.019 94.7402 624.873 95.3262 626.035 95.3262C628.311 95.3262 629.448 93.0068 629.448 88.3682C629.448 83.7686 628.311 81.4688 626.035 81.4688C624.844 81.4688 623.979 82.0449 623.442 83.1973C622.915 84.3496 622.651 86.0732 622.651 88.3682Z" fill="white"/>
<path d="M698.954 74.9355H703.056C704.735 74.9355 706.024 75.3652 706.923 76.2246C707.831 77.084 708.285 78.3535 708.285 80.0332C708.285 82.9336 707.226 84.5938 705.106 85.0137V85.1309C706.327 85.3848 707.235 85.9316 707.831 86.7715C708.427 87.6016 708.725 88.7637 708.725 90.2578C708.725 92.1719 708.3 93.666 707.45 94.7402C706.601 95.8145 705.409 96.3516 703.876 96.3516H698.954V74.9355ZM700.39 84.4717H703.085C704.423 84.4717 705.375 84.1055 705.941 83.373C706.518 82.6309 706.806 81.5078 706.806 80.0039C706.806 78.793 706.488 77.8652 705.854 77.2207C705.229 76.5762 704.296 76.2539 703.056 76.2539H700.39V84.4717ZM700.39 85.79V95.0332H703.686C706.049 95.0332 707.23 93.4316 707.23 90.2285C707.23 88.8027 706.884 87.709 706.19 86.9473C705.497 86.1758 704.525 85.79 703.275 85.79H700.39ZM720.985 88.3682C720.985 91.0439 720.561 93.0947 719.711 94.5205C718.871 95.9365 717.665 96.6445 716.093 96.6445C714.54 96.6445 713.349 95.9365 712.519 94.5205C711.698 93.0947 711.288 91.0439 711.288 88.3682C711.288 82.8896 712.909 80.1504 716.151 80.1504C717.675 80.1504 718.861 80.8682 719.711 82.3037C720.561 83.7393 720.985 85.7607 720.985 88.3682ZM712.738 88.3682C712.738 90.6631 713.012 92.3965 713.559 93.5684C714.105 94.7402 714.96 95.3262 716.122 95.3262C718.397 95.3262 719.535 93.0068 719.535 88.3682C719.535 83.7686 718.397 81.4688 716.122 81.4688C714.931 81.4688 714.066 82.0449 713.529 83.1973C713.002 84.3496 712.738 86.0732 712.738 88.3682ZM725.878 96.3516H724.486V73.5586H725.878V96.3516ZM731.532 96.3516H730.141V80.458H731.532V96.3516ZM729.936 76.0488C729.936 75.6094 730.023 75.2676 730.199 75.0234C730.385 74.7793 730.619 74.6572 730.902 74.6572C731.166 74.6572 731.376 74.7793 731.532 75.0234C731.688 75.2676 731.767 75.6094 731.767 76.0488C731.767 76.4688 731.688 76.8057 731.532 77.0596C731.376 77.3037 731.166 77.4258 730.902 77.4258C730.619 77.4258 730.385 77.3037 730.199 77.0596C730.023 76.8057 729.936 76.4688 729.936 76.0488ZM737.567 96.3516L733.817 80.458H735.224L737.597 90.6826C737.87 91.8643 738.134 93.1533 738.388 94.5498H738.505C738.573 94.042 738.671 93.4756 738.798 92.8506C738.925 92.2256 739.887 88.0947 741.684 80.458H743.09L739.223 96.3516H737.567ZM746.767 96.3516H745.375V80.458H746.767V96.3516ZM745.17 76.0488C745.17 75.6094 745.258 75.2676 745.434 75.0234C745.619 74.7793 745.854 74.6572 746.137 74.6572C746.4 74.6572 746.61 74.7793 746.767 75.0234C746.923 75.2676 747.001 75.6094 747.001 76.0488C747.001 76.4688 746.923 76.8057 746.767 77.0596C746.61 77.3037 746.4 77.4258 746.137 77.4258C745.854 77.4258 745.619 77.3037 745.434 77.0596C745.258 76.8057 745.17 76.4688 745.17 76.0488ZM757.182 96.3516L757.006 94.125H756.947C756.186 95.8047 755.033 96.6445 753.49 96.6445C752.455 96.6445 751.62 96.2344 750.985 95.4141C750.36 94.584 750.048 93.4756 750.048 92.0889C750.048 90.5752 750.502 89.3789 751.41 88.5C752.318 87.6113 753.593 87.1279 755.233 87.0498L756.947 86.9619V85.6436C756.947 84.1592 756.762 83.0801 756.391 82.4062C756.02 81.7227 755.404 81.3809 754.545 81.3809C753.637 81.3809 752.709 81.6787 751.762 82.2744L751.161 81.1758C752.265 80.4922 753.422 80.1504 754.633 80.1504C755.941 80.1504 756.884 80.5654 757.46 81.3955C758.036 82.2158 758.324 83.5928 758.324 85.5264V96.3516H757.182ZM753.798 95.458C754.794 95.458 755.565 94.9697 756.112 93.9932C756.669 93.0068 756.947 91.6152 756.947 89.8184V88.1631L755.292 88.251C754.013 88.3193 753.061 88.6758 752.436 89.3203C751.82 89.9551 751.513 90.8877 751.513 92.1182C751.513 93.2705 751.718 94.1152 752.128 94.6523C752.538 95.1895 753.095 95.458 753.798 95.458Z" fill="white"/>
<path d="M841.933 75.9756C840.321 75.9756 839.037 76.8301 838.08 78.5391C837.133 80.2383 836.659 82.5967 836.659 85.6143C836.659 87.5771 836.879 89.2861 837.318 90.7412C837.758 92.1963 838.388 93.3145 839.208 94.0957C840.028 94.877 840.98 95.2676 842.064 95.2676C843.178 95.2676 844.135 95.0674 844.936 94.667V95.9854C844.174 96.4248 843.173 96.6445 841.933 96.6445C840.575 96.6445 839.384 96.2051 838.358 95.3262C837.343 94.4473 836.557 93.1777 836 91.5176C835.443 89.8477 835.165 87.8701 835.165 85.585C835.165 82.167 835.771 79.4814 836.981 77.5283C838.202 75.5752 839.862 74.5986 841.962 74.5986C843.271 74.5986 844.413 74.9014 845.39 75.5068L844.73 76.7666C843.91 76.2393 842.978 75.9756 841.933 75.9756ZM849.594 80.458V90.8291C849.594 92.4014 849.779 93.5488 850.15 94.2715C850.531 94.9941 851.112 95.3555 851.894 95.3555C853.095 95.3555 853.974 94.8721 854.53 93.9053C855.097 92.9287 855.38 91.3564 855.38 89.1885V80.458H856.757V96.3516H855.585L855.409 94.125H855.292C854.95 94.9355 854.477 95.5605 853.871 96C853.266 96.4297 852.606 96.6445 851.894 96.6445C850.614 96.6445 849.677 96.1904 849.081 95.2822C848.495 94.374 848.202 92.8896 848.202 90.8291V80.458H849.594ZM865.927 80.1797C869.032 80.1797 870.585 82.9092 870.585 88.3682C870.585 91.0635 870.199 93.1191 869.428 94.5352C868.656 95.9414 867.543 96.6445 866.088 96.6445C865.326 96.6445 864.633 96.4346 864.008 96.0146C863.383 95.5947 862.865 94.9746 862.455 94.1543H862.338L862.147 96.3516H861.005V73.5586H862.396V80.6338L862.338 82.5527H862.455C863.295 80.9707 864.452 80.1797 865.927 80.1797ZM865.868 81.4688C864.647 81.4688 863.764 82.0059 863.217 83.0801C862.67 84.1543 862.396 85.917 862.396 88.3682V88.7344C862.396 93.168 863.573 95.3848 865.927 95.3848C867.001 95.3848 867.802 94.8135 868.329 93.6709C868.866 92.5283 869.135 90.7607 869.135 88.3682C869.135 86.0732 868.876 84.3496 868.358 83.1973C867.841 82.0449 867.011 81.4688 865.868 81.4688ZM880.253 96.3516L880.077 94.125H880.019C879.257 95.8047 878.104 96.6445 876.562 96.6445C875.526 96.6445 874.691 96.2344 874.057 95.4141C873.432 94.584 873.119 93.4756 873.119 92.0889C873.119 90.5752 873.573 89.3789 874.481 88.5C875.39 87.6113 876.664 87.1279 878.305 87.0498L880.019 86.9619V85.6436C880.019 84.1592 879.833 83.0801 879.462 82.4062C879.091 81.7227 878.476 81.3809 877.616 81.3809C876.708 81.3809 875.78 81.6787 874.833 82.2744L874.232 81.1758C875.336 80.4922 876.493 80.1504 877.704 80.1504C879.013 80.1504 879.955 80.5654 880.531 81.3955C881.107 82.2158 881.396 83.5928 881.396 85.5264V96.3516H880.253ZM876.869 95.458C877.865 95.458 878.637 94.9697 879.184 93.9932C879.74 93.0068 880.019 91.6152 880.019 89.8184V88.1631L878.363 88.251C877.084 88.3193 876.132 88.6758 875.507 89.3203C874.892 89.9551 874.584 90.8877 874.584 92.1182C874.584 93.2705 874.789 94.1152 875.199 94.6523C875.609 95.1895 876.166 95.458 876.869 95.458Z" fill="white"/>
<path d="M973.68 75.9756C972.068 75.9756 970.784 76.8301 969.827 78.5391C968.88 80.2383 968.406 82.5967 968.406 85.6143C968.406 87.5771 968.626 89.2861 969.065 90.7412C969.505 92.1963 970.135 93.3145 970.955 94.0957C971.775 94.877 972.728 95.2676 973.812 95.2676C974.925 95.2676 975.882 95.0674 976.683 94.667V95.9854C975.921 96.4248 974.92 96.6445 973.68 96.6445C972.322 96.6445 971.131 96.2051 970.105 95.3262C969.09 94.4473 968.304 93.1777 967.747 91.5176C967.19 89.8477 966.912 87.8701 966.912 85.585C966.912 82.167 967.518 79.4814 968.729 77.5283C969.949 75.5752 971.609 74.5986 973.709 74.5986C975.018 74.5986 976.16 74.9014 977.137 75.5068L976.478 76.7666C975.657 76.2393 974.725 75.9756 973.68 75.9756ZM987.186 96.3516V85.3945C987.186 83.959 986.995 82.9434 986.614 82.3477C986.243 81.7422 985.633 81.4395 984.783 81.4395C983.66 81.4395 982.815 81.9375 982.249 82.9336C981.683 83.9297 981.399 85.502 981.399 87.6504V96.3516H980.008V73.5586H981.399V80.9561C981.399 81.6299 981.38 82.1914 981.341 82.6406H981.458C981.771 81.8496 982.239 81.2393 982.864 80.8096C983.499 80.3701 984.158 80.1504 984.842 80.1504C986.189 80.1504 987.146 80.5898 987.713 81.4688C988.279 82.3477 988.562 83.6562 988.562 85.3945V96.3516H987.186ZM994.144 96.3516H992.752V80.458H994.144V96.3516ZM992.547 76.0488C992.547 75.6094 992.635 75.2676 992.811 75.0234C992.996 74.7793 993.23 74.6572 993.514 74.6572C993.777 74.6572 993.987 74.7793 994.144 75.0234C994.3 75.2676 994.378 75.6094 994.378 76.0488C994.378 76.4688 994.3 76.8057 994.144 77.0596C993.987 77.3037 993.777 77.4258 993.514 77.4258C993.23 77.4258 992.996 77.3037 992.811 77.0596C992.635 76.8057 992.547 76.4688 992.547 76.0488ZM999.798 96.3516H998.406V73.5586H999.798V96.3516ZM1008.57 96.6445C1006.89 96.6445 1005.6 95.9316 1004.69 94.5059C1003.79 93.0703 1003.34 91.0732 1003.34 88.5146C1003.34 85.7998 1003.74 83.7295 1004.54 82.3037C1005.35 80.8682 1006.52 80.1504 1008.03 80.1504C1009.35 80.1504 1010.39 80.7803 1011.15 82.04C1011.91 83.29 1012.29 84.9795 1012.29 87.1084V88.3975H1004.76C1004.78 90.7119 1005.11 92.4453 1005.75 93.5977C1006.38 94.75 1007.34 95.3262 1008.63 95.3262C1009.63 95.3262 1010.68 94.999 1011.78 94.3447V95.6924C1010.76 96.3271 1009.7 96.6445 1008.57 96.6445ZM1007.94 81.4102C1006.03 81.4102 1004.98 83.3193 1004.79 87.1377H1010.9C1010.9 85.3896 1010.63 83.998 1010.1 82.9629C1009.57 81.9277 1008.85 81.4102 1007.94 81.4102Z" fill="white"/>
<path d="M1076.27 96.3516H1068.51V74.9355H1076.27V76.3125H1069.94V84.4424H1075.92V85.8193H1069.94V94.9746H1076.27V96.3516ZM1081.22 96.3516H1079.83V73.5586H1081.22V96.3516ZM1099.58 90.7412C1099.58 92.499 1099.09 93.9248 1098.11 95.0186C1097.14 96.1025 1095.9 96.6445 1094.39 96.6445C1092.68 96.6445 1091.31 96.3955 1090.28 95.8975V94.3447C1090.78 94.6279 1091.41 94.8525 1092.17 95.0186C1092.92 95.1846 1093.66 95.2676 1094.39 95.2676C1095.49 95.2676 1096.38 94.8525 1097.09 94.0225C1097.79 93.1924 1098.14 92.1377 1098.14 90.8584C1098.14 89.6768 1097.89 88.7393 1097.4 88.0459C1096.9 87.3525 1095.95 86.6592 1094.54 85.9658C1093.44 85.4092 1092.61 84.8721 1092.06 84.3545C1091.52 83.8271 1091.11 83.2168 1090.85 82.5234C1090.58 81.8301 1090.45 81 1090.45 80.0332C1090.45 78.9785 1090.67 78.041 1091.1 77.2207C1091.53 76.4004 1092.13 75.7656 1092.9 75.3164C1093.67 74.8574 1094.51 74.6279 1095.43 74.6279C1096.26 74.6279 1097.01 74.7207 1097.69 74.9062C1098.37 75.0918 1098.91 75.292 1099.3 75.5068L1098.74 76.8838C1097.66 76.3271 1096.56 76.0488 1095.43 76.0488C1094.38 76.0488 1093.52 76.4102 1092.85 77.1328C1092.2 77.8457 1091.87 78.793 1091.87 79.9746C1091.87 81.1758 1092.11 82.1084 1092.59 82.7725C1093.07 83.4365 1094.01 84.125 1095.4 84.8379C1096.85 85.541 1097.9 86.3662 1098.57 87.3135C1099.24 88.251 1099.58 89.3936 1099.58 90.7412ZM1109.16 96.3516L1108.98 94.125H1108.92C1108.16 95.8047 1107.01 96.6445 1105.47 96.6445C1104.43 96.6445 1103.6 96.2344 1102.96 95.4141C1102.34 94.584 1102.02 93.4756 1102.02 92.0889C1102.02 90.5752 1102.48 89.3789 1103.39 88.5C1104.29 87.6113 1105.57 87.1279 1107.21 87.0498L1108.92 86.9619V85.6436C1108.92 84.1592 1108.74 83.0801 1108.37 82.4062C1108 81.7227 1107.38 81.3809 1106.52 81.3809C1105.61 81.3809 1104.69 81.6787 1103.74 82.2744L1103.14 81.1758C1104.24 80.4922 1105.4 80.1504 1106.61 80.1504C1107.92 80.1504 1108.86 80.5654 1109.44 81.3955C1110.01 82.2158 1110.3 83.5928 1110.3 85.5264V96.3516H1109.16ZM1105.77 95.458C1106.77 95.458 1107.54 94.9697 1108.09 93.9932C1108.65 93.0068 1108.92 91.6152 1108.92 89.8184V88.1631L1107.27 88.251C1105.99 88.3193 1105.04 88.6758 1104.41 89.3203C1103.8 89.9551 1103.49 90.8877 1103.49 92.1182C1103.49 93.2705 1103.69 94.1152 1104.1 94.6523C1104.51 95.1895 1105.07 95.458 1105.77 95.458ZM1115.88 96.3516H1114.49V73.5586H1115.88V96.3516ZM1121.92 96.3516L1118.17 80.458H1119.57L1121.95 90.6826C1122.22 91.8643 1122.48 93.1533 1122.74 94.5498H1122.85C1122.92 94.042 1123.02 93.4756 1123.15 92.8506C1123.27 92.2256 1124.24 88.0947 1126.03 80.458H1127.44L1123.57 96.3516H1121.92ZM1135.88 96.3516L1135.7 94.125H1135.64C1134.88 95.8047 1133.73 96.6445 1132.19 96.6445C1131.15 96.6445 1130.32 96.2344 1129.68 95.4141C1129.06 94.584 1128.74 93.4756 1128.74 92.0889C1128.74 90.5752 1129.2 89.3789 1130.11 88.5C1131.01 87.6113 1132.29 87.1279 1133.93 87.0498L1135.64 86.9619V85.6436C1135.64 84.1592 1135.46 83.0801 1135.09 82.4062C1134.71 81.7227 1134.1 81.3809 1133.24 81.3809C1132.33 81.3809 1131.4 81.6787 1130.46 82.2744L1129.86 81.1758C1130.96 80.4922 1132.12 80.1504 1133.33 80.1504C1134.64 80.1504 1135.58 80.5654 1136.16 81.3955C1136.73 82.2158 1137.02 83.5928 1137.02 85.5264V96.3516H1135.88ZM1132.49 95.458C1133.49 95.458 1134.26 94.9697 1134.81 93.9932C1135.36 93.0068 1135.64 91.6152 1135.64 89.8184V88.1631L1133.99 88.251C1132.71 88.3193 1131.76 88.6758 1131.13 89.3203C1130.52 89.9551 1130.21 90.8877 1130.21 92.1182C1130.21 93.2705 1130.41 94.1152 1130.82 94.6523C1131.23 95.1895 1131.79 95.458 1132.49 95.458ZM1145.09 96.6445C1142 96.6445 1140.46 93.9053 1140.46 88.4268C1140.46 85.7314 1140.85 83.6807 1141.62 82.2744C1142.39 80.8584 1143.53 80.1504 1145.03 80.1504C1145.75 80.1504 1146.42 80.3555 1147.05 80.7656C1147.7 81.1758 1148.21 81.7422 1148.59 82.4648H1148.71L1148.65 80.6924V73.5586H1150.04V96.3516H1148.9L1148.78 94.125H1148.65C1148.27 94.9355 1147.78 95.5605 1147.17 96C1146.57 96.4297 1145.87 96.6445 1145.09 96.6445ZM1145.18 95.4287C1146.29 95.4287 1147.15 94.916 1147.74 93.8906C1148.35 92.8555 1148.65 91.3369 1148.65 89.335V88.4268C1148.65 86.0244 1148.36 84.2666 1147.77 83.1533C1147.2 82.0303 1146.31 81.4688 1145.12 81.4688C1143.98 81.4688 1143.16 82.0693 1142.66 83.2705C1142.16 84.4619 1141.91 86.1904 1141.91 88.4561C1141.91 90.7412 1142.17 92.4746 1142.69 93.6562C1143.21 94.8379 1144.04 95.4287 1145.18 95.4287ZM1163.25 88.3682C1163.25 91.0439 1162.83 93.0947 1161.98 94.5205C1161.14 95.9365 1159.93 96.6445 1158.36 96.6445C1156.81 96.6445 1155.62 95.9365 1154.79 94.5205C1153.97 93.0947 1153.56 91.0439 1153.56 88.3682C1153.56 82.8896 1155.18 80.1504 1158.42 80.1504C1159.94 80.1504 1161.13 80.8682 1161.98 82.3037C1162.83 83.7393 1163.25 85.7607 1163.25 88.3682ZM1155.01 88.3682C1155.01 90.6631 1155.28 92.3965 1155.83 93.5684C1156.38 94.7402 1157.23 95.3262 1158.39 95.3262C1160.67 95.3262 1161.8 93.0068 1161.8 88.3682C1161.8 83.7686 1160.67 81.4688 1158.39 81.4688C1157.2 81.4688 1156.34 82.0449 1155.8 83.1973C1155.27 84.3496 1155.01 86.0732 1155.01 88.3682ZM1171.17 80.1504C1171.66 80.1504 1172.13 80.2188 1172.56 80.3555L1172.22 81.7471C1171.87 81.6006 1171.51 81.5273 1171.14 81.5273C1170.6 81.5273 1170.1 81.8057 1169.63 82.3623C1169.17 82.9092 1168.81 83.6758 1168.54 84.6621C1168.28 85.6484 1168.15 86.7373 1168.15 87.9287V96.3516H1166.76V80.458H1167.9L1168.04 83.2412H1168.15C1168.89 81.1807 1169.9 80.1504 1171.17 80.1504Z" fill="white"/>
<path d="M1242.29 81.0879C1242.29 83.2949 1241.79 84.916 1240.77 85.9512C1239.76 86.9863 1238.27 87.5039 1236.29 87.5039H1234.76V96.3516H1233.33V74.9355H1236.26C1238.35 74.9355 1239.88 75.4287 1240.84 76.415C1241.81 77.4014 1242.29 78.959 1242.29 81.0879ZM1234.76 86.1855H1236.2C1237.88 86.1855 1239.07 85.79 1239.77 84.999C1240.48 84.208 1240.83 82.9043 1240.83 81.0879C1240.83 79.3594 1240.46 78.124 1239.73 77.3818C1239.01 76.6299 1237.88 76.2539 1236.36 76.2539H1234.76V86.1855ZM1249.93 96.6445C1248.25 96.6445 1246.95 95.9316 1246.04 94.5059C1245.15 93.0703 1244.7 91.0732 1244.7 88.5146C1244.7 85.7998 1245.1 83.7295 1245.9 82.3037C1246.71 80.8682 1247.87 80.1504 1249.38 80.1504C1250.7 80.1504 1251.74 80.7803 1252.5 82.04C1253.27 83.29 1253.65 84.9795 1253.65 87.1084V88.3975H1246.12C1246.14 90.7119 1246.46 92.4453 1247.1 93.5977C1247.73 94.75 1248.7 95.3262 1249.98 95.3262C1250.98 95.3262 1252.03 94.999 1253.13 94.3447V95.6924C1252.12 96.3271 1251.05 96.6445 1249.93 96.6445ZM1249.3 81.4102C1247.38 81.4102 1246.33 83.3193 1246.15 87.1377H1252.25C1252.25 85.3896 1251.99 83.998 1251.45 82.9629C1250.92 81.9277 1250.2 81.4102 1249.3 81.4102ZM1261.6 80.1504C1262.1 80.1504 1262.56 80.2188 1262.99 80.3555L1262.66 81.7471C1262.3 81.6006 1261.94 81.5273 1261.57 81.5273C1261.03 81.5273 1260.53 81.8057 1260.06 82.3623C1259.6 82.9092 1259.24 83.6758 1258.98 84.6621C1258.71 85.6484 1258.58 86.7373 1258.58 87.9287V96.3516H1257.19V80.458H1258.33L1258.48 83.2412H1258.58C1259.33 81.1807 1260.33 80.1504 1261.6 80.1504ZM1266.73 80.458V90.8291C1266.73 92.4014 1266.91 93.5488 1267.28 94.2715C1267.67 94.9941 1268.25 95.3555 1269.03 95.3555C1270.23 95.3555 1271.11 94.8721 1271.66 93.9053C1272.23 92.9287 1272.51 91.3564 1272.51 89.1885V80.458H1273.89V96.3516H1272.72L1272.54 94.125H1272.43C1272.08 94.9355 1271.61 95.5605 1271 96C1270.4 96.4297 1269.74 96.6445 1269.03 96.6445C1267.75 96.6445 1266.81 96.1904 1266.21 95.2822C1265.63 94.374 1265.34 92.8896 1265.34 90.8291V80.458H1266.73ZM1268.41 78.1729V77.8652C1269.65 76.2441 1270.58 74.7451 1271.21 73.3682H1273.04V73.6172C1272.66 74.3008 1272.08 75.0869 1271.3 75.9756C1270.53 76.8643 1269.79 77.5967 1269.1 78.1729H1268.41Z" fill="white"/>
<path d="M286.961 61.3516H278.456V34.1201C278.456 31.1579 278.604 27.7513 278.9 23.9004C278.752 24.112 278.202 24.7573 277.25 25.8364C276.319 26.9155 274.488 28.8516 271.759 31.6445L266.935 26.376L279.281 14.9502H286.961V61.3516ZM321.461 35.1675C321.461 53.0467 315.484 61.9863 303.529 61.9863C301.54 61.9863 299.889 61.8171 298.578 61.4785V54.2104C300.016 54.6759 301.36 54.9087 302.608 54.9087C306.142 54.9087 308.819 53.6815 310.638 51.2271C312.479 48.7726 313.495 44.9111 313.685 39.6426H313.399C312.722 41.3141 311.749 42.626 310.479 43.5781C309.231 44.5091 307.739 44.9746 306.004 44.9746C302.852 44.9746 300.408 43.6839 298.673 41.1025C296.938 38.5212 296.07 34.9771 296.07 30.4702C296.07 25.519 297.202 21.5941 299.466 18.6953C301.751 15.7965 304.798 14.3472 308.607 14.3472C312.754 14.3472 315.928 16.1351 318.128 19.7109C320.35 23.2868 321.461 28.439 321.461 35.1675ZM308.67 21.7104C307.401 21.7104 306.385 22.3981 305.624 23.7734C304.883 25.1488 304.513 27.3175 304.513 30.2798C304.513 32.7131 304.841 34.6174 305.497 35.9927C306.153 37.3468 307.147 38.0239 308.48 38.0239C309.686 38.0239 310.733 37.3363 311.622 35.9609C312.511 34.5645 312.955 32.9775 312.955 31.2002C312.955 28.4495 312.564 26.1855 311.781 24.4082C310.998 22.6097 309.961 21.7104 308.67 21.7104ZM353.136 51.6079H348.438V61.3516H340.313V51.6079H325.174V44.5938L339.203 14.9502H348.438V44.4668H353.136V51.6079ZM340.313 44.4668V34.6914L340.472 30.375L340.694 26.249H340.44C339.7 28.5553 338.896 30.6395 338.028 32.5015L332.442 44.4668H340.313ZM381.637 35.1675C381.637 53.0467 375.659 61.9863 363.705 61.9863C361.716 61.9863 360.065 61.8171 358.753 61.4785V54.2104C360.192 54.6759 361.536 54.9087 362.784 54.9087C366.318 54.9087 368.994 53.6815 370.814 51.2271C372.655 48.7726 373.67 44.9111 373.861 39.6426H373.575C372.898 41.3141 371.925 42.626 370.655 43.5781C369.407 44.5091 367.915 44.9746 366.18 44.9746C363.028 44.9746 360.584 43.6839 358.849 41.1025C357.114 38.5212 356.246 34.9771 356.246 30.4702C356.246 25.519 357.378 21.5941 359.642 18.6953C361.927 15.7965 364.974 14.3472 368.783 14.3472C372.93 14.3472 376.104 16.1351 378.304 19.7109C380.526 23.2868 381.637 28.439 381.637 35.1675ZM368.846 21.7104C367.577 21.7104 366.561 22.3981 365.799 23.7734C365.059 25.1488 364.688 27.3175 364.688 30.2798C364.688 32.7131 365.016 34.6174 365.672 35.9927C366.328 37.3468 367.323 38.0239 368.656 38.0239C369.862 38.0239 370.909 37.3363 371.798 35.9609C372.687 34.5645 373.131 32.9775 373.131 31.2002C373.131 28.4495 372.739 26.1855 371.957 24.4082C371.174 22.6097 370.137 21.7104 368.846 21.7104Z" fill="white"/>
<path d="M421.916 74.9355H423.396L418.327 96.3516H416.73L411.691 74.9355H413.186L416.672 89.9941C416.945 91.1465 417.126 91.9961 417.214 92.543C417.302 93.0801 417.39 93.7588 417.478 94.5791C417.556 94.0127 417.639 93.4561 417.727 92.9092C417.814 92.3623 417.897 91.9033 417.976 91.5322C418.063 91.1514 419.377 85.6191 421.916 74.9355ZM430.046 96.6445C428.366 96.6445 427.072 95.9316 426.164 94.5059C425.266 93.0703 424.816 91.0732 424.816 88.5146C424.816 85.7998 425.217 83.7295 426.018 82.3037C426.828 80.8682 427.99 80.1504 429.504 80.1504C430.822 80.1504 431.862 80.7803 432.624 82.04C433.386 83.29 433.767 84.9795 433.767 87.1084V88.3975H426.237C426.257 90.7119 426.584 92.4453 427.219 93.5977C427.854 94.75 428.815 95.3262 430.104 95.3262C431.101 95.3262 432.15 94.999 433.254 94.3447V95.6924C432.238 96.3271 431.169 96.6445 430.046 96.6445ZM429.416 81.4102C427.502 81.4102 426.452 83.3193 426.267 87.1377H432.375C432.375 85.3896 432.106 83.998 431.569 82.9629C431.042 81.9277 430.324 81.4102 429.416 81.4102ZM444.489 96.3516V85.3945C444.489 82.7578 443.708 81.4395 442.146 81.4395C440.954 81.4395 440.08 81.9326 439.523 82.9189C438.977 83.9053 438.703 85.4727 438.703 87.6211V96.3516H437.312V80.458H438.483L438.601 82.6699H438.732C439.064 81.8691 439.543 81.249 440.168 80.8096C440.793 80.3701 441.462 80.1504 442.175 80.1504C443.405 80.1504 444.328 80.5654 444.943 81.3955C445.559 82.2158 445.866 83.5391 445.866 85.3652V96.3516H444.489ZM454.567 96.6445C452.888 96.6445 451.594 95.9316 450.686 94.5059C449.787 93.0703 449.338 91.0732 449.338 88.5146C449.338 85.7998 449.738 83.7295 450.539 82.3037C451.35 80.8682 452.512 80.1504 454.025 80.1504C455.344 80.1504 456.384 80.7803 457.146 82.04C457.907 83.29 458.288 84.9795 458.288 87.1084V88.3975H450.759C450.778 90.7119 451.105 92.4453 451.74 93.5977C452.375 94.75 453.337 95.3262 454.626 95.3262C455.622 95.3262 456.672 94.999 457.775 94.3447V95.6924C456.76 96.3271 455.69 96.6445 454.567 96.6445ZM453.938 81.4102C452.023 81.4102 450.974 83.3193 450.788 87.1377H456.896C456.896 85.3896 456.628 83.998 456.091 82.9629C455.563 81.9277 454.846 81.4102 453.938 81.4102ZM466.945 96.3516H460.573V95.2383L465.261 81.6885H460.881V80.458H466.726V81.5859L462.053 95.1211H466.945V96.3516ZM471.105 80.458V90.8291C471.105 92.4014 471.291 93.5488 471.662 94.2715C472.043 94.9941 472.624 95.3555 473.405 95.3555C474.606 95.3555 475.485 94.8721 476.042 93.9053C476.608 92.9287 476.892 91.3564 476.892 89.1885V80.458H478.269V96.3516H477.097L476.921 94.125H476.804C476.462 94.9355 475.988 95.5605 475.383 96C474.777 96.4297 474.118 96.6445 473.405 96.6445C472.126 96.6445 471.188 96.1904 470.593 95.2822C470.007 94.374 469.714 92.8896 469.714 90.8291V80.458H471.105ZM487.028 96.6445C485.349 96.6445 484.055 95.9316 483.146 94.5059C482.248 93.0703 481.799 91.0732 481.799 88.5146C481.799 85.7998 482.199 83.7295 483 82.3037C483.811 80.8682 484.973 80.1504 486.486 80.1504C487.805 80.1504 488.845 80.7803 489.606 82.04C490.368 83.29 490.749 84.9795 490.749 87.1084V88.3975H483.22C483.239 90.7119 483.566 92.4453 484.201 93.5977C484.836 94.75 485.798 95.3262 487.087 95.3262C488.083 95.3262 489.133 94.999 490.236 94.3447V95.6924C489.221 96.3271 488.151 96.6445 487.028 96.6445ZM486.398 81.4102C484.484 81.4102 483.435 83.3193 483.249 87.1377H489.357C489.357 85.3896 489.089 83.998 488.552 82.9629C488.024 81.9277 487.307 81.4102 486.398 81.4102ZM495.686 96.3516H494.294V73.5586H495.686V96.3516ZM506.101 96.3516L505.925 94.125H505.866C505.104 95.8047 503.952 96.6445 502.409 96.6445C501.374 96.6445 500.539 96.2344 499.904 95.4141C499.279 94.584 498.967 93.4756 498.967 92.0889C498.967 90.5752 499.421 89.3789 500.329 88.5C501.237 87.6113 502.512 87.1279 504.152 87.0498L505.866 86.9619V85.6436C505.866 84.1592 505.681 83.0801 505.31 82.4062C504.938 81.7227 504.323 81.3809 503.464 81.3809C502.556 81.3809 501.628 81.6787 500.681 82.2744L500.08 81.1758C501.184 80.4922 502.341 80.1504 503.552 80.1504C504.86 80.1504 505.803 80.5654 506.379 81.3955C506.955 82.2158 507.243 83.5928 507.243 85.5264V96.3516H506.101ZM502.717 95.458C503.713 95.458 504.484 94.9697 505.031 93.9932C505.588 93.0068 505.866 91.6152 505.866 89.8184V88.1631L504.211 88.251C502.932 88.3193 501.979 88.6758 501.354 89.3203C500.739 89.9551 500.432 90.8877 500.432 92.1182C500.432 93.2705 500.637 94.1152 501.047 94.6523C501.457 95.1895 502.014 95.458 502.717 95.458ZM431.188 129.352H423.425V107.936H431.188V109.312H424.86V117.442H430.837V118.819H424.86V127.975H431.188V129.352ZM438.835 129.645C437.243 129.645 436.042 128.956 435.231 127.579C434.431 126.192 434.03 124.161 434.03 121.485C434.03 118.771 434.436 116.705 435.246 115.289C436.066 113.863 437.272 113.15 438.864 113.15C439.851 113.15 440.671 113.331 441.325 113.692L440.783 114.923C440.129 114.62 439.528 114.469 438.981 114.469C436.647 114.469 435.48 116.798 435.48 121.456C435.48 126.075 436.647 128.385 438.981 128.385C439.675 128.385 440.427 128.229 441.237 127.916V129.088C440.915 129.264 440.52 129.4 440.051 129.498C439.582 129.596 439.177 129.645 438.835 129.645ZM445.397 113.458V123.829C445.397 125.401 445.583 126.549 445.954 127.271C446.335 127.994 446.916 128.355 447.697 128.355C448.898 128.355 449.777 127.872 450.334 126.905C450.9 125.929 451.184 124.356 451.184 122.188V113.458H452.561V129.352H451.389L451.213 127.125H451.096C450.754 127.936 450.28 128.561 449.675 129C449.069 129.43 448.41 129.645 447.697 129.645C446.418 129.645 445.48 129.19 444.885 128.282C444.299 127.374 444.006 125.89 444.006 123.829V113.458H445.397ZM462.961 129.352L462.785 127.125H462.727C461.965 128.805 460.812 129.645 459.27 129.645C458.234 129.645 457.399 129.234 456.765 128.414C456.14 127.584 455.827 126.476 455.827 125.089C455.827 123.575 456.281 122.379 457.189 121.5C458.098 120.611 459.372 120.128 461.013 120.05L462.727 119.962V118.644C462.727 117.159 462.541 116.08 462.17 115.406C461.799 114.723 461.184 114.381 460.324 114.381C459.416 114.381 458.488 114.679 457.541 115.274L456.94 114.176C458.044 113.492 459.201 113.15 460.412 113.15C461.721 113.15 462.663 113.565 463.239 114.396C463.815 115.216 464.104 116.593 464.104 118.526V129.352H462.961ZM459.577 128.458C460.573 128.458 461.345 127.97 461.892 126.993C462.448 126.007 462.727 124.615 462.727 122.818V121.163L461.071 121.251C459.792 121.319 458.84 121.676 458.215 122.32C457.6 122.955 457.292 123.888 457.292 125.118C457.292 126.271 457.497 127.115 457.907 127.652C458.317 128.189 458.874 128.458 459.577 128.458ZM472.175 129.645C469.089 129.645 467.546 126.905 467.546 121.427C467.546 118.731 467.932 116.681 468.703 115.274C469.475 113.858 470.612 113.15 472.116 113.15C472.829 113.15 473.503 113.355 474.138 113.766C474.782 114.176 475.295 114.742 475.676 115.465H475.793L475.734 113.692V106.559H477.126V129.352H475.983L475.866 127.125H475.734C475.354 127.936 474.86 128.561 474.255 129C473.649 129.43 472.956 129.645 472.175 129.645ZM472.263 128.429C473.376 128.429 474.23 127.916 474.826 126.891C475.432 125.855 475.734 124.337 475.734 122.335V121.427C475.734 119.024 475.441 117.267 474.855 116.153C474.279 115.03 473.396 114.469 472.204 114.469C471.062 114.469 470.241 115.069 469.743 116.271C469.245 117.462 468.996 119.19 468.996 121.456C468.996 123.741 469.255 125.475 469.772 126.656C470.29 127.838 471.12 128.429 472.263 128.429ZM490.339 121.368C490.339 124.044 489.914 126.095 489.064 127.521C488.225 128.937 487.019 129.645 485.446 129.645C483.894 129.645 482.702 128.937 481.872 127.521C481.052 126.095 480.642 124.044 480.642 121.368C480.642 115.89 482.263 113.15 485.505 113.15C487.028 113.15 488.215 113.868 489.064 115.304C489.914 116.739 490.339 118.761 490.339 121.368ZM482.092 121.368C482.092 123.663 482.365 125.396 482.912 126.568C483.459 127.74 484.313 128.326 485.476 128.326C487.751 128.326 488.889 126.007 488.889 121.368C488.889 116.769 487.751 114.469 485.476 114.469C484.284 114.469 483.42 115.045 482.883 116.197C482.355 117.35 482.092 119.073 482.092 121.368ZM498.249 113.15C498.747 113.15 499.211 113.219 499.641 113.355L499.304 114.747C498.952 114.601 498.591 114.527 498.22 114.527C497.683 114.527 497.18 114.806 496.711 115.362C496.252 115.909 495.891 116.676 495.627 117.662C495.363 118.648 495.231 119.737 495.231 120.929V129.352H493.84V113.458H494.982L495.129 116.241H495.231C495.974 114.181 496.979 113.15 498.249 113.15Z" fill="white"/>
<path d="M559.961 61.3516H551.456V34.1201C551.456 31.1579 551.604 27.7513 551.9 23.9004C551.752 24.112 551.202 24.7573 550.25 25.8364C549.319 26.9155 547.488 28.8516 544.759 31.6445L539.935 26.376L552.281 14.9502H559.961V61.3516ZM594.461 35.1675C594.461 53.0467 588.484 61.9863 576.529 61.9863C574.54 61.9863 572.889 61.8171 571.578 61.4785V54.2104C573.016 54.6759 574.36 54.9087 575.608 54.9087C579.142 54.9087 581.819 53.6815 583.638 51.2271C585.479 48.7726 586.495 44.9111 586.685 39.6426H586.399C585.722 41.3141 584.749 42.626 583.479 43.5781C582.231 44.5091 580.739 44.9746 579.004 44.9746C575.852 44.9746 573.408 43.6839 571.673 41.1025C569.938 38.5212 569.07 34.9771 569.07 30.4702C569.07 25.519 570.202 21.5941 572.466 18.6953C574.751 15.7965 577.798 14.3472 581.607 14.3472C585.754 14.3472 588.928 16.1351 591.128 19.7109C593.35 23.2868 594.461 28.439 594.461 35.1675ZM581.67 21.7104C580.401 21.7104 579.385 22.3981 578.624 23.7734C577.883 25.1488 577.513 27.3175 577.513 30.2798C577.513 32.7131 577.841 34.6174 578.497 35.9927C579.153 37.3468 580.147 38.0239 581.48 38.0239C582.686 38.0239 583.733 37.3363 584.622 35.9609C585.511 34.5645 585.955 32.9775 585.955 31.2002C585.955 28.4495 585.564 26.1855 584.781 24.4082C583.998 22.6097 582.961 21.7104 581.67 21.7104ZM612.869 32.311C616.36 32.311 619.132 33.5277 621.185 35.9609C623.258 38.3942 624.295 41.7267 624.295 45.9585C624.295 51.0155 623.004 54.951 620.423 57.7651C617.863 60.5793 614.297 61.9863 609.727 61.9863C605.665 61.9863 602.374 61.214 599.856 59.6694V51.6079C600.936 52.3908 602.321 53.089 604.014 53.7026C605.728 54.2951 607.315 54.5913 608.775 54.5913C613.324 54.5913 615.599 51.9465 615.599 46.6567C615.599 41.7267 613.388 39.2617 608.965 39.2617C607.209 39.2617 605.347 39.6003 603.379 40.2773L600.586 38.2144L602.015 14.9502H621.819V22.6626H609.41L608.775 32.6919C609.96 32.438 611.325 32.311 612.869 32.311ZM642.957 32.311C646.448 32.311 649.22 33.5277 651.272 35.9609C653.346 38.3942 654.383 41.7267 654.383 45.9585C654.383 51.0155 653.092 54.951 650.511 57.7651C647.951 60.5793 644.385 61.9863 639.815 61.9863C635.752 61.9863 632.462 61.214 629.944 59.6694V51.6079C631.023 52.3908 632.409 53.089 634.102 53.7026C635.816 54.2951 637.403 54.5913 638.863 54.5913C643.412 54.5913 645.687 51.9465 645.687 46.6567C645.687 41.7267 643.475 39.2617 639.053 39.2617C637.297 39.2617 635.435 39.6003 633.467 40.2773L630.674 38.2144L632.103 14.9502H651.907V22.6626H639.498L638.863 32.6919C640.048 32.438 641.412 32.311 642.957 32.311Z" fill="white"/>
<path d="M690.961 61.3516H682.456V34.1201C682.456 31.1579 682.604 27.7513 682.9 23.9004C682.752 24.112 682.202 24.7573 681.25 25.8364C680.319 26.9155 678.488 28.8516 675.759 31.6445L670.935 26.376L683.281 14.9502H690.961V61.3516ZM725.461 35.1675C725.461 53.0467 719.484 61.9863 707.529 61.9863C705.54 61.9863 703.889 61.8171 702.578 61.4785V54.2104C704.016 54.6759 705.36 54.9087 706.608 54.9087C710.142 54.9087 712.819 53.6815 714.638 51.2271C716.479 48.7726 717.495 44.9111 717.685 39.6426H717.399C716.722 41.3141 715.749 42.626 714.479 43.5781C713.231 44.5091 711.739 44.9746 710.004 44.9746C706.852 44.9746 704.408 43.6839 702.673 41.1025C700.938 38.5212 700.07 34.9771 700.07 30.4702C700.07 25.519 701.202 21.5941 703.466 18.6953C705.751 15.7965 708.798 14.3472 712.607 14.3472C716.754 14.3472 719.928 16.1351 722.128 19.7109C724.35 23.2868 725.461 28.439 725.461 35.1675ZM712.67 21.7104C711.401 21.7104 710.385 22.3981 709.624 23.7734C708.883 25.1488 708.513 27.3175 708.513 30.2798C708.513 32.7131 708.841 34.6174 709.497 35.9927C710.153 37.3468 711.147 38.0239 712.48 38.0239C713.686 38.0239 714.733 37.3363 715.622 35.9609C716.511 34.5645 716.955 32.9775 716.955 31.2002C716.955 28.4495 716.564 26.1855 715.781 24.4082C714.998 22.6097 713.961 21.7104 712.67 21.7104ZM743.869 32.311C747.36 32.311 750.132 33.5277 752.185 35.9609C754.258 38.3942 755.295 41.7267 755.295 45.9585C755.295 51.0155 754.004 54.951 751.423 57.7651C748.863 60.5793 745.297 61.9863 740.727 61.9863C736.665 61.9863 733.374 61.214 730.856 59.6694V51.6079C731.936 52.3908 733.321 53.089 735.014 53.7026C736.728 54.2951 738.315 54.5913 739.775 54.5913C744.324 54.5913 746.599 51.9465 746.599 46.6567C746.599 41.7267 744.388 39.2617 739.965 39.2617C738.209 39.2617 736.347 39.6003 734.379 40.2773L731.586 38.2144L733.015 14.9502H752.819V22.6626H740.41L739.775 32.6919C740.96 32.438 742.325 32.311 743.869 32.311ZM760.437 41.6421C760.437 32.1841 761.907 25.2757 764.848 20.917C767.789 16.5371 772.275 14.3472 778.305 14.3472C779.257 14.3472 780.209 14.4106 781.162 14.5376C782.114 14.6434 782.833 14.7598 783.32 14.8867V22.0278C781.86 21.6893 780.421 21.52 779.003 21.52C776.591 21.52 774.613 22.049 773.068 23.1069C771.524 24.1649 770.349 25.7518 769.545 27.8677C768.741 29.9624 768.255 32.9141 768.085 36.7227H768.435C769.175 34.9665 770.191 33.644 771.481 32.7554C772.772 31.8455 774.264 31.3906 775.957 31.3906C779.067 31.3906 781.49 32.6602 783.225 35.1992C784.96 37.7171 785.827 41.3247 785.827 46.022C785.827 50.9308 784.685 54.8241 782.399 57.7017C780.114 60.5581 777.014 61.9863 773.1 61.9863C768.953 61.9863 765.8 60.2725 763.642 56.8447C761.505 53.417 760.437 48.3494 760.437 41.6421ZM773.164 54.7183C774.433 54.7183 775.449 54.02 776.21 52.6235C776.993 51.2271 777.385 49.0477 777.385 46.0854C777.385 43.6945 777.036 41.8114 776.337 40.436C775.66 39.0396 774.624 38.3413 773.227 38.3413C771.979 38.3413 770.963 38.9867 770.18 40.2773C769.397 41.568 769.006 43.1973 769.006 45.165C769.006 48.2542 769.366 50.624 770.085 52.2744C770.826 53.9036 771.852 54.7183 773.164 54.7183Z" fill="white"/>
<path d="M821.461 61.3516H812.956V34.1201C812.956 31.1579 813.104 27.7513 813.4 23.9004C813.252 24.112 812.702 24.7573 811.75 25.8364C810.819 26.9155 808.988 28.8516 806.259 31.6445L801.435 26.376L813.781 14.9502H821.461V61.3516ZM855.961 35.1675C855.961 53.0467 849.984 61.9863 838.029 61.9863C836.04 61.9863 834.389 61.8171 833.078 61.4785V54.2104C834.516 54.6759 835.86 54.9087 837.108 54.9087C840.642 54.9087 843.319 53.6815 845.138 51.2271C846.979 48.7726 847.995 44.9111 848.185 39.6426H847.899C847.222 41.3141 846.249 42.626 844.979 43.5781C843.731 44.5091 842.239 44.9746 840.504 44.9746C837.352 44.9746 834.908 43.6839 833.173 41.1025C831.438 38.5212 830.57 34.9771 830.57 30.4702C830.57 25.519 831.702 21.5941 833.966 18.6953C836.251 15.7965 839.298 14.3472 843.107 14.3472C847.254 14.3472 850.428 16.1351 852.628 19.7109C854.85 23.2868 855.961 28.439 855.961 35.1675ZM843.17 21.7104C841.901 21.7104 840.885 22.3981 840.124 23.7734C839.383 25.1488 839.013 27.3175 839.013 30.2798C839.013 32.7131 839.341 34.6174 839.997 35.9927C840.653 37.3468 841.647 38.0239 842.98 38.0239C844.186 38.0239 845.233 37.3363 846.122 35.9609C847.011 34.5645 847.455 32.9775 847.455 31.2002C847.455 28.4495 847.064 26.1855 846.281 24.4082C845.498 22.6097 844.461 21.7104 843.17 21.7104ZM860.849 41.6421C860.849 32.1841 862.319 25.2757 865.26 20.917C868.201 16.5371 872.687 14.3472 878.717 14.3472C879.669 14.3472 880.622 14.4106 881.574 14.5376C882.526 14.6434 883.245 14.7598 883.732 14.8867V22.0278C882.272 21.6893 880.833 21.52 879.416 21.52C877.003 21.52 875.025 22.049 873.48 23.1069C871.936 24.1649 870.762 25.7518 869.958 27.8677C869.153 29.9624 868.667 32.9141 868.498 36.7227H868.847C869.587 34.9665 870.603 33.644 871.894 32.7554C873.184 31.8455 874.676 31.3906 876.369 31.3906C879.479 31.3906 881.902 32.6602 883.637 35.1992C885.372 37.7171 886.239 41.3247 886.239 46.022C886.239 50.9308 885.097 54.8241 882.812 57.7017C880.526 60.5581 877.427 61.9863 873.512 61.9863C869.365 61.9863 866.212 60.2725 864.054 56.8447C861.917 53.417 860.849 48.3494 860.849 41.6421ZM873.576 54.7183C874.845 54.7183 875.861 54.02 876.623 52.6235C877.405 51.2271 877.797 49.0477 877.797 46.0854C877.797 43.6945 877.448 41.8114 876.75 40.436C876.072 39.0396 875.036 38.3413 873.639 38.3413C872.391 38.3413 871.375 38.9867 870.592 40.2773C869.809 41.568 869.418 43.1973 869.418 45.165C869.418 48.2542 869.778 50.624 870.497 52.2744C871.238 53.9036 872.264 54.7183 873.576 54.7183ZM911.725 61.3516H903.219V34.1201C903.219 31.1579 903.367 27.7513 903.664 23.9004C903.515 24.112 902.965 24.7573 902.013 25.8364C901.082 26.9155 899.252 28.8516 896.522 31.6445L891.698 26.376L904.044 14.9502H911.725V61.3516Z" fill="white"/>
<path d="M952.461 61.3516H943.956V34.1201C943.956 31.1579 944.104 27.7513 944.4 23.9004C944.252 24.112 943.702 24.7573 942.75 25.8364C941.819 26.9155 939.988 28.8516 937.259 31.6445L932.435 26.376L944.781 14.9502H952.461V61.3516ZM986.961 35.1675C986.961 53.0467 980.984 61.9863 969.029 61.9863C967.04 61.9863 965.389 61.8171 964.078 61.4785V54.2104C965.516 54.6759 966.86 54.9087 968.108 54.9087C971.642 54.9087 974.319 53.6815 976.138 51.2271C977.979 48.7726 978.995 44.9111 979.185 39.6426H978.899C978.222 41.3141 977.249 42.626 975.979 43.5781C974.731 44.5091 973.239 44.9746 971.504 44.9746C968.352 44.9746 965.908 43.6839 964.173 41.1025C962.438 38.5212 961.57 34.9771 961.57 30.4702C961.57 25.519 962.702 21.5941 964.966 18.6953C967.251 15.7965 970.298 14.3472 974.107 14.3472C978.254 14.3472 981.428 16.1351 983.628 19.7109C985.85 23.2868 986.961 28.439 986.961 35.1675ZM974.17 21.7104C972.901 21.7104 971.885 22.3981 971.124 23.7734C970.383 25.1488 970.013 27.3175 970.013 30.2798C970.013 32.7131 970.341 34.6174 970.997 35.9927C971.653 37.3468 972.647 38.0239 973.98 38.0239C975.186 38.0239 976.233 37.3363 977.122 35.9609C978.011 34.5645 978.455 32.9775 978.455 31.2002C978.455 28.4495 978.064 26.1855 977.281 24.4082C976.498 22.6097 975.461 21.7104 974.17 21.7104ZM995.213 61.3516L1008.23 22.6626H992.039V15.0137H1016.92V20.8535L1004.13 61.3516H995.213ZM1042.73 61.3516H1034.22V34.1201C1034.22 31.1579 1034.37 27.7513 1034.66 23.9004C1034.52 24.112 1033.97 24.7573 1033.01 25.8364C1032.08 26.9155 1030.25 28.8516 1027.52 31.6445L1022.7 26.376L1035.04 14.9502H1042.73V61.3516Z" fill="white"/>
<path d="M156.948 96.3516L155.059 88.5879H149.858L147.998 96.3516H146.504L151.66 74.9355H153.14L158.413 96.3516H156.948ZM154.722 87.1377L152.832 79.1543C152.637 78.2559 152.485 77.4062 152.378 76.6055C152.29 77.4551 152.153 78.3047 151.968 79.1543L150.137 87.1377H154.722ZM164.961 80.1504C165.459 80.1504 165.923 80.2188 166.353 80.3555L166.016 81.7471C165.664 81.6006 165.303 81.5273 164.932 81.5273C164.395 81.5273 163.892 81.8057 163.423 82.3623C162.964 82.9092 162.603 83.6758 162.339 84.6621C162.075 85.6484 161.943 86.7373 161.943 87.9287V96.3516H160.552V80.458H161.694L161.841 83.2412H161.943C162.686 81.1807 163.691 80.1504 164.961 80.1504ZM177.075 80.458V81.4395L174.907 81.6885C175.2 82.0693 175.439 82.6162 175.625 83.3291C175.811 84.0322 175.903 84.7549 175.903 85.4971C175.903 87.04 175.552 88.29 174.849 89.2471C174.155 90.2041 173.237 90.6826 172.095 90.6826H171.743L171.436 90.6533C170.967 90.9854 170.596 91.3174 170.322 91.6494C170.059 91.9814 169.927 92.3672 169.927 92.8066C169.927 93.2559 170.103 93.6074 170.454 93.8613C170.806 94.1055 171.279 94.2275 171.875 94.2275H172.871C174.287 94.2275 175.386 94.5938 176.167 95.3262C176.948 96.0586 177.339 97.1182 177.339 98.5049C177.339 100.058 176.812 101.288 175.757 102.196C174.712 103.104 173.33 103.559 171.611 103.559C170.176 103.559 169.072 103.192 168.301 102.46C167.529 101.737 167.144 100.692 167.144 99.3252C167.144 98.3291 167.397 97.4746 167.905 96.7617C168.413 96.0586 169.209 95.502 170.293 95.0918C169.805 94.877 169.409 94.5791 169.106 94.1982C168.813 93.8174 168.667 93.3633 168.667 92.8359C168.667 92.3574 168.823 91.9326 169.136 91.5615C169.458 91.1807 169.912 90.7754 170.498 90.3457C169.688 89.9746 169.072 89.374 168.652 88.5439C168.242 87.7139 168.037 86.7373 168.037 85.6143C168.037 83.9248 168.394 82.5918 169.106 81.6152C169.819 80.6387 170.796 80.1504 172.036 80.1504C172.7 80.1504 173.257 80.2529 173.706 80.458H177.075ZM168.521 99.208C168.521 100.214 168.779 101 169.297 101.566C169.824 102.133 170.615 102.416 171.67 102.416C172.979 102.416 174.014 102.074 174.775 101.391C175.547 100.707 175.933 99.7695 175.933 98.5781C175.933 97.6211 175.669 96.8789 175.142 96.3516C174.624 95.834 173.867 95.5752 172.871 95.5752H171.846C170.889 95.5752 170.093 95.9072 169.458 96.5713C168.833 97.2451 168.521 98.124 168.521 99.208ZM169.385 85.6436C169.385 86.9424 169.624 87.9287 170.103 88.6025C170.581 89.2666 171.216 89.5986 172.007 89.5986C173.706 89.5986 174.556 88.2314 174.556 85.4971C174.556 84.1787 174.336 83.1484 173.896 82.4062C173.467 81.6641 172.837 81.293 172.007 81.293C171.157 81.293 170.508 81.6738 170.059 82.4355C169.609 83.1973 169.385 84.2666 169.385 85.6436ZM184.136 96.6445C182.456 96.6445 181.162 95.9316 180.254 94.5059C179.355 93.0703 178.906 91.0732 178.906 88.5146C178.906 85.7998 179.307 83.7295 180.107 82.3037C180.918 80.8682 182.08 80.1504 183.594 80.1504C184.912 80.1504 185.952 80.7803 186.714 82.04C187.476 83.29 187.856 84.9795 187.856 87.1084V88.3975H180.327C180.347 90.7119 180.674 92.4453 181.309 93.5977C181.943 94.75 182.905 95.3262 184.194 95.3262C185.19 95.3262 186.24 94.999 187.344 94.3447V95.6924C186.328 96.3271 185.259 96.6445 184.136 96.6445ZM183.506 81.4102C181.592 81.4102 180.542 83.3193 180.356 87.1377H186.465C186.465 85.3896 186.196 83.998 185.659 82.9629C185.132 81.9277 184.414 81.4102 183.506 81.4102ZM198.579 96.3516V85.3945C198.579 82.7578 197.798 81.4395 196.235 81.4395C195.044 81.4395 194.17 81.9326 193.613 82.9189C193.066 83.9053 192.793 85.4727 192.793 87.6211V96.3516H191.401V80.458H192.573L192.69 82.6699H192.822C193.154 81.8691 193.633 81.249 194.258 80.8096C194.883 80.3701 195.552 80.1504 196.265 80.1504C197.495 80.1504 198.418 80.5654 199.033 81.3955C199.648 82.2158 199.956 83.5391 199.956 85.3652V96.3516H198.579ZM207.061 95.3555C207.49 95.3555 207.871 95.2969 208.203 95.1797V96.3516C207.773 96.5469 207.222 96.6445 206.548 96.6445C204.907 96.6445 204.087 95.4189 204.087 92.9678V81.6885H202.651V80.8682L204.058 80.458L204.512 76.6787H205.479V80.458H207.998V81.6885H205.479V92.5723C205.479 93.6465 205.596 94.3789 205.83 94.7695C206.064 95.1602 206.475 95.3555 207.061 95.3555ZM212.129 96.3516H210.737V80.458H212.129V96.3516ZM210.532 76.0488C210.532 75.6094 210.62 75.2676 210.796 75.0234C210.981 74.7793 211.216 74.6572 211.499 74.6572C211.763 74.6572 211.973 74.7793 212.129 75.0234C212.285 75.2676 212.363 75.6094 212.363 76.0488C212.363 76.4688 212.285 76.8057 212.129 77.0596C211.973 77.3037 211.763 77.4258 211.499 77.4258C211.216 77.4258 210.981 77.3037 210.796 77.0596C210.62 76.8057 210.532 76.4688 210.532 76.0488ZM223.569 96.3516V85.3945C223.569 82.7578 222.788 81.4395 221.226 81.4395C220.034 81.4395 219.16 81.9326 218.604 82.9189C218.057 83.9053 217.783 85.4727 217.783 87.6211V96.3516H216.392V80.458H217.563L217.681 82.6699H217.812C218.145 81.8691 218.623 81.249 219.248 80.8096C219.873 80.3701 220.542 80.1504 221.255 80.1504C222.485 80.1504 223.408 80.5654 224.023 81.3955C224.639 82.2158 224.946 83.5391 224.946 85.3652V96.3516H223.569ZM235.288 96.3516L235.112 94.125H235.054C234.292 95.8047 233.14 96.6445 231.597 96.6445C230.562 96.6445 229.727 96.2344 229.092 95.4141C228.467 94.584 228.154 93.4756 228.154 92.0889C228.154 90.5752 228.608 89.3789 229.517 88.5C230.425 87.6113 231.699 87.1279 233.34 87.0498L235.054 86.9619V85.6436C235.054 84.1592 234.868 83.0801 234.497 82.4062C234.126 81.7227 233.511 81.3809 232.651 81.3809C231.743 81.3809 230.815 81.6787 229.868 82.2744L229.268 81.1758C230.371 80.4922 231.528 80.1504 232.739 80.1504C234.048 80.1504 234.99 80.5654 235.566 81.3955C236.143 82.2158 236.431 83.5928 236.431 85.5264V96.3516H235.288ZM231.904 95.458C232.9 95.458 233.672 94.9697 234.219 93.9932C234.775 93.0068 235.054 91.6152 235.054 89.8184V88.1631L233.398 88.251C232.119 88.3193 231.167 88.6758 230.542 89.3203C229.927 89.9551 229.619 90.8877 229.619 92.1182C229.619 93.2705 229.824 94.1152 230.234 94.6523C230.645 95.1895 231.201 95.458 231.904 95.458Z" fill="white"/>
<path d="M154.961 61.3516H146.456V34.1201C146.456 31.1579 146.604 27.7513 146.9 23.9004C146.752 24.112 146.202 24.7573 145.25 25.8364C144.319 26.9155 142.488 28.8516 139.759 31.6445L134.935 26.376L147.281 14.9502H154.961V61.3516ZM189.461 35.1675C189.461 53.0467 183.484 61.9863 171.529 61.9863C169.54 61.9863 167.889 61.8171 166.578 61.4785V54.2104C168.016 54.6759 169.36 54.9087 170.608 54.9087C174.142 54.9087 176.819 53.6815 178.638 51.2271C180.479 48.7726 181.495 44.9111 181.685 39.6426H181.399C180.722 41.3141 179.749 42.626 178.479 43.5781C177.231 44.5091 175.739 44.9746 174.004 44.9746C170.852 44.9746 168.408 43.6839 166.673 41.1025C164.938 38.5212 164.07 34.9771 164.07 30.4702C164.07 25.519 165.202 21.5941 167.466 18.6953C169.751 15.7965 172.798 14.3472 176.607 14.3472C180.754 14.3472 183.928 16.1351 186.128 19.7109C188.35 23.2868 189.461 28.439 189.461 35.1675ZM176.67 21.7104C175.401 21.7104 174.385 22.3981 173.624 23.7734C172.883 25.1488 172.513 27.3175 172.513 30.2798C172.513 32.7131 172.841 34.6174 173.497 35.9927C174.153 37.3468 175.147 38.0239 176.48 38.0239C177.686 38.0239 178.733 37.3363 179.622 35.9609C180.511 34.5645 180.955 32.9775 180.955 31.2002C180.955 28.4495 180.564 26.1855 179.781 24.4082C178.998 22.6097 177.961 21.7104 176.67 21.7104ZM221.136 51.6079H216.438V61.3516H208.313V51.6079H193.174V44.5938L207.203 14.9502H216.438V44.4668H221.136V51.6079ZM208.313 44.4668V34.6914L208.472 30.375L208.694 26.249H208.44C207.7 28.5553 206.896 30.6395 206.028 32.5015L200.442 44.4668H208.313ZM249.319 61.3516H224.437V54.9087L232.688 43.229C234.952 40.0129 236.508 37.6325 237.354 36.0879C238.2 34.5221 238.825 33.0304 239.227 31.6128C239.629 30.174 239.83 28.6929 239.83 27.1694C239.83 25.3921 239.428 24.0591 238.624 23.1704C237.841 22.2817 236.814 21.8374 235.545 21.8374C234.424 21.8374 233.376 22.1336 232.403 22.7261C231.43 23.3185 230.245 24.387 228.848 25.9316L224.024 20.8535C226.246 18.3356 228.309 16.6112 230.213 15.6802C232.117 14.7492 234.18 14.2837 236.402 14.2837C240.147 14.2837 243.067 15.384 245.162 17.5845C247.278 19.785 248.335 22.8424 248.335 26.7568C248.335 28.5342 248.145 30.2163 247.764 31.8032C247.383 33.3901 246.801 34.9876 246.019 36.5957C245.257 38.1826 244.294 39.8436 243.13 41.5786C241.967 43.2925 238.962 47.2386 234.117 53.417V53.6709H249.319V61.3516Z" fill="white"/>
<path d="M422.961 61.3516H414.456V34.1201C414.456 31.1579 414.604 27.7513 414.9 23.9004C414.752 24.112 414.202 24.7573 413.25 25.8364C412.319 26.9155 410.488 28.8516 407.759 31.6445L402.935 26.376L415.281 14.9502H422.961V61.3516ZM457.461 35.1675C457.461 53.0467 451.484 61.9863 439.529 61.9863C437.54 61.9863 435.889 61.8171 434.578 61.4785V54.2104C436.016 54.6759 437.36 54.9087 438.608 54.9087C442.142 54.9087 444.819 53.6815 446.638 51.2271C448.479 48.7726 449.495 44.9111 449.685 39.6426H449.399C448.722 41.3141 447.749 42.626 446.479 43.5781C445.231 44.5091 443.739 44.9746 442.004 44.9746C438.852 44.9746 436.408 43.6839 434.673 41.1025C432.938 38.5212 432.07 34.9771 432.07 30.4702C432.07 25.519 433.202 21.5941 435.466 18.6953C437.751 15.7965 440.798 14.3472 444.607 14.3472C448.754 14.3472 451.928 16.1351 454.128 19.7109C456.35 23.2868 457.461 28.439 457.461 35.1675ZM444.67 21.7104C443.401 21.7104 442.385 22.3981 441.624 23.7734C440.883 25.1488 440.513 27.3175 440.513 30.2798C440.513 32.7131 440.841 34.6174 441.497 35.9927C442.153 37.3468 443.147 38.0239 444.48 38.0239C445.686 38.0239 446.733 37.3363 447.622 35.9609C448.511 34.5645 448.955 32.9775 448.955 31.2002C448.955 28.4495 448.564 26.1855 447.781 24.4082C446.998 22.6097 445.961 21.7104 444.67 21.7104ZM475.869 32.311C479.36 32.311 482.132 33.5277 484.185 35.9609C486.258 38.3942 487.295 41.7267 487.295 45.9585C487.295 51.0155 486.004 54.951 483.423 57.7651C480.863 60.5793 477.297 61.9863 472.727 61.9863C468.665 61.9863 465.374 61.214 462.856 59.6694V51.6079C463.936 52.3908 465.321 53.089 467.014 53.7026C468.728 54.2951 470.315 54.5913 471.775 54.5913C476.324 54.5913 478.599 51.9465 478.599 46.6567C478.599 41.7267 476.388 39.2617 471.965 39.2617C470.209 39.2617 468.347 39.6003 466.379 40.2773L463.586 38.2144L465.015 14.9502H484.819V22.6626H472.41L471.775 32.6919C472.96 32.438 474.325 32.311 475.869 32.311ZM517.319 61.3516H492.437V54.9087L500.688 43.229C502.952 40.0129 504.508 37.6325 505.354 36.0879C506.2 34.5221 506.825 33.0304 507.227 31.6128C507.629 30.174 507.83 28.6929 507.83 27.1694C507.83 25.3921 507.428 24.0591 506.624 23.1704C505.841 22.2817 504.814 21.8374 503.545 21.8374C502.424 21.8374 501.376 22.1336 500.403 22.7261C499.43 23.3185 498.245 24.387 496.848 25.9316L492.024 20.8535C494.246 18.3356 496.309 16.6112 498.213 15.6802C500.117 14.7492 502.18 14.2837 504.402 14.2837C508.147 14.2837 511.067 15.384 513.162 17.5845C515.278 19.785 516.335 22.8424 516.335 26.7568C516.335 28.5342 516.145 30.2163 515.764 31.8032C515.383 33.3901 514.801 34.9876 514.019 36.5957C513.257 38.1826 512.294 39.8436 511.13 41.5786C509.967 43.2925 506.962 47.2386 502.117 53.417V53.6709H517.319V61.3516Z" fill="white"/>
<path d="M1083.96 61.3516H1075.46V34.1201C1075.46 31.1579 1075.6 27.7513 1075.9 23.9004C1075.75 24.112 1075.2 24.7573 1074.25 25.8364C1073.32 26.9155 1071.49 28.8516 1068.76 31.6445L1063.93 26.376L1076.28 14.9502H1083.96V61.3516ZM1118.46 35.1675C1118.46 53.0467 1112.48 61.9863 1100.53 61.9863C1098.54 61.9863 1096.89 61.8171 1095.58 61.4785V54.2104C1097.02 54.6759 1098.36 54.9087 1099.61 54.9087C1103.14 54.9087 1105.82 53.6815 1107.64 51.2271C1109.48 48.7726 1110.49 44.9111 1110.69 39.6426H1110.4C1109.72 41.3141 1108.75 42.626 1107.48 43.5781C1106.23 44.5091 1104.74 44.9746 1103 44.9746C1099.85 44.9746 1097.41 43.6839 1095.67 41.1025C1093.94 38.5212 1093.07 34.9771 1093.07 30.4702C1093.07 25.519 1094.2 21.5941 1096.47 18.6953C1098.75 15.7965 1101.8 14.3472 1105.61 14.3472C1109.75 14.3472 1112.93 16.1351 1115.13 19.7109C1117.35 23.2868 1118.46 28.439 1118.46 35.1675ZM1105.67 21.7104C1104.4 21.7104 1103.39 22.3981 1102.62 23.7734C1101.88 25.1488 1101.51 27.3175 1101.51 30.2798C1101.51 32.7131 1101.84 34.6174 1102.5 35.9927C1103.15 37.3468 1104.15 38.0239 1105.48 38.0239C1106.69 38.0239 1107.73 37.3363 1108.62 35.9609C1109.51 34.5645 1109.96 32.9775 1109.96 31.2002C1109.96 28.4495 1109.56 26.1855 1108.78 24.4082C1108 22.6097 1106.96 21.7104 1105.67 21.7104ZM1136.08 14.3472C1139.69 14.3472 1142.58 15.3734 1144.74 17.4258C1146.9 19.4782 1147.98 22.2712 1147.98 25.8047C1147.98 27.984 1147.47 29.9624 1146.45 31.7397C1145.46 33.4959 1143.76 35.1781 1141.34 36.7861C1144.05 38.7116 1145.98 40.6899 1147.12 42.7212C1148.26 44.7313 1148.83 46.9318 1148.83 49.3228C1148.83 53.1102 1147.67 56.1676 1145.34 58.4951C1143.02 60.8226 1139.93 61.9863 1136.08 61.9863C1132.08 61.9863 1128.95 60.9178 1126.68 58.7808C1124.42 56.6226 1123.29 53.5545 1123.29 49.5767C1123.29 46.9106 1123.85 44.562 1124.97 42.5308C1126.11 40.4784 1127.87 38.6904 1130.24 37.167C1128.04 35.4108 1126.46 33.644 1125.51 31.8667C1124.58 30.0682 1124.11 28.0475 1124.11 25.8047C1124.11 22.3346 1125.22 19.5628 1127.44 17.4893C1129.69 15.3945 1132.56 14.3472 1136.08 14.3472ZM1131.47 49.1323C1131.47 50.9943 1131.85 52.4754 1132.62 53.5757C1133.4 54.6759 1134.51 55.2261 1135.95 55.2261C1137.51 55.2261 1138.68 54.6759 1139.44 53.5757C1140.22 52.4754 1140.61 50.9943 1140.61 49.1323C1140.61 47.7993 1140.31 46.5404 1139.69 45.3555C1139.08 44.1706 1137.9 42.8058 1136.14 41.2612L1135.69 40.8169C1134.32 41.8325 1133.27 42.9963 1132.55 44.3081C1131.83 45.5988 1131.47 47.2069 1131.47 49.1323ZM1136.01 21.0439C1134.81 21.0439 1133.9 21.4883 1133.28 22.377C1132.67 23.2445 1132.36 24.4928 1132.36 26.1221C1132.36 27.5186 1132.62 28.7352 1133.12 29.772C1133.63 30.8088 1134.62 31.909 1136.08 33.0728C1137.47 31.9937 1138.42 30.9146 1138.93 29.8354C1139.46 28.7563 1139.73 27.5186 1139.73 26.1221C1139.73 22.7367 1138.49 21.0439 1136.01 21.0439ZM1177.4 25.3921C1177.4 28.312 1176.68 30.7664 1175.24 32.7554C1173.8 34.7231 1171.77 36.0879 1169.15 36.8496V37.1035C1172.07 37.569 1174.32 38.7116 1175.91 40.5312C1177.52 42.3509 1178.32 44.8265 1178.32 47.958C1178.32 52.2321 1176.99 55.6387 1174.32 58.1777C1171.68 60.7168 1168.05 61.9863 1163.43 61.9863C1159.33 61.9863 1155.88 61.2563 1153.09 59.7964V52.0522C1154.48 52.8986 1156 53.5651 1157.63 54.0518C1159.26 54.5384 1160.82 54.7817 1162.32 54.7817C1164.78 54.7817 1166.63 54.221 1167.88 53.0996C1169.13 51.957 1169.75 50.1585 1169.75 47.7041C1169.75 43.0703 1166.9 40.7534 1161.21 40.7534H1158.58V34.3105H1161.09C1163.6 34.3105 1165.53 33.7181 1166.86 32.5332C1168.22 31.3483 1168.89 29.5815 1168.89 27.2329C1168.89 25.3921 1168.46 24.0062 1167.59 23.0752C1166.75 22.123 1165.54 21.647 1163.97 21.647C1161.58 21.647 1159.26 22.6626 1156.99 24.6938L1153.09 18.981C1156.22 15.8494 1160.17 14.2837 1164.93 14.2837C1168.84 14.2837 1171.9 15.2782 1174.1 17.2671C1176.3 19.2349 1177.4 21.9432 1177.4 25.3921Z" fill="white"/>
<path d="M1216.46 61.3516H1207.96V34.1201C1207.96 31.1579 1208.1 27.7513 1208.4 23.9004C1208.25 24.112 1207.7 24.7573 1206.75 25.8364C1205.82 26.9155 1203.99 28.8516 1201.26 31.6445L1196.43 26.376L1208.78 14.9502H1216.46V61.3516ZM1250.96 35.1675C1250.96 53.0467 1244.98 61.9863 1233.03 61.9863C1231.04 61.9863 1229.39 61.8171 1228.08 61.4785V54.2104C1229.52 54.6759 1230.86 54.9087 1232.11 54.9087C1235.64 54.9087 1238.32 53.6815 1240.14 51.2271C1241.98 48.7726 1242.99 44.9111 1243.19 39.6426H1242.9C1242.22 41.3141 1241.25 42.626 1239.98 43.5781C1238.73 44.5091 1237.24 44.9746 1235.5 44.9746C1232.35 44.9746 1229.91 43.6839 1228.17 41.1025C1226.44 38.5212 1225.57 34.9771 1225.57 30.4702C1225.57 25.519 1226.7 21.5941 1228.97 18.6953C1231.25 15.7965 1234.3 14.3472 1238.11 14.3472C1242.25 14.3472 1245.43 16.1351 1247.63 19.7109C1249.85 23.2868 1250.96 28.439 1250.96 35.1675ZM1238.17 21.7104C1236.9 21.7104 1235.89 22.3981 1235.12 23.7734C1234.38 25.1488 1234.01 27.3175 1234.01 30.2798C1234.01 32.7131 1234.34 34.6174 1235 35.9927C1235.65 37.3468 1236.65 38.0239 1237.98 38.0239C1239.19 38.0239 1240.23 37.3363 1241.12 35.9609C1242.01 34.5645 1242.46 32.9775 1242.46 31.2002C1242.46 28.4495 1242.06 26.1855 1241.28 24.4082C1240.5 22.6097 1239.46 21.7104 1238.17 21.7104ZM1281.05 35.1675C1281.05 53.0467 1275.07 61.9863 1263.12 61.9863C1261.13 61.9863 1259.48 61.8171 1258.17 61.4785V54.2104C1259.6 54.6759 1260.95 54.9087 1262.2 54.9087C1265.73 54.9087 1268.41 53.6815 1270.23 51.2271C1272.07 48.7726 1273.08 44.9111 1273.27 39.6426H1272.99C1272.31 41.3141 1271.34 42.626 1270.07 43.5781C1268.82 44.5091 1267.33 44.9746 1265.59 44.9746C1262.44 44.9746 1260 43.6839 1258.26 41.1025C1256.53 38.5212 1255.66 34.9771 1255.66 30.4702C1255.66 25.519 1256.79 21.5941 1259.05 18.6953C1261.34 15.7965 1264.39 14.3472 1268.19 14.3472C1272.34 14.3472 1275.52 16.1351 1277.72 19.7109C1279.94 23.2868 1281.05 28.439 1281.05 35.1675ZM1268.26 21.7104C1266.99 21.7104 1265.97 22.3981 1265.21 23.7734C1264.47 25.1488 1264.1 27.3175 1264.1 30.2798C1264.1 32.7131 1264.43 34.6174 1265.08 35.9927C1265.74 37.3468 1266.73 38.0239 1268.07 38.0239C1269.27 38.0239 1270.32 37.3363 1271.21 35.9609C1272.1 34.5645 1272.54 32.9775 1272.54 31.2002C1272.54 28.4495 1272.15 26.1855 1271.37 24.4082C1270.59 22.6097 1269.55 21.7104 1268.26 21.7104ZM1306.73 61.3516H1298.22V34.1201C1298.22 31.1579 1298.37 27.7513 1298.66 23.9004C1298.52 24.112 1297.97 24.7573 1297.01 25.8364C1296.08 26.9155 1294.25 28.8516 1291.52 31.6445L1286.7 26.376L1299.04 14.9502H1306.73V61.3516Z" fill="white"/>
</svg>
