<svg id="derechovoto" xmlns="http://www.w3.org/2000/svg" xmlns:xlink="http://www.w3.org/1999/xlink" viewBox="0 0 1319 142" shape-rendering="geometricPrecision" text-rendering="geometricPrecision"><g id="derechovoto-s-g1" transform="translate(0 0.000001)" opacity="0"><path id="derechovoto-s-path1" d="M33.4316,74.9355v14.4581c0,4.8339-1.7285,7.2509-5.1855,7.2509-1.7285,0-3.0469-.625-3.9551-1.875s-1.3623-3.042-1.3623-5.3759v-14.4581h1.4502v14.6338c0,1.8555.332,3.2715.9961,4.2481.6738.9668,1.6309,1.4502,2.8711,1.4502c1.2305,0,2.1631-.4834,2.7978-1.4502.6348-.9766.9522-2.4121.9522-4.3067v-14.5752h1.4355Zm8.7012,5.2149c.4981,0,.9619.0684,1.3916.2051l-.3369,1.3916c-.3516-.1465-.7129-.2198-1.084-.2198-.5371,0-1.04.2784-1.5088.835-.459.5469-.8203,1.3135-1.084,2.2998-.2636.9863-.3955,2.0752-.3955,3.2666v8.4229h-1.3916v-15.8936h1.1426l.1465,2.7832h.1025c.7422-2.0605,1.7481-3.0908,3.0176-3.0908Zm5.127.3076v10.3711c0,1.5723.1855,2.7197.5566,3.4424.3809.7226.9619,1.084,1.7432,1.084c1.2011,0,2.08-.4834,2.6367-1.4502.5664-.9766.8496-2.5489.8496-4.7168v-8.7305h1.377v15.8936h-1.1719l-.1758-2.2266h-.1172c-.3418.8105-.8154,1.4355-1.4209,1.875-.6055.4297-1.2646.6445-1.9775.6445-1.2793,0-2.2168-.4541-2.8125-1.3623-.586-.9082-.8789-2.3926-.8789-4.4531v-10.3711h1.3916Zm19.7314,0v.9815l-2.168.249c.293.3808.5323.9277.7178,1.6406.1856.7031.2783,1.4258.2783,2.168c0,1.5429-.3515,2.7929-1.0547,3.75-.6933.957-1.6113,1.4355-2.7539,1.4355h-.3515l-.3076-.0293c-.4688.3321-.8399.6641-1.1133.9961-.2637.332-.3955.7178-.3955,1.1572c0,.4493.1758.8008.5273,1.0547.3516.2442.8252.3662,1.4209.3662h.9961c1.416,0,2.5147.3663,3.2959,1.0987.7813.7324,1.1719,1.792,1.1719,3.1787c0,1.5531-.5274,2.7831-1.582,3.6911-1.045.908-2.4268,1.363-4.1456,1.363-1.4355,0-2.539-.367-3.3105-1.099-.7715-.723-1.1572-1.768-1.1572-3.1348c0-.9961.2539-1.8506.7617-2.5635.5078-.7031,1.3037-1.2597,2.3877-1.6699-.4883-.2148-.8838-.5127-1.1865-.8936-.293-.3808-.4395-.8349-.4395-1.3623c0-.4785.1563-.9033.4688-1.2744.3222-.3808.7763-.7861,1.3623-1.2158-.8106-.3711-1.4258-.9717-1.8457-1.8018-.4102-.83-.6153-1.8066-.6153-2.9296c0-1.6895.3565-3.0225,1.0694-3.9991.7129-.9765,1.6894-1.4648,2.9296-1.4648.6641,0,1.2208.1025,1.67.3076h3.3691Zm-8.5547,18.75c0,1.006.2588,1.792.7764,2.358.5273.567,1.3183.85,2.373.85c1.3086,0,2.3438-.342,3.1055-1.025.7715-.684,1.1572-1.6215,1.1572-2.8129c0-.957-.2636-1.6992-.791-2.2265-.5176-.5176-1.2744-.7764-2.2705-.7764h-1.0254c-.957,0-1.7529.332-2.3877.9961-.625.6738-.9375,1.5527-.9375,2.6367Zm.8643-13.5644c0,1.2988.2392,2.2851.7178,2.9589.4785.6641,1.1132.9961,1.9043.9961c1.6992,0,2.5488-1.3672,2.5488-4.1015c0-1.3184-.2197-2.3487-.6592-3.0909-.4297-.7421-1.0596-1.1132-1.8896-1.1132-.8497,0-1.4991.3808-1.9483,1.1425s-.6738,1.8311-.6738,3.2081ZM70.873,80.458v10.3711c0,1.5723.1856,2.7197.5567,3.4424.3808.7226.9619,1.084,1.7432,1.084c1.2011,0,2.08-.4834,2.6367-1.4502.5664-.9766.8496-2.5489.8496-4.7168v-8.7305h1.3769v15.8936h-1.1718l-.1758-2.2266h-.1172c-.3418.8105-.8154,1.4355-1.4209,1.875-.6055.4297-1.2647.6445-1.9775.6445-1.2793,0-2.2168-.4541-2.8125-1.3623-.586-.9082-.879-2.3926-.879-4.4531v-10.3711h1.3916ZM88.4365,96.3516l-.1758-2.2266h-.0586c-.7617,1.6797-1.914,2.5195-3.457,2.5195-1.0351,0-1.8701-.4101-2.5049-1.2304-.625-.8301-.9375-1.9385-.9375-3.3252c0-1.5137.4541-2.71,1.3623-3.5889.9082-.8887,2.1827-1.3721,3.8233-1.4502l1.7138-.0879v-1.3183c0-1.4844-.1855-2.5635-.5566-3.2374-.3711-.6835-.9863-1.0253-1.8457-1.0253-.9082,0-1.8359.2978-2.7832.8935l-.6006-1.0986c1.1035-.6836,2.2608-1.0254,3.4717-1.0254c1.3086,0,2.251.415,2.8271,1.2451.5762.8203.8643,2.1973.8643,4.1309v10.8252h-1.1426Zm-3.3838-.8936c.9961,0,1.7676-.4883,2.3145-1.4648.5566-.9864.8349-2.378.8349-4.1748v-1.6553l-1.6552.0879c-1.2793.0683-2.2315.4248-2.8565,1.0693-.6152.6348-.9228,1.5674-.9228,2.7979c0,1.1523.2051,1.997.6152,2.5341.4102.5372.9668.8057,1.6699.8057Zm10.708.8643L91.791,80.458h1.4063l2.4023,9.917c.2832,1.1914.5566,2.5342.8203,4.0283h.1172c.1856-1.2988.4443-2.6513.7764-4.0576l2.3437-9.8877h1.4058L96.4199,99.3545c-.3418,1.3965-.791,2.4465-1.3476,3.1495-.5469.703-1.2793,1.055-2.1973,1.055-.3711,0-.791-.083-1.2598-.249v-1.26c.3907.137.7715.205,1.1426.205.586,0,1.0498-.254,1.3916-.762.3418-.498.6445-1.304.9082-2.4168l.7031-2.7539Z" fill="#db3f28"/><path id="derechovoto-s-path2" d="M24.4614,61.3516h-8.5058v-27.2315c0-2.9622.1481-6.3688.4443-10.2197-.1481.2116-.6982.8569-1.6504,1.936-.931,1.0791-2.7612,3.0152-5.49071,5.8081L4.43457,26.376L16.7808,14.9502h7.6806v46.4014ZM58.9609,35.1675c0,17.8792-5.9773,26.8188-17.9321,26.8188-1.9889,0-3.6393-.1692-4.9512-.5078v-7.2681c1.4388.4655,2.7824.6983,4.0308.6983c3.5335,0,6.2101-1.2272,8.0298-3.6816c1.8408-2.4545,2.8564-6.316,3.0469-11.5845h-.2857c-.6771,1.6715-1.6504,2.9834-2.9199,3.9355-1.2484.931-2.7401,1.3965-4.4751,1.3965-3.1527,0-5.5965-1.2907-7.3315-3.8721-1.7351-2.5813-2.6026-6.1254-2.6026-10.6323c0-4.9512,1.132-8.8761,3.396-11.7749c2.2852-2.8988,5.332-4.3481,9.1406-4.3481c4.1472,0,7.321,1.7879,9.5215,5.3637c2.2217,3.5759,3.3325,8.7281,3.3325,15.4566ZM46.1704,21.7104c-1.2695,0-2.2851.6877-3.0469,2.063-.7405,1.3754-1.1108,3.5441-1.1108,6.5064c0,2.4333.328,4.3376.9839,5.7129.6559,1.3541,1.6504,2.0312,2.9834,2.0312c1.206,0,2.2534-.6876,3.1421-2.063.8886-1.3964,1.333-2.9834,1.333-4.7607c0-2.7507-.3915-5.0147-1.1743-6.792-.7829-1.7985-1.8197-2.6978-3.1104-2.6978Zm42.561,39.6412h-24.8828v-6.4429l8.252-11.6797c2.264-3.2161,3.8192-5.5965,4.6655-7.1411.8464-1.5658,1.4706-3.0575,1.8726-4.4751.402-1.4388.603-2.9199.603-4.4434c0-1.7773-.402-3.1103-1.2061-3.999-.7828-.8887-1.809-1.333-3.0786-1.333-1.1214,0-2.1688.2962-3.1421.8887s-2.1582,1.6609-3.5546,3.2055L63.436,20.8535c2.2217-2.5179,4.2847-4.2423,6.189-5.1733s3.9673-1.3965,6.189-1.3965c3.7451,0,6.665,1.1003,8.7597,3.3008c2.1159,2.2005,3.1739,5.2579,3.1739,9.1723c0,1.7774-.1905,3.4595-.5713,5.0464s-.9628,3.1844-1.7456,4.7925c-.7618,1.5869-1.7245,3.2479-2.8882,4.9829-1.1638,1.7139-4.1683,5.66-9.0137,11.8384v.2539h15.2026v7.6807Zm8.5694,0l13.0122-38.689h-16.186v-7.6489h24.883v5.8398L106.219,61.3516h-8.9182Z" fill="#db3f28"/></g><g id="derechovoto-s-g2" transform="translate(.000001 0.000001)" opacity="0"><path id="derechovoto-s-path3" d="M283.173,75.9756c-1.611,0-2.896.8545-3.853,2.5635-.947,1.6992-1.421,4.0576-1.421,7.0752c0,1.9628.22,3.6718.66,5.1269.439,1.4551,1.069,2.5733,1.889,3.3545.821.7813,1.773,1.1719,2.857,1.1719c1.113,0,2.07-.2002,2.871-.6006v1.3184c-.762.4394-1.763.6591-3.003.6591-1.358,0-2.549-.4394-3.574-1.3183-1.016-.8789-1.802-2.1485-2.359-3.8086-.556-1.6699-.835-3.6475-.835-5.9326c0-3.418.606-6.1036,1.817-8.0567c1.22-1.9531,2.881-2.9297,4.98-2.9297c1.309,0,2.451.3028,3.428.9082l-.659,1.2598c-.821-.5273-1.753-.791-2.798-.791Zm15.278,12.3926c0,2.6757-.425,4.7265-1.274,6.1523-.84,1.416-2.046,2.124-3.618,2.124-1.553,0-2.745-.708-3.575-2.124-.82-1.4258-1.23-3.4766-1.23-6.1523c0-5.4786,1.621-8.2178,4.863-8.2178c1.524,0,2.71.7178,3.56,2.1533.849,1.4356,1.274,3.457,1.274,6.0645Zm-8.247,0c0,2.2949.274,4.0283.82,5.2002.547,1.1718,1.402,1.7578,2.564,1.7578c2.275,0,3.413-2.3194,3.413-6.958c0-4.5996-1.138-6.8994-3.413-6.8994-1.192,0-2.056.5761-2.593,1.7285-.527,1.1523-.791,2.8759-.791,5.1709Zm17.988,3.999c0,1.3379-.351,2.3877-1.054,3.1494-.703.752-1.719,1.1279-3.047,1.1279-.723,0-1.358-.0927-1.904-.2783-.547-.1855-.972-.3906-1.275-.6152v-1.626c.361.3613.84.6543,1.436.8789.595.2149,1.206.3223,1.831.3223.82,0,1.465-.2686,1.933-.8057.469-.5371.703-1.2549.703-2.1533c0-.7031-.17-1.294-.512-1.7725-.332-.4883-.972-1.04-1.919-1.6552-1.084-.6836-1.826-1.2305-2.227-1.6407-.39-.4101-.698-.8691-.923-1.3769-.214-.5078-.322-1.1133-.322-1.8164c0-1.1426.386-2.085,1.157-2.8272.772-.7519,1.753-1.1279,2.945-1.1279c1.279,0,2.348.3027,3.208.9082l-.718,1.2158c-.801-.5371-1.65-.8056-2.549-.8056-.82,0-1.475.2441-1.963.7324-.488.4785-.732,1.1133-.732,1.9043c0,.7031.166,1.2939.498,1.7724.332.4688,1.035,1.0401,2.109,1.7139c1.055.6934,1.778,1.25,2.168,1.6699.391.4102.679.8692.864,1.377.196.498.293,1.0742.293,1.7285Zm6.138,2.9883c.43,0,.811-.0586,1.143-.1758v1.1719c-.43.1953-.982.2929-1.656.2929-1.64,0-2.461-1.2256-2.461-3.6767v-11.2793h-1.435v-.8203l1.406-.4102.454-3.7793h.967v3.7793h2.52v1.2305h-2.52v10.8838c0,1.0742.117,1.8066.352,2.1972.234.3907.644.586,1.23.586Zm9.829.9961l-.176-2.2266h-.058c-.762,1.6797-1.914,2.5195-3.457,2.5195-1.035,0-1.87-.4101-2.505-1.2304-.625-.8301-.938-1.9385-.938-3.3252c0-1.5137.454-2.71,1.363-3.5889.908-.8887,2.182-1.3721,3.823-1.4502l1.714-.0879v-1.3183c0-1.4844-.186-2.5635-.557-3.2374-.371-.6835-.986-1.0253-1.846-1.0253-.908,0-1.835.2978-2.783.8935l-.6-1.0986c1.103-.6836,2.26-1.0254,3.471-1.0254c1.309,0,2.251.415,2.828,1.2451.576.8203.864,2.1973.864,4.1309v10.8252h-1.143Zm-3.384-.8936c.996,0,1.768-.4883,2.315-1.4648.556-.9864.835-2.378.835-4.1748v-1.6553l-1.655.0879c-1.28.0683-2.232.4248-2.857,1.0693-.615.6348-.923,1.5674-.923,2.7979c0,1.1523.205,1.997.615,2.5341.411.5372.967.8057,1.67.8057Zm16.026-8.4668v9.3604h-1.436v-21.4161h2.93c2.09,0,3.618.4932,4.585,1.4795s1.45,2.461,1.45,4.4239c0,1.4843-.264,2.705-.791,3.6621-.527.957-1.411,1.6748-2.651,2.1533l4.248,9.6973h-1.612l-3.999-9.3604h-2.724Zm0-1.3183h2.007c1.298,0,2.299-.4004,3.003-1.2012.703-.8008,1.054-1.9922,1.054-3.5742c0-1.6114-.361-2.7735-1.084-3.4864-.713-.7129-1.841-1.0693-3.384-1.0693h-1.596v9.3311Zm12.48,10.6787h-1.391v-15.8936h1.391v15.8936Zm-1.596-20.3028c0-.4394.087-.7812.263-1.0254.186-.2441.42-.3662.703-.3662.264,0,.474.1221.63.3662.157.2442.235.586.235,1.0254c0,.42-.078.7569-.235,1.0108-.156.2441-.366.3662-.63.3662-.283,0-.517-.1221-.703-.3662-.176-.2539-.263-.5908-.263-1.0108Zm9.946,20.5957c-1.592,0-2.793-.6884-3.604-2.0654-.8-1.3867-1.201-3.418-1.201-6.0937c0-2.7149.405-4.7803,1.216-6.1963.82-1.4258,2.026-2.1387,3.618-2.1387.986,0,1.807.1807,2.461.542l-.542,1.2305c-.654-.3028-1.255-.4541-1.802-.4541-2.334,0-3.501,2.3291-3.501,6.9873c0,4.6191,1.167,6.9287,3.501,6.9287.694,0,1.446-.1563,2.256-.4688v1.1719c-.322.1758-.718.3125-1.186.4101-.469.0977-.874.1465-1.216.1465Zm11.382-.2929l-.176-2.2266h-.059c-.761,1.6797-1.914,2.5195-3.457,2.5195-1.035,0-1.87-.4101-2.505-1.2304-.625-.8301-.937-1.9385-.937-3.3252c0-1.5137.454-2.71,1.362-3.5889.908-.8887,2.183-1.3721,3.823-1.4502l1.714-.0879v-1.3183c0-1.4844-.185-2.5635-.556-3.2374-.371-.6835-.987-1.0253-1.846-1.0253-.908,0-1.836.2978-2.783.8935l-.601-1.0986c1.104-.6836,2.261-1.0254,3.472-1.0254c1.308,0,2.251.415,2.827,1.2451.576.8203.864,2.1973.864,4.1309v10.8252h-1.142Zm-3.384-.8936c.996,0,1.767-.4883,2.314-1.4648.557-.9864.835-2.378.835-4.1748v-1.6553l-1.655.0879c-1.279.0683-2.231.4248-2.856,1.0693-.616.6348-.923,1.5674-.923,2.7979c0,1.1523.205,1.997.615,2.5341.41.5372.967.8057,1.67.8057Z" fill="#db3f28"/><path id="derechovoto-s-path4" d="M286.961,61.3516h-8.505v-27.2315c0-2.9622.148-6.3688.444-10.2197-.148.2116-.698.8569-1.65,1.936-.931,1.0791-2.762,3.0152-5.491,5.8081l-4.824-5.2685l12.346-11.4258h7.68v46.4014Zm34.5-26.1841c0,17.8792-5.977,26.8188-17.932,26.8188-1.989,0-3.64-.1692-4.951-.5078v-7.2681c1.438.4655,2.782.6983,4.03.6983c3.534,0,6.211-1.2272,8.03-3.6816c1.841-2.4545,2.857-6.316,3.047-11.5845h-.286c-.677,1.6715-1.65,2.9834-2.92,3.9355-1.248.931-2.74,1.3965-4.475,1.3965-3.152,0-5.596-1.2907-7.331-3.8721-1.735-2.5813-2.603-6.1254-2.603-10.6323c0-4.9512,1.132-8.8761,3.396-11.7749c2.285-2.8988,5.332-4.3481,9.141-4.3481c4.147,0,7.321,1.7879,9.521,5.3637c2.222,3.5759,3.333,8.7281,3.333,15.4566ZM308.67,21.7104c-1.269,0-2.285.6877-3.046,2.063-.741,1.3754-1.111,3.5441-1.111,6.5064c0,2.4333.328,4.3376.984,5.7129.656,1.3541,1.65,2.0312,2.983,2.0312c1.206,0,2.253-.6876,3.142-2.063.889-1.3964,1.333-2.9834,1.333-4.7607c0-2.7507-.391-5.0147-1.174-6.792-.783-1.7985-1.82-2.6978-3.111-2.6978Zm44.466,29.8975h-4.698v9.7437h-8.125v-9.7437h-15.139v-7.0141l14.029-29.6436h9.235v29.5166h4.698v7.1411Zm-12.823-7.1411v-9.7754l.159-4.3164.222-4.126h-.254c-.74,2.3063-1.544,4.3905-2.412,6.2525l-5.586,11.9653h7.871Zm41.324-9.2993c0,17.8792-5.978,26.8188-17.932,26.8188-1.989,0-3.64-.1692-4.952-.5078v-7.2681c1.439.4655,2.783.6983,4.031.6983c3.534,0,6.21-1.2272,8.03-3.6816c1.841-2.4545,2.856-6.316,3.047-11.5845h-.286c-.677,1.6715-1.65,2.9834-2.92,3.9355-1.248.931-2.74,1.3965-4.475,1.3965-3.152,0-5.596-1.2907-7.331-3.8721-1.735-2.5813-2.603-6.1254-2.603-10.6323c0-4.9512,1.132-8.8761,3.396-11.7749c2.285-2.8988,5.332-4.3481,9.141-4.3481c4.147,0,7.321,1.7879,9.521,5.3637c2.222,3.5759,3.333,8.7281,3.333,15.4566ZM368.846,21.7104c-1.269,0-2.285.6877-3.047,2.063-.74,1.3754-1.111,3.5441-1.111,6.5064c0,2.4333.328,4.3376.984,5.7129.656,1.3541,1.651,2.0312,2.984,2.0312c1.206,0,2.253-.6876,3.142-2.063.889-1.3964,1.333-2.9834,1.333-4.7607c0-2.7507-.392-5.0147-1.174-6.792-.783-1.7985-1.82-2.6978-3.111-2.6978Z" fill="#db3f28"/></g><g id="derechovoto-s-g3" transform="translate(0 0.000001)" opacity="0"><path id="derechovoto-s-path5" d="M572.114,96.3516l-5.698-19.4971h-.117c.097,2.0508.146,3.3496.146,3.8965v15.6006h-1.377v-21.4161h2.124l4.805,16.377c.43,1.4453.708,2.6758.835,3.6914h.117c.098-.7227.401-1.9434.908-3.6621l4.761-16.4063h2.197v21.4161h-1.435v-15.4834c0-.6055.049-1.9336.146-3.9844h-.117L573.74,96.3516h-1.626Zm17.696.2929c-1.68,0-2.974-.7129-3.882-2.1386-.899-1.4356-1.348-3.4327-1.348-5.9913c0-2.7148.4-4.7851,1.201-6.2109.811-1.4355,1.973-2.1533,3.487-2.1533c1.318,0,2.358.6299,3.12,1.8896.761,1.25,1.142,2.9395,1.142,5.0684v1.2891h-7.529c.02,2.3144.347,4.0478.981,5.2002.635,1.1523,1.597,1.7285,2.886,1.7285.996,0,2.046-.3272,3.15-.9815v1.3477c-1.016.6347-2.085.9521-3.208.9521Zm-.63-15.2343c-1.914,0-2.964,1.9091-3.15,5.7275h6.109c0-1.7481-.269-3.1397-.806-4.1748-.527-1.0352-1.245-1.5527-2.153-1.5527Zm-.982-3.2373v-.3077c1.24-1.6211,2.173-3.1201,2.798-4.497h1.831v.249c-.381.6836-.962,1.4697-1.743,2.3584-.772.8887-1.504,1.6211-2.197,2.1973h-.689Zm11.045,9.9316l-3.486-7.6465h1.509l2.666,6.4453l2.783-6.4453h1.45l-3.545,7.8223l3.721,8.0713h-1.465l-2.974-6.8702-3.003,6.8702h-1.435l3.779-8.2471Zm9.126,8.2471h-1.391v-15.8936h1.391v15.8936Zm-1.597-20.3028c0-.4394.088-.7812.264-1.0254.186-.2441.42-.3662.703-.3662.264,0,.474.1221.63.3662.156.2442.235.586.235,1.0254c0,.42-.079.7569-.235,1.0108-.156.2441-.366.3662-.63.3662-.283,0-.517-.1221-.703-.3662-.176-.2539-.264-.5908-.264-1.0108Zm9.947,20.5957c-1.592,0-2.793-.6884-3.604-2.0654-.801-1.3867-1.201-3.418-1.201-6.0937c0-2.7149.405-4.7803,1.216-6.1963.82-1.4258,2.026-2.1387,3.618-2.1387.986,0,1.807.1807,2.461.542l-.542,1.2305c-.654-.3028-1.255-.4541-1.802-.4541-2.334,0-3.501,2.3291-3.501,6.9873c0,4.6191,1.167,6.9287,3.501,6.9287.694,0,1.446-.1563,2.256-.4688v1.1719c-.322.1758-.718.3125-1.186.4101-.469.0977-.874.1465-1.216.1465Zm14.179-8.2763c0,2.6757-.424,4.7265-1.274,6.1523-.84,1.416-2.046,2.124-3.618,2.124-1.553,0-2.744-.708-3.574-2.124-.821-1.4258-1.231-3.4766-1.231-6.1523c0-5.4786,1.621-8.2178,4.863-8.2178c1.524,0,2.71.7178,3.56,2.1533s1.274,3.457,1.274,6.0645Zm-8.247,0c0,2.2949.274,4.0283.821,5.2002s1.401,1.7578,2.563,1.7578c2.276,0,3.413-2.3194,3.413-6.958c0-4.5996-1.137-6.8994-3.413-6.8994-1.191,0-2.056.5761-2.593,1.7285-.527,1.1523-.791,2.8759-.791,5.1709Z" fill="#db3f28"/><path id="derechovoto-s-path6" d="M559.961,61.3516h-8.505v-27.2315c0-2.9622.148-6.3688.444-10.2197-.148.2116-.698.8569-1.65,1.936-.931,1.0791-2.762,3.0152-5.491,5.8081l-4.824-5.2685l12.346-11.4258h7.68v46.4014Zm34.5-26.1841c0,17.8792-5.977,26.8188-17.932,26.8188-1.989,0-3.64-.1692-4.951-.5078v-7.2681c1.438.4655,2.782.6983,4.03.6983c3.534,0,6.211-1.2272,8.03-3.6816c1.841-2.4545,2.857-6.316,3.047-11.5845h-.286c-.677,1.6715-1.65,2.9834-2.92,3.9355-1.248.931-2.74,1.3965-4.475,1.3965-3.152,0-5.596-1.2907-7.331-3.8721-1.735-2.5813-2.603-6.1254-2.603-10.6323c0-4.9512,1.132-8.8761,3.396-11.7749c2.285-2.8988,5.332-4.3481,9.141-4.3481c4.147,0,7.321,1.7879,9.521,5.3637c2.222,3.5759,3.333,8.7281,3.333,15.4566ZM581.67,21.7104c-1.269,0-2.285.6877-3.046,2.063-.741,1.3754-1.111,3.5441-1.111,6.5064c0,2.4333.328,4.3376.984,5.7129.656,1.3541,1.65,2.0312,2.983,2.0312c1.206,0,2.253-.6876,3.142-2.063.889-1.3964,1.333-2.9834,1.333-4.7607c0-2.7507-.391-5.0147-1.174-6.792-.783-1.7985-1.82-2.6978-3.111-2.6978ZM612.869,32.311c3.491,0,6.263,1.2167,8.316,3.6499c2.073,2.4333,3.11,5.7658,3.11,9.9976c0,5.057-1.291,8.9925-3.872,11.8066-2.56,2.8142-6.126,4.2212-10.696,4.2212-4.062,0-7.353-.7723-9.871-2.3169v-8.0615c1.08.7829,2.465,1.4811,4.158,2.0947c1.714.5925,3.301.8887,4.761.8887c4.549,0,6.824-2.6448,6.824-7.9346c0-4.93-2.211-7.395-6.634-7.395-1.756,0-3.618.3386-5.586,1.0156l-2.793-2.0629l1.429-23.2642h19.804v7.7124h-12.409l-.635,10.0293c1.185-.2539,2.55-.3809,4.094-.3809Zm30.088,0c3.491,0,6.263,1.2167,8.315,3.6499c2.074,2.4333,3.111,5.7658,3.111,9.9976c0,5.057-1.291,8.9925-3.872,11.8066-2.56,2.8142-6.126,4.2212-10.696,4.2212-4.063,0-7.353-.7723-9.871-2.3169v-8.0615c1.079.7829,2.465,1.4811,4.158,2.0947c1.714.5925,3.301.8887,4.761.8887c4.549,0,6.824-2.6448,6.824-7.9346c0-4.93-2.212-7.395-6.634-7.395-1.756,0-3.618.3386-5.586,1.0156l-2.793-2.0629l1.429-23.2642h19.804v7.7124h-12.409l-.635,10.0293c1.185-.2539,2.549-.3809,4.094-.3809Z" fill="#db3f28"/></g><g id="derechovoto-s-g4" transform="translate(0 0.000001)" opacity="0"><path id="derechovoto-s-path7" d="M698.954,74.9355h4.102c1.679,0,2.968.4297,3.867,1.2891.908.8594,1.362,2.1289,1.362,3.8086c0,2.9004-1.059,4.5606-3.179,4.9805v.1172c1.221.2539,2.129.8007,2.725,1.6406.596.8301.894,1.9922.894,3.4863c0,1.9141-.425,3.4082-1.275,4.4824-.849,1.0743-2.041,1.6114-3.574,1.6114h-4.922v-21.4161Zm1.436,9.5362h2.695c1.338,0,2.29-.3662,2.856-1.0987.577-.7421.865-1.8652.865-3.3691c0-1.2109-.318-2.1387-.952-2.7832-.625-.6445-1.558-.9668-2.798-.9668h-2.666v8.2178Zm0,1.3183v9.2432h3.296c2.363,0,3.544-1.6016,3.544-4.8047c0-1.4258-.346-2.5195-1.04-3.2812-.693-.7715-1.665-1.1573-2.915-1.1573h-2.885Zm20.595,2.5782c0,2.6757-.424,4.7265-1.274,6.1523-.84,1.416-2.046,2.124-3.618,2.124-1.553,0-2.744-.708-3.574-2.124-.821-1.4258-1.231-3.4766-1.231-6.1523c0-5.4786,1.621-8.2178,4.863-8.2178c1.524,0,2.71.7178,3.56,2.1533s1.274,3.457,1.274,6.0645Zm-8.247,0c0,2.2949.274,4.0283.821,5.2002.546,1.1718,1.401,1.7578,2.563,1.7578c2.275,0,3.413-2.3194,3.413-6.958c0-4.5996-1.138-6.8994-3.413-6.8994-1.191,0-2.056.5761-2.593,1.7285-.527,1.1523-.791,2.8759-.791,5.1709Zm13.14,7.9834h-1.392v-22.793h1.392v22.793Zm5.654,0h-1.391v-15.8936h1.391v15.8936Zm-1.596-20.3028c0-.4394.087-.7812.263-1.0254.186-.2441.42-.3662.703-.3662.264,0,.474.1221.63.3662.156.2442.235.586.235,1.0254c0,.42-.079.7569-.235,1.0108-.156.2441-.366.3662-.63.3662-.283,0-.517-.1221-.703-.3662-.176-.2539-.263-.5908-.263-1.0108Zm7.631,20.3028l-3.75-15.8936h1.407l2.373,10.2246c.273,1.1817.537,2.4707.791,3.8672h.117c.068-.5078.166-1.0742.293-1.6992s1.089-4.7559,2.886-12.3926h1.406l-3.867,15.8936h-1.656Zm9.2,0h-1.392v-15.8936h1.392v15.8936ZM745.17,76.0488c0-.4394.088-.7812.264-1.0254.185-.2441.42-.3662.703-.3662.263,0,.473.1221.63.3662.156.2442.234.586.234,1.0254c0,.42-.078.7569-.234,1.0108-.157.2441-.367.3662-.63.3662-.283,0-.518-.1221-.703-.3662-.176-.2539-.264-.5908-.264-1.0108Zm12.012,20.3028l-.176-2.2266h-.059c-.761,1.6797-1.914,2.5195-3.457,2.5195-1.035,0-1.87-.4101-2.505-1.2304-.625-.8301-.937-1.9385-.937-3.3252c0-1.5137.454-2.71,1.362-3.5889.908-.8887,2.183-1.3721,3.823-1.4502l1.714-.0879v-1.3183c0-1.4844-.185-2.5635-.556-3.2374-.371-.6835-.987-1.0253-1.846-1.0253-.908,0-1.836.2978-2.783.8935l-.601-1.0986c1.104-.6836,2.261-1.0254,3.472-1.0254c1.308,0,2.251.415,2.827,1.2451.576.8203.864,2.1973.864,4.1309v10.8252h-1.142Zm-3.384-.8936c.996,0,1.767-.4883,2.314-1.4648.557-.9864.835-2.378.835-4.1748v-1.6553l-1.655.0879c-1.279.0683-2.231.4248-2.856,1.0693-.616.6348-.923,1.5674-.923,2.7979c0,1.1523.205,1.997.615,2.5341.41.5372.967.8057,1.67.8057Z" fill="#db3f28"/><path id="derechovoto-s-path8" d="M690.961,61.3516h-8.505v-27.2315c0-2.9622.148-6.3688.444-10.2197-.148.2116-.698.8569-1.65,1.936-.931,1.0791-2.762,3.0152-5.491,5.8081l-4.824-5.2685l12.346-11.4258h7.68v46.4014Zm34.5-26.1841c0,17.8792-5.977,26.8188-17.932,26.8188-1.989,0-3.64-.1692-4.951-.5078v-7.2681c1.438.4655,2.782.6983,4.03.6983c3.534,0,6.211-1.2272,8.03-3.6816c1.841-2.4545,2.857-6.316,3.047-11.5845h-.286c-.677,1.6715-1.65,2.9834-2.92,3.9355-1.248.931-2.74,1.3965-4.475,1.3965-3.152,0-5.596-1.2907-7.331-3.8721-1.735-2.5813-2.603-6.1254-2.603-10.6323c0-4.9512,1.132-8.8761,3.396-11.7749c2.285-2.8988,5.332-4.3481,9.141-4.3481c4.147,0,7.321,1.7879,9.521,5.3637c2.222,3.5759,3.333,8.7281,3.333,15.4566ZM712.67,21.7104c-1.269,0-2.285.6877-3.046,2.063-.741,1.3754-1.111,3.5441-1.111,6.5064c0,2.4333.328,4.3376.984,5.7129.656,1.3541,1.65,2.0312,2.983,2.0312c1.206,0,2.253-.6876,3.142-2.063.889-1.3964,1.333-2.9834,1.333-4.7607c0-2.7507-.391-5.0147-1.174-6.792-.783-1.7985-1.82-2.6978-3.111-2.6978ZM743.869,32.311c3.491,0,6.263,1.2167,8.316,3.6499c2.073,2.4333,3.11,5.7658,3.11,9.9976c0,5.057-1.291,8.9925-3.872,11.8066-2.56,2.8142-6.126,4.2212-10.696,4.2212-4.062,0-7.353-.7723-9.871-2.3169v-8.0615c1.08.7829,2.465,1.4811,4.158,2.0947c1.714.5925,3.301.8887,4.761.8887c4.549,0,6.824-2.6448,6.824-7.9346c0-4.93-2.211-7.395-6.634-7.395-1.756,0-3.618.3386-5.586,1.0156l-2.793-2.0629l1.429-23.2642h19.804v7.7124h-12.409l-.635,10.0293c1.185-.2539,2.55-.3809,4.094-.3809Zm16.568,9.3311c0-9.458,1.47-16.3664,4.411-20.7251c2.941-4.3799,7.427-6.5698,13.457-6.5698.952,0,1.904.0634,2.857.1904.952.1058,1.671.2222,2.158.3491v7.1411c-1.46-.3385-2.899-.5078-4.317-.5078-2.412,0-4.39.529-5.935,1.5869-1.544,1.058-2.719,2.6449-3.523,4.7608-.804,2.0947-1.29,5.0464-1.46,8.855h.35c.74-1.7562,1.756-3.0787,3.046-3.9673c1.291-.9099,2.783-1.3648,4.476-1.3648c3.11,0,5.533,1.2696,7.268,3.8086c1.735,2.5179,2.602,6.1255,2.602,10.8228c0,4.9088-1.142,8.8021-3.428,11.6797-2.285,2.8564-5.385,4.2846-9.299,4.2846-4.147,0-7.3-1.7138-9.458-5.1416-2.137-3.4277-3.205-8.4953-3.205-15.2026Zm12.727,13.0762c1.269,0,2.285-.6983,3.046-2.0948.783-1.3964,1.175-3.5758,1.175-6.5381c0-2.3909-.349-4.274-1.048-5.6494-.677-1.3964-1.713-2.0947-3.11-2.0947-1.248,0-2.264.6454-3.047,1.936-.783,1.2907-1.174,2.92-1.174,4.8877c0,3.0892.36,5.459,1.079,7.1094.741,1.6292,1.767,2.4439,3.079,2.4439Z" fill="#db3f28"/></g><g id="derechovoto-s-g5" transform="translate(0 0.000001)" opacity="0"><path id="derechovoto-s-path9" d="M841.933,75.9756c-1.612,0-2.896.8545-3.853,2.5635-.947,1.6992-1.421,4.0576-1.421,7.0752c0,1.9628.22,3.6718.659,5.1269.44,1.4551,1.07,2.5733,1.89,3.3545.82.7813,1.772,1.1719,2.856,1.1719c1.114,0,2.071-.2002,2.872-.6006v1.3184c-.762.4394-1.763.6591-3.003.6591-1.358,0-2.549-.4394-3.575-1.3183-1.015-.8789-1.801-2.1485-2.358-3.8086-.557-1.6699-.835-3.6475-.835-5.9326c0-3.418.606-6.1036,1.816-8.0567c1.221-1.9531,2.881-2.9297,4.981-2.9297c1.309,0,2.451.3028,3.428.9082l-.66,1.2598c-.82-.5273-1.752-.791-2.797-.791Zm7.661,4.4824v10.3711c0,1.5723.185,2.7197.556,3.4424.381.7226.962,1.084,1.744,1.084c1.201,0,2.08-.4834,2.636-1.4502.567-.9766.85-2.5489.85-4.7168v-8.7305h1.377v15.8936h-1.172l-.176-2.2266h-.117c-.342.8105-.815,1.4355-1.421,1.875-.605.4297-1.265.6445-1.977.6445-1.28,0-2.217-.4541-2.813-1.3623-.586-.9082-.879-2.3926-.879-4.4531v-10.3711h1.392Zm16.333-.2783c3.105,0,4.658,2.7295,4.658,8.1885c0,2.6953-.386,4.7509-1.157,6.167-.772,1.4062-1.885,2.1093-3.34,2.1093-.762,0-1.455-.2099-2.08-.6299-.625-.4199-1.143-1.04-1.553-1.8603h-.117l-.191,2.1973h-1.142v-22.793h1.391v7.0752l-.058,1.9189h.117c.84-1.582,1.997-2.373,3.472-2.373Zm-.059,1.2891c-1.221,0-2.104.5371-2.651,1.6113s-.821,2.8369-.821,5.2881v.3662c0,4.4336,1.177,6.6504,3.531,6.6504c1.074,0,1.875-.5713,2.402-1.7139.537-1.1426.806-2.9102.806-5.3027c0-2.295-.259-4.0186-.777-5.1709-.517-1.1524-1.347-1.7285-2.49-1.7285Zm14.385,14.8828l-.176-2.2266h-.058c-.762,1.6797-1.915,2.5195-3.457,2.5195-1.036,0-1.871-.4101-2.505-1.2304-.625-.8301-.938-1.9385-.938-3.3252c0-1.5137.454-2.71,1.362-3.5889.909-.8887,2.183-1.3721,3.824-1.4502l1.714-.0879v-1.3183c0-1.4844-.186-2.5635-.557-3.2374-.371-.6835-.986-1.0253-1.846-1.0253-.908,0-1.836.2978-2.783.8935l-.601-1.0986c1.104-.6836,2.261-1.0254,3.472-1.0254c1.309,0,2.251.415,2.827,1.2451.576.8203.865,2.1973.865,4.1309v10.8252h-1.143Zm-3.384-.8936c.996,0,1.768-.4883,2.315-1.4648.556-.9864.835-2.378.835-4.1748v-1.6553l-1.656.0879c-1.279.0683-2.231.4248-2.856,1.0693-.615.6348-.923,1.5674-.923,2.7979c0,1.1523.205,1.997.615,2.5341.41.5372.967.8057,1.67.8057Z" fill="#db3f28"/><path id="derechovoto-s-path10" d="M821.461,61.3516h-8.505v-27.2315c0-2.9622.148-6.3688.444-10.2197-.148.2116-.698.8569-1.65,1.936-.931,1.0791-2.762,3.0152-5.491,5.8081l-4.824-5.2685l12.346-11.4258h7.68v46.4014Zm34.5-26.1841c0,17.8792-5.977,26.8188-17.932,26.8188-1.989,0-3.64-.1692-4.951-.5078v-7.2681c1.438.4655,2.782.6983,4.03.6983c3.534,0,6.211-1.2272,8.03-3.6816c1.841-2.4545,2.857-6.316,3.047-11.5845h-.286c-.677,1.6715-1.65,2.9834-2.92,3.9355-1.248.931-2.74,1.3965-4.475,1.3965-3.152,0-5.596-1.2907-7.331-3.8721-1.735-2.5813-2.603-6.1254-2.603-10.6323c0-4.9512,1.132-8.8761,3.396-11.7749c2.285-2.8988,5.332-4.3481,9.141-4.3481c4.147,0,7.321,1.7879,9.521,5.3637c2.222,3.5759,3.333,8.7281,3.333,15.4566ZM843.17,21.7104c-1.269,0-2.285.6877-3.046,2.063-.741,1.3754-1.111,3.5441-1.111,6.5064c0,2.4333.328,4.3376.984,5.7129.656,1.3541,1.65,2.0312,2.983,2.0312c1.206,0,2.253-.6876,3.142-2.063.889-1.3964,1.333-2.9834,1.333-4.7607c0-2.7507-.391-5.0147-1.174-6.792-.783-1.7985-1.82-2.6978-3.111-2.6978Zm17.679,19.9317c0-9.458,1.47-16.3664,4.411-20.7251c2.941-4.3799,7.427-6.5698,13.457-6.5698.952,0,1.905.0634,2.857.1904.952.1058,1.671.2222,2.158.3491v7.1411c-1.46-.3385-2.899-.5078-4.316-.5078-2.413,0-4.391.529-5.936,1.5869-1.544,1.058-2.718,2.6449-3.522,4.7608-.805,2.0947-1.291,5.0464-1.46,8.855h.349c.74-1.7562,1.756-3.0787,3.047-3.9673c1.29-.9099,2.782-1.3648,4.475-1.3648c3.11,0,5.533,1.2696,7.268,3.8086c1.735,2.5179,2.602,6.1255,2.602,10.8228c0,4.9088-1.142,8.8021-3.427,11.6797-2.286,2.8564-5.385,4.2846-9.3,4.2846-4.147,0-7.3-1.7138-9.458-5.1416-2.137-3.4277-3.205-8.4953-3.205-15.2026Zm12.727,13.0762c1.269,0,2.285-.6983,3.047-2.0948.782-1.3964,1.174-3.5758,1.174-6.5381c0-2.3909-.349-4.274-1.047-5.6494-.678-1.3964-1.714-2.0947-3.111-2.0947-1.248,0-2.264.6454-3.047,1.936-.783,1.2907-1.174,2.92-1.174,4.8877c0,3.0892.36,5.459,1.079,7.1094.741,1.6292,1.767,2.4439,3.079,2.4439Zm38.149,6.6333h-8.506v-27.2315c0-2.9622.148-6.3688.445-10.2197-.149.2116-.699.8569-1.651,1.936-.931,1.0791-2.761,3.0152-5.491,5.8081l-4.824-5.2685l12.346-11.4258h7.681v46.4014Z" fill="#db3f28"/></g><g id="derechovoto-s-g6" transform="translate(0 0.000001)" opacity="0"><path id="derechovoto-s-path11" d="M973.68,75.9756c-1.612,0-2.896.8545-3.853,2.5635-.947,1.6992-1.421,4.0576-1.421,7.0752c0,1.9628.22,3.6718.659,5.1269.44,1.4551,1.07,2.5733,1.89,3.3545.82.7813,1.773,1.1719,2.857,1.1719c1.113,0,2.07-.2002,2.871-.6006v1.3184c-.762.4394-1.763.6591-3.003.6591-1.358,0-2.549-.4394-3.575-1.3183-1.015-.8789-1.801-2.1485-2.358-3.8086-.557-1.6699-.835-3.6475-.835-5.9326c0-3.418.606-6.1036,1.817-8.0567c1.22-1.9531,2.88-2.9297,4.98-2.9297c1.309,0,2.451.3028,3.428.9082l-.659,1.2598c-.821-.5273-1.753-.791-2.798-.791Zm13.506,20.376v-10.9571c0-1.4355-.191-2.4511-.572-3.0468-.371-.6055-.981-.9082-1.831-.9082-1.123,0-1.968.498-2.534,1.4941s-.85,2.5684-.85,4.7168v8.7012h-1.391v-22.793h1.391v7.3975c0,.6738-.019,1.2353-.058,1.6845h.117c.313-.791.781-1.4013,1.406-1.831.635-.4395,1.294-.6592,1.978-.6592c1.347,0,2.304.4394,2.871,1.3184.566.8789.849,2.1874.849,3.9257v10.9571h-1.376Zm6.958,0h-1.392v-15.8936h1.392v15.8936Zm-1.597-20.3028c0-.4394.088-.7812.264-1.0254.185-.2441.419-.3662.703-.3662.263,0,.473.1221.63.3662.156.2442.234.586.234,1.0254c0,.42-.078.7569-.234,1.0108-.157.2441-.367.3662-.63.3662-.284,0-.518-.1221-.703-.3662-.176-.2539-.264-.5908-.264-1.0108Zm7.251,20.3028h-1.392v-22.793h1.392v22.793Zm8.772.2929c-1.68,0-2.97-.7129-3.88-2.1386-.9-1.4356-1.35-3.4327-1.35-5.9913c0-2.7148.4-4.7851,1.2-6.2109.81-1.4355,1.98-2.1533,3.49-2.1533c1.32,0,2.36.6299,3.12,1.8896.76,1.25,1.14,2.9395,1.14,5.0684v1.2891h-7.53c.02,2.3144.35,4.0478.99,5.2002.63,1.1523,1.59,1.7285,2.88,1.7285c1,0,2.05-.3272,3.15-.9815v1.3477c-1.02.6347-2.08.9521-3.21.9521Zm-.63-15.2343c-1.91,0-2.96,1.9091-3.15,5.7275h6.11c0-1.7481-.27-3.1397-.8-4.1748-.53-1.0352-1.25-1.5527-2.16-1.5527Z" fill="#db3f28"/><path id="derechovoto-s-path12" d="M952.461,61.3516h-8.505v-27.2315c0-2.9622.148-6.3688.444-10.2197-.148.2116-.698.8569-1.65,1.936-.931,1.0791-2.762,3.0152-5.491,5.8081l-4.824-5.2685l12.346-11.4258h7.68v46.4014Zm34.5-26.1841c0,17.8792-5.977,26.8188-17.932,26.8188-1.989,0-3.64-.1692-4.951-.5078v-7.2681c1.438.4655,2.782.6983,4.03.6983c3.534,0,6.211-1.2272,8.03-3.6816c1.841-2.4545,2.857-6.316,3.047-11.5845h-.286c-.677,1.6715-1.65,2.9834-2.92,3.9355-1.248.931-2.74,1.3965-4.475,1.3965-3.152,0-5.596-1.2907-7.331-3.8721-1.735-2.5813-2.603-6.1254-2.603-10.6323c0-4.9512,1.132-8.8761,3.396-11.7749c2.285-2.8988,5.332-4.3481,9.141-4.3481c4.147,0,7.321,1.7879,9.521,5.3637c2.222,3.5759,3.333,8.7281,3.333,15.4566ZM974.17,21.7104c-1.269,0-2.285.6877-3.046,2.063-.741,1.3754-1.111,3.5441-1.111,6.5064c0,2.4333.328,4.3376.984,5.7129.656,1.3541,1.65,2.0312,2.983,2.0312c1.206,0,2.253-.6876,3.142-2.063.889-1.3964,1.333-2.9834,1.333-4.7607c0-2.7507-.391-5.0147-1.174-6.792-.783-1.7985-1.82-2.6978-3.111-2.6978Zm21.043,39.6412l13.017-38.689h-16.191v-7.6489h24.881v5.8398l-12.79,40.4981h-8.917Zm47.517,0h-8.51v-27.2315c0-2.9622.15-6.3688.44-10.2197-.14.2116-.69.8569-1.65,1.936-.93,1.0791-2.76,3.0152-5.49,5.8081l-4.82-5.2685l12.34-11.4258h7.69v46.4014Z" fill="#db3f28"/></g><g id="derechovoto-s-g7" opacity="0"><path id="derechovoto-s-path13" d="M1076.27,96.3516h-7.76v-21.4161h7.76v1.377h-6.33v8.1299h5.98v1.3769h-5.98v9.1553h6.33v1.377Zm4.95,0h-1.39v-22.793h1.39v22.793Zm18.36-5.6104c0,1.7578-.49,3.1836-1.47,4.2774-.97,1.0839-2.21,1.6259-3.72,1.6259-1.71,0-3.08-.249-4.11-.747v-1.5528c.5.2832,1.13.5078,1.89.6739.75.166,1.49.249,2.22.249c1.1,0,1.99-.4151,2.7-1.2451.7-.8301,1.05-1.8848,1.05-3.1641c0-1.1816-.25-2.1191-.74-2.8125-.5-.6934-1.45-1.3867-2.86-2.0801-1.1-.5566-1.93-1.0937-2.48-1.6113-.54-.5274-.95-1.1377-1.21-1.8311-.27-.6933-.4-1.5234-.4-2.4902c0-1.0547.22-1.9922.65-2.8125s1.03-1.4551,1.8-1.9043c.77-.459,1.61-.6885,2.53-.6885.83,0,1.58.0928,2.26.2783.68.1856,1.22.3858,1.61.6006l-.56,1.377c-1.08-.5567-2.18-.835-3.31-.835-1.05,0-1.91.3614-2.58,1.084-.65.7129-.98,1.6602-.98,2.8418c0,1.2012.24,2.1338.72,2.7979s1.42,1.3525,2.81,2.0654c1.45.7031,2.5,1.5283,3.17,2.4756.67.9375,1.01,2.0801,1.01,3.4277Zm9.58,5.6104l-.18-2.2266h-.06c-.76,1.6797-1.91,2.5195-3.45,2.5195-1.04,0-1.87-.4101-2.51-1.2304-.62-.8301-.94-1.9385-.94-3.3252c0-1.5137.46-2.71,1.37-3.5889.9-.8887,2.18-1.3721,3.82-1.4502l1.71-.0879v-1.3183c0-1.4844-.18-2.5635-.55-3.2374-.37-.6835-.99-1.0253-1.85-1.0253-.91,0-1.83.2978-2.78.8935l-.6-1.0986c1.1-.6836,2.26-1.0254,3.47-1.0254c1.31,0,2.25.415,2.83,1.2451.57.8203.86,2.1973.86,4.1309v10.8252h-1.14Zm-3.39-.8936c1,0,1.77-.4883,2.32-1.4648.56-.9864.83-2.378.83-4.1748v-1.6553l-1.65.0879c-1.28.0683-2.23.4248-2.86,1.0693-.61.6348-.92,1.5674-.92,2.7979c0,1.1523.2,1.997.61,2.5341.41.5372.97.8057,1.67.8057Zm10.11.8936h-1.39v-22.793h1.39v22.793Zm6.04,0l-3.75-15.8936h1.4l2.38,10.2246c.27,1.1817.53,2.4707.79,3.8672h.11c.07-.5078.17-1.0742.3-1.6992.12-.625,1.09-4.7559,2.88-12.3926h1.41l-3.87,15.8936h-1.65Zm13.96,0l-.18-2.2266h-.06c-.76,1.6797-1.91,2.5195-3.45,2.5195-1.04,0-1.87-.4101-2.51-1.2304-.62-.8301-.94-1.9385-.94-3.3252c0-1.5137.46-2.71,1.37-3.5889.9-.8887,2.18-1.3721,3.82-1.4502l1.71-.0879v-1.3183c0-1.4844-.18-2.5635-.55-3.2374-.38-.6835-.99-1.0253-1.85-1.0253-.91,0-1.84.2978-2.78.8935l-.6-1.0986c1.1-.6836,2.26-1.0254,3.47-1.0254c1.31,0,2.25.415,2.83,1.2451.57.8203.86,2.1973.86,4.1309v10.8252h-1.14Zm-3.39-.8936c1,0,1.77-.4883,2.32-1.4648.55-.9864.83-2.378.83-4.1748v-1.6553l-1.65.0879c-1.28.0683-2.23.4248-2.86,1.0693-.61.6348-.92,1.5674-.92,2.7979c0,1.1523.2,1.997.61,2.5341.41.5372.97.8057,1.67.8057Zm12.6,1.1865c-3.09,0-4.63-2.7392-4.63-8.2177c0-2.6954.39-4.7461,1.16-6.1524.77-1.416,1.91-2.124,3.41-2.124.72,0,1.39.2051,2.02.6152.65.4102,1.16.9766,1.54,1.6992h.12l-.06-1.7724v-7.1338h1.39v22.793h-1.14l-.12-2.2266h-.13c-.38.8105-.87,1.4355-1.48,1.875-.6.4297-1.3.6445-2.08.6445Zm.09-1.2158c1.11,0,1.97-.5127,2.56-1.5381.61-1.0351.91-2.5537.91-4.5556v-.9082c0-2.4024-.29-4.1602-.88-5.2735-.57-1.123-1.46-1.6845-2.65-1.6845-1.14,0-1.96.6005-2.46,1.8017-.5,1.1914-.75,2.9199-.75,5.1856c0,2.2851.26,4.0185.78,5.2001.52,1.1817,1.35,1.7725,2.49,1.7725Zm18.07-7.0605c0,2.6757-.42,4.7265-1.27,6.1523-.84,1.416-2.05,2.124-3.62,2.124-1.55,0-2.74-.708-3.57-2.124-.82-1.4258-1.23-3.4766-1.23-6.1523c0-5.4786,1.62-8.2178,4.86-8.2178c1.52,0,2.71.7178,3.56,2.1533s1.27,3.457,1.27,6.0645Zm-8.24,0c0,2.2949.27,4.0283.82,5.2002s1.4,1.7578,2.56,1.7578c2.28,0,3.41-2.3194,3.41-6.958c0-4.5996-1.13-6.8994-3.41-6.8994-1.19,0-2.05.5761-2.59,1.7285-.53,1.1523-.79,2.8759-.79,5.1709Zm16.16-8.2178c.49,0,.96.0684,1.39.2051l-.34,1.3916c-.35-.1465-.71-.2198-1.08-.2198-.54,0-1.04.2784-1.51.835-.46.5469-.82,1.3135-1.09,2.2998-.26.9863-.39,2.0752-.39,3.2666v8.4229h-1.39v-15.8936h1.14l.14,2.7832h.11c.74-2.0605,1.75-3.0908,3.02-3.0908Z" fill="#db3f28"/><path id="derechovoto-s-path14" d="M1083.96,61.3516h-8.5v-27.2315c0-2.9622.14-6.3688.44-10.2197-.15.2116-.7.8569-1.65,1.936-.93,1.0791-2.76,3.0152-5.49,5.8081l-4.83-5.2685l12.35-11.4258h7.68v46.4014Zm34.5-26.1841c0,17.8792-5.98,26.8188-17.93,26.8188-1.99,0-3.64-.1692-4.95-.5078v-7.2681c1.44.4655,2.78.6983,4.03.6983c3.53,0,6.21-1.2272,8.03-3.6816c1.84-2.4545,2.85-6.316,3.05-11.5845h-.29c-.68,1.6715-1.65,2.9834-2.92,3.9355-1.25.931-2.74,1.3965-4.48,1.3965-3.15,0-5.59-1.2907-7.33-3.8721-1.73-2.5813-2.6-6.1254-2.6-10.6323c0-4.9512,1.13-8.8761,3.4-11.7749c2.28-2.8988,5.33-4.3481,9.14-4.3481c4.14,0,7.32,1.7879,9.52,5.3637c2.22,3.5759,3.33,8.7281,3.33,15.4566Zm-12.79-13.4571c-1.27,0-2.28.6877-3.05,2.063-.74,1.3754-1.11,3.5441-1.11,6.5064c0,2.4333.33,4.3376.99,5.7129.65,1.3541,1.65,2.0312,2.98,2.0312c1.21,0,2.25-.6876,3.14-2.063.89-1.3964,1.34-2.9834,1.34-4.7607c0-2.7507-.4-5.0147-1.18-6.792-.78-1.7985-1.82-2.6978-3.11-2.6978Zm30.41-7.3632c3.61,0,6.5,1.0262,8.66,3.0786s3.24,4.8454,3.24,8.3789c0,2.1793-.51,4.1577-1.53,5.935-.99,1.7562-2.69,3.4384-5.11,5.0464c2.71,1.9255,4.64,3.9038,5.78,5.9351c1.14,2.0101,1.71,4.2106,1.71,6.6016c0,3.7874-1.16,6.8448-3.49,9.1723-2.32,2.3275-5.41,3.4912-9.26,3.4912-4,0-7.13-1.0685-9.4-3.2055-2.26-2.1582-3.39-5.2263-3.39-9.2041c0-2.6661.56-5.0147,1.68-7.0459c1.14-2.0524,2.9-3.8404,5.27-5.3638-2.2-1.7562-3.78-3.523-4.73-5.3003-.93-1.7985-1.4-3.8192-1.4-6.062c0-3.4701,1.11-6.2419,3.33-8.3154c2.25-2.0948,5.12-3.1421,8.64-3.1421Zm-4.61,34.7851c0,1.862.38,3.3431,1.15,4.4434.78,1.1002,1.89,1.6504,3.33,1.6504c1.56,0,2.73-.5502,3.49-1.6504.78-1.1003,1.17-2.5814,1.17-4.4434c0-1.333-.3-2.5919-.92-3.7768-.61-1.1849-1.79-2.5497-3.55-4.0943l-.45-.4443c-1.37,1.0156-2.42,2.1794-3.14,3.4912-.72,1.2907-1.08,2.8988-1.08,4.8242Zm4.54-28.0884c-1.2,0-2.11.4444-2.73,1.3331-.61.8675-.92,2.1158-.92,3.7451c0,1.3965.26,2.6131.76,3.6499.51,1.0368,1.5,2.137,2.96,3.3008c1.39-1.0791,2.34-2.1582,2.85-3.2374.53-1.0791.8-2.3168.8-3.7133c0-3.3854-1.24-5.0782-3.72-5.0782Zm41.39,4.3482c0,2.9199-.72,5.3743-2.16,7.3633-1.44,1.9677-3.47,3.3325-6.09,4.0942v.2539c2.92.4655,5.17,1.6081,6.76,3.4277c1.61,1.8197,2.41,4.2953,2.41,7.4268c0,4.2741-1.33,7.6807-4,10.2197-2.64,2.5391-6.27,3.8086-10.89,3.8086-4.1,0-7.55-.73-10.34-2.1899v-7.7442c1.39.8464,2.91,1.5129,4.54,1.9996s3.19.7299,4.69.7299c2.46,0,4.31-.5607,5.56-1.6821c1.25-1.1426,1.87-2.9411,1.87-5.3955c0-4.6338-2.85-6.9507-8.54-6.9507h-2.63v-6.4429h2.51c2.51,0,4.44-.5924,5.77-1.7773c1.36-1.1849,2.03-2.9517,2.03-5.3003c0-1.8408-.43-3.2267-1.3-4.1577-.84-.9522-2.05-1.4282-3.62-1.4282-2.39,0-4.71,1.0156-6.98,3.0468l-3.9-5.7128c3.13-3.1316,7.08-4.6973,11.84-4.6973c3.91,0,6.97.9945,9.17,2.9834c2.2,1.9678,3.3,4.6761,3.3,8.125Z" fill="#db3f28"/></g><g id="derechovoto-s-g8" transform="translate(0 0.000001)" opacity="0"><path id="derechovoto-s-path15" d="M1242.29,81.0879c0,2.207-.5,3.8281-1.52,4.8633-1.01,1.0351-2.5,1.5527-4.48,1.5527h-1.53v8.8477h-1.43v-21.4161h2.93c2.09,0,3.62.4932,4.58,1.4795.97.9864,1.45,2.544,1.45,4.6729Zm-7.53,5.0976h1.44c1.68,0,2.87-.3955,3.57-1.1865.71-.791,1.06-2.0947,1.06-3.9111c0-1.7285-.37-2.9639-1.1-3.7061-.72-.7519-1.85-1.1279-3.37-1.1279h-1.6v9.9316Zm15.17,10.459c-1.68,0-2.98-.7129-3.89-2.1386-.89-1.4356-1.34-3.4327-1.34-5.9913c0-2.7148.4-4.7851,1.2-6.2109.81-1.4355,1.97-2.1533,3.48-2.1533c1.32,0,2.36.6299,3.12,1.8896.77,1.25,1.15,2.9395,1.15,5.0684v1.2891h-7.53c.02,2.3144.34,4.0478.98,5.2002.63,1.1523,1.6,1.7285,2.88,1.7285c1,0,2.05-.3272,3.15-.9815v1.3477c-1.01.6347-2.08.9521-3.2.9521Zm-.63-15.2343c-1.92,0-2.97,1.9091-3.15,5.7275h6.1c0-1.7481-.26-3.1397-.8-4.1748-.53-1.0352-1.25-1.5527-2.15-1.5527Zm12.3-1.2598c.5,0,.96.0684,1.39.2051l-.33,1.3916c-.36-.1465-.72-.2198-1.09-.2198-.54,0-1.04.2784-1.51.835-.46.5469-.82,1.3135-1.08,2.2998-.27.9863-.4,2.0752-.4,3.2666v8.4229h-1.39v-15.8936h1.14l.15,2.7832h.1c.75-2.0605,1.75-3.0908,3.02-3.0908Zm5.13.3076v10.3711c0,1.5723.18,2.7197.55,3.4424.39.7226.97,1.084,1.75,1.084c1.2,0,2.08-.4834,2.63-1.4502.57-.9766.85-2.5489.85-4.7168v-8.7305h1.38v15.8936h-1.17l-.18-2.2266h-.11c-.35.8105-.82,1.4355-1.43,1.875-.6.4297-1.26.6445-1.97.6445-1.28,0-2.22-.4541-2.82-1.3623-.58-.9082-.87-2.3926-.87-4.4531v-10.3711h1.39Zm1.68-2.2851v-.3077c1.24-1.6211,2.17-3.1201,2.8-4.497h1.83v.249c-.38.6836-.96,1.4697-1.74,2.3584-.77.8887-1.51,1.6211-2.2,2.1973h-.69Z" fill="#db3f28"/><path id="derechovoto-s-path16" d="M1216.46,61.3516h-8.5v-27.2315c0-2.9622.14-6.3688.44-10.2197-.15.2116-.7.8569-1.65,1.936-.93,1.0791-2.76,3.0152-5.49,5.8081l-4.83-5.2685l12.35-11.4258h7.68v46.4014Zm34.5-26.1841c0,17.8792-5.98,26.8188-17.93,26.8188-1.99,0-3.64-.1692-4.95-.5078v-7.2681c1.44.4655,2.78.6983,4.03.6983c3.53,0,6.21-1.2272,8.03-3.6816c1.84-2.4545,2.85-6.316,3.05-11.5845h-.29c-.68,1.6715-1.65,2.9834-2.92,3.9355-1.25.931-2.74,1.3965-4.48,1.3965-3.15,0-5.59-1.2907-7.33-3.8721-1.73-2.5813-2.6-6.1254-2.6-10.6323c0-4.9512,1.13-8.8761,3.4-11.7749c2.28-2.8988,5.33-4.3481,9.14-4.3481c4.14,0,7.32,1.7879,9.52,5.3637c2.22,3.5759,3.33,8.7281,3.33,15.4566Zm-12.79-13.4571c-1.27,0-2.28.6877-3.05,2.063-.74,1.3754-1.11,3.5441-1.11,6.5064c0,2.4333.33,4.3376.99,5.7129.65,1.3541,1.65,2.0312,2.98,2.0312c1.21,0,2.25-.6876,3.14-2.063.89-1.3964,1.34-2.9834,1.34-4.7607c0-2.7507-.4-5.0147-1.18-6.792-.78-1.7985-1.82-2.6978-3.11-2.6978Zm42.88,13.4571c0,17.8792-5.98,26.8188-17.93,26.8188-1.99,0-3.64-.1692-4.95-.5078v-7.2681c1.43.4655,2.78.6983,4.03.6983c3.53,0,6.21-1.2272,8.03-3.6816c1.84-2.4545,2.85-6.316,3.04-11.5845h-.28c-.68,1.6715-1.65,2.9834-2.92,3.9355-1.25.931-2.74,1.3965-4.48,1.3965-3.15,0-5.59-1.2907-7.33-3.8721-1.73-2.5813-2.6-6.1254-2.6-10.6323c0-4.9512,1.13-8.8761,3.39-11.7749c2.29-2.8988,5.34-4.3481,9.14-4.3481c4.15,0,7.33,1.7879,9.53,5.3637c2.22,3.5759,3.33,8.7281,3.33,15.4566Zm-12.79-13.4571c-1.27,0-2.29.6877-3.05,2.063-.74,1.3754-1.11,3.5441-1.11,6.5064c0,2.4333.33,4.3376.98,5.7129.66,1.3541,1.65,2.0312,2.99,2.0312c1.2,0,2.25-.6876,3.14-2.063.89-1.3964,1.33-2.9834,1.33-4.7607c0-2.7507-.39-5.0147-1.17-6.792-.78-1.7985-1.82-2.6978-3.11-2.6978Zm38.47,39.6412h-8.51v-27.2315c0-2.9622.15-6.3688.44-10.2197-.14.2116-.69.8569-1.65,1.936-.93,1.0791-2.76,3.0152-5.49,5.8081l-4.82-5.2685l12.34-11.4258h7.69v46.4014Z" fill="#db3f28"/></g><g id="derechovoto-s-g9" transform="translate(0 0.000001)" opacity="0"><path id="derechovoto-s-path17" d="M421.916,74.9355h1.48l-5.069,21.4161h-1.597l-5.039-21.4161h1.495l3.486,15.0586c.273,1.1524.454,2.002.542,2.5489.088.5371.176,1.2158.264,2.0361.078-.5664.161-1.123.249-1.6699.087-.5469.17-1.0059.249-1.377.087-.3808,1.401-5.9131,3.94-16.5967Zm8.13,21.709c-1.68,0-2.974-.7129-3.882-2.1386-.898-1.4356-1.348-3.4327-1.348-5.9913c0-2.7148.401-4.7851,1.202-6.2109.81-1.4355,1.972-2.1533,3.486-2.1533c1.318,0,2.358.6299,3.12,1.8896.762,1.25,1.143,2.9395,1.143,5.0684v1.2891h-7.53c.02,2.3144.347,4.0478.982,5.2002.635,1.1523,1.596,1.7285,2.885,1.7285.997,0,2.046-.3272,3.15-.9815v1.3477c-1.016.6347-2.085.9521-3.208.9521Zm-.63-15.2343c-1.914,0-2.964,1.9091-3.149,5.7275h6.108c0-1.7481-.269-3.1397-.806-4.1748-.527-1.0352-1.245-1.5527-2.153-1.5527Zm15.073,14.9414v-10.9571c0-2.6367-.781-3.955-2.343-3.955-1.192,0-2.066.4931-2.623,1.4794-.546.9864-.82,2.5538-.82,4.7022v8.7305h-1.391v-15.8936h1.171l.118,2.2119h.131c.332-.8008.811-1.4209,1.436-1.8603.625-.4395,1.294-.6592,2.007-.6592c1.23,0,2.153.415,2.768,1.2451.616.8203.923,2.1436.923,3.9697v10.9864h-1.377Zm10.078.2929c-1.679,0-2.973-.7129-3.881-2.1386-.899-1.4356-1.348-3.4327-1.348-5.9913c0-2.7148.4-4.7851,1.201-6.2109.811-1.4355,1.973-2.1533,3.486-2.1533c1.319,0,2.359.6299,3.121,1.8896.761,1.25,1.142,2.9395,1.142,5.0684v1.2891h-7.529c.019,2.3144.346,4.0478.981,5.2002.635,1.1523,1.597,1.7285,2.886,1.7285.996,0,2.046-.3272,3.149-.9815v1.3477c-1.015.6347-2.085.9521-3.208.9521Zm-.629-15.2343c-1.915,0-2.964,1.9091-3.15,5.7275h6.108c0-1.7481-.268-3.1397-.805-4.1748-.528-1.0352-1.245-1.5527-2.153-1.5527Zm13.007,14.9414h-6.372v-1.1133l4.688-13.5498h-4.38v-1.2305h5.845v1.1279l-4.673,13.5352h4.892v1.2305Zm4.16-15.8936v10.3711c0,1.5723.186,2.7197.557,3.4424.381.7226.962,1.084,1.743,1.084c1.201,0,2.08-.4834,2.637-1.4502.566-.9766.85-2.5489.85-4.7168v-8.7305h1.377v15.8936h-1.172l-.176-2.2266h-.117c-.342.8105-.816,1.4355-1.421,1.875-.606.4297-1.265.6445-1.978.6445-1.279,0-2.217-.4541-2.812-1.3623-.586-.9082-.879-2.3926-.879-4.4531v-10.3711h1.391Zm15.923,16.1865c-1.679,0-2.973-.7129-3.882-2.1386-.898-1.4356-1.347-3.4327-1.347-5.9913c0-2.7148.4-4.7851,1.201-6.2109.811-1.4355,1.973-2.1533,3.486-2.1533c1.319,0,2.359.6299,3.12,1.8896.762,1.25,1.143,2.9395,1.143,5.0684v1.2891h-7.529c.019,2.3144.346,4.0478.981,5.2002.635,1.1523,1.597,1.7285,2.886,1.7285.996,0,2.046-.3272,3.149-.9815v1.3477c-1.015.6347-2.085.9521-3.208.9521Zm-.63-15.2343c-1.914,0-2.963,1.9091-3.149,5.7275h6.108c0-1.7481-.268-3.1397-.805-4.1748-.528-1.0352-1.245-1.5527-2.154-1.5527Zm9.288,14.9414h-1.392v-22.793h1.392v22.793Zm10.415,0l-.176-2.2266h-.059c-.762,1.6797-1.914,2.5195-3.457,2.5195-1.035,0-1.87-.4101-2.505-1.2304-.625-.8301-.937-1.9385-.937-3.3252c0-1.5137.454-2.71,1.362-3.5889.908-.8887,2.183-1.3721,3.823-1.4502l1.714-.0879v-1.3183c0-1.4844-.185-2.5635-.556-3.2374-.372-.6835-.987-1.0253-1.846-1.0253-.908,0-1.836.2978-2.783.8935l-.601-1.0986c1.104-.6836,2.261-1.0254,3.472-1.0254c1.308,0,2.251.415,2.827,1.2451.576.8203.864,2.1973.864,4.1309v10.8252h-1.142Zm-3.384-.8936c.996,0,1.767-.4883,2.314-1.4648.557-.9864.835-2.378.835-4.1748v-1.6553l-1.655.0879c-1.279.0683-2.232.4248-2.857,1.0693-.615.6348-.922,1.5674-.922,2.7979c0,1.1523.205,1.997.615,2.5341.41.5372.967.8057,1.67.8057Zm-71.529,33.894h-7.763v-21.416h7.763v1.376h-6.328v8.13h5.977v1.377h-5.977v9.156h6.328v1.377Zm7.647.293c-1.592,0-2.793-.689-3.604-2.066-.8-1.387-1.201-3.418-1.201-6.094c0-2.714.406-4.78,1.216-6.196.82-1.426,2.026-2.139,3.618-2.139.987,0,1.807.181,2.461.542l-.542,1.231c-.654-.303-1.255-.454-1.802-.454-2.334,0-3.501,2.329-3.501,6.987c0,4.619,1.167,6.929,3.501,6.929.694,0,1.446-.156,2.256-.469v1.172c-.322.176-.717.312-1.186.41s-.874.147-1.216.147Zm6.562-16.187v10.371c0,1.572.186,2.72.557,3.442.381.723.962,1.084,1.743,1.084c1.201,0,2.08-.483,2.637-1.45.566-.976.85-2.549.85-4.717v-8.73h1.377v15.894h-1.172l-.176-2.227h-.117c-.342.811-.816,1.436-1.421,1.875-.606.43-1.265.645-1.978.645-1.279,0-2.217-.455-2.812-1.363-.586-.908-.879-2.392-.879-4.453v-10.371h1.391Zm17.564,15.894l-.176-2.227h-.058c-.762,1.68-1.915,2.52-3.457,2.52-1.036,0-1.871-.411-2.505-1.231-.625-.83-.938-1.938-.938-3.325c0-1.514.454-2.71,1.362-3.589.909-.889,2.183-1.372,3.824-1.45l1.714-.088v-1.318c0-1.485-.186-2.564-.557-3.238-.371-.683-.986-1.025-1.846-1.025-.908,0-1.836.298-2.783.893l-.601-1.098c1.104-.684,2.261-1.026,3.472-1.026c1.309,0,2.251.415,2.827,1.246.576.82.865,2.197.865,4.13v10.826h-1.143Zm-3.384-.894c.996,0,1.768-.488,2.315-1.465.556-.986.835-2.378.835-4.175v-1.655l-1.656.088c-1.279.068-2.231.425-2.856,1.069-.615.635-.923,1.568-.923,2.798c0,1.153.205,1.997.615,2.534s.967.806,1.67.806Zm12.598,1.187c-3.086,0-4.629-2.74-4.629-8.218c0-2.696.386-4.746,1.157-6.153.772-1.416,1.909-2.124,3.413-2.124.713,0,1.387.205,2.022.616.644.41,1.157.976,1.538,1.699h.117l-.059-1.773v-7.133h1.392v22.793h-1.143l-.117-2.227h-.132c-.38.811-.874,1.436-1.479,1.875-.606.43-1.299.645-2.08.645Zm.088-1.216c1.113,0,1.967-.513,2.563-1.538.606-1.036.908-2.554.908-4.556v-.908c0-2.403-.293-4.16-.879-5.274-.576-1.123-1.459-1.684-2.651-1.684-1.142,0-1.963.6-2.461,1.802-.498,1.191-.747,2.919-.747,5.185c0,2.285.259,4.019.776,5.2.518,1.182,1.348,1.773,2.491,1.773Zm18.076-7.061c0,2.676-.425,4.727-1.275,6.153-.839,1.416-2.045,2.124-3.618,2.124-1.552,0-2.744-.708-3.574-2.124-.82-1.426-1.23-3.477-1.23-6.153c0-5.478,1.621-8.218,4.863-8.218c1.523,0,2.71.718,3.559,2.154.85,1.435,1.275,3.457,1.275,6.064Zm-8.247,0c0,2.295.273,4.028.82,5.2s1.401,1.758,2.564,1.758c2.275,0,3.413-2.319,3.413-6.958c0-4.599-1.138-6.899-3.413-6.899-1.192,0-2.056.576-2.593,1.728-.528,1.153-.791,2.876-.791,5.171Zm16.157-8.218c.498,0,.962.069,1.392.205l-.337,1.392c-.352-.146-.713-.22-1.084-.22-.537,0-1.04.279-1.509.835-.459.547-.82,1.314-1.084,2.3s-.396,2.075-.396,3.267v8.423h-1.391v-15.894h1.142l.147,2.783h.102c.743-2.06,1.748-3.091,3.018-3.091Z" fill="#db3f28"/><path id="derechovoto-s-path18" d="M422.961,61.3516h-8.505v-27.2315c0-2.9622.148-6.3688.444-10.2197-.148.2116-.698.8569-1.65,1.936-.931,1.0791-2.762,3.0152-5.491,5.8081l-4.824-5.2685l12.346-11.4258h7.68v46.4014Zm34.5-26.1841c0,17.8792-5.977,26.8188-17.932,26.8188-1.989,0-3.64-.1692-4.951-.5078v-7.2681c1.438.4655,2.782.6983,4.03.6983c3.534,0,6.211-1.2272,8.03-3.6816c1.841-2.4545,2.857-6.316,3.047-11.5845h-.286c-.677,1.6715-1.65,2.9834-2.92,3.9355-1.248.931-2.74,1.3965-4.475,1.3965-3.152,0-5.596-1.2907-7.331-3.8721-1.735-2.5813-2.603-6.1254-2.603-10.6323c0-4.9512,1.132-8.8761,3.396-11.7749c2.285-2.8988,5.332-4.3481,9.141-4.3481c4.147,0,7.321,1.7879,9.521,5.3637c2.222,3.5759,3.333,8.7281,3.333,15.4566ZM444.67,21.7104c-1.269,0-2.285.6877-3.046,2.063-.741,1.3754-1.111,3.5441-1.111,6.5064c0,2.4333.328,4.3376.984,5.7129.656,1.3541,1.65,2.0312,2.983,2.0312c1.206,0,2.253-.6876,3.142-2.063.889-1.3964,1.333-2.9834,1.333-4.7607c0-2.7507-.391-5.0147-1.174-6.792-.783-1.7985-1.82-2.6978-3.111-2.6978ZM475.869,32.311c3.491,0,6.263,1.2167,8.316,3.6499c2.073,2.4333,3.11,5.7658,3.11,9.9976c0,5.057-1.291,8.9925-3.872,11.8066-2.56,2.8142-6.126,4.2212-10.696,4.2212-4.062,0-7.353-.7723-9.871-2.3169v-8.0615c1.08.7829,2.465,1.4811,4.158,2.0947c1.714.5925,3.301.8887,4.761.8887c4.549,0,6.824-2.6448,6.824-7.9346c0-4.93-2.211-7.395-6.634-7.395-1.756,0-3.618.3386-5.586,1.0156l-2.793-2.0629l1.429-23.2642h19.804v7.7124h-12.409l-.635,10.0293c1.185-.2539,2.55-.3809,4.094-.3809Zm41.45,29.0406h-24.882v-6.4429l8.251-11.6797c2.264-3.2161,3.82-5.5965,4.666-7.1411.846-1.5658,1.471-3.0575,1.873-4.4751.402-1.4388.603-2.9199.603-4.4434c0-1.7773-.402-3.1103-1.206-3.999-.783-.8887-1.81-1.333-3.079-1.333-1.121,0-2.169.2962-3.142.8887s-2.158,1.6609-3.555,3.2055l-4.824-5.0781c2.222-2.5179,4.285-4.2423,6.189-5.1733s3.967-1.3965,6.189-1.3965c3.745,0,6.665,1.1003,8.76,3.3008c2.116,2.2005,3.173,5.2579,3.173,9.1723c0,1.7774-.19,3.4595-.571,5.0464s-.963,3.1844-1.745,4.7925c-.762,1.5869-1.725,3.2479-2.889,4.9829-1.163,1.7139-4.168,5.66-9.013,11.8384v.2539h15.202v7.6807Z" fill="#db3f28"/></g><g id="derechovoto-s-g10" transform="translate(0 0.000001)" opacity="0"><path id="derechovoto-s-path19" d="M156.948,96.3516l-1.889-7.7637h-5.201l-1.86,7.7637h-1.494l5.156-21.4161h1.48l5.273,21.4161h-1.465Zm-2.226-9.2139l-1.89-7.9834c-.195-.8984-.347-1.7481-.454-2.5488-.088.8496-.225,1.6992-.41,2.5488l-1.831,7.9834h4.585Zm10.239-6.9873c.498,0,.962.0684,1.392.2051l-.337,1.3916c-.352-.1465-.713-.2198-1.084-.2198-.537,0-1.04.2784-1.509.835-.459.5469-.82,1.3135-1.084,2.2998s-.396,2.0752-.396,3.2666v8.4229h-1.391v-15.8936h1.142l.147,2.7832h.102c.743-2.0605,1.748-3.0908,3.018-3.0908Zm12.114.3076v.9815l-2.168.249c.293.3808.532.9277.718,1.6406.186.7031.278,1.4258.278,2.168c0,1.5429-.351,2.7929-1.054,3.75-.694.957-1.612,1.4355-2.754,1.4355h-.352l-.307-.0293c-.469.3321-.84.6641-1.114.9961-.263.332-.395.7178-.395,1.1572c0,.4493.176.8008.527,1.0547.352.2442.825.3662,1.421.3662h.996c1.416,0,2.515.3663,3.296,1.0987s1.172,1.792,1.172,3.1787c0,1.5531-.527,2.7831-1.582,3.6911-1.045.908-2.427,1.363-4.146,1.363-1.435,0-2.539-.367-3.31-1.099-.772-.723-1.157-1.768-1.157-3.1348c0-.9961.253-1.8506.761-2.5635.508-.7031,1.304-1.2597,2.388-1.6699-.488-.2148-.884-.5127-1.187-.8936-.293-.3808-.439-.8349-.439-1.3623c0-.4785.156-.9033.469-1.2744.322-.3808.776-.7861,1.362-1.2158-.81-.3711-1.426-.9717-1.846-1.8018-.41-.83-.615-1.8066-.615-2.9296c0-1.6895.357-3.0225,1.069-3.9991.713-.9765,1.69-1.4648,2.93-1.4648.664,0,1.221.1025,1.67.3076h3.369Zm-8.554,18.75c0,1.006.258,1.792.776,2.358.527.567,1.318.85,2.373.85c1.309,0,2.344-.342,3.105-1.025.772-.684,1.158-1.6215,1.158-2.8129c0-.957-.264-1.6992-.791-2.2265-.518-.5176-1.275-.7764-2.271-.7764h-1.025c-.957,0-1.753.332-2.388.9961-.625.6738-.937,1.5527-.937,2.6367Zm.864-13.5644c0,1.2988.239,2.2851.718,2.9589.478.6641,1.113.9961,1.904.9961c1.699,0,2.549-1.3672,2.549-4.1015c0-1.3184-.22-2.3487-.66-3.0909-.429-.7421-1.059-1.1132-1.889-1.1132-.85,0-1.499.3808-1.948,1.1425-.45.7618-.674,1.8311-.674,3.2081Zm14.751,11.0009c-1.68,0-2.974-.7129-3.882-2.1386-.899-1.4356-1.348-3.4327-1.348-5.9913c0-2.7148.401-4.7851,1.201-6.2109.811-1.4355,1.973-2.1533,3.487-2.1533c1.318,0,2.358.6299,3.12,1.8896.762,1.25,1.142,2.9395,1.142,5.0684v1.2891h-7.529c.02,2.3144.347,4.0478.982,5.2002.634,1.1523,1.596,1.7285,2.885,1.7285.996,0,2.046-.3272,3.15-.9815v1.3477c-1.016.6347-2.085.9521-3.208.9521Zm-.63-15.2343c-1.914,0-2.964,1.9091-3.15,5.7275h6.109c0-1.7481-.269-3.1397-.806-4.1748-.527-1.0352-1.245-1.5527-2.153-1.5527Zm15.073,14.9414v-10.9571c0-2.6367-.781-3.955-2.344-3.955-1.191,0-2.065.4931-2.622,1.4794-.547.9864-.82,2.5538-.82,4.7022v8.7305h-1.392v-15.8936h1.172l.117,2.2119h.132c.332-.8008.811-1.4209,1.436-1.8603.625-.4395,1.294-.6592,2.007-.6592c1.23,0,2.153.415,2.768,1.2451.615.8203.923,2.1436.923,3.9697v10.9864h-1.377Zm8.482-.9961c.429,0,.81-.0586,1.142-.1758v1.1719c-.43.1953-.981.2929-1.655.2929-1.641,0-2.461-1.2256-2.461-3.6767v-11.2793h-1.436v-.8203l1.407-.4102.454-3.7793h.967v3.7793h2.519v1.2305h-2.519v10.8838c0,1.0742.117,1.8066.351,2.1972.234.3907.645.586,1.231.586Zm5.068.9961h-1.392v-15.8936h1.392v15.8936Zm-1.597-20.3028c0-.4394.088-.7812.264-1.0254.185-.2441.42-.3662.703-.3662.264,0,.474.1221.63.3662.156.2442.234.586.234,1.0254c0,.42-.078.7569-.234,1.0108-.156.2441-.366.3662-.63.3662-.283,0-.518-.1221-.703-.3662-.176-.2539-.264-.5908-.264-1.0108Zm13.037,20.3028v-10.9571c0-2.6367-.781-3.955-2.343-3.955-1.192,0-2.066.4931-2.622,1.4794-.547.9864-.821,2.5538-.821,4.7022v8.7305h-1.391v-15.8936h1.171l.118,2.2119h.131c.333-.8008.811-1.4209,1.436-1.8603.625-.4395,1.294-.6592,2.007-.6592c1.23,0,2.153.415,2.768,1.2451.616.8203.923,2.1436.923,3.9697v10.9864h-1.377Zm11.719,0l-.176-2.2266h-.058c-.762,1.6797-1.914,2.5195-3.457,2.5195-1.035,0-1.87-.4101-2.505-1.2304-.625-.8301-.938-1.9385-.938-3.3252c0-1.5137.454-2.71,1.363-3.5889.908-.8887,2.182-1.3721,3.823-1.4502l1.714-.0879v-1.3183c0-1.4844-.186-2.5635-.557-3.2374-.371-.6835-.986-1.0253-1.846-1.0253-.908,0-1.836.2978-2.783.8935l-.6-1.0986c1.103-.6836,2.26-1.0254,3.471-1.0254c1.309,0,2.251.415,2.827,1.2451.577.8203.865,2.1973.865,4.1309v10.8252h-1.143Zm-3.384-.8936c.996,0,1.768-.4883,2.315-1.4648.556-.9864.835-2.378.835-4.1748v-1.6553l-1.656.0879c-1.279.0683-2.231.4248-2.856,1.0693-.615.6348-.923,1.5674-.923,2.7979c0,1.1523.205,1.997.615,2.5341.411.5372.967.8057,1.67.8057Z" fill="#db3f28"/><path id="derechovoto-s-path20" d="M154.961,61.3516h-8.505v-27.2315c0-2.9622.148-6.3688.444-10.2197-.148.2116-.698.8569-1.65,1.936-.931,1.0791-2.762,3.0152-5.491,5.8081l-4.824-5.2685l12.346-11.4258h7.68v46.4014Zm34.5-26.1841c0,17.8792-5.977,26.8188-17.932,26.8188-1.989,0-3.64-.1692-4.951-.5078v-7.2681c1.438.4655,2.782.6983,4.03.6983c3.534,0,6.211-1.2272,8.03-3.6816c1.841-2.4545,2.857-6.316,3.047-11.5845h-.286c-.677,1.6715-1.65,2.9834-2.92,3.9355-1.248.931-2.74,1.3965-4.475,1.3965-3.152,0-5.596-1.2907-7.331-3.8721-1.735-2.5813-2.603-6.1254-2.603-10.6323c0-4.9512,1.132-8.8761,3.396-11.7749c2.285-2.8988,5.332-4.3481,9.141-4.3481c4.147,0,7.321,1.7879,9.521,5.3637c2.222,3.5759,3.333,8.7281,3.333,15.4566ZM176.67,21.7104c-1.269,0-2.285.6877-3.046,2.063-.741,1.3754-1.111,3.5441-1.111,6.5064c0,2.4333.328,4.3376.984,5.7129.656,1.3541,1.65,2.0312,2.983,2.0312c1.206,0,2.253-.6876,3.142-2.063.889-1.3964,1.333-2.9834,1.333-4.7607c0-2.7507-.391-5.0147-1.174-6.792-.783-1.7985-1.82-2.6978-3.111-2.6978Zm44.466,29.8975h-4.698v9.7437h-8.125v-9.7437h-15.139v-7.0141l14.029-29.6436h9.235v29.5166h4.698v7.1411Zm-12.823-7.1411v-9.7754l.159-4.3164.222-4.126h-.254c-.74,2.3063-1.544,4.3905-2.412,6.2525l-5.586,11.9653h7.871Zm41.006,16.8848h-24.882v-6.4429l8.251-11.6797c2.264-3.2161,3.82-5.5965,4.666-7.1411.846-1.5658,1.471-3.0575,1.873-4.4751.402-1.4388.603-2.9199.603-4.4434c0-1.7773-.402-3.1103-1.206-3.999-.783-.8887-1.81-1.333-3.079-1.333-1.121,0-2.169.2962-3.142.8887s-2.158,1.6609-3.555,3.2055l-4.824-5.0781c2.222-2.5179,4.285-4.2423,6.189-5.1733s3.967-1.3965,6.189-1.3965c3.745,0,6.665,1.1003,8.76,3.3008c2.116,2.2005,3.173,5.2579,3.173,9.1723c0,1.7774-.19,3.4595-.571,5.0464s-.963,3.1844-1.745,4.7925c-.762,1.5869-1.725,3.2479-2.889,4.9829-1.163,1.7139-4.168,5.66-9.013,11.8384v.2539h15.202v7.6807Z" fill="#db3f28"/></g>
<script><![CDATA[
!function(t,e){"object"==typeof exports&&"undefined"!=typeof module?module.exports=e():"function"==typeof __SVGATOR_DEFINE__&&__SVGATOR_DEFINE__.amd?__SVGATOR_DEFINE__(e):((t="undefined"!=typeof globalThis?globalThis:t||self).__SVGATOR_PLAYER__=t.__SVGATOR_PLAYER__||{},t.__SVGATOR_PLAYER__["91c80d77"]=e())}(this,(function(){"use strict";function t(t,e){var n=Object.keys(t);if(Object.getOwnPropertySymbols){var r=Object.getOwnPropertySymbols(t);e&&(r=r.filter((function(e){return Object.getOwnPropertyDescriptor(t,e).enumerable}))),n.push.apply(n,r)}return n}function e(e){for(var n=1;n<arguments.length;n++){var r=null!=arguments[n]?arguments[n]:{};n%2?t(Object(r),!0).forEach((function(t){u(e,t,r[t])})):Object.getOwnPropertyDescriptors?Object.defineProperties(e,Object.getOwnPropertyDescriptors(r)):t(Object(r)).forEach((function(t){Object.defineProperty(e,t,Object.getOwnPropertyDescriptor(r,t))}))}return e}function n(t){return(n="function"==typeof Symbol&&"symbol"==typeof Symbol.iterator?function(t){return typeof t}:function(t){return t&&"function"==typeof Symbol&&t.constructor===Symbol&&t!==Symbol.prototype?"symbol":typeof t})(t)}function r(t,e){if(!(t instanceof e))throw new TypeError("Cannot call a class as a function")}function i(t,e){for(var n=0;n<e.length;n++){var r=e[n];r.enumerable=r.enumerable||!1,r.configurable=!0,"value"in r&&(r.writable=!0),Object.defineProperty(t,r.key,r)}}function o(t,e,n){return e&&i(t.prototype,e),n&&i(t,n),t}function u(t,e,n){return e in t?Object.defineProperty(t,e,{value:n,enumerable:!0,configurable:!0,writable:!0}):t[e]=n,t}function a(t){return(a=Object.setPrototypeOf?Object.getPrototypeOf:function(t){return t.__proto__||Object.getPrototypeOf(t)})(t)}function l(t,e){return(l=Object.setPrototypeOf||function(t,e){return t.__proto__=e,t})(t,e)}function s(){if("undefined"==typeof Reflect||!Reflect.construct)return!1;if(Reflect.construct.sham)return!1;if("function"==typeof Proxy)return!0;try{return Boolean.prototype.valueOf.call(Reflect.construct(Boolean,[],(function(){}))),!0}catch(t){return!1}}function f(t,e,n){return(f=s()?Reflect.construct:function(t,e,n){var r=[null];r.push.apply(r,e);var i=new(Function.bind.apply(t,r));return n&&l(i,n.prototype),i}).apply(null,arguments)}function c(t,e){if(e&&("object"==typeof e||"function"==typeof e))return e;if(void 0!==e)throw new TypeError("Derived constructors may only return object or undefined");return function(t){if(void 0===t)throw new ReferenceError("this hasn't been initialised - super() hasn't been called");return t}(t)}function h(t,e,n){return(h="undefined"!=typeof Reflect&&Reflect.get?Reflect.get:function(t,e,n){var r=function(t,e){for(;!Object.prototype.hasOwnProperty.call(t,e)&&null!==(t=a(t)););return t}(t,e);if(r){var i=Object.getOwnPropertyDescriptor(r,e);return i.get?i.get.call(n):i.value}})(t,e,n||t)}function v(t){return function(t){if(Array.isArray(t))return d(t)}(t)||function(t){if("undefined"!=typeof Symbol&&null!=t[Symbol.iterator]||null!=t["@@iterator"])return Array.from(t)}(t)||function(t,e){if(!t)return;if("string"==typeof t)return d(t,e);var n=Object.prototype.toString.call(t).slice(8,-1);"Object"===n&&t.constructor&&(n=t.constructor.name);if("Map"===n||"Set"===n)return Array.from(t);if("Arguments"===n||/^(?:Ui|I)nt(?:8|16|32)(?:Clamped)?Array$/.test(n))return d(t,e)}(t)||function(){throw new TypeError("Invalid attempt to spread non-iterable instance.\nIn order to be iterable, non-array objects must have a [Symbol.iterator]() method.")}()}function d(t,e){(null==e||e>t.length)&&(e=t.length);for(var n=0,r=new Array(e);n<e;n++)r[n]=t[n];return r}function y(t,e,n){if(Number.isInteger(t))return t;var r=Math.pow(10,e);return Math[n]((+t+Number.EPSILON)*r)/r}Number.isInteger||(Number.isInteger=function(t){return"number"==typeof t&&isFinite(t)&&Math.floor(t)===t}),Number.EPSILON||(Number.EPSILON=2220446049250313e-31);var g=p(Math.pow(10,-6));function p(t){var e=arguments.length>1&&void 0!==arguments[1]?arguments[1]:6;return y(t,e,"round")}function m(t,e){var n=arguments.length>2&&void 0!==arguments[2]?arguments[2]:g;return Math.abs(t-e)<n}p(Math.pow(10,-2)),p(Math.pow(10,-4));var b=Math.PI/180;function w(t){return t}function k(t,e,n){var r=1-n;return 3*n*r*(t*r+e*n)+n*n*n}function _(){var t=arguments.length>0&&void 0!==arguments[0]?arguments[0]:0,e=arguments.length>1&&void 0!==arguments[1]?arguments[1]:0,n=arguments.length>2&&void 0!==arguments[2]?arguments[2]:1,r=arguments.length>3&&void 0!==arguments[3]?arguments[3]:1;return t<0||t>1||n<0||n>1?null:m(t,e)&&m(n,r)?w:function(i){if(i<=0)return t>0?i*e/t:0===e&&n>0?i*r/n:0;if(i>=1)return n<1?1+(i-1)*(r-1)/(n-1):1===n&&t<1?1+(i-1)*(e-1)/(t-1):1;for(var o,u=0,a=1;u<a;){var l=k(t,n,o=(u+a)/2);if(m(i,l))break;l<i?u=o:a=o}return k(e,r,o)}}function A(){return 1}function x(t){return 1===t?1:0}function O(){var t=arguments.length>0&&void 0!==arguments[0]?arguments[0]:1,e=arguments.length>1&&void 0!==arguments[1]?arguments[1]:0;if(1===t){if(0===e)return x;if(1===e)return A}var n=1/t;return function(t){return t>=1?1:(t+=e*n)-t%n}}var S=Math.sin,E=Math.cos,j=Math.acos,M=Math.asin,P=Math.tan,B=Math.atan2,I=Math.PI/180,T=180/Math.PI,N=Math.sqrt,R=function(){function t(){var e=arguments.length>0&&void 0!==arguments[0]?arguments[0]:1,n=arguments.length>1&&void 0!==arguments[1]?arguments[1]:0,i=arguments.length>2&&void 0!==arguments[2]?arguments[2]:0,o=arguments.length>3&&void 0!==arguments[3]?arguments[3]:1,u=arguments.length>4&&void 0!==arguments[4]?arguments[4]:0,a=arguments.length>5&&void 0!==arguments[5]?arguments[5]:0;r(this,t),this.m=[e,n,i,o,u,a],this.i=null,this.w=null,this.s=null}return o(t,[{key:"determinant",get:function(){var t=this.m;return t[0]*t[3]-t[1]*t[2]}},{key:"isIdentity",get:function(){if(null===this.i){var t=this.m;this.i=1===t[0]&&0===t[1]&&0===t[2]&&1===t[3]&&0===t[4]&&0===t[5]}return this.i}},{key:"point",value:function(t,e){var n=this.m;return{x:n[0]*t+n[2]*e+n[4],y:n[1]*t+n[3]*e+n[5]}}},{key:"translateSelf",value:function(){var t=arguments.length>0&&void 0!==arguments[0]?arguments[0]:0,e=arguments.length>1&&void 0!==arguments[1]?arguments[1]:0;if(!t&&!e)return this;var n=this.m;return n[4]+=n[0]*t+n[2]*e,n[5]+=n[1]*t+n[3]*e,this.w=this.s=this.i=null,this}},{key:"rotateSelf",value:function(){var t=arguments.length>0&&void 0!==arguments[0]?arguments[0]:0;if(t%=360){var e=S(t*=I),n=E(t),r=this.m,i=r[0],o=r[1];r[0]=i*n+r[2]*e,r[1]=o*n+r[3]*e,r[2]=r[2]*n-i*e,r[3]=r[3]*n-o*e,this.w=this.s=this.i=null}return this}},{key:"scaleSelf",value:function(){var t=arguments.length>0&&void 0!==arguments[0]?arguments[0]:1,e=arguments.length>1&&void 0!==arguments[1]?arguments[1]:1;if(1!==t||1!==e){var n=this.m;n[0]*=t,n[1]*=t,n[2]*=e,n[3]*=e,this.w=this.s=this.i=null}return this}},{key:"skewSelf",value:function(t,e){if(e%=360,(t%=360)||e){var n=this.m,r=n[0],i=n[1],o=n[2],u=n[3];t&&(t=P(t*I),n[2]+=r*t,n[3]+=i*t),e&&(e=P(e*I),n[0]+=o*e,n[1]+=u*e),this.w=this.s=this.i=null}return this}},{key:"resetSelf",value:function(){var t=arguments.length>0&&void 0!==arguments[0]?arguments[0]:1,e=arguments.length>1&&void 0!==arguments[1]?arguments[1]:0,n=arguments.length>2&&void 0!==arguments[2]?arguments[2]:0,r=arguments.length>3&&void 0!==arguments[3]?arguments[3]:1,i=arguments.length>4&&void 0!==arguments[4]?arguments[4]:0,o=arguments.length>5&&void 0!==arguments[5]?arguments[5]:0,u=this.m;return u[0]=t,u[1]=e,u[2]=n,u[3]=r,u[4]=i,u[5]=o,this.w=this.s=this.i=null,this}},{key:"recomposeSelf",value:function(){var t=arguments.length>0&&void 0!==arguments[0]?arguments[0]:null,e=arguments.length>1&&void 0!==arguments[1]?arguments[1]:null,n=arguments.length>2&&void 0!==arguments[2]?arguments[2]:null,r=arguments.length>3&&void 0!==arguments[3]?arguments[3]:null,i=arguments.length>4&&void 0!==arguments[4]?arguments[4]:null;return this.isIdentity||this.resetSelf(),t&&(t.x||t.y)&&this.translateSelf(t.x,t.y),e&&this.rotateSelf(e),n&&(n.x&&this.skewSelf(n.x,0),n.y&&this.skewSelf(0,n.y)),!r||1===r.x&&1===r.y||this.scaleSelf(r.x,r.y),i&&(i.x||i.y)&&this.translateSelf(i.x,i.y),this}},{key:"decompose",value:function(){var t=arguments.length>0&&void 0!==arguments[0]?arguments[0]:0,e=arguments.length>1&&void 0!==arguments[1]?arguments[1]:0,n=this.m,r=n[0]*n[0]+n[1]*n[1],i=[[n[0],n[1]],[n[2],n[3]]],o=N(r);if(0===o)return{origin:{x:p(n[4]),y:p(n[5])},translate:{x:p(t),y:p(e)},scale:{x:0,y:0},skew:{x:0,y:0},rotate:0};i[0][0]/=o,i[0][1]/=o;var u=n[0]*n[3]-n[1]*n[2]<0;u&&(o=-o);var a=i[0][0]*i[1][0]+i[0][1]*i[1][1];i[1][0]-=i[0][0]*a,i[1][1]-=i[0][1]*a;var l=N(i[1][0]*i[1][0]+i[1][1]*i[1][1]);if(0===l)return{origin:{x:p(n[4]),y:p(n[5])},translate:{x:p(t),y:p(e)},scale:{x:p(o),y:0},skew:{x:0,y:0},rotate:0};i[1][0]/=l,i[1][1]/=l,a/=l;var s=0;return i[1][1]<0?(s=j(i[1][1])*T,i[0][1]<0&&(s=360-s)):s=M(i[0][1])*T,u&&(s=-s),a=B(a,N(i[0][0]*i[0][0]+i[0][1]*i[0][1]))*T,u&&(a=-a),{origin:{x:p(n[4]),y:p(n[5])},translate:{x:p(t),y:p(e)},scale:{x:p(o),y:p(l)},skew:{x:p(a),y:0},rotate:p(s)}}},{key:"clone",value:function(){var t=this.m;return new this.constructor(t[0],t[1],t[2],t[3],t[4],t[5])}},{key:"toString",value:function(){var t=arguments.length>0&&void 0!==arguments[0]?arguments[0]:" ";if(null===this.s){var e=this.m.map((function(t){return p(t)}));1===e[0]&&0===e[1]&&0===e[2]&&1===e[3]?this.s="translate("+e[4]+t+e[5]+")":this.s="matrix("+e.join(t)+")"}return this.s}}],[{key:"create",value:function(t){return t?Array.isArray(t)?f(this,v(t)):t instanceof this?t.clone():(new this).recomposeSelf(t.origin,t.rotate,t.skew,t.scale,t.translate):new this}}]),t}();function F(t,e,n){return t>=.5?n:e}function D(t,e,n){return 0===t||e===n?e:t*(n-e)+e}function C(t,e,n){var r=D(t,e,n);return r<=0?0:r}function q(t,e,n){var r=D(t,e,n);return r<=0?0:r>=1?1:r}function L(t,e,n){return 0===t?e:1===t?n:{x:D(t,e.x,n.x),y:D(t,e.y,n.y)}}function V(t,e,n){return 0===t?e:1===t?n:{x:C(t,e.x,n.x),y:C(t,e.y,n.y)}}function G(t,e,n){var r=function(t,e,n){return Math.round(D(t,e,n))}(t,e,n);return r<=0?0:r>=255?255:r}function z(t,e,n){return 0===t?e:1===t?n:{r:G(t,e.r,n.r),g:G(t,e.g,n.g),b:G(t,e.b,n.b),a:D(t,null==e.a?1:e.a,null==n.a?1:n.a)}}function Y(t,e,n){var r=e.length;if(r!==n.length)return F(t,e,n);for(var i=new Array(r),o=0;o<r;o++)i[o]=D(t,e[o],n[o]);return i}function U(t,e){for(var n=[],r=0;r<t;r++)n.push(e);return n}function W(t,e){if(--e<=0)return t;var n=(t=Object.assign([],t)).length;do{for(var r=0;r<n;r++)t.push(t[r])}while(--e>0);return t}var $,H=function(){function t(e){r(this,t),this.list=e,this.length=e.length}return o(t,[{key:"setAttribute",value:function(t,e){for(var n=this.list,r=0;r<this.length;r++)n[r].setAttribute(t,e)}},{key:"removeAttribute",value:function(t){for(var e=this.list,n=0;n<this.length;n++)e[n].removeAttribute(t)}},{key:"style",value:function(t,e){for(var n=this.list,r=0;r<this.length;r++)n[r].style[t]=e}}]),t}(),Q=/-./g,X=function(t,e){return e.toUpperCase()};function J(t){return"function"==typeof t?t:F}function K(t){return t?"function"==typeof t?t:Array.isArray(t)?function(t){var e=arguments.length>1&&void 0!==arguments[1]?arguments[1]:w;if(!Array.isArray(t))return e;switch(t.length){case 1:return O(t[0])||e;case 2:return O(t[0],t[1])||e;case 4:return _(t[0],t[1],t[2],t[3])||e}return e}(t,null):function(t,e){var n=arguments.length>2&&void 0!==arguments[2]?arguments[2]:w;switch(t){case"linear":return w;case"steps":return O(e.steps||1,e.jump||0)||n;case"bezier":case"cubic-bezier":return _(e.x1||0,e.y1||0,e.x2||0,e.y2||0)||n}return n}(t.type,t.value,null):null}function Z(t,e,n){var r=arguments.length>3&&void 0!==arguments[3]&&arguments[3],i=e.length-1;if(t<=e[0].t)return r?[0,0,e[0].v]:e[0].v;if(t>=e[i].t)return r?[i,1,e[i].v]:e[i].v;var o,u=e[0],a=null;for(o=1;o<=i;o++){if(!(t>e[o].t)){a=e[o];break}u=e[o]}return null==a?r?[i,1,e[i].v]:e[i].v:u.t===a.t?r?[o,1,a.v]:a.v:(t=(t-u.t)/(a.t-u.t),u.e&&(t=u.e(t)),r?[o,t,n(t,u.v,a.v)]:n(t,u.v,a.v))}function tt(t,e){var n=arguments.length>2&&void 0!==arguments[2]?arguments[2]:null;return t&&t.length?"function"!=typeof e?null:("function"!=typeof n&&(n=null),function(r){var i=Z(r,t,e);return null!=i&&n&&(i=n(i)),i}):null}function et(t,e){return t.t-e.t}function nt(t,e,r,i,o){var u,a="@"===r[0],l="#"===r[0],s=$[r],f=F;switch(a?(u=r.substr(1),r=u.replace(Q,X)):l&&(r=r.substr(1)),n(s)){case"function":if(f=s(i,o,Z,K,r,a,e,t),l)return f;break;case"string":f=tt(i,J(s));break;case"object":if((f=tt(i,J(s.i),s.f))&&"function"==typeof s.u)return s.u(e,f,r,a,t)}return f?function(t,e,n){if(arguments.length>3&&void 0!==arguments[3]&&arguments[3])return t instanceof H?function(r){return t.style(e,n(r))}:function(r){return t.style[e]=n(r)};if(Array.isArray(e)){var r=e.length;return function(i){var o=n(i);if(null==o)for(var u=0;u<r;u++)t[u].removeAttribute(e);else for(var a=0;a<r;a++)t[a].setAttribute(e,o)}}return function(r){var i=n(r);null==i?t.removeAttribute(e):t.setAttribute(e,i)}}(e,r,f,a):null}function rt(t,e,r,i){if(!i||"object"!==n(i))return null;var o=null,u=null;return Array.isArray(i)?u=function(t){if(!t||!t.length)return null;for(var e=0;e<t.length;e++)t[e].e&&(t[e].e=K(t[e].e));return t.sort(et)}(i):(u=i.keys,o=i.data||null),u?nt(t,e,r,u,o):null}function it(t,e,n){if(!n)return null;var r=[];for(var i in n)if(n.hasOwnProperty(i)){var o=rt(t,e,i,n[i]);o&&r.push(o)}return r.length?r:null}function ot(t,e){if(!e.settings.duration||e.settings.duration<0)return null;var n,r,i,o,u,a=function(t,e){if(!e)return null;var n=[];if(Array.isArray(e))for(var r=e.length,i=0;i<r;i++){var o=e[i];if(2===o.length){var u=null;if("string"==typeof o[0])u=t.getElementById(o[0]);else if(Array.isArray(o[0])){u=[];for(var a=0;a<o[0].length;a++)if("string"==typeof o[0][a]){var l=t.getElementById(o[0][a]);l&&u.push(l)}u=u.length?1===u.length?u[0]:new H(u):null}if(u){var s=it(t,u,o[1]);s&&(n=n.concat(s))}}}else for(var f in e)if(e.hasOwnProperty(f)){var c=t.getElementById(f);if(c){var h=it(t,c,e[f]);h&&(n=n.concat(h))}}return n.length?n:null}(t,e.elements);return a?(n=a,r=e.settings,i=r.duration,o=n.length,u=null,function(t,e){var a=r.iterations||1/0,l=(r.alternate&&a%2==0)^r.direction>0?i:0,s=t%i,f=1+(t-s)/i;e*=r.direction,r.alternate&&f%2==0&&(e=-e);var c=!1;if(f>a)s=l,c=!0,-1===r.fill&&(s=r.direction>0?0:i);else if(e<0&&(s=i-s),s===u)return!1;u=s;for(var h=0;h<o;h++)n[h](s);return c}):null}function ut(t,e){for(var n=e.querySelectorAll("svg"),r=0;r<n.length;r++)if(n[r].id===t.root&&!n[r].svgatorAnimation)return n[r].svgatorAnimation=!0,n[r];return null}function at(t){var e=function(t){return t.shadowRoot};return document?Array.from(t.querySelectorAll(":not("+["a","area","audio","br","canvas","circle","datalist","embed","g","head","hr","iframe","img","input","link","object","path","polygon","rect","script","source","style","svg","title","track","video"].join()+")")).filter(e).map(e):[]}function lt(t){var e=arguments.length>1&&void 0!==arguments[1]?arguments[1]:document,n=arguments.length>2&&void 0!==arguments[2]?arguments[2]:0,r=ut(t,e);if(r)return r;if(n>=20)return null;for(var i=at(e),o=0;o<i.length;o++){var u=lt(t,i[o],n+1);if(u)return u}return null}function st(t,e){if($=e,!t||!t.root||!Array.isArray(t.animations))return null;var n=lt(t);if(!n)return null;var r=t.animations.map((function(t){return ot(n,t)})).filter((function(t){return!!t}));return r.length?{svg:n,animations:r,animationSettings:t.animationSettings,options:t.options||void 0}:null}function ft(t){var e=arguments.length>1&&void 0!==arguments[1]?arguments[1]:null,n=arguments.length>2&&void 0!==arguments[2]?arguments[2]:Number,r=arguments.length>3&&void 0!==arguments[3]?arguments[3]:"undefined"!=typeof BigInt&&BigInt,i="0x"+(t.replace(/[^0-9a-fA-F]+/g,"")||27);return e&&r&&n.isSafeInteger&&!n.isSafeInteger(+i)?n(r(i))%e+e:+i}function ct(t,e,n){return!t||!n||e>t.length?t:t.substring(0,e)+ct(t.substring(e+1),n,n)}function ht(t){var e=arguments.length>1&&void 0!==arguments[1]?arguments[1]:27;return!t||t%e?t%e:[0,1].includes(e)?e:ht(t/e,e)}function vt(t,e,n){if(t&&t.length){var r=ft(n),i=ht(r)+5,o=ct(t,ht(r,5),i);return o=o.replace(/\x7c$/g,"==").replace(/\x2f$/g,"="),o=function(t,e,n){var r=+("0x"+t.substring(0,4));t=t.substring(4);for(var i=ft(e,r)%r+n%27,o=[],u=0;u<t.length;u+=2)if("|"!==t[u]){var a=+("0x"+t[u]+t[u+1])-i;o.push(a)}else{var l=+("0x"+t.substring(u+1,u+1+4))-i;u+=3,o.push(l)}return String.fromCharCode.apply(String,o)}(o=(o=atob(o)).replace(/[\x41-\x5A]/g,""),e,r),o=JSON.parse(o)}}var dt=[{key:"alternate",def:!1},{key:"fill",def:1},{key:"iterations",def:0},{key:"direction",def:1},{key:"speed",def:1},{key:"fps",def:100}],yt=function(){function t(e,n){var i=this,o=arguments.length>2&&void 0!==arguments[2]?arguments[2]:null;r(this,t),this._id=0,this._running=!1,this._rollingBack=!1,this._animations=e,this._settings=n,(!o||o<"2022-05-02")&&delete this._settings.speed,dt.forEach((function(t){i._settings[t.key]=i._settings[t.key]||t.def})),this.duration=n.duration,this.offset=n.offset||0,this.rollbackStartOffset=0}return o(t,[{key:"alternate",get:function(){return this._settings.alternate}},{key:"fill",get:function(){return this._settings.fill}},{key:"iterations",get:function(){return this._settings.iterations}},{key:"direction",get:function(){return this._settings.direction}},{key:"speed",get:function(){return this._settings.speed}},{key:"fps",get:function(){return this._settings.fps}},{key:"maxFiniteDuration",get:function(){return this.iterations>0?this.iterations*this.duration:this.duration}},{key:"_apply",value:function(t){for(var e=arguments.length>1&&void 0!==arguments[1]?arguments[1]:{},n=this._animations,r=n.length,i=0,o=0;o<r;o++)e[o]?i++:(e[o]=n[o](t,1),e[o]&&i++);return i}},{key:"_rollback",value:function(t){var e=this,n=1/0,r=null;this.rollbackStartOffset=t,this._rollingBack=!0,this._running=!0;this._id=window.requestAnimationFrame((function i(o){if(e._rollingBack){null==r&&(r=o);var u=Math.round(t-(o-r)*e.speed);if(u>e.duration&&n!==1/0){var a=!!e.alternate&&u/e.duration%2>1,l=u%e.duration;u=(l+=a?e.duration:0)||e.duration}var s=(e.fps?1e3/e.fps:0)*e.speed,f=Math.max(0,u);f<=n-s&&(e.offset=f,n=f,e._apply(f));var c=e.iterations>0&&-1===e.fill&&u>=e.maxFiniteDuration;(u<=0||e.offset<u||c)&&e.stop(),e._id=window.requestAnimationFrame(i)}}))}},{key:"_start",value:function(){var t=this,e=arguments.length>0&&void 0!==arguments[0]?arguments[0]:0,n=-1/0,r=null,i={};this._running=!0;var o=function o(u){null==r&&(r=u);var a=Math.round((u-r)*t.speed+e),l=(t.fps?1e3/t.fps:0)*t.speed;if(a>=n+l&&!t._rollingBack&&(t.offset=a,n=a,t._apply(a,i)===t._animations.length))return void t.pause(!0);t._id=window.requestAnimationFrame(o)};this._id=window.requestAnimationFrame(o)}},{key:"_pause",value:function(){this._id&&window.cancelAnimationFrame(this._id),this._running=!1}},{key:"play",value:function(){if(!this._running)return this._rollingBack?this._rollback(this.offset):this._start(this.offset)}},{key:"stop",value:function(){this._pause(),this.offset=0,this.rollbackStartOffset=0,this._rollingBack=!1,this._apply(0)}},{key:"reachedToEnd",value:function(){return this.iterations>0&&this.offset>=this.iterations*this.duration}},{key:"restart",value:function(){var t=arguments.length>0&&void 0!==arguments[0]&&arguments[0];this.stop(t),this.play(t)}},{key:"pause",value:function(){this._pause()}},{key:"reverse",value:function(){this.direction=-this.direction}}],[{key:"build",value:function(t,e){delete t.animationSettings,t.options=vt(t.options,t.root,"91c80d77"),t.animations.map((function(e){e.settings=vt(e.s,t.root,"91c80d77"),delete e.s,t.animationSettings||(t.animationSettings=e.settings)}));var n=t.version;if(!(t=st(t,e)))return null;var r=t.options||{},i=new this(t.animations,t.animationSettings,n);return{el:t.svg,options:r,player:i}}},{key:"push",value:function(t){return this.build(t)}},{key:"init",value:function(){var t=this,e=window.__SVGATOR_PLAYER__&&window.__SVGATOR_PLAYER__["91c80d77"];Array.isArray(e)&&e.splice(0).forEach((function(e){return t.build(e)}))}}]),t}();!function(){for(var t=0,e=["ms","moz","webkit","o"],n=0;n<e.length&&!window.requestAnimationFrame;++n)window.requestAnimationFrame=window[e[n]+"RequestAnimationFrame"],window.cancelAnimationFrame=window[e[n]+"CancelAnimationFrame"]||window[e[n]+"CancelRequestAnimationFrame"];window.requestAnimationFrame||(window.requestAnimationFrame=function(e){var n=Date.now(),r=Math.max(0,16-(n-t)),i=window.setTimeout((function(){e(n+r)}),r);return t=n+r,i},window.cancelAnimationFrame=window.clearTimeout)}();var gt=function(){function t(e,n,i){r(this,t);var o=function(t){var e,n,r,i=t&&1===(null===(e=t.ownerDocument)||void 0===e||null===(n=e.childNodes)||void 0===n?void 0:n.length)&&window.parent!==window,o={el:t,window:window};if(!i)return o;try{r=window.parent.document}catch(t){return o}return o.window=window.parent,o.el=Array.from(r.querySelectorAll("iframe,object")).filter((function(t){return t.contentWindow===window}))[0]||o.el,o}(e);n=Math.max(1,n||1),n=Math.min(n,100),this.el=o.el,this._handlers=[],this.onThresholdChange=i&&i.call?i:function(){},this.thresholdPercent=n||1,this.currentVisibility=null,this.visibilityCalculator=function(t,e){var n=arguments.length>2&&void 0!==arguments[2]?arguments[2]:n,r=!1,i=null,o=function(){for(var o=0,u=n.innerHeight,a=0,l=n.innerWidth,s=t.parentNode;s instanceof Element;){var f=n.getComputedStyle(s);if("visible"!==f.overflowY||"visible"!==f.overflowX){var c=s.getBoundingClientRect();"visible"!==f.overflowY&&(o=Math.max(o,c.top),u=Math.min(u,c.bottom)),"visible"!==f.overflowX&&(a=Math.max(a,c.left),l=Math.min(l,c.right))}if(s===s.parentNode)break;s=s.parentNode}r=!1;var h=t.getBoundingClientRect(),v=Math.min(h.height,Math.max(0,o-h.top)),d=Math.min(h.height,Math.max(0,h.bottom-u)),y=Math.min(h.width,Math.max(0,a-h.left)),g=Math.min(h.width,Math.max(0,h.right-l)),p=(h.height-v-d)/h.height,m=(h.width-y-g)/h.width,b=Math.round(p*m*100);null!==i&&i===b||(i=b,e(b))};return function(t){r&&clearTimeout(r),r=setTimeout((function(){return o()}),100)}}(this.el,this.onVisibilityUpdate.bind(this),o.window),this.bindScrollWatchers(),this.visibilityCalculator()}return o(t,[{key:"bindScrollWatchers",value:function(){for(var t=this.el.parentNode;t&&(this._handlers.push({element:t,event:"scroll",handler:this.visibilityCalculator}),t.addEventListener("scroll",this.visibilityCalculator),t!==t.parentNode&&t!==document);)t=t.parentNode}},{key:"onVisibilityUpdate",value:function(t){var e=this.currentVisibility>=this.thresholdPercent,n=t>=this.thresholdPercent;if(null===this.currentVisibility||e!==n)return this.currentVisibility=t,void this.onThresholdChange(n);this.currentVisibility=t}},{key:"destruct",value:function(){this._handlers.forEach((function(t){t.element.removeEventListener(t.event,t.handler)}))}}]),t}();function pt(t){return p(t)+""}function mt(t){var e=arguments.length>1&&void 0!==arguments[1]?arguments[1]:" ";return t&&t.length?t.map(pt).join(e):""}function bt(t){return pt(t.x)+","+pt(t.y)}function wt(t){if(!t)return"transparent";if(null==t.a||t.a>=1){var e=function(t){return 1===(t=parseInt(t).toString(16)).length?"0"+t:t},n=function(t){return t.charAt(0)===t.charAt(1)},r=e(t.r),i=e(t.g),o=e(t.b);return n(r)&&n(i)&&n(o)&&(r=r.charAt(0),i=i.charAt(0),o=o.charAt(0)),"#"+r+i+o}return"rgba("+t.r+","+t.g+","+t.b+","+t.a+")"}function kt(t){return t?"url(#"+t+")":"none"}var _t={f:null,i:V,u:function(t,e){return function(n){var r=e(n);t.setAttribute("rx",pt(r.x)),t.setAttribute("ry",pt(r.y))}}},At={f:null,i:function(t,e,n){return 0===t?e:1===t?n:{width:C(t,e.width,n.width),height:C(t,e.height,n.height)}},u:function(t,e){return function(n){var r=e(n);t.setAttribute("width",pt(r.width)),t.setAttribute("height",pt(r.height))}}};Object.freeze({M:2,L:2,Z:0,H:1,V:1,C:6,Q:4,T:2,S:4,A:7});var xt={},Ot=null;function St(t){var e=function(){if(Ot)return Ot;if("object"!==("undefined"==typeof document?"undefined":n(document))||!document.createElementNS)return{};var t=document.createElementNS("http://www.w3.org/2000/svg","svg");return t&&t.style?(t.style.position="absolute",t.style.opacity="0.01",t.style.zIndex="-9999",t.style.left="-9999px",t.style.width="1px",t.style.height="1px",Ot={svg:t}):{}}().svg;if(!e)return function(t){return null};var r=document.createElementNS(e.namespaceURI,"path");r.setAttributeNS(null,"d",t),r.setAttributeNS(null,"fill","none"),r.setAttributeNS(null,"stroke","none"),e.appendChild(r);var i=r.getTotalLength();return function(t){var e=r.getPointAtLength(i*t);return{x:e.x,y:e.y}}}function Et(t){return xt[t]?xt[t]:xt[t]=St(t)}function jt(t,e,n,r){if(!t||!r)return!1;var i=["M",t.x,t.y];if(e&&n&&(i.push("C"),i.push(e.x),i.push(e.y),i.push(n.x),i.push(n.y)),e?!n:n){var o=e||n;i.push("Q"),i.push(o.x),i.push(o.y)}return e||n||i.push("L"),i.push(r.x),i.push(r.y),i.join(" ")}function Mt(t,e,n,r){var i=arguments.length>4&&void 0!==arguments[4]?arguments[4]:1,o=jt(t,e,n,r),u=Et(o);try{return u(i)}catch(t){return null}}function Pt(t,e,n){return t+(e-t)*n}function Bt(t,e,n){var r=arguments.length>3&&void 0!==arguments[3]&&arguments[3],i={x:Pt(t.x,e.x,n),y:Pt(t.y,e.y,n)};return r&&(i.a=It(t,e)),i}function It(t,e){return Math.atan2(e.y-t.y,e.x-t.x)}function Tt(t,e,n,r){var i=1-r;return i*i*t+2*i*r*e+r*r*n}function Nt(t,e,n,r){return 2*(1-r)*(e-t)+2*r*(n-e)}function Rt(t,e,n,r){var i=arguments.length>4&&void 0!==arguments[4]&&arguments[4],o=Mt(t,e,null,n,r);return o||(o={x:Tt(t.x,e.x,n.x,r),y:Tt(t.y,e.y,n.y,r)}),i&&(o.a=Ft(t,e,n,r)),o}function Ft(t,e,n,r){return Math.atan2(Nt(t.y,e.y,n.y,r),Nt(t.x,e.x,n.x,r))}function Dt(t,e,n,r,i){var o=i*i;return i*o*(r-t+3*(e-n))+3*o*(t+n-2*e)+3*i*(e-t)+t}function Ct(t,e,n,r,i){var o=1-i;return 3*(o*o*(e-t)+2*o*i*(n-e)+i*i*(r-n))}function qt(t,e,n,r,i){var o=arguments.length>5&&void 0!==arguments[5]&&arguments[5],u=Mt(t,e,n,r,i);return u||(u={x:Dt(t.x,e.x,n.x,r.x,i),y:Dt(t.y,e.y,n.y,r.y,i)}),o&&(u.a=Lt(t,e,n,r,i)),u}function Lt(t,e,n,r,i){return Math.atan2(Ct(t.y,e.y,n.y,r.y,i),Ct(t.x,e.x,n.x,r.x,i))}function Vt(t,e,n){var r=arguments.length>3&&void 0!==arguments[3]&&arguments[3];if(zt(e)){if(Yt(n))return Rt(e,n.start,n,t,r)}else if(zt(n)){if(Ut(e))return Rt(e,e.end,n,t,r)}else{if(Ut(e))return Yt(n)?qt(e,e.end,n.start,n,t,r):Rt(e,e.end,n,t,r);if(Yt(n))return Rt(e,n.start,n,t,r)}return Bt(e,n,t,r)}function Gt(t,e,n){var r=Vt(t,e,n,!0);return r.a=function(t){return arguments.length>1&&void 0!==arguments[1]&&arguments[1]?t+Math.PI:t}(r.a)/b,r}function zt(t){return!t.type||"corner"===t.type}function Yt(t){return null!=t.start&&!zt(t)}function Ut(t){return null!=t.end&&!zt(t)}var Wt=new R;var $t={f:function(t){return t?t.join(" "):""},i:function(t,e,r){if(0===t)return e;if(1===t)return r;var i=e.length;if(i!==r.length)return F(t,e,r);for(var o,u=new Array(i),a=0;a<i;a++){if((o=n(e[a]))!==n(r[a]))return F(t,e,r);if("number"===o)u[a]=D(t,e[a],r[a]);else{if(e[a]!==r[a])return F(t,e,r);u[a]=e[a]}}return u}},Ht={f:null,i:Y,u:function(t,e){return function(n){var r=e(n);t.setAttribute("x1",pt(r[0])),t.setAttribute("y1",pt(r[1])),t.setAttribute("x2",pt(r[2])),t.setAttribute("y2",pt(r[3]))}}},Qt={f:pt,i:D},Xt={f:pt,i:q},Jt={f:function(t){var e=arguments.length>1&&void 0!==arguments[1]?arguments[1]:" ";return t&&t.length>0&&(t=t.map((function(t){return p(t,4)}))),mt(t,e)},i:function(t,e,n){var r,i,o,u=e.length,a=n.length;if(u!==a)if(0===u)e=U(u=a,0);else if(0===a)a=u,n=U(u,0);else{var l=(o=(r=u)*(i=a)/function(t,e){for(var n;e;)n=e,e=t%e,t=n;return t||1}(r,i))<0?-o:o;e=W(e,Math.floor(l/u)),n=W(n,Math.floor(l/a)),u=a=l}for(var s=[],f=0;f<u;f++)s.push(p(C(t,e[f],n[f])));return s}};function Kt(t,e,n){return t.map((function(t){return function(t,e,n){var r=t.v;if(!r||"g"!==r.t||r.s||!r.v||!r.r)return t;var i=n.getElementById(r.r),o=i&&i.querySelectorAll("stop")||[];return r.s=r.v.map((function(t,e){var n=o[e]&&o[e].getAttribute("offset");return{c:t,o:n=p(parseInt(n)/100)}})),delete r.v,t}(t,0,n)}))}var Zt={gt:"gradientTransform",c:{x:"cx",y:"cy"},rd:"r",f:{x:"x1",y:"y1"},to:{x:"x2",y:"y2"}};function te(t,e,r,i,o,u,a,l){return Kt(t,0,l),e=function(t,e,n){for(var r,i,o,u=t.length-1,a={},l=0;l<=u;l++)(r=t[l]).e&&(r.e=e(r.e)),r.v&&"g"===(i=r.v).t&&i.r&&(o=n.getElementById(i.r))&&(a[i.r]={e:o,s:o.querySelectorAll("stop")});return a}(t,i,l),function(i){var o=r(i,t,ee);if(!o)return"none";if("c"===o.t)return wt(o.v);if("g"===o.t){if(!e[o.r])return kt(o.r);var u=e[o.r];return function(t,e){for(var n=t.s,r=n.length;r<e.length;r++){var i=n[n.length-1].cloneNode();i.id=ie(i.id),t.e.appendChild(i),n=t.s=t.e.querySelectorAll("stop")}for(var o=0,u=n.length,a=e.length-1;o<u;o++)n[o].setAttribute("stop-color",wt(e[Math.min(o,a)].c)),n[o].setAttribute("offset",e[Math.min(o,a)].o)}(u,o.s),Object.keys(Zt).forEach((function(t){if(void 0!==o[t])if("object"!==n(Zt[t])){var e,r="gt"===t?(e=o[t],Array.isArray(e)?"matrix("+e.join(" ")+")":""):o[t],i=Zt[t];u.e.setAttribute(i,r)}else Object.keys(Zt[t]).forEach((function(e){if(void 0!==o[t][e]){var n=o[t][e],r=Zt[t][e];u.e.setAttribute(r,n)}}))})),kt(o.r)}return"none"}}function ee(t,n,r){if(0===t)return n;if(1===t)return r;if(n&&r){var i=n.t;if(i===r.t)switch(n.t){case"c":return{t:i,v:z(t,n.v,r.v)};case"g":if(n.r===r.r){var o={t:i,s:ne(t,n.s,r.s),r:n.r};return n.gt&&r.gt&&(o.gt=Y(t,n.gt,r.gt)),n.c?(o.c=L(t,n.c,r.c),o.rd=C(t,n.rd,r.rd)):n.f&&(o.f=L(t,n.f,r.f),o.to=L(t,n.to,r.to)),o}}if("c"===n.t&&"g"===r.t||"c"===r.t&&"g"===n.t){var u="c"===n.t?n:r,a="g"===n.t?e({},n):e({},r),l=a.s.map((function(t){return{c:u.v,o:t.o}}));return a.s="c"===n.t?ne(t,l,a.s):ne(t,a.s,l),a}}return F(t,n,r)}function ne(t,e,n){if(e.length===n.length)return e.map((function(e,r){return re(t,e,n[r])}));for(var r=Math.max(e.length,n.length),i=[],o=0;o<r;o++){var u=re(t,e[Math.min(o,e.length-1)],n[Math.min(o,n.length-1)]);i.push(u)}return i}function re(t,e,n){return{o:q(t,e.o,n.o||0),c:z(t,e.c,n.c||{})}}function ie(t){return t.replace(/-fill-([0-9]+)$/,(function(t,e){return"-fill-"+(+e+1)}))}function oe(t,e,n){return 0===t?e:1===t?n:{blur:V(t,e.blur,n.blur),offset:L(t,e.offset,n.offset),color:z(t,e.color,n.color)}}var ue={blur:V,brightness:C,contrast:C,"drop-shadow":oe,"inner-shadow":oe,grayscale:C,"hue-rotate":D,invert:C,opacity:C,saturate:C,sepia:C};function ae(t,e,n){if(0===t)return e;if(1===t)return n;var r=e.length;if(r!==n.length)return F(t,e,n);for(var i,o=[],u=0;u<r;u++){if(e[u].type!==n[u].type)return e;if(!(i=ue[e[u].type]))return F(t,e,n);o.push({type:e.type,value:i(t,e[u].value,n[u].value)})}return o}var le={blur:function(t){return t?function(e){t.setAttribute("stdDeviation",bt(e))}:null},brightness:function(t,e,n){return(t=fe(n,e))?function(e){e=pt(e),t.map((function(t){return t.setAttribute("slope",e)}))}:null},contrast:function(t,e,n){return(t=fe(n,e))?function(e){var n=pt((1-e)/2);e=pt(e),t.map((function(t){t.setAttribute("slope",e),t.setAttribute("intercept",n)}))}:null},"drop-shadow":function(t,e,n){var r=n.getElementById(e+"-blur");if(!r)return null;var i=n.getElementById(e+"-offset");if(!i)return null;var o=n.getElementById(e+"-flood");return o?function(t){r.setAttribute("stdDeviation",bt(t.blur)),i.setAttribute("dx",pt(t.offset.x)),i.setAttribute("dy",pt(t.offset.y)),o.setAttribute("flood-color",wt(t.color))}:null},"inner-shadow":function(t,e,n){var r=n.getElementById(e+"-blur");if(!r)return null;var i=n.getElementById(e+"-offset");if(!i)return null;var o=n.getElementById(e+"-color-matrix");return o?function(t){r.setAttribute("stdDeviation",bt(t.blur)),i.setAttribute("dx",pt(t.offset.x)),i.setAttribute("dy",pt(t.offset.y));var e=[0,0,0,0,t.color.r/255,0,0,0,0,t.color.g/255,0,0,0,0,t.color.b/255,0,0,0,t.color.a,0];o.setAttribute("values",mt(e))}:null},grayscale:function(t){return t?function(e){t.setAttribute("values",mt(function(t){return[.2126+.7874*(t=1-t),.7152-.7152*t,.0722-.0722*t,0,0,.2126-.2126*t,.7152+.2848*t,.0722-.0722*t,0,0,.2126-.2126*t,.7152-.7152*t,.0722+.9278*t,0,0,0,0,0,1,0]}(e)))}:null},"hue-rotate":function(t){return t?function(e){return t.setAttribute("values",pt(e))}:null},invert:function(t,e,n){return(t=fe(n,e))?function(e){e=pt(e)+" "+pt(1-e),t.map((function(t){return t.setAttribute("tableValues",e)}))}:null},opacity:function(t,e,n){return(t=n.getElementById(e+"-A"))?function(e){return t.setAttribute("tableValues","0 "+pt(e))}:null},saturate:function(t){return t?function(e){return t.setAttribute("values",pt(e))}:null},sepia:function(t){return t?function(e){return t.setAttribute("values",mt(function(t){return[.393+.607*(t=1-t),.769-.769*t,.189-.189*t,0,0,.349-.349*t,.686+.314*t,.168-.168*t,0,0,.272-.272*t,.534-.534*t,.131+.869*t,0,0,0,0,0,1,0]}(e)))}:null}};var se=["R","G","B"];function fe(t,e){var n=se.map((function(n){return t.getElementById(e+"-"+n)||null}));return-1!==n.indexOf(null)?null:n}var ce={fill:te,"fill-opacity":Xt,stroke:te,"stroke-opacity":Xt,"stroke-width":Qt,"stroke-dashoffset":{f:pt,i:D},"stroke-dasharray":Jt,opacity:Xt,transform:function(t,e,r,i){if(!(t=function(t,e){if(!t||"object"!==n(t))return null;var r=!1;for(var i in t)t.hasOwnProperty(i)&&(t[i]&&t[i].length?(t[i].forEach((function(t){t.e&&(t.e=e(t.e))})),r=!0):delete t[i]);return r?t:null}(t,i)))return null;var o=function(n,i,o){var u=arguments.length>3&&void 0!==arguments[3]?arguments[3]:null;return t[n]?r(i,t[n],o):e&&e[n]?e[n]:u};return e&&e.a&&t.o?function(e){var n=r(e,t.o,Gt);return Wt.recomposeSelf(n,o("r",e,D,0)+n.a,o("k",e,L),o("s",e,L),o("t",e,L)).toString()}:function(t){return Wt.recomposeSelf(o("o",t,Vt,null),o("r",t,D,0),o("k",t,L),o("s",t,L),o("t",t,L)).toString()}},"#filter":function(t,e,n,r,i,o,u,a){if(!e.items||!t||!t.length)return null;var l=function(t,e){var n=(t=t.map((function(t){return t&&le[t[0]]?(e.getElementById(t[1]),le[t[0]](e.getElementById(t[1]),t[1],e)):null}))).length;return function(e){for(var r=0;r<n;r++)t[r]&&t[r](e[r].value)}}(e.items,a);return l?(t=function(t,e){return t.map((function(t){return t.e=e(t.e),t}))}(t,r),function(e){l(n(e,t,ae))}):null},"#line":Ht,points:{f:mt,i:Y},d:$t,r:Qt,"#size":At,"#radius":_t,_:function(t,e){if(Array.isArray(t))for(var n=0;n<t.length;n++)this[t[n]]=e;else this[t]=e}},he={currentTime:"offset",duration:"duration",hasEnded:function(){return this.reachedToEnd()},isAlternate:"alternate",isPlaying:"_running",isRollingBack:"_rollingBack",state:function(t,e){return e.isPlaying?e.isRollingBack?"rollback":"playing":e.hasEnded?"ended":"paused"},totalTime:"maxFiniteDuration",iterations:"iterations",direction:"direction",fill:"fill",isReversed:function(t,e){return-1===e.direction},isBackwards:function(t,e){return-1===e.fill},isInfinite:function(t,e){return 0===e.iterations},speed:"speed",fps:"fps"},ve={destruct:"destruct",pause:"pause",play:function(t,e){return de(t,e.hasEnded?"restart":"play",e)},restart:"restart",reverse:function(t,e){return de(t,"reverse",e,[!0])},seek:"seek",seekBy:"seekBy",seekTo:"seekTo",stop:"stop",toggle:"toggle",togglePlay:"toggle",set:"set"};function de(t,e,n){var r=arguments.length>3&&void 0!==arguments[3]?arguments[3]:[];return function(){var i,o=Array.prototype.slice.call(arguments);return o.unshift.apply(o,v(r)),(i=t[e]).call.apply(i,[t].concat(v(o))),n}}var ye=function t(e){r(this,t);var n={},i=["on","off"],o={get:function(t,e,r){return he[e]?"function"==typeof he[e]?he[e].call(t,t,r):t[he[e]]:ve[e]?"function"==typeof ve[e]?ve[e].call(t,t,r):de(t,ve[e],r):-1!==i.indexOf(e)?n[e]:"ready"===e?function(t){return t&&t.call(r,r),r}:void 0},set:function(t,e,r){return-1!==i.indexOf(e)&&(n[e]=r)},ownKeys:function(t){return Object.keys(he)},has:function(t,e){return void 0!==he[e]}};if("function"==typeof Proxy)return new Proxy(e,o);var u=Object.keys(he).concat(Object.keys(ve)).concat(i),a={};return u.forEach((function(t){var n={enumerable:!1,configurable:!1,get:function(){return o.get(e,t,a)}};-1!==i.indexOf(t)&&(n.set=function(n){return o.set(e,t,n)}),Object.defineProperty(a,t,n)})),a};function ge(t){t||(t=this);var e={};this.on=function(t,n){var r=arguments.length>2&&void 0!==arguments[2]&&arguments[2];return"function"==typeof n&&(t.split(/[, ]+/g).forEach((function(t){return e[t]=e[t]||[],r?e[t].unshift(n):e[t].push(n)})),!0)},this.off=function(t,n){for(var r in e)if(e.hasOwnProperty(r)&&r.substr(0,t.length)===t)if(n)for(var i=0;i<e[r].length;i++)e[r][i]===n&&(e[r][i]=null);else e[r]=null},this.trigger=function(){var n,r=Array.prototype.slice.call(arguments),i=r[0],o=r.slice(1);t:for(var u in e)if(e.hasOwnProperty(u)&&e[u]&&(u===i||u.substr(0,i.length+1)===i+"."))for(var a=0;a<(e[u]||[]).length;a++)if(e[u][a]&&!1===(n=e[u][a].apply(t,o)))break t;return n}}var pe=!0,me=["iterations","speed","fps","direction","fill","alternate"],be=function(t){!function(t,e){if("function"!=typeof e&&null!==e)throw new TypeError("Super expression must either be null or a function");t.prototype=Object.create(e&&e.prototype,{constructor:{value:t,writable:!0,configurable:!0}}),e&&l(t,e)}(u,t);var e,n,i=(e=u,n=s(),function(){var t,r=a(e);if(n){var i=a(this).constructor;t=Reflect.construct(r,arguments,i)}else t=r.apply(this,arguments);return c(this,t)});function u(t,e){var n,o=arguments.length>2&&void 0!==arguments[2]?arguments[2]:null;return r(this,u),(n=i.call(this,t,e,o))._handlers=[],n}return o(u,[{key:"_adjustOffset",value:function(){var t=arguments.length>0&&void 0!==arguments[0]&&arguments[0],e=this.alternate?2*this.duration:this.duration;if(t){if(!this._rollingBack&&0===this.offset)return void(this.offset=e);this._rollingBack&&(this.offset,this.maxFiniteDuration)}!this._rollingBack||this.rollbackStartOffset<=this.duration?0!==this.iterations&&(this.offset=Math.min(this.offset,this.maxFiniteDuration)):(this.offset=this.rollbackStartOffset-(this.rollbackStartOffset-this.offset)%e,this.rollbackStartOffset=0)}},{key:"reverse",value:function(){var t=arguments.length>0&&void 0!==arguments[0]&&arguments[0];if(!this._running)return this._adjustOffset(t),this._rollingBack=!this._rollingBack,t&&this.play(!1),void this.trigger("reverse",this.offset);this.pause(!1,!1),this._adjustOffset(),this._rollingBack=!this._rollingBack,this.play(!1),this.trigger("reverse",this.offset)}},{key:"play",value:function(){var t=arguments.length>0&&void 0!==arguments[0]?arguments[0]:pe,e=h(a(u.prototype),"play",this).call(this);return t===pe&&this.trigger("play",this.offset),e}},{key:"pause",value:function(){var t=arguments.length>0&&void 0!==arguments[0]&&arguments[0],e=arguments.length>1&&void 0!==arguments[1]?arguments[1]:pe,n=h(a(u.prototype),"pause",this).call(this);return e===pe&&this.trigger(t?"end":"pause",this.offset),n}},{key:"restart",value:function(){var t=h(a(u.prototype),"restart",this).call(this,!1);return this.trigger("restart",this.offset),t}},{key:"stop",value:function(){var t=arguments.length>0&&void 0!==arguments[0]?arguments[0]:pe,e=h(a(u.prototype),"stop",this).call(this);return t===pe&&this.trigger("stop",this.offset),e}},{key:"_apply",value:function(t){var e=this,n=arguments.length>2&&void 0!==arguments[2]?arguments[2]:pe,r=h(a(u.prototype),"_apply",this).call(this,t);if(n===pe){var i=function(){return e.trigger("keyframe",t)};window.requestAnimationFrame(i)}return r}},{key:"seekTo",value:function(t){var e,n,r,i=this._running;i&&this.pause(!1,!1),this.offset=this.iterations>0?(e=t,n=0,r=this.maxFiniteDuration,e<n?n:e>r?r:e):Math.max(t,0),this._apply(this.offset),i&&this.play(!1)}},{key:"seek",value:function(t){return this.seekTo(Math.round(t/100*this.maxFiniteDuration))}},{key:"seekBy",value:function(t){return this.seekTo(this.offset+t)}},{key:"toggle",value:function(){return this._running?this.pause():this.reachedToEnd()?this.restart():this.play()}},{key:"set",value:function(t,e){if(me.includes(t)){var n=this._running;n&&this.pause(!1,!1),this._settings[t]=e,n?this.play(!1):this._apply(this.offset,{},!1)}}},{key:"destruct",value:function(){var t=this;this.stop(),this._handlers.forEach((function(t){t.element?t.element.removeEventListener(t.event,t.handler):t.callback&&t.callback.call&&t.callback.call()}));var e=function(){},n=Object.getOwnPropertyNames(Object.getPrototypeOf(this));n.push.apply(n,v(Object.getOwnPropertyNames(this))),n.forEach((function(n){"function"==typeof t[n]?t[n]=e:delete t[n]}))}}],[{key:"build",value:function(t){var e=h(a(u),"build",this).call(this,t,ce);if(!e)return null;var n=e.el,r=e.options,i=e.player,o=new ye(i),l=new ge(o);o.on=l.on,o.off=l.off,i.trigger=l.trigger;var s=n.svgatorPlayer&&n.svgatorPlayer.ready&&n.svgatorPlayer.ready.call&&n.svgatorPlayer.ready.call();n.svgatorPlayer=o,function(t){var e,n,r=t&&1===(null===(e=t.ownerDocument)||void 0===e||null===(n=e.childNodes)||void 0===n?void 0:n.length)&&window.parent!==window,i=null==t?void 0:t.firstElementChild;if(!r||!i||"a"!==i.tagName||i.getAttribute("target"))return;i.setAttributeNS(null,"target","_parent")}(n),function(t,e,n){if("click"===n.start){var r=function(){switch(n.click){case"freeze":return!t._running&&t.reachedToEnd()?t.restart():t.toggle();case"restart":return t.offset>0?t.restart():t.play();case"reverse":return t._running?t.reverse():t.reachedToEnd()?1===t.fill?t.reverse(!0):t.restart():t.play();case"none":default:if(t._running)return;return t.reachedToEnd()?t.restart():t.play()}};return t._handlers.push({element:e,event:"click",handler:r}),void e.addEventListener("click",r)}if("hover"===n.start){var i=function(){return t.reachedToEnd()?t.restart():t._rollingBack?t.reverse():t.play()};t._handlers.push({element:e,event:"mouseenter",handler:i}),e.addEventListener("mouseenter",i);var o=function(){switch(n.hover){case"freeze":return t.pause();case"reset":return t.stop();case"reverse":if(t.reverse(),t._running)return;return t.play();case"none":default:return}};return t._handlers.push({element:e,event:"mouseleave",handler:o}),void e.addEventListener("mouseleave",o)}if("scroll"===n.start){var u=new gt(e,n.scroll||25,(function(e){e?t.reachedToEnd()?t.restart():t.play():t.pause()}));return void t._handlers.push({callback:function(){return u.destruct()}})}if("programmatic"===n.start)return;t.play()}(i,n,r),function(t,e,n){var r;"function"==typeof Event?r=new Event("ready"):(r=document.createEvent("Event")).initEvent("ready",!0,!0);if(t.dispatchEvent(r),!n||!n.length)return;n.forEach((function(t){return e.ready(t)}))}(n,n.svgatorPlayer,s)}}]),u}(yt);return be.init(),be}));
(function(s,i,o,w,d,a,b){(a=Array.from(d.querySelectorAll('svg#' + i.root)).filter(n=> !n.svgatorPlayer)[0]||{}).svgatorPlayer={ready:(function(a){b=[];return function(c){return c?(b.push(c),a.svgatorPlayer):b}})(a)};w[o]=w[o]||{};w[o][s]=w[o][s]||[];w[o][s].push(i);})('91c80d77',{"root":"derechovoto","version":"2022-05-04","animations":[{"elements":{"derechovoto-s-g1":{"opacity":[{"t":0,"v":0},{"t":700,"v":1}]},"derechovoto-s-g2":{"opacity":[{"t":1400,"v":0},{"t":2100,"v":1}]},"derechovoto-s-g3":{"opacity":[{"t":2800,"v":0},{"t":3400,"v":1}]},"derechovoto-s-g4":{"opacity":[{"t":3400,"v":0},{"t":4000,"v":1}]},"derechovoto-s-g5":{"opacity":[{"t":4000,"v":0},{"t":4600,"v":1}]},"derechovoto-s-g6":{"opacity":[{"t":4600,"v":0},{"t":5300,"v":1}]},"derechovoto-s-g7":{"opacity":[{"t":5300,"v":0},{"t":6000,"v":1}]},"derechovoto-s-g8":{"opacity":[{"t":6000,"v":0},{"t":6700,"v":1}]},"derechovoto-s-g9":{"opacity":[{"t":2100,"v":0},{"t":2800,"v":1}]},"derechovoto-s-g10":{"opacity":[{"t":700,"v":0},{"t":1400,"v":1}]}},"s":"MDUA1ZGJjNjNhNLWI2YjNNYTJiONWFhYjBYYWYW2MzdiQzc3NzQk3MTcxVDZkNHjNhNWFhYjNhHNmE0YjVhYWIKwYWY2MzdiNzFI2ZDYzYWFiNFWE2YjNhMmI1YYWFiMGFmYjQR2MzdiVTcyNmXQ2M1FhN2FhYCWRhZDYzVjdiCNzI2ZDYzYTJTCYWRiNWE2YjMNhZmEyYjVhNIjYzN2JFUGE3VYTJhZGI0YTYK2ZEU2M2I0YjIFhNmE2YTU2MDzdiNzI2ZDYzVUGE3YjFiNEsG2MzdiNzI3MTAcxYmU/"}],"options":"MDAAxZTg5MzA4MMTgyNmY4MDgyGUjMwNDgzMDgUxNzE4MDdkN2KE3YTMwM2EzMWDgxNzE4MEM3FZDdhN2EzMDQN4NDBKNDM4YgA|"},'__SVGATOR_PLAYER__',window,document)
]]></script>
</svg>
