<svg width="1113" height="258" viewBox="0 0 1113 258" fill="none" xmlns="http://www.w3.org/2000/svg">
<path d="M10.7188 202.922V87.0346H32.2793V184.057H62.1627V202.922H10.7188ZM225.531 170.977C225.531 181.81 222.782 190.107 217.287 195.867C211.844 201.627 203.971 204.508 193.665 204.508C183.573 204.508 174.985 202.526 167.904 198.562V177.24C176.571 182.895 184.524 185.721 191.763 185.721C195.885 185.721 198.977 184.584 201.037 182.313C203.151 180.041 204.208 176.95 204.208 173.039C204.208 169.18 202.966 165.667 200.482 162.497C197.998 159.273 193.904 155.706 188.196 151.795C183.229 148.36 179.451 145.084 176.862 141.966C174.325 138.796 172.342 135.255 170.915 131.345C169.542 127.434 168.855 122.89 168.855 117.711C168.855 107.776 171.604 99.9022 177.099 94.0893C182.648 88.2765 190.073 85.37 199.373 85.37C208.252 85.37 216.786 87.8536 224.976 92.821L217.842 110.101C215.305 108.621 212.636 107.3 209.836 106.138C207.088 104.975 204.128 104.394 200.958 104.394C197.471 104.394 194.776 105.557 192.873 107.882C191.024 110.154 190.099 113.272 190.099 117.235C190.099 121.146 191.208 124.554 193.428 127.46C195.7 130.367 199.638 133.67 205.239 137.369C212.795 142.442 218.053 147.621 221.013 152.905C224.024 158.19 225.531 164.214 225.531 170.977ZM359.649 144.82C359.649 158.084 357.88 169.287 354.339 178.429C350.851 187.572 345.672 194.388 338.802 198.88L360.125 230.507H335.235L319.224 204.508H318.034C304.612 204.508 294.308 199.382 287.12 189.13C279.933 178.825 276.341 164.002 276.341 144.661C276.341 125.479 279.933 110.788 287.12 100.589C294.308 90.3374 304.666 85.2114 318.193 85.2114C331.563 85.2114 341.815 90.3639 348.948 100.668C356.083 110.92 359.649 125.637 359.649 144.82ZM298.377 144.82C298.377 158.031 300.041 168.097 303.37 175.02C306.7 181.943 311.588 185.404 318.034 185.404C331.034 185.404 337.534 171.877 337.534 144.82C337.534 117.764 331.088 104.235 318.193 104.235C311.641 104.235 306.7 107.697 303.37 114.619C300.041 121.489 298.377 131.556 298.377 144.82ZM447.873 87.0346V162.021C447.873 175.813 444.755 186.356 438.519 193.648C432.284 200.888 423.274 204.508 411.49 204.508C399.969 204.508 391.198 200.914 385.174 193.727C379.149 186.487 376.136 175.813 376.136 161.704V87.0346H397.539V163.289C397.539 178.033 402.427 185.404 412.203 185.404C416.748 185.404 420.261 183.528 422.745 179.776C425.229 176.024 426.471 170.687 426.471 163.765V87.0346H447.873ZM520.164 202.922H467.927V87.0346H520.164V105.662H489.489V133.247H517.945V151.954H489.489V184.057H520.164V202.922ZM650.875 143.869C650.875 162.998 646.964 177.636 639.143 187.783C631.375 197.875 620.172 202.922 605.534 202.922H577.157V87.0346H608.149C621.625 87.0346 632.115 92.0285 639.618 102.016C647.123 111.951 650.875 125.902 650.875 143.869ZM628.76 144.503C628.76 118.609 621.625 105.662 607.357 105.662H598.718V184.057H605.693C613.567 184.057 619.38 180.781 623.131 174.227C626.883 167.622 628.76 157.714 628.76 144.503ZM720.075 202.922H667.838V87.0346H720.075V105.662H689.398V133.247H717.855V151.954H689.398V184.057H720.075V202.922ZM775.403 104.235C769.219 104.235 764.331 107.855 760.739 115.095C757.198 122.335 755.427 132.401 755.427 145.296C755.427 172.14 762.429 185.563 776.433 185.563C782.563 185.563 788.984 183.607 795.695 179.696V198.88C790.041 202.632 782.8 204.508 773.976 204.508C760.922 204.508 750.883 199.328 743.854 188.971C736.878 178.56 733.391 163.95 733.391 145.137C733.391 126.324 736.984 111.66 744.17 101.144C751.411 90.628 761.451 85.37 774.292 85.37C778.519 85.37 782.563 85.9514 786.42 87.1139C790.331 88.2765 794.505 90.3109 798.945 93.2174L791.81 110.735C789.432 109.097 786.896 107.617 784.201 106.296C781.506 104.922 778.573 104.235 775.403 104.235ZM815.987 202.922V87.0346H836.279V202.922H815.987ZM934.49 143.869C934.49 162.998 930.58 177.636 922.758 187.783C914.99 197.875 903.787 202.922 889.149 202.922H860.773V87.0346H891.765C905.24 87.0346 915.731 92.0285 923.234 102.016C930.739 111.951 934.49 125.902 934.49 143.869ZM912.375 144.503C912.375 118.609 905.24 105.662 890.972 105.662H882.333V184.057H889.308C897.182 184.057 902.995 180.781 906.747 174.227C910.498 167.622 912.375 157.714 912.375 144.503ZM1003.69 202.922H951.453V87.0346H1003.69V105.662H973.013V133.247H1001.47V151.954H973.013V184.057H1003.69V202.922ZM1101.74 202.922H1075.43L1039.6 118.979H1038.57C1039.89 125.373 1040.55 132.243 1040.55 139.588V202.922H1020.57V87.0346H1047.05L1082.56 170.106H1083.43C1082.43 164.557 1081.93 157.952 1081.93 150.289V87.0346H1101.74V202.922Z" fill="#DB3F28"/>
<path opacity="0.2" d="M155.396 144.82C155.396 164.002 151.803 178.745 144.616 189.05C137.429 199.356 127.151 204.508 113.781 204.508C100.359 204.508 90.054 199.382 82.8671 189.13C75.6803 178.825 72.0869 164.002 72.0869 144.661C72.0869 125.479 75.6803 110.788 82.8671 100.589C90.054 90.3374 100.411 85.2114 113.94 85.2114C127.309 85.2114 137.561 90.3639 144.695 100.668C151.829 110.92 155.396 125.637 155.396 144.82ZM94.123 144.82C94.123 158.031 95.7876 168.097 99.1168 175.02C102.446 181.943 107.334 185.404 113.781 185.404C126.781 185.404 133.281 171.877 133.281 144.82C133.281 117.764 126.834 104.235 113.94 104.235C107.387 104.235 102.446 107.697 99.1168 114.619C95.7876 121.489 94.123 131.556 94.123 144.82Z" fill="#DB3F28"/>
<path d="M135.571 178.363L128.913 149.114H98.7122L92.0538 178.363H70.4934L99.1879 62H128.437L157.211 178.363H135.571ZM124.87 130.011L118.687 103.06C118.317 101.422 117.472 97.3265 116.151 90.7737C114.883 84.1682 114.116 79.7557 113.852 77.5362C113.165 82.0808 112.293 87.1011 111.236 92.5969C110.179 98.0398 107.432 110.511 102.993 130.011H124.87Z" fill="#DB3F28"/>
<path d="M397.501 247.391C393.387 247.391 391.329 243.738 391.329 236.434C391.329 232.84 391.844 230.105 392.872 228.23C393.901 226.342 395.418 225.398 397.423 225.398C398.374 225.398 399.272 225.672 400.118 226.219C400.978 226.766 401.661 227.521 402.169 228.484H402.325L402.247 226.121V216.609H404.103V247H402.579L402.423 244.031H402.247C401.74 245.112 401.082 245.945 400.275 246.531C399.467 247.104 398.543 247.391 397.501 247.391ZM397.618 245.77C399.103 245.77 400.242 245.086 401.036 243.719C401.844 242.339 402.247 240.314 402.247 237.645V236.434C402.247 233.23 401.857 230.887 401.075 229.402C400.307 227.905 399.129 227.156 397.54 227.156C396.017 227.156 394.923 227.957 394.259 229.559C393.595 231.147 393.263 233.452 393.263 236.473C393.263 239.52 393.608 241.831 394.298 243.406C394.988 244.982 396.095 245.77 397.618 245.77ZM416.802 247.391C414.562 247.391 412.837 246.44 411.626 244.539C410.428 242.625 409.829 239.962 409.829 236.551C409.829 232.931 410.363 230.171 411.431 228.27C412.512 226.355 414.061 225.398 416.079 225.398C417.837 225.398 419.224 226.238 420.24 227.918C421.255 229.585 421.763 231.837 421.763 234.676V236.395H411.724C411.75 239.48 412.186 241.792 413.032 243.328C413.879 244.865 415.161 245.633 416.88 245.633C418.208 245.633 419.608 245.197 421.079 244.324V246.121C419.725 246.967 418.299 247.391 416.802 247.391ZM415.962 227.078C413.41 227.078 412.01 229.624 411.763 234.715H419.907C419.907 232.384 419.549 230.529 418.833 229.148C418.13 227.768 417.173 227.078 415.962 227.078ZM433.368 225.398C434.032 225.398 434.651 225.49 435.224 225.672L434.775 227.527C434.306 227.332 433.824 227.234 433.329 227.234C432.613 227.234 431.943 227.605 431.318 228.348C430.706 229.077 430.224 230.099 429.872 231.414C429.521 232.729 429.345 234.181 429.345 235.77V247H427.49V225.809H429.013L429.208 229.52H429.345C430.335 226.772 431.676 225.398 433.368 225.398ZM445.443 247.391C443.203 247.391 441.478 246.44 440.267 244.539C439.069 242.625 438.47 239.962 438.47 236.551C438.47 232.931 439.004 230.171 440.072 228.27C441.152 226.355 442.702 225.398 444.72 225.398C446.478 225.398 447.865 226.238 448.88 227.918C449.896 229.585 450.404 231.837 450.404 234.676V236.395H440.365C440.391 239.48 440.827 241.792 441.673 243.328C442.519 244.865 443.802 245.633 445.521 245.633C446.849 245.633 448.249 245.197 449.72 244.324V246.121C448.366 246.967 446.94 247.391 445.443 247.391ZM444.603 227.078C442.051 227.078 440.651 229.624 440.404 234.715H448.548C448.548 232.384 448.19 230.529 447.474 229.148C446.771 227.768 445.814 227.078 444.603 227.078ZM461.579 247.391C459.457 247.391 457.855 246.473 456.775 244.637C455.707 242.788 455.173 240.079 455.173 236.512C455.173 232.892 455.713 230.138 456.794 228.25C457.888 226.349 459.496 225.398 461.618 225.398C462.934 225.398 464.027 225.639 464.9 226.121L464.177 227.762C463.305 227.358 462.504 227.156 461.775 227.156C458.663 227.156 457.107 230.262 457.107 236.473C457.107 242.632 458.663 245.711 461.775 245.711C462.699 245.711 463.702 245.503 464.782 245.086V246.648C464.353 246.883 463.825 247.065 463.2 247.195C462.575 247.326 462.035 247.391 461.579 247.391ZM479.122 247V232.391C479.122 230.477 478.868 229.122 478.361 228.328C477.866 227.521 477.052 227.117 475.919 227.117C474.422 227.117 473.295 227.781 472.54 229.109C471.785 230.438 471.407 232.534 471.407 235.398V247H469.552V216.609H471.407V226.473C471.407 227.371 471.381 228.12 471.329 228.719H471.486C471.902 227.664 472.527 226.85 473.361 226.277C474.207 225.691 475.086 225.398 475.997 225.398C477.794 225.398 479.07 225.984 479.825 227.156C480.581 228.328 480.958 230.073 480.958 232.391V247H479.122ZM499.478 236.355C499.478 239.923 498.911 242.658 497.779 244.559C496.659 246.447 495.051 247.391 492.954 247.391C490.884 247.391 489.295 246.447 488.189 244.559C487.095 242.658 486.548 239.923 486.548 236.355C486.548 229.051 488.71 225.398 493.032 225.398C495.064 225.398 496.646 226.355 497.779 228.27C498.911 230.184 499.478 232.879 499.478 236.355ZM488.482 236.355C488.482 239.415 488.846 241.727 489.575 243.289C490.305 244.852 491.444 245.633 492.993 245.633C496.027 245.633 497.544 242.54 497.544 236.355C497.544 230.223 496.027 227.156 492.993 227.156C491.405 227.156 490.253 227.924 489.536 229.461C488.833 230.997 488.482 233.296 488.482 236.355ZM513.466 241.688C513.466 243.471 512.997 244.871 512.06 245.887C511.122 246.889 509.768 247.391 507.997 247.391C507.034 247.391 506.187 247.267 505.458 247.02C504.729 246.772 504.163 246.499 503.759 246.199V244.031C504.241 244.513 504.879 244.904 505.673 245.203C506.467 245.49 507.281 245.633 508.115 245.633C509.208 245.633 510.068 245.275 510.693 244.559C511.318 243.842 511.63 242.885 511.63 241.688C511.63 240.75 511.402 239.962 510.947 239.324C510.504 238.673 509.651 237.938 508.388 237.117C506.943 236.206 505.953 235.477 505.419 234.93C504.898 234.383 504.488 233.771 504.189 233.094C503.902 232.417 503.759 231.609 503.759 230.672C503.759 229.148 504.273 227.892 505.302 226.902C506.331 225.9 507.639 225.398 509.228 225.398C510.934 225.398 512.359 225.802 513.505 226.609L512.548 228.23C511.48 227.514 510.348 227.156 509.15 227.156C508.056 227.156 507.184 227.482 506.532 228.133C505.881 228.771 505.556 229.617 505.556 230.672C505.556 231.609 505.777 232.397 506.22 233.035C506.663 233.66 507.6 234.422 509.032 235.32C510.439 236.245 511.402 236.987 511.923 237.547C512.444 238.094 512.828 238.706 513.075 239.383C513.336 240.047 513.466 240.815 513.466 241.688ZM534.118 247.391C533.051 247.391 532.074 247.098 531.189 246.512C530.316 245.913 529.652 245.099 529.197 244.07H529.021L529.157 246.395V256.609H527.302V225.809H528.825L529.021 228.719H529.197C529.717 227.651 530.381 226.831 531.189 226.258C532.009 225.685 532.901 225.398 533.865 225.398C538.005 225.398 540.075 229.051 540.075 236.355C540.075 239.884 539.568 242.605 538.552 244.52C537.536 246.434 536.059 247.391 534.118 247.391ZM533.747 227.156C532.198 227.156 531.045 227.84 530.29 229.207C529.535 230.574 529.157 232.716 529.157 235.633V236.238C529.157 239.493 529.542 241.889 530.31 243.426C531.078 244.949 532.25 245.711 533.825 245.711C535.284 245.711 536.365 244.956 537.068 243.445C537.784 241.922 538.142 239.559 538.142 236.355C538.142 233.296 537.81 230.997 537.146 229.461C536.482 227.924 535.349 227.156 533.747 227.156ZM557.697 236.355C557.697 239.923 557.13 242.658 555.997 244.559C554.878 246.447 553.269 247.391 551.173 247.391C549.103 247.391 547.514 246.447 546.407 244.559C545.314 242.658 544.767 239.923 544.767 236.355C544.767 229.051 546.928 225.398 551.251 225.398C553.282 225.398 554.865 226.355 555.997 228.27C557.13 230.184 557.697 232.879 557.697 236.355ZM546.7 236.355C546.7 239.415 547.065 241.727 547.794 243.289C548.523 244.852 549.663 245.633 551.212 245.633C554.246 245.633 555.763 242.54 555.763 236.355C555.763 230.223 554.246 227.156 551.212 227.156C549.624 227.156 548.471 227.924 547.755 229.461C547.052 230.997 546.7 233.296 546.7 236.355ZM565.22 247H563.365V216.609H565.22V247ZM573.759 247H571.904V225.809H573.759V247ZM571.279 222.762V222.352C572.932 220.19 574.176 218.191 575.009 216.355H577.45V216.688C576.943 217.599 576.168 218.647 575.126 219.832C574.098 221.017 573.121 221.993 572.197 222.762H571.279ZM584.329 245.672C584.902 245.672 585.41 245.594 585.853 245.438V247C585.28 247.26 584.544 247.391 583.646 247.391C581.458 247.391 580.365 245.757 580.365 242.488V227.449H578.45V226.355L580.325 225.809L580.931 220.77H582.22V225.809H585.579V227.449H582.22V241.961C582.22 243.393 582.376 244.37 582.689 244.891C583.001 245.411 583.548 245.672 584.329 245.672ZM592.087 247H590.232V225.809H592.087V247ZM589.958 219.93C589.958 219.344 590.075 218.888 590.31 218.562C590.557 218.237 590.87 218.074 591.247 218.074C591.599 218.074 591.879 218.237 592.087 218.562C592.295 218.888 592.4 219.344 592.4 219.93C592.4 220.49 592.295 220.939 592.087 221.277C591.879 221.603 591.599 221.766 591.247 221.766C590.87 221.766 590.557 221.603 590.31 221.277C590.075 220.939 589.958 220.49 589.958 219.93ZM604.22 247.391C602.098 247.391 600.496 246.473 599.415 244.637C598.348 242.788 597.814 240.079 597.814 236.512C597.814 232.892 598.354 230.138 599.435 228.25C600.529 226.349 602.137 225.398 604.259 225.398C605.574 225.398 606.668 225.639 607.54 226.121L606.818 227.762C605.945 227.358 605.144 227.156 604.415 227.156C601.303 227.156 599.747 230.262 599.747 236.473C599.747 242.632 601.303 245.711 604.415 245.711C605.34 245.711 606.342 245.503 607.423 245.086V246.648C606.993 246.883 606.466 247.065 605.841 247.195C605.216 247.326 604.676 247.391 604.22 247.391ZM624.126 236.355C624.126 239.923 623.56 242.658 622.427 244.559C621.307 246.447 619.699 247.391 617.603 247.391C615.532 247.391 613.944 246.447 612.837 244.559C611.743 242.658 611.197 239.923 611.197 236.355C611.197 229.051 613.358 225.398 617.681 225.398C619.712 225.398 621.294 226.355 622.427 228.27C623.56 230.184 624.126 232.879 624.126 236.355ZM613.13 236.355C613.13 239.415 613.495 241.727 614.224 243.289C614.953 244.852 616.092 245.633 617.642 245.633C620.676 245.633 622.193 242.54 622.193 236.355C622.193 230.223 620.676 227.156 617.642 227.156C616.053 227.156 614.901 227.924 614.185 229.461C613.482 230.997 613.13 233.296 613.13 236.355ZM638.115 241.688C638.115 243.471 637.646 244.871 636.708 245.887C635.771 246.889 634.417 247.391 632.646 247.391C631.682 247.391 630.836 247.267 630.107 247.02C629.378 246.772 628.811 246.499 628.407 246.199V244.031C628.889 244.513 629.527 244.904 630.322 245.203C631.116 245.49 631.93 245.633 632.763 245.633C633.857 245.633 634.716 245.275 635.341 244.559C635.966 243.842 636.279 242.885 636.279 241.688C636.279 240.75 636.051 239.962 635.595 239.324C635.152 238.673 634.299 237.938 633.036 237.117C631.591 236.206 630.601 235.477 630.068 234.93C629.547 234.383 629.137 233.771 628.837 233.094C628.551 232.417 628.407 231.609 628.407 230.672C628.407 229.148 628.922 227.892 629.95 226.902C630.979 225.9 632.288 225.398 633.876 225.398C635.582 225.398 637.008 225.802 638.154 226.609L637.197 228.23C636.129 227.514 634.996 227.156 633.798 227.156C632.704 227.156 631.832 227.482 631.181 228.133C630.53 228.771 630.204 229.617 630.204 230.672C630.204 231.609 630.426 232.397 630.868 233.035C631.311 233.66 632.249 234.422 633.681 235.32C635.087 236.245 636.051 236.987 636.572 237.547C637.092 238.094 637.476 238.706 637.724 239.383C637.984 240.047 638.115 240.815 638.115 241.688ZM657.126 247.391C653.012 247.391 650.954 243.738 650.954 236.434C650.954 232.84 651.469 230.105 652.497 228.23C653.526 226.342 655.043 225.398 657.048 225.398C657.999 225.398 658.897 225.672 659.743 226.219C660.603 226.766 661.286 227.521 661.794 228.484H661.95L661.872 226.121V216.609H663.728V247H662.204L662.048 244.031H661.872C661.365 245.112 660.707 245.945 659.9 246.531C659.092 247.104 658.168 247.391 657.126 247.391ZM657.243 245.77C658.728 245.77 659.867 245.086 660.661 243.719C661.469 242.339 661.872 240.314 661.872 237.645V236.434C661.872 233.23 661.482 230.887 660.7 229.402C659.932 227.905 658.754 227.156 657.165 227.156C655.642 227.156 654.548 227.957 653.884 229.559C653.22 231.147 652.888 233.452 652.888 236.473C652.888 239.52 653.233 241.831 653.923 243.406C654.613 244.982 655.72 245.77 657.243 245.77ZM676.427 247.391C674.187 247.391 672.462 246.44 671.251 244.539C670.053 242.625 669.454 239.962 669.454 236.551C669.454 232.931 669.988 230.171 671.056 228.27C672.137 226.355 673.686 225.398 675.704 225.398C677.462 225.398 678.849 226.238 679.865 227.918C680.88 229.585 681.388 231.837 681.388 234.676V236.395H671.349C671.375 239.48 671.811 241.792 672.657 243.328C673.504 244.865 674.786 245.633 676.505 245.633C677.833 245.633 679.233 245.197 680.704 244.324V246.121C679.35 246.967 677.924 247.391 676.427 247.391ZM675.587 227.078C673.035 227.078 671.635 229.624 671.388 234.715H679.532C679.532 232.384 679.174 230.529 678.458 229.148C677.755 227.768 676.798 227.078 675.587 227.078ZM697.509 247H695.654V216.609H697.509V247ZM712.396 247L712.161 244.031H712.083C711.068 246.271 709.531 247.391 707.474 247.391C706.094 247.391 704.98 246.844 704.134 245.75C703.301 244.643 702.884 243.165 702.884 241.316C702.884 239.298 703.49 237.703 704.7 236.531C705.911 235.346 707.611 234.702 709.798 234.598L712.083 234.48V232.723C712.083 230.743 711.836 229.305 711.341 228.406C710.846 227.495 710.026 227.039 708.88 227.039C707.669 227.039 706.432 227.436 705.169 228.23L704.368 226.766C705.84 225.854 707.383 225.398 708.997 225.398C710.742 225.398 711.999 225.952 712.767 227.059C713.535 228.152 713.919 229.988 713.919 232.566V247H712.396ZM707.884 245.809C709.212 245.809 710.241 245.158 710.97 243.855C711.712 242.54 712.083 240.685 712.083 238.289V236.082L709.876 236.199C708.17 236.29 706.901 236.766 706.068 237.625C705.247 238.471 704.837 239.715 704.837 241.355C704.837 242.892 705.111 244.018 705.657 244.734C706.204 245.451 706.947 245.809 707.884 245.809ZM728.825 241.688C728.825 243.471 728.357 244.871 727.419 245.887C726.482 246.889 725.128 247.391 723.357 247.391C722.393 247.391 721.547 247.267 720.818 247.02C720.088 246.772 719.522 246.499 719.118 246.199V244.031C719.6 244.513 720.238 244.904 721.032 245.203C721.827 245.49 722.641 245.633 723.474 245.633C724.568 245.633 725.427 245.275 726.052 244.559C726.677 243.842 726.99 242.885 726.99 241.688C726.99 240.75 726.762 239.962 726.306 239.324C725.863 238.673 725.01 237.938 723.747 237.117C722.302 236.206 721.312 235.477 720.779 234.93C720.258 234.383 719.848 233.771 719.548 233.094C719.262 232.417 719.118 231.609 719.118 230.672C719.118 229.148 719.633 227.892 720.661 226.902C721.69 225.9 722.999 225.398 724.587 225.398C726.293 225.398 727.719 225.802 728.865 226.609L727.907 228.23C726.84 227.514 725.707 227.156 724.509 227.156C723.415 227.156 722.543 227.482 721.892 228.133C721.241 228.771 720.915 229.617 720.915 230.672C720.915 231.609 721.137 232.397 721.579 233.035C722.022 233.66 722.96 234.422 724.392 235.32C725.798 236.245 726.762 236.987 727.282 237.547C727.803 238.094 728.187 238.706 728.435 239.383C728.695 240.047 728.825 240.815 728.825 241.688ZM760.669 247V232.566C760.669 229.012 759.628 227.234 757.544 227.234C756.112 227.234 755.077 227.859 754.439 229.109C753.814 230.346 753.501 232.176 753.501 234.598V247H751.665V232.566C751.665 230.77 751.411 229.435 750.904 228.562C750.396 227.677 749.608 227.234 748.54 227.234C747.134 227.234 746.112 227.872 745.474 229.148C744.836 230.424 744.517 232.495 744.517 235.359V247H742.661V225.809H744.224L744.38 228.758H744.556C745.402 226.518 746.841 225.398 748.872 225.398C750.044 225.398 750.969 225.711 751.646 226.336C752.323 226.961 752.811 227.872 753.111 229.07C753.618 227.768 754.243 226.831 754.986 226.258C755.728 225.685 756.691 225.398 757.876 225.398C759.478 225.398 760.65 226.017 761.392 227.254C762.134 228.478 762.505 230.444 762.505 233.152V247H760.669ZM770.907 225.809V239.637C770.907 241.733 771.155 243.263 771.65 244.227C772.157 245.19 772.932 245.672 773.974 245.672C775.575 245.672 776.747 245.027 777.49 243.738C778.245 242.436 778.622 240.34 778.622 237.449V225.809H780.458V247H778.896L778.661 244.031H778.505C778.049 245.112 777.418 245.945 776.611 246.531C775.803 247.104 774.924 247.391 773.974 247.391C772.268 247.391 771.018 246.785 770.224 245.574C769.443 244.363 769.052 242.384 769.052 239.637V225.809H770.907ZM785.521 256.609C784.974 256.609 784.538 256.499 784.212 256.277V254.52C784.629 254.728 785.039 254.832 785.443 254.832C786.055 254.832 786.484 254.533 786.732 253.934C786.992 253.348 787.122 252.436 787.122 251.199V225.809H788.978V250.926C788.978 252.866 788.698 254.298 788.138 255.223C787.578 256.147 786.706 256.609 785.521 256.609ZM786.849 219.93C786.849 219.344 786.966 218.888 787.2 218.562C787.448 218.237 787.76 218.074 788.138 218.074C788.49 218.074 788.769 218.237 788.978 218.562C789.186 218.888 789.29 219.344 789.29 219.93C789.29 220.49 789.186 220.939 788.978 221.277C788.769 221.603 788.49 221.766 788.138 221.766C787.76 221.766 787.448 221.603 787.2 221.277C786.966 220.939 786.849 220.49 786.849 219.93ZM801.677 247.391C799.437 247.391 797.712 246.44 796.501 244.539C795.303 242.625 794.704 239.962 794.704 236.551C794.704 232.931 795.238 230.171 796.306 228.27C797.387 226.355 798.936 225.398 800.954 225.398C802.712 225.398 804.099 226.238 805.115 227.918C806.13 229.585 806.638 231.837 806.638 234.676V236.395H796.599C796.625 239.48 797.061 241.792 797.907 243.328C798.754 244.865 800.036 245.633 801.755 245.633C803.083 245.633 804.483 245.197 805.954 244.324V246.121C804.6 246.967 803.174 247.391 801.677 247.391ZM800.837 227.078C798.285 227.078 796.885 229.624 796.638 234.715H804.782C804.782 232.384 804.424 230.529 803.708 229.148C803.005 227.768 802.048 227.078 800.837 227.078ZM818.243 225.398C818.907 225.398 819.526 225.49 820.099 225.672L819.65 227.527C819.181 227.332 818.699 227.234 818.204 227.234C817.488 227.234 816.818 227.605 816.193 228.348C815.581 229.077 815.099 230.099 814.747 231.414C814.396 232.729 814.22 234.181 814.22 235.77V247H812.365V225.809H813.888L814.083 229.52H814.22C815.21 226.772 816.551 225.398 818.243 225.398ZM830.318 247.391C828.078 247.391 826.353 246.44 825.142 244.539C823.944 242.625 823.345 239.962 823.345 236.551C823.345 232.931 823.879 230.171 824.947 228.27C826.027 226.355 827.577 225.398 829.595 225.398C831.353 225.398 832.74 226.238 833.755 227.918C834.771 229.585 835.279 231.837 835.279 234.676V236.395H825.24C825.266 239.48 825.702 241.792 826.548 243.328C827.394 244.865 828.677 245.633 830.396 245.633C831.724 245.633 833.124 245.197 834.595 244.324V246.121C833.241 246.967 831.815 247.391 830.318 247.391ZM829.478 227.078C826.926 227.078 825.526 229.624 825.279 234.715H833.423C833.423 232.384 833.065 230.529 832.349 229.148C831.646 227.768 830.689 227.078 829.478 227.078ZM849.325 241.688C849.325 243.471 848.857 244.871 847.919 245.887C846.982 246.889 845.628 247.391 843.857 247.391C842.893 247.391 842.047 247.267 841.318 247.02C840.588 246.772 840.022 246.499 839.618 246.199V244.031C840.1 244.513 840.738 244.904 841.532 245.203C842.327 245.49 843.141 245.633 843.974 245.633C845.068 245.633 845.927 245.275 846.552 244.559C847.177 243.842 847.49 242.885 847.49 241.688C847.49 240.75 847.262 239.962 846.806 239.324C846.363 238.673 845.51 237.938 844.247 237.117C842.802 236.206 841.812 235.477 841.279 234.93C840.758 234.383 840.348 233.771 840.048 233.094C839.762 232.417 839.618 231.609 839.618 230.672C839.618 229.148 840.133 227.892 841.161 226.902C842.19 225.9 843.499 225.398 845.087 225.398C846.793 225.398 848.219 225.802 849.365 226.609L848.407 228.23C847.34 227.514 846.207 227.156 845.009 227.156C843.915 227.156 843.043 227.482 842.392 228.133C841.741 228.771 841.415 229.617 841.415 230.672C841.415 231.609 841.637 232.397 842.079 233.035C842.522 233.66 843.46 234.422 844.892 235.32C846.298 236.245 847.262 236.987 847.782 237.547C848.303 238.094 848.687 238.706 848.935 239.383C849.195 240.047 849.325 240.815 849.325 241.688ZM869.177 247.391C866.937 247.391 865.212 246.44 864.001 244.539C862.803 242.625 862.204 239.962 862.204 236.551C862.204 232.931 862.738 230.171 863.806 228.27C864.887 226.355 866.436 225.398 868.454 225.398C870.212 225.398 871.599 226.238 872.615 227.918C873.63 229.585 874.138 231.837 874.138 234.676V236.395H864.099C864.125 239.48 864.561 241.792 865.407 243.328C866.254 244.865 867.536 245.633 869.255 245.633C870.583 245.633 871.983 245.197 873.454 244.324V246.121C872.1 246.967 870.674 247.391 869.177 247.391ZM868.337 227.078C865.785 227.078 864.385 229.624 864.138 234.715H872.282C872.282 232.384 871.924 230.529 871.208 229.148C870.505 227.768 869.548 227.078 868.337 227.078ZM889.435 247V232.391C889.435 228.875 888.393 227.117 886.31 227.117C884.721 227.117 883.556 227.775 882.814 229.09C882.085 230.405 881.72 232.495 881.72 235.359V247H879.865V225.809H881.427L881.583 228.758H881.759C882.202 227.69 882.84 226.863 883.673 226.277C884.506 225.691 885.398 225.398 886.349 225.398C887.99 225.398 889.22 225.952 890.04 227.059C890.861 228.152 891.271 229.917 891.271 232.352V247H889.435ZM917.49 247L914.97 236.648H908.036L905.556 247H903.564L910.439 218.445H912.411L919.443 247H917.49ZM914.521 234.715L912.001 224.07C911.741 222.872 911.539 221.74 911.396 220.672C911.279 221.805 911.096 222.938 910.849 224.07L908.407 234.715H914.521ZM941.302 247V232.566C941.302 229.012 940.26 227.234 938.177 227.234C936.745 227.234 935.71 227.859 935.072 229.109C934.447 230.346 934.134 232.176 934.134 234.598V247H932.298V232.566C932.298 230.77 932.044 229.435 931.536 228.562C931.029 227.677 930.241 227.234 929.173 227.234C927.767 227.234 926.745 227.872 926.107 229.148C925.469 230.424 925.15 232.495 925.15 235.359V247H923.294V225.809H924.857L925.013 228.758H925.189C926.035 226.518 927.474 225.398 929.505 225.398C930.677 225.398 931.601 225.711 932.279 226.336C932.956 226.961 933.444 227.872 933.743 229.07C934.251 227.768 934.876 226.831 935.618 226.258C936.361 225.685 937.324 225.398 938.509 225.398C940.111 225.398 941.282 226.017 942.025 227.254C942.767 228.478 943.138 230.444 943.138 233.152V247H941.302ZM955.779 247.391C953.539 247.391 951.814 246.44 950.603 244.539C949.405 242.625 948.806 239.962 948.806 236.551C948.806 232.931 949.34 230.171 950.407 228.27C951.488 226.355 953.038 225.398 955.056 225.398C956.814 225.398 958.2 226.238 959.216 227.918C960.232 229.585 960.74 231.837 960.74 234.676V236.395H950.7C950.726 239.48 951.163 241.792 952.009 243.328C952.855 244.865 954.138 245.633 955.857 245.633C957.185 245.633 958.585 245.197 960.056 244.324V246.121C958.702 246.967 957.276 247.391 955.779 247.391ZM954.939 227.078C952.387 227.078 950.987 229.624 950.74 234.715H958.884C958.884 232.384 958.526 230.529 957.81 229.148C957.107 227.768 956.15 227.078 954.939 227.078ZM953.63 222.762V222.352C955.284 220.19 956.527 218.191 957.361 216.355H959.802V216.688C959.294 217.599 958.519 218.647 957.478 219.832C956.449 221.017 955.473 221.993 954.548 222.762H953.63ZM972.345 225.398C973.009 225.398 973.628 225.49 974.2 225.672L973.751 227.527C973.282 227.332 972.801 227.234 972.306 227.234C971.59 227.234 970.919 227.605 970.294 228.348C969.682 229.077 969.2 230.099 968.849 231.414C968.497 232.729 968.322 234.181 968.322 235.77V247H966.466V225.809H967.99L968.185 229.52H968.322C969.311 226.772 970.652 225.398 972.345 225.398ZM980.259 247H978.404V225.809H980.259V247ZM978.13 219.93C978.13 219.344 978.247 218.888 978.482 218.562C978.729 218.237 979.042 218.074 979.419 218.074C979.771 218.074 980.051 218.237 980.259 218.562C980.467 218.888 980.572 219.344 980.572 219.93C980.572 220.49 980.467 220.939 980.259 221.277C980.051 221.603 979.771 221.766 979.419 221.766C979.042 221.766 978.729 221.603 978.482 221.277C978.247 220.939 978.13 220.49 978.13 219.93ZM992.392 247.391C990.269 247.391 988.668 246.473 987.587 244.637C986.519 242.788 985.986 240.079 985.986 236.512C985.986 232.892 986.526 230.138 987.607 228.25C988.7 226.349 990.309 225.398 992.431 225.398C993.746 225.398 994.84 225.639 995.712 226.121L994.99 227.762C994.117 227.358 993.316 227.156 992.587 227.156C989.475 227.156 987.919 230.262 987.919 236.473C987.919 242.632 989.475 245.711 992.587 245.711C993.512 245.711 994.514 245.503 995.595 245.086V246.648C995.165 246.883 994.638 247.065 994.013 247.195C993.388 247.326 992.848 247.391 992.392 247.391ZM1008.57 247L1008.33 244.031H1008.26C1007.24 246.271 1005.7 247.391 1003.65 247.391C1002.27 247.391 1001.15 246.844 1000.31 245.75C999.473 244.643 999.056 243.165 999.056 241.316C999.056 239.298 999.661 237.703 1000.87 236.531C1002.08 235.346 1003.78 234.702 1005.97 234.598L1008.26 234.48V232.723C1008.26 230.743 1008.01 229.305 1007.51 228.406C1007.02 227.495 1006.2 227.039 1005.05 227.039C1003.84 227.039 1002.6 227.436 1001.34 228.23L1000.54 226.766C1002.01 225.854 1003.55 225.398 1005.17 225.398C1006.91 225.398 1008.17 225.952 1008.94 227.059C1009.71 228.152 1010.09 229.988 1010.09 232.566V247H1008.57ZM1004.06 245.809C1005.38 245.809 1006.41 245.158 1007.14 243.855C1007.88 242.54 1008.26 240.685 1008.26 238.289V236.082L1006.05 236.199C1004.34 236.29 1003.07 236.766 1002.24 237.625C1001.42 238.471 1001.01 239.715 1001.01 241.355C1001.01 242.892 1001.28 244.018 1001.83 244.734C1002.38 245.451 1003.12 245.809 1004.06 245.809ZM1025.51 247V218.445H1027.42V245.164H1035.47V247H1025.51ZM1048.33 247L1048.09 244.031H1048.01C1047 246.271 1045.46 247.391 1043.4 247.391C1042.02 247.391 1040.91 246.844 1040.06 245.75C1039.23 244.643 1038.81 243.165 1038.81 241.316C1038.81 239.298 1039.42 237.703 1040.63 236.531C1041.84 235.346 1043.54 234.702 1045.73 234.598L1048.01 234.48V232.723C1048.01 230.743 1047.77 229.305 1047.27 228.406C1046.78 227.495 1045.96 227.039 1044.81 227.039C1043.6 227.039 1042.36 227.436 1041.1 228.23L1040.3 226.766C1041.77 225.854 1043.31 225.398 1044.93 225.398C1046.67 225.398 1047.93 225.952 1048.7 227.059C1049.46 228.152 1049.85 229.988 1049.85 232.566V247H1048.33ZM1043.81 245.809C1045.14 245.809 1046.17 245.158 1046.9 243.855C1047.64 242.54 1048.01 240.685 1048.01 238.289V236.082L1045.81 236.199C1044.1 236.29 1042.83 236.766 1042 237.625C1041.18 238.471 1040.77 239.715 1040.77 241.355C1040.77 242.892 1041.04 244.018 1041.59 244.734C1042.13 245.451 1042.88 245.809 1043.81 245.809ZM1060.32 245.672C1060.89 245.672 1061.4 245.594 1061.84 245.438V247C1061.27 247.26 1060.54 247.391 1059.64 247.391C1057.45 247.391 1056.36 245.757 1056.36 242.488V227.449H1054.44V226.355L1056.32 225.809L1056.92 220.77H1058.21V225.809H1061.57V227.449H1058.21V241.961C1058.21 243.393 1058.37 244.37 1058.68 244.891C1058.99 245.411 1059.54 245.672 1060.32 245.672ZM1068.08 247H1066.22V225.809H1068.08V247ZM1065.95 219.93C1065.95 219.344 1066.07 218.888 1066.3 218.562C1066.55 218.237 1066.86 218.074 1067.24 218.074C1067.59 218.074 1067.87 218.237 1068.08 218.562C1068.29 218.888 1068.39 219.344 1068.39 219.93C1068.39 220.49 1068.29 220.939 1068.08 221.277C1067.87 221.603 1067.59 221.766 1067.24 221.766C1066.86 221.766 1066.55 221.603 1066.3 221.277C1066.07 220.939 1065.95 220.49 1065.95 219.93ZM1084.33 247V232.391C1084.33 228.875 1083.29 227.117 1081.21 227.117C1079.62 227.117 1078.45 227.775 1077.71 229.09C1076.98 230.405 1076.62 232.495 1076.62 235.359V247H1074.76V225.809H1076.33L1076.48 228.758H1076.66C1077.1 227.69 1077.74 226.863 1078.57 226.277C1079.4 225.691 1080.3 225.398 1081.25 225.398C1082.89 225.398 1084.12 225.952 1084.94 227.059C1085.76 228.152 1086.17 229.917 1086.17 232.352V247H1084.33ZM1100.96 247L1100.72 244.031H1100.65C1099.63 246.271 1098.09 247.391 1096.04 247.391C1094.66 247.391 1093.54 246.844 1092.7 245.75C1091.86 244.643 1091.45 243.165 1091.45 241.316C1091.45 239.298 1092.05 237.703 1093.26 236.531C1094.47 235.346 1096.17 234.702 1098.36 234.598L1100.65 234.48V232.723C1100.65 230.743 1100.4 229.305 1099.9 228.406C1099.41 227.495 1098.59 227.039 1097.44 227.039C1096.23 227.039 1094.99 227.436 1093.73 228.23L1092.93 226.766C1094.4 225.854 1095.95 225.398 1097.56 225.398C1099.3 225.398 1100.56 225.952 1101.33 227.059C1102.1 228.152 1102.48 229.988 1102.48 232.566V247H1100.96ZM1096.45 245.809C1097.77 245.809 1098.8 245.158 1099.53 243.855C1100.27 242.54 1100.65 240.685 1100.65 238.289V236.082L1098.44 236.199C1096.73 236.29 1095.46 236.766 1094.63 237.625C1093.81 238.471 1093.4 239.715 1093.4 241.355C1093.4 242.892 1093.67 244.018 1094.22 244.734C1094.77 245.451 1095.51 245.809 1096.45 245.809Z" fill="#DB3F28"/>
</svg>
